0
SECTION
2
HEADER
9
$HANDSEED
5
4969
9
$INSUNITS
70
1
9
$ACADVER
1
AC1021
0
ENDSEC
0
SECTION
2
CLASSES
0
ENDSEC
0
SECTION
2
TABLES
0
TABLE
2
LTYPE
5
4967
330
0
100
AcDbSymbolTable
70
5
0
LTYPE
5
4940
330
4967
100
AcDbSymbolTableRecord
100
AcDbLinetypeTableRecord
2
CONTINUOUS
3
______
70
0
72
65
73
0
40
0
0
LTYPE
5
4941
330
4967
100
AcDbSymbolTableRecord
100
AcDbLinetypeTableRecord
2
DASHED
3
_ _ _ 
70
0
72
65
73
2
40
10
49
5
74
0
49
-5
74
0
0
LTYPE
5
4942
330
4967
100
AcDbSymbolTableRecord
100
AcDbLinetypeTableRecord
2
DOTTED
3
. . . 
70
0
72
65
73
2
40
5
49
0
74
0
49
-5
74
0
0
LTYPE
5
4944
330
4967
100
AcDbSymbolTableRecord
100
AcDbLinetypeTableRecord
2
ByBlock
3

70
0
72
65
73
0
40
0
0
LTYPE
5
4945
330
4967
100
AcDbSymbolTableRecord
100
AcDbLinetypeTableRecord
2
ByLayer
3

70
0
72
65
73
0
40
0
0
ENDTAB
0
TABLE
2
LAYER
5
4968
330
0
100
AcDbSymbolTable
70
1
0
LAYER
5
4943
330
4968
100
AcDbSymbolTableRecord
100
AcDbLayerTableRecord
2
0
62
7
70
0
6
CONTINUOUS
390
1
0
ENDTAB
0
TABLE
2
VPORT
5
4946
330
0
100
AcDbSymbolTable
70
1
0
VPORT
5
494C
330
4946
100
AcDbSymbolTableRecord
100
AcDbViewportTableRecord
2
*ACTIVE
40
1000
70
0
0
ENDTAB
0
TABLE
2
STYLE
5
4947
330
0
100
AcDbSymbolTable
70
1
0
STYLE
5
494D
330
4947
100
AcDbSymbolTableRecord
100
AcDbTextStyleTableRecord
2
standard
70
0
40
0
41
1
50
0
71
0
42
1
3
txt
4

0
ENDTAB
0
TABLE
2
VIEW
5
4948
330
0
100
AcDbSymbolTable
70
0
0
ENDTAB
0
TABLE
2
UCS
5
4949
330
0
100
AcDbSymbolTable
70
0
0
ENDTAB
0
TABLE
2
APPID
5
494A
330
0
100
AcDbSymbolTable
70
1
0
APPID
5
494E
330
494A
100
AcDbSymbolTableRecord
100
AcDbRegAppTableRecord
2
ACAD
70
0
0
ENDTAB
0
TABLE
2
DIMSTYLE
5
494B
330
0
100
AcDbSymbolTable
100
AcDbDimStyleTable
70
0
71
1
0
ENDTAB
0
TABLE
2
BLOCK_RECORD
5
4964
330
0
100
AcDbSymbolTable
70
2
0
BLOCK_RECORD
5
4965
330
4964
100
AcDbSymbolTableRecord
100
AcDbBlockTableRecord
2
*Model_Space
70
0
280
0
281
1
0
BLOCK_RECORD
5
4966
330
4964
100
AcDbSymbolTableRecord
100
AcDbBlockTableRecord
2
*Paper_Space
70
0
280
0
281
1
0
ENDTAB
0
ENDSEC
0
SECTION
2
BLOCKS
0
BLOCK
5
494F
330
0
100
AcDbEntity
100
AcDbBlockBegin
2
*Model_Space
70
0
10
0
20
0
30
0
3
*Model_Space
1

0
ENDBLK
5
4950
330
0
100
AcDbEntity
100
AcDbBlockEnd
0
BLOCK
5
4951
330
0
100
AcDbEntity
100
AcDbBlockBegin
2
*Paper_Space
70
0
10
0
20
0
30
0
3
*Paper_Space
1

0
ENDBLK
5
4952
330
0
100
AcDbEntity
100
AcDbBlockEnd
0
ENDSEC
0
SECTION
2
ENTITIES
0
LINE
5
4954
330
494F
100
AcDbEntity
100
AcDbLine
8
0
10
-0.64
20
-1
30
0
11
0.64
21
-1
31
0
0
ARC
5
4955
330
494F
100
AcDbEntity
100
AcDbCircle
8
0
10
0.64
20
-0.64
30
0
40
0.36
100
AcDbArc
50
270
51
360
0
LINE
5
4956
330
494F
100
AcDbEntity
100
AcDbLine
8
0
10
1
20
-0.64
30
0
11
1
21
0.64
31
0
0
ARC
5
4957
330
494F
100
AcDbEntity
100
AcDbCircle
8
0
10
0.64
20
0.64
30
0
40
0.36
100
AcDbArc
50
0
51
90
0
LINE
5
4958
330
494F
100
AcDbEntity
100
AcDbLine
8
0
10
0.64
20
1
30
0
11
-0.64
21
1
31
0
0
ARC
5
4959
330
494F
100
AcDbEntity
100
AcDbCircle
8
0
10
-0.64
20
0.64
30
0
40
0.36
100
AcDbArc
50
90
51
180
0
LINE
5
495A
330
494F
100
AcDbEntity
100
AcDbLine
8
0
10
-1
20
0.64
30
0
11
-1
21
-0.64
31
0
0
ARC
5
495B
330
494F
100
AcDbEntity
100
AcDbCircle
8
0
10
-0.64
20
-0.64
30
0
40
0.36
100
AcDbArc
50
180
51
270
0
LINE
5
495C
330
494F
100
AcDbEntity
100
AcDbLine
8
0
10
-0.6400000000000001
20
-0.8200000000000001
30
0
11
0.6400000000000001
21
-0.8200000000000001
31
0
0
ARC
5
495D
330
494F
100
AcDbEntity
100
AcDbCircle
8
0
10
0.6400000000000001
20
-0.6400000000000001
30
0
40
0.18
100
AcDbArc
50
270
51
360
0
LINE
5
495E
330
494F
100
AcDbEntity
100
AcDbLine
8
0
10
0.8200000000000001
20
-0.6400000000000001
30
0
11
0.8200000000000001
21
0.6400000000000001
31
0
0
ARC
5
495F
330
494F
100
AcDbEntity
100
AcDbCircle
8
0
10
0.6400000000000001
20
0.6400000000000001
30
0
40
0.18
100
AcDbArc
50
0
51
90
0
LINE
5
4960
330
494F
100
AcDbEntity
100
AcDbLine
8
0
10
0.6400000000000001
20
0.8200000000000001
30
0
11
-0.6400000000000001
21
0.8200000000000001
31
0
0
ARC
5
4961
330
494F
100
AcDbEntity
100
AcDbCircle
8
0
10
-0.6400000000000001
20
0.6400000000000001
30
0
40
0.18
100
AcDbArc
50
90
51
180
0
LINE
5
4962
330
494F
100
AcDbEntity
100
AcDbLine
8
0
10
-0.8200000000000001
20
0.6400000000000001
30
0
11
-0.8200000000000001
21
-0.6400000000000001
31
0
0
ARC
5
4963
330
494F
100
AcDbEntity
100
AcDbCircle
8
0
10
-0.6400000000000001
20
-0.6400000000000001
30
0
40
0.18
100
AcDbArc
50
180
51
270
0
ENDSEC
0
SECTION
2
OBJECTS
0
DICTIONARY
5
493F
330
0
100
AcDbDictionary
281
1
3
ACAD_GROUP
350
4953
0
DICTIONARY
5
4953
330
493F
100
AcDbDictionary
281
1
0
ENDSEC
0
EOF