0
SECTION
2
HEADER
9
$HANDSEED
5
3EE1
9
$INSUNITS
70
1
9
$ACADVER
1
AC1021
0
ENDSEC
0
SECTION
2
CLASSES
0
ENDSEC
0
SECTION
2
TABLES
0
TABLE
2
LTYPE
5
3EDF
330
0
100
AcDbSymbolTable
70
5
0
LTYPE
5
3EC0
330
3EDF
100
AcDbSymbolTableRecord
100
AcDbLinetypeTableRecord
2
CONTINUOUS
3
______
70
0
72
65
73
0
40
0
0
LTYPE
5
3EC1
330
3EDF
100
AcDbSymbolTableRecord
100
AcDbLinetypeTableRecord
2
DASHED
3
_ _ _ 
70
0
72
65
73
2
40
10
49
5
74
0
49
-5
74
0
0
LTYPE
5
3EC2
330
3EDF
100
AcDbSymbolTableRecord
100
AcDbLinetypeTableRecord
2
DOTTED
3
. . . 
70
0
72
65
73
2
40
5
49
0
74
0
49
-5
74
0
0
LTYPE
5
3EC4
330
3EDF
100
AcDbSymbolTableRecord
100
AcDbLinetypeTableRecord
2
ByBlock
3

70
0
72
65
73
0
40
0
0
LTYPE
5
3EC5
330
3EDF
100
AcDbSymbolTableRecord
100
AcDbLinetypeTableRecord
2
ByLayer
3

70
0
72
65
73
0
40
0
0
ENDTAB
0
TABLE
2
LAYER
5
3EE0
330
0
100
AcDbSymbolTable
70
1
0
LAYER
5
3EC3
330
3EE0
100
AcDbSymbolTableRecord
100
AcDbLayerTableRecord
2
0
62
7
70
0
6
CONTINUOUS
390
1
0
ENDTAB
0
TABLE
2
VPORT
5
3EC6
330
0
100
AcDbSymbolTable
70
1
0
VPORT
5
3ECC
330
3EC6
100
AcDbSymbolTableRecord
100
AcDbViewportTableRecord
2
*ACTIVE
40
1000
70
0
0
ENDTAB
0
TABLE
2
STYLE
5
3EC7
330
0
100
AcDbSymbolTable
70
1
0
STYLE
5
3ECD
330
3EC7
100
AcDbSymbolTableRecord
100
AcDbTextStyleTableRecord
2
standard
70
0
40
0
41
1
50
0
71
0
42
1
3
txt
4

0
ENDTAB
0
TABLE
2
VIEW
5
3EC8
330
0
100
AcDbSymbolTable
70
0
0
ENDTAB
0
TABLE
2
UCS
5
3EC9
330
0
100
AcDbSymbolTable
70
0
0
ENDTAB
0
TABLE
2
APPID
5
3ECA
330
0
100
AcDbSymbolTable
70
1
0
APPID
5
3ECE
330
3ECA
100
AcDbSymbolTableRecord
100
AcDbRegAppTableRecord
2
ACAD
70
0
0
ENDTAB
0
TABLE
2
DIMSTYLE
5
3ECB
330
0
100
AcDbSymbolTable
100
AcDbDimStyleTable
70
0
71
1
0
ENDTAB
0
TABLE
2
BLOCK_RECORD
5
3EDC
330
0
100
AcDbSymbolTable
70
2
0
BLOCK_RECORD
5
3EDD
330
3EDC
100
AcDbSymbolTableRecord
100
AcDbBlockTableRecord
2
*Model_Space
70
0
280
0
281
1
0
BLOCK_RECORD
5
3EDE
330
3EDC
100
AcDbSymbolTableRecord
100
AcDbBlockTableRecord
2
*Paper_Space
70
0
280
0
281
1
0
ENDTAB
0
ENDSEC
0
SECTION
2
BLOCKS
0
BLOCK
5
3ECF
330
0
100
AcDbEntity
100
AcDbBlockBegin
2
*Model_Space
70
0
10
0
20
0
30
0
3
*Model_Space
1

0
ENDBLK
5
3ED0
330
0
100
AcDbEntity
100
AcDbBlockEnd
0
BLOCK
5
3ED1
330
0
100
AcDbEntity
100
AcDbBlockBegin
2
*Paper_Space
70
0
10
0
20
0
30
0
3
*Paper_Space
1

0
ENDBLK
5
3ED2
330
0
100
AcDbEntity
100
AcDbBlockEnd
0
ENDSEC
0
SECTION
2
ENTITIES
0
LINE
5
3ED4
330
3ECF
100
AcDbEntity
100
AcDbLine
8
0
10
-1.25
20
-1.25
30
0
11
1.25
21
-1.25
31
0
0
LINE
5
3ED5
330
3ECF
100
AcDbEntity
100
AcDbLine
8
0
10
1.25
20
-1.25
30
0
11
1.25
21
1.25
31
0
0
LINE
5
3ED6
330
3ECF
100
AcDbEntity
100
AcDbLine
8
0
10
1.25
20
1.25
30
0
11
-1.25
21
1.25
31
0
0
LINE
5
3ED7
330
3ECF
100
AcDbEntity
100
AcDbLine
8
0
10
-1.25
20
1.25
30
0
11
-1.25
21
-1.25
31
0
0
LINE
5
3ED8
330
3ECF
100
AcDbEntity
100
AcDbLine
8
0
10
-1
20
-1
30
0
11
1
21
-1
31
0
0
LINE
5
3ED9
330
3ECF
100
AcDbEntity
100
AcDbLine
8
0
10
1
20
-1
30
0
11
1
21
1
31
0
0
LINE
5
3EDA
330
3ECF
100
AcDbEntity
100
AcDbLine
8
0
10
1
20
1
30
0
11
-1
21
1
31
0
0
LINE
5
3EDB
330
3ECF
100
AcDbEntity
100
AcDbLine
8
0
10
-1
20
1
30
0
11
-1
21
-1
31
0
0
ENDSEC
0
SECTION
2
OBJECTS
0
DICTIONARY
5
3EBF
330
0
100
AcDbDictionary
281
1
3
ACAD_GROUP
350
3ED3
0
DICTIONARY
5
3ED3
330
3EBF
100
AcDbDictionary
281
1
0
ENDSEC
0
EOF