0
SECTION
2
HEADER
9
$HANDSEED
5
54B1
9
$INSUNITS
70
1
9
$ACADVER
1
AC1021
0
ENDSEC
0
SECTION
2
CLASSES
0
ENDSEC
0
SECTION
2
TABLES
0
TABLE
2
LTYPE
5
54AF
330
0
100
AcDbSymbolTable
70
5
0
LTYPE
5
5488
330
54AF
100
AcDbSymbolTableRecord
100
AcDbLinetypeTableRecord
2
CONTINUOUS
3
______
70
0
72
65
73
0
40
0
0
LTYPE
5
5489
330
54AF
100
AcDbSymbolTableRecord
100
AcDbLinetypeTableRecord
2
DASHED
3
_ _ _ 
70
0
72
65
73
2
40
10
49
5
74
0
49
-5
74
0
0
LTYPE
5
548A
330
54AF
100
AcDbSymbolTableRecord
100
AcDbLinetypeTableRecord
2
DOTTED
3
. . . 
70
0
72
65
73
2
40
5
49
0
74
0
49
-5
74
0
0
LTYPE
5
548C
330
54AF
100
AcDbSymbolTableRecord
100
AcDbLinetypeTableRecord
2
ByBlock
3

70
0
72
65
73
0
40
0
0
LTYPE
5
548D
330
54AF
100
AcDbSymbolTableRecord
100
AcDbLinetypeTableRecord
2
ByLayer
3

70
0
72
65
73
0
40
0
0
ENDTAB
0
TABLE
2
LAYER
5
54B0
330
0
100
AcDbSymbolTable
70
1
0
LAYER
5
548B
330
54B0
100
AcDbSymbolTableRecord
100
AcDbLayerTableRecord
2
0
62
7
70
0
6
CONTINUOUS
390
1
0
ENDTAB
0
TABLE
2
VPORT
5
548E
330
0
100
AcDbSymbolTable
70
1
0
VPORT
5
5494
330
548E
100
AcDbSymbolTableRecord
100
AcDbViewportTableRecord
2
*ACTIVE
40
1000
70
0
0
ENDTAB
0
TABLE
2
STYLE
5
548F
330
0
100
AcDbSymbolTable
70
1
0
STYLE
5
5495
330
548F
100
AcDbSymbolTableRecord
100
AcDbTextStyleTableRecord
2
standard
70
0
40
0
41
1
50
0
71
0
42
1
3
txt
4

0
ENDTAB
0
TABLE
2
VIEW
5
5490
330
0
100
AcDbSymbolTable
70
0
0
ENDTAB
0
TABLE
2
UCS
5
5491
330
0
100
AcDbSymbolTable
70
0
0
ENDTAB
0
TABLE
2
APPID
5
5492
330
0
100
AcDbSymbolTable
70
1
0
APPID
5
5496
330
5492
100
AcDbSymbolTableRecord
100
AcDbRegAppTableRecord
2
ACAD
70
0
0
ENDTAB
0
TABLE
2
DIMSTYLE
5
5493
330
0
100
AcDbSymbolTable
100
AcDbDimStyleTable
70
0
71
1
0
ENDTAB
0
TABLE
2
BLOCK_RECORD
5
54AC
330
0
100
AcDbSymbolTable
70
2
0
BLOCK_RECORD
5
54AD
330
54AC
100
AcDbSymbolTableRecord
100
AcDbBlockTableRecord
2
*Model_Space
70
0
280
0
281
1
0
BLOCK_RECORD
5
54AE
330
54AC
100
AcDbSymbolTableRecord
100
AcDbBlockTableRecord
2
*Paper_Space
70
0
280
0
281
1
0
ENDTAB
0
ENDSEC
0
SECTION
2
BLOCKS
0
BLOCK
5
5497
330
0
100
AcDbEntity
100
AcDbBlockBegin
2
*Model_Space
70
0
10
0
20
0
30
0
3
*Model_Space
1

0
ENDBLK
5
5498
330
0
100
AcDbEntity
100
AcDbBlockEnd
0
BLOCK
5
5499
330
0
100
AcDbEntity
100
AcDbBlockBegin
2
*Paper_Space
70
0
10
0
20
0
30
0
3
*Paper_Space
1

0
ENDBLK
5
549A
330
0
100
AcDbEntity
100
AcDbBlockEnd
0
ENDSEC
0
SECTION
2
ENTITIES
0
LINE
5
549C
330
5497
100
AcDbEntity
100
AcDbLine
8
0
10
-0.495
20
-0.625
30
0
11
0.495
21
-0.625
31
0
0
ARC
5
549D
330
5497
100
AcDbEntity
100
AcDbCircle
8
0
10
0.495
20
-0.495
30
0
40
0.13
100
AcDbArc
50
270
51
360
0
LINE
5
549E
330
5497
100
AcDbEntity
100
AcDbLine
8
0
10
0.625
20
-0.495
30
0
11
0.625
21
0.495
31
0
0
ARC
5
549F
330
5497
100
AcDbEntity
100
AcDbCircle
8
0
10
0.495
20
0.495
30
0
40
0.13
100
AcDbArc
50
0
51
90
0
LINE
5
54A0
330
5497
100
AcDbEntity
100
AcDbLine
8
0
10
0.495
20
0.625
30
0
11
-0.495
21
0.625
31
0
0
ARC
5
54A1
330
5497
100
AcDbEntity
100
AcDbCircle
8
0
10
-0.495
20
0.495
30
0
40
0.13
100
AcDbArc
50
90
51
180
0
LINE
5
54A2
330
5497
100
AcDbEntity
100
AcDbLine
8
0
10
-0.625
20
0.495
30
0
11
-0.625
21
-0.495
31
0
0
ARC
5
54A3
330
5497
100
AcDbEntity
100
AcDbCircle
8
0
10
-0.495
20
-0.495
30
0
40
0.13
100
AcDbArc
50
180
51
270
0
LINE
5
54A4
330
5497
100
AcDbEntity
100
AcDbLine
8
0
10
-0.49500000000000005
20
-0.56
30
0
11
0.49500000000000005
21
-0.56
31
0
0
ARC
5
54A5
330
5497
100
AcDbEntity
100
AcDbCircle
8
0
10
0.49500000000000005
20
-0.49500000000000005
30
0
40
0.065
100
AcDbArc
50
270
51
360
0
LINE
5
54A6
330
5497
100
AcDbEntity
100
AcDbLine
8
0
10
0.56
20
-0.49500000000000005
30
0
11
0.56
21
0.49500000000000005
31
0
0
ARC
5
54A7
330
5497
100
AcDbEntity
100
AcDbCircle
8
0
10
0.49500000000000005
20
0.49500000000000005
30
0
40
0.065
100
AcDbArc
50
0
51
90
0
LINE
5
54A8
330
5497
100
AcDbEntity
100
AcDbLine
8
0
10
0.49500000000000005
20
0.56
30
0
11
-0.49500000000000005
21
0.56
31
0
0
ARC
5
54A9
330
5497
100
AcDbEntity
100
AcDbCircle
8
0
10
-0.49500000000000005
20
0.49500000000000005
30
0
40
0.065
100
AcDbArc
50
90
51
180
0
LINE
5
54AA
330
5497
100
AcDbEntity
100
AcDbLine
8
0
10
-0.56
20
0.49500000000000005
30
0
11
-0.56
21
-0.49500000000000005
31
0
0
ARC
5
54AB
330
5497
100
AcDbEntity
100
AcDbCircle
8
0
10
-0.49500000000000005
20
-0.49500000000000005
30
0
40
0.065
100
AcDbArc
50
180
51
270
0
ENDSEC
0
SECTION
2
OBJECTS
0
DICTIONARY
5
5487
330
0
100
AcDbDictionary
281
1
3
ACAD_GROUP
350
549B
0
DICTIONARY
5
549B
330
5487
100
AcDbDictionary
281
1
0
ENDSEC
0
EOF