0
SECTION
2
HEADER
9
$HANDSEED
5
3EBF
9
$INSUNITS
70
1
9
$ACADVER
1
AC1021
0
ENDSEC
0
SECTION
2
CLASSES
0
ENDSEC
0
SECTION
2
TABLES
0
TABLE
2
LTYPE
5
3EBD
330
0
100
AcDbSymbolTable
70
5
0
LTYPE
5
3E9E
330
3EBD
100
AcDbSymbolTableRecord
100
AcDbLinetypeTableRecord
2
CONTINUOUS
3
______
70
0
72
65
73
0
40
0
0
LTYPE
5
3E9F
330
3EBD
100
AcDbSymbolTableRecord
100
AcDbLinetypeTableRecord
2
DASHED
3
_ _ _ 
70
0
72
65
73
2
40
10
49
5
74
0
49
-5
74
0
0
LTYPE
5
3EA0
330
3EBD
100
AcDbSymbolTableRecord
100
AcDbLinetypeTableRecord
2
DOTTED
3
. . . 
70
0
72
65
73
2
40
5
49
0
74
0
49
-5
74
0
0
LTYPE
5
3EA2
330
3EBD
100
AcDbSymbolTableRecord
100
AcDbLinetypeTableRecord
2
ByBlock
3

70
0
72
65
73
0
40
0
0
LTYPE
5
3EA3
330
3EBD
100
AcDbSymbolTableRecord
100
AcDbLinetypeTableRecord
2
ByLayer
3

70
0
72
65
73
0
40
0
0
ENDTAB
0
TABLE
2
LAYER
5
3EBE
330
0
100
AcDbSymbolTable
70
1
0
LAYER
5
3EA1
330
3EBE
100
AcDbSymbolTableRecord
100
AcDbLayerTableRecord
2
0
62
7
70
0
6
CONTINUOUS
390
1
0
ENDTAB
0
TABLE
2
VPORT
5
3EA4
330
0
100
AcDbSymbolTable
70
1
0
VPORT
5
3EAA
330
3EA4
100
AcDbSymbolTableRecord
100
AcDbViewportTableRecord
2
*ACTIVE
40
1000
70
0
0
ENDTAB
0
TABLE
2
STYLE
5
3EA5
330
0
100
AcDbSymbolTable
70
1
0
STYLE
5
3EAB
330
3EA5
100
AcDbSymbolTableRecord
100
AcDbTextStyleTableRecord
2
standard
70
0
40
0
41
1
50
0
71
0
42
1
3
txt
4

0
ENDTAB
0
TABLE
2
VIEW
5
3EA6
330
0
100
AcDbSymbolTable
70
0
0
ENDTAB
0
TABLE
2
UCS
5
3EA7
330
0
100
AcDbSymbolTable
70
0
0
ENDTAB
0
TABLE
2
APPID
5
3EA8
330
0
100
AcDbSymbolTable
70
1
0
APPID
5
3EAC
330
3EA8
100
AcDbSymbolTableRecord
100
AcDbRegAppTableRecord
2
ACAD
70
0
0
ENDTAB
0
TABLE
2
DIMSTYLE
5
3EA9
330
0
100
AcDbSymbolTable
100
AcDbDimStyleTable
70
0
71
1
0
ENDTAB
0
TABLE
2
BLOCK_RECORD
5
3EBA
330
0
100
AcDbSymbolTable
70
2
0
BLOCK_RECORD
5
3EBB
330
3EBA
100
AcDbSymbolTableRecord
100
AcDbBlockTableRecord
2
*Model_Space
70
0
280
0
281
1
0
BLOCK_RECORD
5
3EBC
330
3EBA
100
AcDbSymbolTableRecord
100
AcDbBlockTableRecord
2
*Paper_Space
70
0
280
0
281
1
0
ENDTAB
0
ENDSEC
0
SECTION
2
BLOCKS
0
BLOCK
5
3EAD
330
0
100
AcDbEntity
100
AcDbBlockBegin
2
*Model_Space
70
0
10
0
20
0
30
0
3
*Model_Space
1

0
ENDBLK
5
3EAE
330
0
100
AcDbEntity
100
AcDbBlockEnd
0
BLOCK
5
3EAF
330
0
100
AcDbEntity
100
AcDbBlockBegin
2
*Paper_Space
70
0
10
0
20
0
30
0
3
*Paper_Space
1

0
ENDBLK
5
3EB0
330
0
100
AcDbEntity
100
AcDbBlockEnd
0
ENDSEC
0
SECTION
2
ENTITIES
0
LINE
5
3EB2
330
3EAD
100
AcDbEntity
100
AcDbLine
8
0
10
-1.25
20
-1.25
30
0
11
1.25
21
-1.25
31
0
0
LINE
5
3EB3
330
3EAD
100
AcDbEntity
100
AcDbLine
8
0
10
1.25
20
-1.25
30
0
11
1.25
21
1.25
31
0
0
LINE
5
3EB4
330
3EAD
100
AcDbEntity
100
AcDbLine
8
0
10
1.25
20
1.25
30
0
11
-1.25
21
1.25
31
0
0
LINE
5
3EB5
330
3EAD
100
AcDbEntity
100
AcDbLine
8
0
10
-1.25
20
1.25
30
0
11
-1.25
21
-1.25
31
0
0
LINE
5
3EB6
330
3EAD
100
AcDbEntity
100
AcDbLine
8
0
10
-1.062
20
-1.062
30
0
11
1.062
21
-1.062
31
0
0
LINE
5
3EB7
330
3EAD
100
AcDbEntity
100
AcDbLine
8
0
10
1.062
20
-1.062
30
0
11
1.062
21
1.062
31
0
0
LINE
5
3EB8
330
3EAD
100
AcDbEntity
100
AcDbLine
8
0
10
1.062
20
1.062
30
0
11
-1.062
21
1.062
31
0
0
LINE
5
3EB9
330
3EAD
100
AcDbEntity
100
AcDbLine
8
0
10
-1.062
20
1.062
30
0
11
-1.062
21
-1.062
31
0
0
ENDSEC
0
SECTION
2
OBJECTS
0
DICTIONARY
5
3E9D
330
0
100
AcDbDictionary
281
1
3
ACAD_GROUP
350
3EB1
0
DICTIONARY
5
3EB1
330
3E9D
100
AcDbDictionary
281
1
0
ENDSEC
0
EOF