0
SECTION
2
HEADER
9
$HANDSEED
5
486D
9
$INSUNITS
70
1
9
$ACADVER
1
AC1021
0
ENDSEC
0
SECTION
2
CLASSES
0
ENDSEC
0
SECTION
2
TABLES
0
TABLE
2
LTYPE
5
486B
330
0
100
AcDbSymbolTable
70
5
0
LTYPE
5
4844
330
486B
100
AcDbSymbolTableRecord
100
AcDbLinetypeTableRecord
2
CONTINUOUS
3
______
70
0
72
65
73
0
40
0
0
LTYPE
5
4845
330
486B
100
AcDbSymbolTableRecord
100
AcDbLinetypeTableRecord
2
DASHED
3
_ _ _ 
70
0
72
65
73
2
40
10
49
5
74
0
49
-5
74
0
0
LTYPE
5
4846
330
486B
100
AcDbSymbolTableRecord
100
AcDbLinetypeTableRecord
2
DOTTED
3
. . . 
70
0
72
65
73
2
40
5
49
0
74
0
49
-5
74
0
0
LTYPE
5
4848
330
486B
100
AcDbSymbolTableRecord
100
AcDbLinetypeTableRecord
2
ByBlock
3

70
0
72
65
73
0
40
0
0
LTYPE
5
4849
330
486B
100
AcDbSymbolTableRecord
100
AcDbLinetypeTableRecord
2
ByLayer
3

70
0
72
65
73
0
40
0
0
ENDTAB
0
TABLE
2
LAYER
5
486C
330
0
100
AcDbSymbolTable
70
1
0
LAYER
5
4847
330
486C
100
AcDbSymbolTableRecord
100
AcDbLayerTableRecord
2
0
62
7
70
0
6
CONTINUOUS
390
1
0
ENDTAB
0
TABLE
2
VPORT
5
484A
330
0
100
AcDbSymbolTable
70
1
0
VPORT
5
4850
330
484A
100
AcDbSymbolTableRecord
100
AcDbViewportTableRecord
2
*ACTIVE
40
1000
70
0
0
ENDTAB
0
TABLE
2
STYLE
5
484B
330
0
100
AcDbSymbolTable
70
1
0
STYLE
5
4851
330
484B
100
AcDbSymbolTableRecord
100
AcDbTextStyleTableRecord
2
standard
70
0
40
0
41
1
50
0
71
0
42
1
3
txt
4

0
ENDTAB
0
TABLE
2
VIEW
5
484C
330
0
100
AcDbSymbolTable
70
0
0
ENDTAB
0
TABLE
2
UCS
5
484D
330
0
100
AcDbSymbolTable
70
0
0
ENDTAB
0
TABLE
2
APPID
5
484E
330
0
100
AcDbSymbolTable
70
1
0
APPID
5
4852
330
484E
100
AcDbSymbolTableRecord
100
AcDbRegAppTableRecord
2
ACAD
70
0
0
ENDTAB
0
TABLE
2
DIMSTYLE
5
484F
330
0
100
AcDbSymbolTable
100
AcDbDimStyleTable
70
0
71
1
0
ENDTAB
0
TABLE
2
BLOCK_RECORD
5
4868
330
0
100
AcDbSymbolTable
70
2
0
BLOCK_RECORD
5
4869
330
4868
100
AcDbSymbolTableRecord
100
AcDbBlockTableRecord
2
*Model_Space
70
0
280
0
281
1
0
BLOCK_RECORD
5
486A
330
4868
100
AcDbSymbolTableRecord
100
AcDbBlockTableRecord
2
*Paper_Space
70
0
280
0
281
1
0
ENDTAB
0
ENDSEC
0
SECTION
2
BLOCKS
0
BLOCK
5
4853
330
0
100
AcDbEntity
100
AcDbBlockBegin
2
*Model_Space
70
0
10
0
20
0
30
0
3
*Model_Space
1

0
ENDBLK
5
4854
330
0
100
AcDbEntity
100
AcDbBlockEnd
0
BLOCK
5
4855
330
0
100
AcDbEntity
100
AcDbBlockBegin
2
*Paper_Space
70
0
10
0
20
0
30
0
3
*Paper_Space
1

0
ENDBLK
5
4856
330
0
100
AcDbEntity
100
AcDbBlockEnd
0
ENDSEC
0
SECTION
2
ENTITIES
0
LINE
5
4858
330
4853
100
AcDbEntity
100
AcDbLine
8
0
10
-0.26
20
-0.5
30
0
11
0.26
21
-0.5
31
0
0
ARC
5
4859
330
4853
100
AcDbEntity
100
AcDbCircle
8
0
10
0.26
20
-0.26
30
0
40
0.24
100
AcDbArc
50
270
51
360
0
LINE
5
485A
330
4853
100
AcDbEntity
100
AcDbLine
8
0
10
0.5
20
-0.26
30
0
11
0.5
21
0.26
31
0
0
ARC
5
485B
330
4853
100
AcDbEntity
100
AcDbCircle
8
0
10
0.26
20
0.26
30
0
40
0.24
100
AcDbArc
50
0
51
90
0
LINE
5
485C
330
4853
100
AcDbEntity
100
AcDbLine
8
0
10
0.26
20
0.5
30
0
11
-0.26
21
0.5
31
0
0
ARC
5
485D
330
4853
100
AcDbEntity
100
AcDbCircle
8
0
10
-0.26
20
0.26
30
0
40
0.24
100
AcDbArc
50
90
51
180
0
LINE
5
485E
330
4853
100
AcDbEntity
100
AcDbLine
8
0
10
-0.5
20
0.26
30
0
11
-0.5
21
-0.26
31
0
0
ARC
5
485F
330
4853
100
AcDbEntity
100
AcDbCircle
8
0
10
-0.26
20
-0.26
30
0
40
0.24
100
AcDbArc
50
180
51
270
0
LINE
5
4860
330
4853
100
AcDbEntity
100
AcDbLine
8
0
10
-0.26
20
-0.38
30
0
11
0.26
21
-0.38
31
0
0
ARC
5
4861
330
4853
100
AcDbEntity
100
AcDbCircle
8
0
10
0.26
20
-0.26
30
0
40
0.12
100
AcDbArc
50
270
51
360
0
LINE
5
4862
330
4853
100
AcDbEntity
100
AcDbLine
8
0
10
0.38
20
-0.26
30
0
11
0.38
21
0.26
31
0
0
ARC
5
4863
330
4853
100
AcDbEntity
100
AcDbCircle
8
0
10
0.26
20
0.26
30
0
40
0.12
100
AcDbArc
50
0
51
90
0
LINE
5
4864
330
4853
100
AcDbEntity
100
AcDbLine
8
0
10
0.26
20
0.38
30
0
11
-0.26
21
0.38
31
0
0
ARC
5
4865
330
4853
100
AcDbEntity
100
AcDbCircle
8
0
10
-0.26
20
0.26
30
0
40
0.12
100
AcDbArc
50
90
51
180
0
LINE
5
4866
330
4853
100
AcDbEntity
100
AcDbLine
8
0
10
-0.38
20
0.26
30
0
11
-0.38
21
-0.26
31
0
0
ARC
5
4867
330
4853
100
AcDbEntity
100
AcDbCircle
8
0
10
-0.26
20
-0.26
30
0
40
0.12
100
AcDbArc
50
180
51
270
0
ENDSEC
0
SECTION
2
OBJECTS
0
DICTIONARY
5
4843
330
0
100
AcDbDictionary
281
1
3
ACAD_GROUP
350
4857
0
DICTIONARY
5
4857
330
4843
100
AcDbDictionary
281
1
0
ENDSEC
0
EOF