0
SECTION
2
HEADER
9
$HANDSEED
5
53E7
9
$INSUNITS
70
1
9
$ACADVER
1
AC1021
0
ENDSEC
0
SECTION
2
CLASSES
0
ENDSEC
0
SECTION
2
TABLES
0
TABLE
2
LTYPE
5
53E5
330
0
100
AcDbSymbolTable
70
5
0
LTYPE
5
53BE
330
53E5
100
AcDbSymbolTableRecord
100
AcDbLinetypeTableRecord
2
CONTINUOUS
3
______
70
0
72
65
73
0
40
0
0
LTYPE
5
53BF
330
53E5
100
AcDbSymbolTableRecord
100
AcDbLinetypeTableRecord
2
DASHED
3
_ _ _ 
70
0
72
65
73
2
40
10
49
5
74
0
49
-5
74
0
0
LTYPE
5
53C0
330
53E5
100
AcDbSymbolTableRecord
100
AcDbLinetypeTableRecord
2
DOTTED
3
. . . 
70
0
72
65
73
2
40
5
49
0
74
0
49
-5
74
0
0
LTYPE
5
53C2
330
53E5
100
AcDbSymbolTableRecord
100
AcDbLinetypeTableRecord
2
ByBlock
3

70
0
72
65
73
0
40
0
0
LTYPE
5
53C3
330
53E5
100
AcDbSymbolTableRecord
100
AcDbLinetypeTableRecord
2
ByLayer
3

70
0
72
65
73
0
40
0
0
ENDTAB
0
TABLE
2
LAYER
5
53E6
330
0
100
AcDbSymbolTable
70
1
0
LAYER
5
53C1
330
53E6
100
AcDbSymbolTableRecord
100
AcDbLayerTableRecord
2
0
62
7
70
0
6
CONTINUOUS
390
1
0
ENDTAB
0
TABLE
2
VPORT
5
53C4
330
0
100
AcDbSymbolTable
70
1
0
VPORT
5
53CA
330
53C4
100
AcDbSymbolTableRecord
100
AcDbViewportTableRecord
2
*ACTIVE
40
1000
70
0
0
ENDTAB
0
TABLE
2
STYLE
5
53C5
330
0
100
AcDbSymbolTable
70
1
0
STYLE
5
53CB
330
53C5
100
AcDbSymbolTableRecord
100
AcDbTextStyleTableRecord
2
standard
70
0
40
0
41
1
50
0
71
0
42
1
3
txt
4

0
ENDTAB
0
TABLE
2
VIEW
5
53C6
330
0
100
AcDbSymbolTable
70
0
0
ENDTAB
0
TABLE
2
UCS
5
53C7
330
0
100
AcDbSymbolTable
70
0
0
ENDTAB
0
TABLE
2
APPID
5
53C8
330
0
100
AcDbSymbolTable
70
1
0
APPID
5
53CC
330
53C8
100
AcDbSymbolTableRecord
100
AcDbRegAppTableRecord
2
ACAD
70
0
0
ENDTAB
0
TABLE
2
DIMSTYLE
5
53C9
330
0
100
AcDbSymbolTable
100
AcDbDimStyleTable
70
0
71
1
0
ENDTAB
0
TABLE
2
BLOCK_RECORD
5
53E2
330
0
100
AcDbSymbolTable
70
2
0
BLOCK_RECORD
5
53E3
330
53E2
100
AcDbSymbolTableRecord
100
AcDbBlockTableRecord
2
*Model_Space
70
0
280
0
281
1
0
BLOCK_RECORD
5
53E4
330
53E2
100
AcDbSymbolTableRecord
100
AcDbBlockTableRecord
2
*Paper_Space
70
0
280
0
281
1
0
ENDTAB
0
ENDSEC
0
SECTION
2
BLOCKS
0
BLOCK
5
53CD
330
0
100
AcDbEntity
100
AcDbBlockBegin
2
*Model_Space
70
0
10
0
20
0
30
0
3
*Model_Space
1

0
ENDBLK
5
53CE
330
0
100
AcDbEntity
100
AcDbBlockEnd
0
BLOCK
5
53CF
330
0
100
AcDbEntity
100
AcDbBlockBegin
2
*Paper_Space
70
0
10
0
20
0
30
0
3
*Paper_Space
1

0
ENDBLK
5
53D0
330
0
100
AcDbEntity
100
AcDbBlockEnd
0
ENDSEC
0
SECTION
2
ENTITIES
0
LINE
5
53D2
330
53CD
100
AcDbEntity
100
AcDbLine
8
0
10
-0.33399999999999996
20
-0.5
30
0
11
0.33399999999999996
21
-0.5
31
0
0
ARC
5
53D3
330
53CD
100
AcDbEntity
100
AcDbCircle
8
0
10
0.33399999999999996
20
-0.33399999999999996
30
0
40
0.166
100
AcDbArc
50
270
51
360
0
LINE
5
53D4
330
53CD
100
AcDbEntity
100
AcDbLine
8
0
10
0.5
20
-0.33399999999999996
30
0
11
0.5
21
0.33399999999999996
31
0
0
ARC
5
53D5
330
53CD
100
AcDbEntity
100
AcDbCircle
8
0
10
0.33399999999999996
20
0.33399999999999996
30
0
40
0.166
100
AcDbArc
50
0
51
90
0
LINE
5
53D6
330
53CD
100
AcDbEntity
100
AcDbLine
8
0
10
0.33399999999999996
20
0.5
30
0
11
-0.33399999999999996
21
0.5
31
0
0
ARC
5
53D7
330
53CD
100
AcDbEntity
100
AcDbCircle
8
0
10
-0.33399999999999996
20
0.33399999999999996
30
0
40
0.166
100
AcDbArc
50
90
51
180
0
LINE
5
53D8
330
53CD
100
AcDbEntity
100
AcDbLine
8
0
10
-0.5
20
0.33399999999999996
30
0
11
-0.5
21
-0.33399999999999996
31
0
0
ARC
5
53D9
330
53CD
100
AcDbEntity
100
AcDbCircle
8
0
10
-0.33399999999999996
20
-0.33399999999999996
30
0
40
0.166
100
AcDbArc
50
180
51
270
0
LINE
5
53DA
330
53CD
100
AcDbEntity
100
AcDbLine
8
0
10
-0.33399999999999996
20
-0.417
30
0
11
0.33399999999999996
21
-0.417
31
0
0
ARC
5
53DB
330
53CD
100
AcDbEntity
100
AcDbCircle
8
0
10
0.33399999999999996
20
-0.33399999999999996
30
0
40
0.083
100
AcDbArc
50
270
51
360
0
LINE
5
53DC
330
53CD
100
AcDbEntity
100
AcDbLine
8
0
10
0.417
20
-0.33399999999999996
30
0
11
0.417
21
0.33399999999999996
31
0
0
ARC
5
53DD
330
53CD
100
AcDbEntity
100
AcDbCircle
8
0
10
0.33399999999999996
20
0.33399999999999996
30
0
40
0.083
100
AcDbArc
50
0
51
90
0
LINE
5
53DE
330
53CD
100
AcDbEntity
100
AcDbLine
8
0
10
0.33399999999999996
20
0.417
30
0
11
-0.33399999999999996
21
0.417
31
0
0
ARC
5
53DF
330
53CD
100
AcDbEntity
100
AcDbCircle
8
0
10
-0.33399999999999996
20
0.33399999999999996
30
0
40
0.083
100
AcDbArc
50
90
51
180
0
LINE
5
53E0
330
53CD
100
AcDbEntity
100
AcDbLine
8
0
10
-0.417
20
0.33399999999999996
30
0
11
-0.417
21
-0.33399999999999996
31
0
0
ARC
5
53E1
330
53CD
100
AcDbEntity
100
AcDbCircle
8
0
10
-0.33399999999999996
20
-0.33399999999999996
30
0
40
0.083
100
AcDbArc
50
180
51
270
0
ENDSEC
0
SECTION
2
OBJECTS
0
DICTIONARY
5
53BD
330
0
100
AcDbDictionary
281
1
3
ACAD_GROUP
350
53D1
0
DICTIONARY
5
53D1
330
53BD
100
AcDbDictionary
281
1
0
ENDSEC
0
EOF