0
SECTION
2
HEADER
9
$HANDSEED
5
6087
9
$INSUNITS
70
1
9
$ACADVER
1
AC1021
0
ENDSEC
0
SECTION
2
CLASSES
0
ENDSEC
0
SECTION
2
TABLES
0
TABLE
2
LTYPE
5
6085
330
0
100
AcDbSymbolTable
70
5
0
LTYPE
5
605E
330
6085
100
AcDbSymbolTableRecord
100
AcDbLinetypeTableRecord
2
CONTINUOUS
3
______
70
0
72
65
73
0
40
0
0
LTYPE
5
605F
330
6085
100
AcDbSymbolTableRecord
100
AcDbLinetypeTableRecord
2
DASHED
3
_ _ _ 
70
0
72
65
73
2
40
10
49
5
74
0
49
-5
74
0
0
LTYPE
5
6060
330
6085
100
AcDbSymbolTableRecord
100
AcDbLinetypeTableRecord
2
DOTTED
3
. . . 
70
0
72
65
73
2
40
5
49
0
74
0
49
-5
74
0
0
LTYPE
5
6062
330
6085
100
AcDbSymbolTableRecord
100
AcDbLinetypeTableRecord
2
ByBlock
3

70
0
72
65
73
0
40
0
0
LTYPE
5
6063
330
6085
100
AcDbSymbolTableRecord
100
AcDbLinetypeTableRecord
2
ByLayer
3

70
0
72
65
73
0
40
0
0
ENDTAB
0
TABLE
2
LAYER
5
6086
330
0
100
AcDbSymbolTable
70
1
0
LAYER
5
6061
330
6086
100
AcDbSymbolTableRecord
100
AcDbLayerTableRecord
2
0
62
7
70
0
6
CONTINUOUS
390
1
0
ENDTAB
0
TABLE
2
VPORT
5
6064
330
0
100
AcDbSymbolTable
70
1
0
VPORT
5
606A
330
6064
100
AcDbSymbolTableRecord
100
AcDbViewportTableRecord
2
*ACTIVE
40
1000
70
0
0
ENDTAB
0
TABLE
2
STYLE
5
6065
330
0
100
AcDbSymbolTable
70
1
0
STYLE
5
606B
330
6065
100
AcDbSymbolTableRecord
100
AcDbTextStyleTableRecord
2
standard
70
0
40
0
41
1
50
0
71
0
42
1
3
txt
4

0
ENDTAB
0
TABLE
2
VIEW
5
6066
330
0
100
AcDbSymbolTable
70
0
0
ENDTAB
0
TABLE
2
UCS
5
6067
330
0
100
AcDbSymbolTable
70
0
0
ENDTAB
0
TABLE
2
APPID
5
6068
330
0
100
AcDbSymbolTable
70
1
0
APPID
5
606C
330
6068
100
AcDbSymbolTableRecord
100
AcDbRegAppTableRecord
2
ACAD
70
0
0
ENDTAB
0
TABLE
2
DIMSTYLE
5
6069
330
0
100
AcDbSymbolTable
100
AcDbDimStyleTable
70
0
71
1
0
ENDTAB
0
TABLE
2
BLOCK_RECORD
5
6082
330
0
100
AcDbSymbolTable
70
2
0
BLOCK_RECORD
5
6083
330
6082
100
AcDbSymbolTableRecord
100
AcDbBlockTableRecord
2
*Model_Space
70
0
280
0
281
1
0
BLOCK_RECORD
5
6084
330
6082
100
AcDbSymbolTableRecord
100
AcDbBlockTableRecord
2
*Paper_Space
70
0
280
0
281
1
0
ENDTAB
0
ENDSEC
0
SECTION
2
BLOCKS
0
BLOCK
5
606D
330
0
100
AcDbEntity
100
AcDbBlockBegin
2
*Model_Space
70
0
10
0
20
0
30
0
3
*Model_Space
1

0
ENDBLK
5
606E
330
0
100
AcDbEntity
100
AcDbBlockEnd
0
BLOCK
5
606F
330
0
100
AcDbEntity
100
AcDbBlockBegin
2
*Paper_Space
70
0
10
0
20
0
30
0
3
*Paper_Space
1

0
ENDBLK
5
6070
330
0
100
AcDbEntity
100
AcDbBlockEnd
0
ENDSEC
0
SECTION
2
ENTITIES
0
LINE
5
6072
330
606D
100
AcDbEntity
100
AcDbLine
8
0
10
-0.495
20
-0.625
30
0
11
0.495
21
-0.625
31
0
0
ARC
5
6073
330
606D
100
AcDbEntity
100
AcDbCircle
8
0
10
0.495
20
-0.495
30
0
40
0.13
100
AcDbArc
50
270
51
360
0
LINE
5
6074
330
606D
100
AcDbEntity
100
AcDbLine
8
0
10
0.625
20
-0.495
30
0
11
0.625
21
0.495
31
0
0
ARC
5
6075
330
606D
100
AcDbEntity
100
AcDbCircle
8
0
10
0.495
20
0.495
30
0
40
0.13
100
AcDbArc
50
0
51
90
0
LINE
5
6076
330
606D
100
AcDbEntity
100
AcDbLine
8
0
10
0.495
20
0.625
30
0
11
-0.495
21
0.625
31
0
0
ARC
5
6077
330
606D
100
AcDbEntity
100
AcDbCircle
8
0
10
-0.495
20
0.495
30
0
40
0.13
100
AcDbArc
50
90
51
180
0
LINE
5
6078
330
606D
100
AcDbEntity
100
AcDbLine
8
0
10
-0.625
20
0.495
30
0
11
-0.625
21
-0.495
31
0
0
ARC
5
6079
330
606D
100
AcDbEntity
100
AcDbCircle
8
0
10
-0.495
20
-0.495
30
0
40
0.13
100
AcDbArc
50
180
51
270
0
LINE
5
607A
330
606D
100
AcDbEntity
100
AcDbLine
8
0
10
-0.49500000000000005
20
-0.56
30
0
11
0.49500000000000005
21
-0.56
31
0
0
ARC
5
607B
330
606D
100
AcDbEntity
100
AcDbCircle
8
0
10
0.49500000000000005
20
-0.49500000000000005
30
0
40
0.065
100
AcDbArc
50
270
51
360
0
LINE
5
607C
330
606D
100
AcDbEntity
100
AcDbLine
8
0
10
0.56
20
-0.49500000000000005
30
0
11
0.56
21
0.49500000000000005
31
0
0
ARC
5
607D
330
606D
100
AcDbEntity
100
AcDbCircle
8
0
10
0.49500000000000005
20
0.49500000000000005
30
0
40
0.065
100
AcDbArc
50
0
51
90
0
LINE
5
607E
330
606D
100
AcDbEntity
100
AcDbLine
8
0
10
0.49500000000000005
20
0.56
30
0
11
-0.49500000000000005
21
0.56
31
0
0
ARC
5
607F
330
606D
100
AcDbEntity
100
AcDbCircle
8
0
10
-0.49500000000000005
20
0.49500000000000005
30
0
40
0.065
100
AcDbArc
50
90
51
180
0
LINE
5
6080
330
606D
100
AcDbEntity
100
AcDbLine
8
0
10
-0.56
20
0.49500000000000005
30
0
11
-0.56
21
-0.49500000000000005
31
0
0
ARC
5
6081
330
606D
100
AcDbEntity
100
AcDbCircle
8
0
10
-0.49500000000000005
20
-0.49500000000000005
30
0
40
0.065
100
AcDbArc
50
180
51
270
0
ENDSEC
0
SECTION
2
OBJECTS
0
DICTIONARY
5
605D
330
0
100
AcDbDictionary
281
1
3
ACAD_GROUP
350
6071
0
DICTIONARY
5
6071
330
605D
100
AcDbDictionary
281
1
0
ENDSEC
0
EOF