0
SECTION
2
HEADER
9
$HANDSEED
5
49E7
9
$INSUNITS
70
1
9
$ACADVER
1
AC1021
0
ENDSEC
0
SECTION
2
CLASSES
0
ENDSEC
0
SECTION
2
TABLES
0
TABLE
2
LTYPE
5
49E5
330
0
100
AcDbSymbolTable
70
5
0
LTYPE
5
49BE
330
49E5
100
AcDbSymbolTableRecord
100
AcDbLinetypeTableRecord
2
CONTINUOUS
3
______
70
0
72
65
73
0
40
0
0
LTYPE
5
49BF
330
49E5
100
AcDbSymbolTableRecord
100
AcDbLinetypeTableRecord
2
DASHED
3
_ _ _ 
70
0
72
65
73
2
40
10
49
5
74
0
49
-5
74
0
0
LTYPE
5
49C0
330
49E5
100
AcDbSymbolTableRecord
100
AcDbLinetypeTableRecord
2
DOTTED
3
. . . 
70
0
72
65
73
2
40
5
49
0
74
0
49
-5
74
0
0
LTYPE
5
49C2
330
49E5
100
AcDbSymbolTableRecord
100
AcDbLinetypeTableRecord
2
ByBlock
3

70
0
72
65
73
0
40
0
0
LTYPE
5
49C3
330
49E5
100
AcDbSymbolTableRecord
100
AcDbLinetypeTableRecord
2
ByLayer
3

70
0
72
65
73
0
40
0
0
ENDTAB
0
TABLE
2
LAYER
5
49E6
330
0
100
AcDbSymbolTable
70
1
0
LAYER
5
49C1
330
49E6
100
AcDbSymbolTableRecord
100
AcDbLayerTableRecord
2
0
62
7
70
0
6
CONTINUOUS
390
1
0
ENDTAB
0
TABLE
2
VPORT
5
49C4
330
0
100
AcDbSymbolTable
70
1
0
VPORT
5
49CA
330
49C4
100
AcDbSymbolTableRecord
100
AcDbViewportTableRecord
2
*ACTIVE
40
1000
70
0
0
ENDTAB
0
TABLE
2
STYLE
5
49C5
330
0
100
AcDbSymbolTable
70
1
0
STYLE
5
49CB
330
49C5
100
AcDbSymbolTableRecord
100
AcDbTextStyleTableRecord
2
standard
70
0
40
0
41
1
50
0
71
0
42
1
3
txt
4

0
ENDTAB
0
TABLE
2
VIEW
5
49C6
330
0
100
AcDbSymbolTable
70
0
0
ENDTAB
0
TABLE
2
UCS
5
49C7
330
0
100
AcDbSymbolTable
70
0
0
ENDTAB
0
TABLE
2
APPID
5
49C8
330
0
100
AcDbSymbolTable
70
1
0
APPID
5
49CC
330
49C8
100
AcDbSymbolTableRecord
100
AcDbRegAppTableRecord
2
ACAD
70
0
0
ENDTAB
0
TABLE
2
DIMSTYLE
5
49C9
330
0
100
AcDbSymbolTable
100
AcDbDimStyleTable
70
0
71
1
0
ENDTAB
0
TABLE
2
BLOCK_RECORD
5
49E2
330
0
100
AcDbSymbolTable
70
2
0
BLOCK_RECORD
5
49E3
330
49E2
100
AcDbSymbolTableRecord
100
AcDbBlockTableRecord
2
*Model_Space
70
0
280
0
281
1
0
BLOCK_RECORD
5
49E4
330
49E2
100
AcDbSymbolTableRecord
100
AcDbBlockTableRecord
2
*Paper_Space
70
0
280
0
281
1
0
ENDTAB
0
ENDSEC
0
SECTION
2
BLOCKS
0
BLOCK
5
49CD
330
0
100
AcDbEntity
100
AcDbBlockBegin
2
*Model_Space
70
0
10
0
20
0
30
0
3
*Model_Space
1

0
ENDBLK
5
49CE
330
0
100
AcDbEntity
100
AcDbBlockEnd
0
BLOCK
5
49CF
330
0
100
AcDbEntity
100
AcDbBlockBegin
2
*Paper_Space
70
0
10
0
20
0
30
0
3
*Paper_Space
1

0
ENDBLK
5
49D0
330
0
100
AcDbEntity
100
AcDbBlockEnd
0
ENDSEC
0
SECTION
2
ENTITIES
0
LINE
5
49D2
330
49CD
100
AcDbEntity
100
AcDbLine
8
0
10
-0.89
20
-1.25
30
0
11
0.89
21
-1.25
31
0
0
ARC
5
49D3
330
49CD
100
AcDbEntity
100
AcDbCircle
8
0
10
0.89
20
-0.89
30
0
40
0.36
100
AcDbArc
50
270
51
360
0
LINE
5
49D4
330
49CD
100
AcDbEntity
100
AcDbLine
8
0
10
1.25
20
-0.89
30
0
11
1.25
21
0.89
31
0
0
ARC
5
49D5
330
49CD
100
AcDbEntity
100
AcDbCircle
8
0
10
0.89
20
0.89
30
0
40
0.36
100
AcDbArc
50
0
51
90
0
LINE
5
49D6
330
49CD
100
AcDbEntity
100
AcDbLine
8
0
10
0.89
20
1.25
30
0
11
-0.89
21
1.25
31
0
0
ARC
5
49D7
330
49CD
100
AcDbEntity
100
AcDbCircle
8
0
10
-0.89
20
0.89
30
0
40
0.36
100
AcDbArc
50
90
51
180
0
LINE
5
49D8
330
49CD
100
AcDbEntity
100
AcDbLine
8
0
10
-1.25
20
0.89
30
0
11
-1.25
21
-0.89
31
0
0
ARC
5
49D9
330
49CD
100
AcDbEntity
100
AcDbCircle
8
0
10
-0.89
20
-0.89
30
0
40
0.36
100
AcDbArc
50
180
51
270
0
LINE
5
49DA
330
49CD
100
AcDbEntity
100
AcDbLine
8
0
10
-0.8900000000000001
20
-1.07
30
0
11
0.8900000000000001
21
-1.07
31
0
0
ARC
5
49DB
330
49CD
100
AcDbEntity
100
AcDbCircle
8
0
10
0.8900000000000001
20
-0.8900000000000001
30
0
40
0.18
100
AcDbArc
50
270
51
360
0
LINE
5
49DC
330
49CD
100
AcDbEntity
100
AcDbLine
8
0
10
1.07
20
-0.8900000000000001
30
0
11
1.07
21
0.8900000000000001
31
0
0
ARC
5
49DD
330
49CD
100
AcDbEntity
100
AcDbCircle
8
0
10
0.8900000000000001
20
0.8900000000000001
30
0
40
0.18
100
AcDbArc
50
0
51
90
0
LINE
5
49DE
330
49CD
100
AcDbEntity
100
AcDbLine
8
0
10
0.8900000000000001
20
1.07
30
0
11
-0.8900000000000001
21
1.07
31
0
0
ARC
5
49DF
330
49CD
100
AcDbEntity
100
AcDbCircle
8
0
10
-0.8900000000000001
20
0.8900000000000001
30
0
40
0.18
100
AcDbArc
50
90
51
180
0
LINE
5
49E0
330
49CD
100
AcDbEntity
100
AcDbLine
8
0
10
-1.07
20
0.8900000000000001
30
0
11
-1.07
21
-0.8900000000000001
31
0
0
ARC
5
49E1
330
49CD
100
AcDbEntity
100
AcDbCircle
8
0
10
-0.8900000000000001
20
-0.8900000000000001
30
0
40
0.18
100
AcDbArc
50
180
51
270
0
ENDSEC
0
SECTION
2
OBJECTS
0
DICTIONARY
5
49BD
330
0
100
AcDbDictionary
281
1
3
ACAD_GROUP
350
49D1
0
DICTIONARY
5
49D1
330
49BD
100
AcDbDictionary
281
1
0
ENDSEC
0
EOF