0
SECTION
2
HEADER
9
$HANDSEED
5
4E01
9
$INSUNITS
70
1
9
$ACADVER
1
AC1021
0
ENDSEC
0
SECTION
2
CLASSES
0
ENDSEC
0
SECTION
2
TABLES
0
TABLE
2
LTYPE
5
4DFF
330
0
100
AcDbSymbolTable
70
5
0
LTYPE
5
4DD8
330
4DFF
100
AcDbSymbolTableRecord
100
AcDbLinetypeTableRecord
2
CONTINUOUS
3
______
70
0
72
65
73
0
40
0
0
LTYPE
5
4DD9
330
4DFF
100
AcDbSymbolTableRecord
100
AcDbLinetypeTableRecord
2
DASHED
3
_ _ _ 
70
0
72
65
73
2
40
10
49
5
74
0
49
-5
74
0
0
LTYPE
5
4DDA
330
4DFF
100
AcDbSymbolTableRecord
100
AcDbLinetypeTableRecord
2
DOTTED
3
. . . 
70
0
72
65
73
2
40
5
49
0
74
0
49
-5
74
0
0
LTYPE
5
4DDC
330
4DFF
100
AcDbSymbolTableRecord
100
AcDbLinetypeTableRecord
2
ByBlock
3

70
0
72
65
73
0
40
0
0
LTYPE
5
4DDD
330
4DFF
100
AcDbSymbolTableRecord
100
AcDbLinetypeTableRecord
2
ByLayer
3

70
0
72
65
73
0
40
0
0
ENDTAB
0
TABLE
2
LAYER
5
4E00
330
0
100
AcDbSymbolTable
70
1
0
LAYER
5
4DDB
330
4E00
100
AcDbSymbolTableRecord
100
AcDbLayerTableRecord
2
0
62
7
70
0
6
CONTINUOUS
390
1
0
ENDTAB
0
TABLE
2
VPORT
5
4DDE
330
0
100
AcDbSymbolTable
70
1
0
VPORT
5
4DE4
330
4DDE
100
AcDbSymbolTableRecord
100
AcDbViewportTableRecord
2
*ACTIVE
40
1000
70
0
0
ENDTAB
0
TABLE
2
STYLE
5
4DDF
330
0
100
AcDbSymbolTable
70
1
0
STYLE
5
4DE5
330
4DDF
100
AcDbSymbolTableRecord
100
AcDbTextStyleTableRecord
2
standard
70
0
40
0
41
1
50
0
71
0
42
1
3
txt
4

0
ENDTAB
0
TABLE
2
VIEW
5
4DE0
330
0
100
AcDbSymbolTable
70
0
0
ENDTAB
0
TABLE
2
UCS
5
4DE1
330
0
100
AcDbSymbolTable
70
0
0
ENDTAB
0
TABLE
2
APPID
5
4DE2
330
0
100
AcDbSymbolTable
70
1
0
APPID
5
4DE6
330
4DE2
100
AcDbSymbolTableRecord
100
AcDbRegAppTableRecord
2
ACAD
70
0
0
ENDTAB
0
TABLE
2
DIMSTYLE
5
4DE3
330
0
100
AcDbSymbolTable
100
AcDbDimStyleTable
70
0
71
1
0
ENDTAB
0
TABLE
2
BLOCK_RECORD
5
4DFC
330
0
100
AcDbSymbolTable
70
2
0
BLOCK_RECORD
5
4DFD
330
4DFC
100
AcDbSymbolTableRecord
100
AcDbBlockTableRecord
2
*Model_Space
70
0
280
0
281
1
0
BLOCK_RECORD
5
4DFE
330
4DFC
100
AcDbSymbolTableRecord
100
AcDbBlockTableRecord
2
*Paper_Space
70
0
280
0
281
1
0
ENDTAB
0
ENDSEC
0
SECTION
2
BLOCKS
0
BLOCK
5
4DE7
330
0
100
AcDbEntity
100
AcDbBlockBegin
2
*Model_Space
70
0
10
0
20
0
30
0
3
*Model_Space
1

0
ENDBLK
5
4DE8
330
0
100
AcDbEntity
100
AcDbBlockEnd
0
BLOCK
5
4DE9
330
0
100
AcDbEntity
100
AcDbBlockBegin
2
*Paper_Space
70
0
10
0
20
0
30
0
3
*Paper_Space
1

0
ENDBLK
5
4DEA
330
0
100
AcDbEntity
100
AcDbBlockEnd
0
ENDSEC
0
SECTION
2
ENTITIES
0
LINE
5
4DEC
330
4DE7
100
AcDbEntity
100
AcDbLine
8
0
10
-0.87
20
-1
30
0
11
0.87
21
-1
31
0
0
ARC
5
4DED
330
4DE7
100
AcDbEntity
100
AcDbCircle
8
0
10
0.87
20
-0.87
30
0
40
0.13
100
AcDbArc
50
270
51
360
0
LINE
5
4DEE
330
4DE7
100
AcDbEntity
100
AcDbLine
8
0
10
1
20
-0.87
30
0
11
1
21
0.87
31
0
0
ARC
5
4DEF
330
4DE7
100
AcDbEntity
100
AcDbCircle
8
0
10
0.87
20
0.87
30
0
40
0.13
100
AcDbArc
50
0
51
90
0
LINE
5
4DF0
330
4DE7
100
AcDbEntity
100
AcDbLine
8
0
10
0.87
20
1
30
0
11
-0.87
21
1
31
0
0
ARC
5
4DF1
330
4DE7
100
AcDbEntity
100
AcDbCircle
8
0
10
-0.87
20
0.87
30
0
40
0.13
100
AcDbArc
50
90
51
180
0
LINE
5
4DF2
330
4DE7
100
AcDbEntity
100
AcDbLine
8
0
10
-1
20
0.87
30
0
11
-1
21
-0.87
31
0
0
ARC
5
4DF3
330
4DE7
100
AcDbEntity
100
AcDbCircle
8
0
10
-0.87
20
-0.87
30
0
40
0.13
100
AcDbArc
50
180
51
270
0
LINE
5
4DF4
330
4DE7
100
AcDbEntity
100
AcDbLine
8
0
10
-0.8700000000000001
20
-0.935
30
0
11
0.8700000000000001
21
-0.935
31
0
0
ARC
5
4DF5
330
4DE7
100
AcDbEntity
100
AcDbCircle
8
0
10
0.8700000000000001
20
-0.8700000000000001
30
0
40
0.065
100
AcDbArc
50
270
51
360
0
LINE
5
4DF6
330
4DE7
100
AcDbEntity
100
AcDbLine
8
0
10
0.935
20
-0.8700000000000001
30
0
11
0.935
21
0.8700000000000001
31
0
0
ARC
5
4DF7
330
4DE7
100
AcDbEntity
100
AcDbCircle
8
0
10
0.8700000000000001
20
0.8700000000000001
30
0
40
0.065
100
AcDbArc
50
0
51
90
0
LINE
5
4DF8
330
4DE7
100
AcDbEntity
100
AcDbLine
8
0
10
0.8700000000000001
20
0.935
30
0
11
-0.8700000000000001
21
0.935
31
0
0
ARC
5
4DF9
330
4DE7
100
AcDbEntity
100
AcDbCircle
8
0
10
-0.8700000000000001
20
0.8700000000000001
30
0
40
0.065
100
AcDbArc
50
90
51
180
0
LINE
5
4DFA
330
4DE7
100
AcDbEntity
100
AcDbLine
8
0
10
-0.935
20
0.8700000000000001
30
0
11
-0.935
21
-0.8700000000000001
31
0
0
ARC
5
4DFB
330
4DE7
100
AcDbEntity
100
AcDbCircle
8
0
10
-0.8700000000000001
20
-0.8700000000000001
30
0
40
0.065
100
AcDbArc
50
180
51
270
0
ENDSEC
0
SECTION
2
OBJECTS
0
DICTIONARY
5
4DD7
330
0
100
AcDbDictionary
281
1
3
ACAD_GROUP
350
4DEB
0
DICTIONARY
5
4DEB
330
4DD7
100
AcDbDictionary
281
1
0
ENDSEC
0
EOF