0
SECTION
2
HEADER
9
$HANDSEED
5
4915
9
$INSUNITS
70
1
9
$ACADVER
1
AC1021
0
ENDSEC
0
SECTION
2
CLASSES
0
ENDSEC
0
SECTION
2
TABLES
0
TABLE
2
LTYPE
5
4913
330
0
100
AcDbSymbolTable
70
5
0
LTYPE
5
48EC
330
4913
100
AcDbSymbolTableRecord
100
AcDbLinetypeTableRecord
2
CONTINUOUS
3
______
70
0
72
65
73
0
40
0
0
LTYPE
5
48ED
330
4913
100
AcDbSymbolTableRecord
100
AcDbLinetypeTableRecord
2
DASHED
3
_ _ _ 
70
0
72
65
73
2
40
10
49
5
74
0
49
-5
74
0
0
LTYPE
5
48EE
330
4913
100
AcDbSymbolTableRecord
100
AcDbLinetypeTableRecord
2
DOTTED
3
. . . 
70
0
72
65
73
2
40
5
49
0
74
0
49
-5
74
0
0
LTYPE
5
48F0
330
4913
100
AcDbSymbolTableRecord
100
AcDbLinetypeTableRecord
2
ByBlock
3

70
0
72
65
73
0
40
0
0
LTYPE
5
48F1
330
4913
100
AcDbSymbolTableRecord
100
AcDbLinetypeTableRecord
2
ByLayer
3

70
0
72
65
73
0
40
0
0
ENDTAB
0
TABLE
2
LAYER
5
4914
330
0
100
AcDbSymbolTable
70
1
0
LAYER
5
48EF
330
4914
100
AcDbSymbolTableRecord
100
AcDbLayerTableRecord
2
0
62
7
70
0
6
CONTINUOUS
390
1
0
ENDTAB
0
TABLE
2
VPORT
5
48F2
330
0
100
AcDbSymbolTable
70
1
0
VPORT
5
48F8
330
48F2
100
AcDbSymbolTableRecord
100
AcDbViewportTableRecord
2
*ACTIVE
40
1000
70
0
0
ENDTAB
0
TABLE
2
STYLE
5
48F3
330
0
100
AcDbSymbolTable
70
1
0
STYLE
5
48F9
330
48F3
100
AcDbSymbolTableRecord
100
AcDbTextStyleTableRecord
2
standard
70
0
40
0
41
1
50
0
71
0
42
1
3
txt
4

0
ENDTAB
0
TABLE
2
VIEW
5
48F4
330
0
100
AcDbSymbolTable
70
0
0
ENDTAB
0
TABLE
2
UCS
5
48F5
330
0
100
AcDbSymbolTable
70
0
0
ENDTAB
0
TABLE
2
APPID
5
48F6
330
0
100
AcDbSymbolTable
70
1
0
APPID
5
48FA
330
48F6
100
AcDbSymbolTableRecord
100
AcDbRegAppTableRecord
2
ACAD
70
0
0
ENDTAB
0
TABLE
2
DIMSTYLE
5
48F7
330
0
100
AcDbSymbolTable
100
AcDbDimStyleTable
70
0
71
1
0
ENDTAB
0
TABLE
2
BLOCK_RECORD
5
4910
330
0
100
AcDbSymbolTable
70
2
0
BLOCK_RECORD
5
4911
330
4910
100
AcDbSymbolTableRecord
100
AcDbBlockTableRecord
2
*Model_Space
70
0
280
0
281
1
0
BLOCK_RECORD
5
4912
330
4910
100
AcDbSymbolTableRecord
100
AcDbBlockTableRecord
2
*Paper_Space
70
0
280
0
281
1
0
ENDTAB
0
ENDSEC
0
SECTION
2
BLOCKS
0
BLOCK
5
48FB
330
0
100
AcDbEntity
100
AcDbBlockBegin
2
*Model_Space
70
0
10
0
20
0
30
0
3
*Model_Space
1

0
ENDBLK
5
48FC
330
0
100
AcDbEntity
100
AcDbBlockEnd
0
BLOCK
5
48FD
330
0
100
AcDbEntity
100
AcDbBlockBegin
2
*Paper_Space
70
0
10
0
20
0
30
0
3
*Paper_Space
1

0
ENDBLK
5
48FE
330
0
100
AcDbEntity
100
AcDbBlockEnd
0
ENDSEC
0
SECTION
2
ENTITIES
0
LINE
5
4900
330
48FB
100
AcDbEntity
100
AcDbLine
8
0
10
-0.87
20
-1
30
0
11
0.87
21
-1
31
0
0
ARC
5
4901
330
48FB
100
AcDbEntity
100
AcDbCircle
8
0
10
0.87
20
-0.87
30
0
40
0.13
100
AcDbArc
50
270
51
360
0
LINE
5
4902
330
48FB
100
AcDbEntity
100
AcDbLine
8
0
10
1
20
-0.87
30
0
11
1
21
0.87
31
0
0
ARC
5
4903
330
48FB
100
AcDbEntity
100
AcDbCircle
8
0
10
0.87
20
0.87
30
0
40
0.13
100
AcDbArc
50
0
51
90
0
LINE
5
4904
330
48FB
100
AcDbEntity
100
AcDbLine
8
0
10
0.87
20
1
30
0
11
-0.87
21
1
31
0
0
ARC
5
4905
330
48FB
100
AcDbEntity
100
AcDbCircle
8
0
10
-0.87
20
0.87
30
0
40
0.13
100
AcDbArc
50
90
51
180
0
LINE
5
4906
330
48FB
100
AcDbEntity
100
AcDbLine
8
0
10
-1
20
0.87
30
0
11
-1
21
-0.87
31
0
0
ARC
5
4907
330
48FB
100
AcDbEntity
100
AcDbCircle
8
0
10
-0.87
20
-0.87
30
0
40
0.13
100
AcDbArc
50
180
51
270
0
LINE
5
4908
330
48FB
100
AcDbEntity
100
AcDbLine
8
0
10
-0.8700000000000001
20
-0.935
30
0
11
0.8700000000000001
21
-0.935
31
0
0
ARC
5
4909
330
48FB
100
AcDbEntity
100
AcDbCircle
8
0
10
0.8700000000000001
20
-0.8700000000000001
30
0
40
0.065
100
AcDbArc
50
270
51
360
0
LINE
5
490A
330
48FB
100
AcDbEntity
100
AcDbLine
8
0
10
0.935
20
-0.8700000000000001
30
0
11
0.935
21
0.8700000000000001
31
0
0
ARC
5
490B
330
48FB
100
AcDbEntity
100
AcDbCircle
8
0
10
0.8700000000000001
20
0.8700000000000001
30
0
40
0.065
100
AcDbArc
50
0
51
90
0
LINE
5
490C
330
48FB
100
AcDbEntity
100
AcDbLine
8
0
10
0.8700000000000001
20
0.935
30
0
11
-0.8700000000000001
21
0.935
31
0
0
ARC
5
490D
330
48FB
100
AcDbEntity
100
AcDbCircle
8
0
10
-0.8700000000000001
20
0.8700000000000001
30
0
40
0.065
100
AcDbArc
50
90
51
180
0
LINE
5
490E
330
48FB
100
AcDbEntity
100
AcDbLine
8
0
10
-0.935
20
0.8700000000000001
30
0
11
-0.935
21
-0.8700000000000001
31
0
0
ARC
5
490F
330
48FB
100
AcDbEntity
100
AcDbCircle
8
0
10
-0.8700000000000001
20
-0.8700000000000001
30
0
40
0.065
100
AcDbArc
50
180
51
270
0
ENDSEC
0
SECTION
2
OBJECTS
0
DICTIONARY
5
48EB
330
0
100
AcDbDictionary
281
1
3
ACAD_GROUP
350
48FF
0
DICTIONARY
5
48FF
330
48EB
100
AcDbDictionary
281
1
0
ENDSEC
0
EOF