0
SECTION
2
HEADER
9
$HANDSEED
5
4A8F
9
$INSUNITS
70
1
9
$ACADVER
1
AC1021
0
ENDSEC
0
SECTION
2
CLASSES
0
ENDSEC
0
SECTION
2
TABLES
0
TABLE
2
LTYPE
5
4A8D
330
0
100
AcDbSymbolTable
70
5
0
LTYPE
5
4A66
330
4A8D
100
AcDbSymbolTableRecord
100
AcDbLinetypeTableRecord
2
CONTINUOUS
3
______
70
0
72
65
73
0
40
0
0
LTYPE
5
4A67
330
4A8D
100
AcDbSymbolTableRecord
100
AcDbLinetypeTableRecord
2
DASHED
3
_ _ _ 
70
0
72
65
73
2
40
10
49
5
74
0
49
-5
74
0
0
LTYPE
5
4A68
330
4A8D
100
AcDbSymbolTableRecord
100
AcDbLinetypeTableRecord
2
DOTTED
3
. . . 
70
0
72
65
73
2
40
5
49
0
74
0
49
-5
74
0
0
LTYPE
5
4A6A
330
4A8D
100
AcDbSymbolTableRecord
100
AcDbLinetypeTableRecord
2
ByBlock
3

70
0
72
65
73
0
40
0
0
LTYPE
5
4A6B
330
4A8D
100
AcDbSymbolTableRecord
100
AcDbLinetypeTableRecord
2
ByLayer
3

70
0
72
65
73
0
40
0
0
ENDTAB
0
TABLE
2
LAYER
5
4A8E
330
0
100
AcDbSymbolTable
70
1
0
LAYER
5
4A69
330
4A8E
100
AcDbSymbolTableRecord
100
AcDbLayerTableRecord
2
0
62
7
70
0
6
CONTINUOUS
390
1
0
ENDTAB
0
TABLE
2
VPORT
5
4A6C
330
0
100
AcDbSymbolTable
70
1
0
VPORT
5
4A72
330
4A6C
100
AcDbSymbolTableRecord
100
AcDbViewportTableRecord
2
*ACTIVE
40
1000
70
0
0
ENDTAB
0
TABLE
2
STYLE
5
4A6D
330
0
100
AcDbSymbolTable
70
1
0
STYLE
5
4A73
330
4A6D
100
AcDbSymbolTableRecord
100
AcDbTextStyleTableRecord
2
standard
70
0
40
0
41
1
50
0
71
0
42
1
3
txt
4

0
ENDTAB
0
TABLE
2
VIEW
5
4A6E
330
0
100
AcDbSymbolTable
70
0
0
ENDTAB
0
TABLE
2
UCS
5
4A6F
330
0
100
AcDbSymbolTable
70
0
0
ENDTAB
0
TABLE
2
APPID
5
4A70
330
0
100
AcDbSymbolTable
70
1
0
APPID
5
4A74
330
4A70
100
AcDbSymbolTableRecord
100
AcDbRegAppTableRecord
2
ACAD
70
0
0
ENDTAB
0
TABLE
2
DIMSTYLE
5
4A71
330
0
100
AcDbSymbolTable
100
AcDbDimStyleTable
70
0
71
1
0
ENDTAB
0
TABLE
2
BLOCK_RECORD
5
4A8A
330
0
100
AcDbSymbolTable
70
2
0
BLOCK_RECORD
5
4A8B
330
4A8A
100
AcDbSymbolTableRecord
100
AcDbBlockTableRecord
2
*Model_Space
70
0
280
0
281
1
0
BLOCK_RECORD
5
4A8C
330
4A8A
100
AcDbSymbolTableRecord
100
AcDbBlockTableRecord
2
*Paper_Space
70
0
280
0
281
1
0
ENDTAB
0
ENDSEC
0
SECTION
2
BLOCKS
0
BLOCK
5
4A75
330
0
100
AcDbEntity
100
AcDbBlockBegin
2
*Model_Space
70
0
10
0
20
0
30
0
3
*Model_Space
1

0
ENDBLK
5
4A76
330
0
100
AcDbEntity
100
AcDbBlockEnd
0
BLOCK
5
4A77
330
0
100
AcDbEntity
100
AcDbBlockBegin
2
*Paper_Space
70
0
10
0
20
0
30
0
3
*Paper_Space
1

0
ENDBLK
5
4A78
330
0
100
AcDbEntity
100
AcDbBlockEnd
0
ENDSEC
0
SECTION
2
ENTITIES
0
LINE
5
4A7A
330
4A75
100
AcDbEntity
100
AcDbLine
8
0
10
-1
20
-1.5
30
0
11
1
21
-1.5
31
0
0
ARC
5
4A7B
330
4A75
100
AcDbEntity
100
AcDbCircle
8
0
10
1
20
-1
30
0
40
0.5
100
AcDbArc
50
270
51
360
0
LINE
5
4A7C
330
4A75
100
AcDbEntity
100
AcDbLine
8
0
10
1.5
20
-1
30
0
11
1.5
21
1
31
0
0
ARC
5
4A7D
330
4A75
100
AcDbEntity
100
AcDbCircle
8
0
10
1
20
1
30
0
40
0.5
100
AcDbArc
50
0
51
90
0
LINE
5
4A7E
330
4A75
100
AcDbEntity
100
AcDbLine
8
0
10
1
20
1.5
30
0
11
-1
21
1.5
31
0
0
ARC
5
4A7F
330
4A75
100
AcDbEntity
100
AcDbCircle
8
0
10
-1
20
1
30
0
40
0.5
100
AcDbArc
50
90
51
180
0
LINE
5
4A80
330
4A75
100
AcDbEntity
100
AcDbLine
8
0
10
-1.5
20
1
30
0
11
-1.5
21
-1
31
0
0
ARC
5
4A81
330
4A75
100
AcDbEntity
100
AcDbCircle
8
0
10
-1
20
-1
30
0
40
0.5
100
AcDbArc
50
180
51
270
0
LINE
5
4A82
330
4A75
100
AcDbEntity
100
AcDbLine
8
0
10
-1
20
-1.25
30
0
11
1
21
-1.25
31
0
0
ARC
5
4A83
330
4A75
100
AcDbEntity
100
AcDbCircle
8
0
10
1
20
-1
30
0
40
0.25
100
AcDbArc
50
270
51
360
0
LINE
5
4A84
330
4A75
100
AcDbEntity
100
AcDbLine
8
0
10
1.25
20
-1
30
0
11
1.25
21
1
31
0
0
ARC
5
4A85
330
4A75
100
AcDbEntity
100
AcDbCircle
8
0
10
1
20
1
30
0
40
0.25
100
AcDbArc
50
0
51
90
0
LINE
5
4A86
330
4A75
100
AcDbEntity
100
AcDbLine
8
0
10
1
20
1.25
30
0
11
-1
21
1.25
31
0
0
ARC
5
4A87
330
4A75
100
AcDbEntity
100
AcDbCircle
8
0
10
-1
20
1
30
0
40
0.25
100
AcDbArc
50
90
51
180
0
LINE
5
4A88
330
4A75
100
AcDbEntity
100
AcDbLine
8
0
10
-1.25
20
1
30
0
11
-1.25
21
-1
31
0
0
ARC
5
4A89
330
4A75
100
AcDbEntity
100
AcDbCircle
8
0
10
-1
20
-1
30
0
40
0.25
100
AcDbArc
50
180
51
270
0
ENDSEC
0
SECTION
2
OBJECTS
0
DICTIONARY
5
4A65
330
0
100
AcDbDictionary
281
1
3
ACAD_GROUP
350
4A79
0
DICTIONARY
5
4A79
330
4A65
100
AcDbDictionary
281
1
0
ENDSEC
0
EOF