0
SECTION
2
HEADER
9
$HANDSEED
5
3E9D
9
$INSUNITS
70
1
9
$ACADVER
1
AC1021
0
ENDSEC
0
SECTION
2
CLASSES
0
ENDSEC
0
SECTION
2
TABLES
0
TABLE
2
LTYPE
5
3E9B
330
0
100
AcDbSymbolTable
70
5
0
LTYPE
5
3E7C
330
3E9B
100
AcDbSymbolTableRecord
100
AcDbLinetypeTableRecord
2
CONTINUOUS
3
______
70
0
72
65
73
0
40
0
0
LTYPE
5
3E7D
330
3E9B
100
AcDbSymbolTableRecord
100
AcDbLinetypeTableRecord
2
DASHED
3
_ _ _ 
70
0
72
65
73
2
40
10
49
5
74
0
49
-5
74
0
0
LTYPE
5
3E7E
330
3E9B
100
AcDbSymbolTableRecord
100
AcDbLinetypeTableRecord
2
DOTTED
3
. . . 
70
0
72
65
73
2
40
5
49
0
74
0
49
-5
74
0
0
LTYPE
5
3E80
330
3E9B
100
AcDbSymbolTableRecord
100
AcDbLinetypeTableRecord
2
ByBlock
3

70
0
72
65
73
0
40
0
0
LTYPE
5
3E81
330
3E9B
100
AcDbSymbolTableRecord
100
AcDbLinetypeTableRecord
2
ByLayer
3

70
0
72
65
73
0
40
0
0
ENDTAB
0
TABLE
2
LAYER
5
3E9C
330
0
100
AcDbSymbolTable
70
1
0
LAYER
5
3E7F
330
3E9C
100
AcDbSymbolTableRecord
100
AcDbLayerTableRecord
2
0
62
7
70
0
6
CONTINUOUS
390
1
0
ENDTAB
0
TABLE
2
VPORT
5
3E82
330
0
100
AcDbSymbolTable
70
1
0
VPORT
5
3E88
330
3E82
100
AcDbSymbolTableRecord
100
AcDbViewportTableRecord
2
*ACTIVE
40
1000
70
0
0
ENDTAB
0
TABLE
2
STYLE
5
3E83
330
0
100
AcDbSymbolTable
70
1
0
STYLE
5
3E89
330
3E83
100
AcDbSymbolTableRecord
100
AcDbTextStyleTableRecord
2
standard
70
0
40
0
41
1
50
0
71
0
42
1
3
txt
4

0
ENDTAB
0
TABLE
2
VIEW
5
3E84
330
0
100
AcDbSymbolTable
70
0
0
ENDTAB
0
TABLE
2
UCS
5
3E85
330
0
100
AcDbSymbolTable
70
0
0
ENDTAB
0
TABLE
2
APPID
5
3E86
330
0
100
AcDbSymbolTable
70
1
0
APPID
5
3E8A
330
3E86
100
AcDbSymbolTableRecord
100
AcDbRegAppTableRecord
2
ACAD
70
0
0
ENDTAB
0
TABLE
2
DIMSTYLE
5
3E87
330
0
100
AcDbSymbolTable
100
AcDbDimStyleTable
70
0
71
1
0
ENDTAB
0
TABLE
2
BLOCK_RECORD
5
3E98
330
0
100
AcDbSymbolTable
70
2
0
BLOCK_RECORD
5
3E99
330
3E98
100
AcDbSymbolTableRecord
100
AcDbBlockTableRecord
2
*Model_Space
70
0
280
0
281
1
0
BLOCK_RECORD
5
3E9A
330
3E98
100
AcDbSymbolTableRecord
100
AcDbBlockTableRecord
2
*Paper_Space
70
0
280
0
281
1
0
ENDTAB
0
ENDSEC
0
SECTION
2
BLOCKS
0
BLOCK
5
3E8B
330
0
100
AcDbEntity
100
AcDbBlockBegin
2
*Model_Space
70
0
10
0
20
0
30
0
3
*Model_Space
1

0
ENDBLK
5
3E8C
330
0
100
AcDbEntity
100
AcDbBlockEnd
0
BLOCK
5
3E8D
330
0
100
AcDbEntity
100
AcDbBlockBegin
2
*Paper_Space
70
0
10
0
20
0
30
0
3
*Paper_Space
1

0
ENDBLK
5
3E8E
330
0
100
AcDbEntity
100
AcDbBlockEnd
0
ENDSEC
0
SECTION
2
ENTITIES
0
LINE
5
3E90
330
3E8B
100
AcDbEntity
100
AcDbLine
8
0
10
-1.25
20
-1.25
30
0
11
1.25
21
-1.25
31
0
0
LINE
5
3E91
330
3E8B
100
AcDbEntity
100
AcDbLine
8
0
10
1.25
20
-1.25
30
0
11
1.25
21
1.25
31
0
0
LINE
5
3E92
330
3E8B
100
AcDbEntity
100
AcDbLine
8
0
10
1.25
20
1.25
30
0
11
-1.25
21
1.25
31
0
0
LINE
5
3E93
330
3E8B
100
AcDbEntity
100
AcDbLine
8
0
10
-1.25
20
1.25
30
0
11
-1.25
21
-1.25
31
0
0
LINE
5
3E94
330
3E8B
100
AcDbEntity
100
AcDbLine
8
0
10
-1.125
20
-1.125
30
0
11
1.125
21
-1.125
31
0
0
LINE
5
3E95
330
3E8B
100
AcDbEntity
100
AcDbLine
8
0
10
1.125
20
-1.125
30
0
11
1.125
21
1.125
31
0
0
LINE
5
3E96
330
3E8B
100
AcDbEntity
100
AcDbLine
8
0
10
1.125
20
1.125
30
0
11
-1.125
21
1.125
31
0
0
LINE
5
3E97
330
3E8B
100
AcDbEntity
100
AcDbLine
8
0
10
-1.125
20
1.125
30
0
11
-1.125
21
-1.125
31
0
0
ENDSEC
0
SECTION
2
OBJECTS
0
DICTIONARY
5
3E7B
330
0
100
AcDbDictionary
281
1
3
ACAD_GROUP
350
3E8F
0
DICTIONARY
5
3E8F
330
3E7B
100
AcDbDictionary
281
1
0
ENDSEC
0
EOF