0
SECTION
2
HEADER
9
$HANDSEED
5
3FCF
9
$INSUNITS
70
1
9
$ACADVER
1
AC1021
0
ENDSEC
0
SECTION
2
CLASSES
0
ENDSEC
0
SECTION
2
TABLES
0
TABLE
2
LTYPE
5
3FCD
330
0
100
AcDbSymbolTable
70
5
0
LTYPE
5
3FAE
330
3FCD
100
AcDbSymbolTableRecord
100
AcDbLinetypeTableRecord
2
CONTINUOUS
3
______
70
0
72
65
73
0
40
0
0
LTYPE
5
3FAF
330
3FCD
100
AcDbSymbolTableRecord
100
AcDbLinetypeTableRecord
2
DASHED
3
_ _ _ 
70
0
72
65
73
2
40
10
49
5
74
0
49
-5
74
0
0
LTYPE
5
3FB0
330
3FCD
100
AcDbSymbolTableRecord
100
AcDbLinetypeTableRecord
2
DOTTED
3
. . . 
70
0
72
65
73
2
40
5
49
0
74
0
49
-5
74
0
0
LTYPE
5
3FB2
330
3FCD
100
AcDbSymbolTableRecord
100
AcDbLinetypeTableRecord
2
ByBlock
3

70
0
72
65
73
0
40
0
0
LTYPE
5
3FB3
330
3FCD
100
AcDbSymbolTableRecord
100
AcDbLinetypeTableRecord
2
ByLayer
3

70
0
72
65
73
0
40
0
0
ENDTAB
0
TABLE
2
LAYER
5
3FCE
330
0
100
AcDbSymbolTable
70
1
0
LAYER
5
3FB1
330
3FCE
100
AcDbSymbolTableRecord
100
AcDbLayerTableRecord
2
0
62
7
70
0
6
CONTINUOUS
390
1
0
ENDTAB
0
TABLE
2
VPORT
5
3FB4
330
0
100
AcDbSymbolTable
70
1
0
VPORT
5
3FBA
330
3FB4
100
AcDbSymbolTableRecord
100
AcDbViewportTableRecord
2
*ACTIVE
40
1000
70
0
0
ENDTAB
0
TABLE
2
STYLE
5
3FB5
330
0
100
AcDbSymbolTable
70
1
0
STYLE
5
3FBB
330
3FB5
100
AcDbSymbolTableRecord
100
AcDbTextStyleTableRecord
2
standard
70
0
40
0
41
1
50
0
71
0
42
1
3
txt
4

0
ENDTAB
0
TABLE
2
VIEW
5
3FB6
330
0
100
AcDbSymbolTable
70
0
0
ENDTAB
0
TABLE
2
UCS
5
3FB7
330
0
100
AcDbSymbolTable
70
0
0
ENDTAB
0
TABLE
2
APPID
5
3FB8
330
0
100
AcDbSymbolTable
70
1
0
APPID
5
3FBC
330
3FB8
100
AcDbSymbolTableRecord
100
AcDbRegAppTableRecord
2
ACAD
70
0
0
ENDTAB
0
TABLE
2
DIMSTYLE
5
3FB9
330
0
100
AcDbSymbolTable
100
AcDbDimStyleTable
70
0
71
1
0
ENDTAB
0
TABLE
2
BLOCK_RECORD
5
3FCA
330
0
100
AcDbSymbolTable
70
2
0
BLOCK_RECORD
5
3FCB
330
3FCA
100
AcDbSymbolTableRecord
100
AcDbBlockTableRecord
2
*Model_Space
70
0
280
0
281
1
0
BLOCK_RECORD
5
3FCC
330
3FCA
100
AcDbSymbolTableRecord
100
AcDbBlockTableRecord
2
*Paper_Space
70
0
280
0
281
1
0
ENDTAB
0
ENDSEC
0
SECTION
2
BLOCKS
0
BLOCK
5
3FBD
330
0
100
AcDbEntity
100
AcDbBlockBegin
2
*Model_Space
70
0
10
0
20
0
30
0
3
*Model_Space
1

0
ENDBLK
5
3FBE
330
0
100
AcDbEntity
100
AcDbBlockEnd
0
BLOCK
5
3FBF
330
0
100
AcDbEntity
100
AcDbBlockBegin
2
*Paper_Space
70
0
10
0
20
0
30
0
3
*Paper_Space
1

0
ENDBLK
5
3FC0
330
0
100
AcDbEntity
100
AcDbBlockEnd
0
ENDSEC
0
SECTION
2
ENTITIES
0
LINE
5
3FC2
330
3FBD
100
AcDbEntity
100
AcDbLine
8
0
10
-2.5
20
-2.5
30
0
11
2.5
21
-2.5
31
0
0
LINE
5
3FC3
330
3FBD
100
AcDbEntity
100
AcDbLine
8
0
10
2.5
20
-2.5
30
0
11
2.5
21
2.5
31
0
0
LINE
5
3FC4
330
3FBD
100
AcDbEntity
100
AcDbLine
8
0
10
2.5
20
2.5
30
0
11
-2.5
21
2.5
31
0
0
LINE
5
3FC5
330
3FBD
100
AcDbEntity
100
AcDbLine
8
0
10
-2.5
20
2.5
30
0
11
-2.5
21
-2.5
31
0
0
LINE
5
3FC6
330
3FBD
100
AcDbEntity
100
AcDbLine
8
0
10
-2.375
20
-2.375
30
0
11
2.375
21
-2.375
31
0
0
LINE
5
3FC7
330
3FBD
100
AcDbEntity
100
AcDbLine
8
0
10
2.375
20
-2.375
30
0
11
2.375
21
2.375
31
0
0
LINE
5
3FC8
330
3FBD
100
AcDbEntity
100
AcDbLine
8
0
10
2.375
20
2.375
30
0
11
-2.375
21
2.375
31
0
0
LINE
5
3FC9
330
3FBD
100
AcDbEntity
100
AcDbLine
8
0
10
-2.375
20
2.375
30
0
11
-2.375
21
-2.375
31
0
0
ENDSEC
0
SECTION
2
OBJECTS
0
DICTIONARY
5
3FAD
330
0
100
AcDbDictionary
281
1
3
ACAD_GROUP
350
3FC1
0
DICTIONARY
5
3FC1
330
3FAD
100
AcDbDictionary
281
1
0
ENDSEC
0
EOF