0
SECTION
2
HEADER
9
$HANDSEED
5
4013
9
$INSUNITS
70
1
9
$ACADVER
1
AC1021
0
ENDSEC
0
SECTION
2
CLASSES
0
ENDSEC
0
SECTION
2
TABLES
0
TABLE
2
LTYPE
5
4011
330
0
100
AcDbSymbolTable
70
5
0
LTYPE
5
3FF2
330
4011
100
AcDbSymbolTableRecord
100
AcDbLinetypeTableRecord
2
CONTINUOUS
3
______
70
0
72
65
73
0
40
0
0
LTYPE
5
3FF3
330
4011
100
AcDbSymbolTableRecord
100
AcDbLinetypeTableRecord
2
DASHED
3
_ _ _ 
70
0
72
65
73
2
40
10
49
5
74
0
49
-5
74
0
0
LTYPE
5
3FF4
330
4011
100
AcDbSymbolTableRecord
100
AcDbLinetypeTableRecord
2
DOTTED
3
. . . 
70
0
72
65
73
2
40
5
49
0
74
0
49
-5
74
0
0
LTYPE
5
3FF6
330
4011
100
AcDbSymbolTableRecord
100
AcDbLinetypeTableRecord
2
ByBlock
3

70
0
72
65
73
0
40
0
0
LTYPE
5
3FF7
330
4011
100
AcDbSymbolTableRecord
100
AcDbLinetypeTableRecord
2
ByLayer
3

70
0
72
65
73
0
40
0
0
ENDTAB
0
TABLE
2
LAYER
5
4012
330
0
100
AcDbSymbolTable
70
1
0
LAYER
5
3FF5
330
4012
100
AcDbSymbolTableRecord
100
AcDbLayerTableRecord
2
0
62
7
70
0
6
CONTINUOUS
390
1
0
ENDTAB
0
TABLE
2
VPORT
5
3FF8
330
0
100
AcDbSymbolTable
70
1
0
VPORT
5
3FFE
330
3FF8
100
AcDbSymbolTableRecord
100
AcDbViewportTableRecord
2
*ACTIVE
40
1000
70
0
0
ENDTAB
0
TABLE
2
STYLE
5
3FF9
330
0
100
AcDbSymbolTable
70
1
0
STYLE
5
3FFF
330
3FF9
100
AcDbSymbolTableRecord
100
AcDbTextStyleTableRecord
2
standard
70
0
40
0
41
1
50
0
71
0
42
1
3
txt
4

0
ENDTAB
0
TABLE
2
VIEW
5
3FFA
330
0
100
AcDbSymbolTable
70
0
0
ENDTAB
0
TABLE
2
UCS
5
3FFB
330
0
100
AcDbSymbolTable
70
0
0
ENDTAB
0
TABLE
2
APPID
5
3FFC
330
0
100
AcDbSymbolTable
70
1
0
APPID
5
4000
330
3FFC
100
AcDbSymbolTableRecord
100
AcDbRegAppTableRecord
2
ACAD
70
0
0
ENDTAB
0
TABLE
2
DIMSTYLE
5
3FFD
330
0
100
AcDbSymbolTable
100
AcDbDimStyleTable
70
0
71
1
0
ENDTAB
0
TABLE
2
BLOCK_RECORD
5
400E
330
0
100
AcDbSymbolTable
70
2
0
BLOCK_RECORD
5
400F
330
400E
100
AcDbSymbolTableRecord
100
AcDbBlockTableRecord
2
*Model_Space
70
0
280
0
281
1
0
BLOCK_RECORD
5
4010
330
400E
100
AcDbSymbolTableRecord
100
AcDbBlockTableRecord
2
*Paper_Space
70
0
280
0
281
1
0
ENDTAB
0
ENDSEC
0
SECTION
2
BLOCKS
0
BLOCK
5
4001
330
0
100
AcDbEntity
100
AcDbBlockBegin
2
*Model_Space
70
0
10
0
20
0
30
0
3
*Model_Space
1

0
ENDBLK
5
4002
330
0
100
AcDbEntity
100
AcDbBlockEnd
0
BLOCK
5
4003
330
0
100
AcDbEntity
100
AcDbBlockBegin
2
*Paper_Space
70
0
10
0
20
0
30
0
3
*Paper_Space
1

0
ENDBLK
5
4004
330
0
100
AcDbEntity
100
AcDbBlockEnd
0
ENDSEC
0
SECTION
2
ENTITIES
0
LINE
5
4006
330
4001
100
AcDbEntity
100
AcDbLine
8
0
10
-3
20
-3
30
0
11
3
21
-3
31
0
0
LINE
5
4007
330
4001
100
AcDbEntity
100
AcDbLine
8
0
10
3
20
-3
30
0
11
3
21
3
31
0
0
LINE
5
4008
330
4001
100
AcDbEntity
100
AcDbLine
8
0
10
3
20
3
30
0
11
-3
21
3
31
0
0
LINE
5
4009
330
4001
100
AcDbEntity
100
AcDbLine
8
0
10
-3
20
3
30
0
11
-3
21
-3
31
0
0
LINE
5
400A
330
4001
100
AcDbEntity
100
AcDbLine
8
0
10
-2.875
20
-2.875
30
0
11
2.875
21
-2.875
31
0
0
LINE
5
400B
330
4001
100
AcDbEntity
100
AcDbLine
8
0
10
2.875
20
-2.875
30
0
11
2.875
21
2.875
31
0
0
LINE
5
400C
330
4001
100
AcDbEntity
100
AcDbLine
8
0
10
2.875
20
2.875
30
0
11
-2.875
21
2.875
31
0
0
LINE
5
400D
330
4001
100
AcDbEntity
100
AcDbLine
8
0
10
-2.875
20
2.875
30
0
11
-2.875
21
-2.875
31
0
0
ENDSEC
0
SECTION
2
OBJECTS
0
DICTIONARY
5
3FF1
330
0
100
AcDbDictionary
281
1
3
ACAD_GROUP
350
4005
0
DICTIONARY
5
4005
330
3FF1
100
AcDbDictionary
281
1
0
ENDSEC
0
EOF