0
SECTION
2
HEADER
9
$HANDSEED
5
6601
9
$INSUNITS
70
1
9
$ACADVER
1
AC1021
0
ENDSEC
0
SECTION
2
CLASSES
0
ENDSEC
0
SECTION
2
TABLES
0
TABLE
2
LTYPE
5
65FF
330
0
100
AcDbSymbolTable
70
5
0
LTYPE
5
65D8
330
65FF
100
AcDbSymbolTableRecord
100
AcDbLinetypeTableRecord
2
CONTINUOUS
3
______
70
0
72
65
73
0
40
0
0
LTYPE
5
65D9
330
65FF
100
AcDbSymbolTableRecord
100
AcDbLinetypeTableRecord
2
DASHED
3
_ _ _ 
70
0
72
65
73
2
40
10
49
5
74
0
49
-5
74
0
0
LTYPE
5
65DA
330
65FF
100
AcDbSymbolTableRecord
100
AcDbLinetypeTableRecord
2
DOTTED
3
. . . 
70
0
72
65
73
2
40
5
49
0
74
0
49
-5
74
0
0
LTYPE
5
65DC
330
65FF
100
AcDbSymbolTableRecord
100
AcDbLinetypeTableRecord
2
ByBlock
3

70
0
72
65
73
0
40
0
0
LTYPE
5
65DD
330
65FF
100
AcDbSymbolTableRecord
100
AcDbLinetypeTableRecord
2
ByLayer
3

70
0
72
65
73
0
40
0
0
ENDTAB
0
TABLE
2
LAYER
5
6600
330
0
100
AcDbSymbolTable
70
1
0
LAYER
5
65DB
330
6600
100
AcDbSymbolTableRecord
100
AcDbLayerTableRecord
2
0
62
7
70
0
6
CONTINUOUS
390
1
0
ENDTAB
0
TABLE
2
VPORT
5
65DE
330
0
100
AcDbSymbolTable
70
1
0
VPORT
5
65E4
330
65DE
100
AcDbSymbolTableRecord
100
AcDbViewportTableRecord
2
*ACTIVE
40
1000
70
0
0
ENDTAB
0
TABLE
2
STYLE
5
65DF
330
0
100
AcDbSymbolTable
70
1
0
STYLE
5
65E5
330
65DF
100
AcDbSymbolTableRecord
100
AcDbTextStyleTableRecord
2
standard
70
0
40
0
41
1
50
0
71
0
42
1
3
txt
4

0
ENDTAB
0
TABLE
2
VIEW
5
65E0
330
0
100
AcDbSymbolTable
70
0
0
ENDTAB
0
TABLE
2
UCS
5
65E1
330
0
100
AcDbSymbolTable
70
0
0
ENDTAB
0
TABLE
2
APPID
5
65E2
330
0
100
AcDbSymbolTable
70
1
0
APPID
5
65E6
330
65E2
100
AcDbSymbolTableRecord
100
AcDbRegAppTableRecord
2
ACAD
70
0
0
ENDTAB
0
TABLE
2
DIMSTYLE
5
65E3
330
0
100
AcDbSymbolTable
100
AcDbDimStyleTable
70
0
71
1
0
ENDTAB
0
TABLE
2
BLOCK_RECORD
5
65FC
330
0
100
AcDbSymbolTable
70
2
0
BLOCK_RECORD
5
65FD
330
65FC
100
AcDbSymbolTableRecord
100
AcDbBlockTableRecord
2
*Model_Space
70
0
280
0
281
1
0
BLOCK_RECORD
5
65FE
330
65FC
100
AcDbSymbolTableRecord
100
AcDbBlockTableRecord
2
*Paper_Space
70
0
280
0
281
1
0
ENDTAB
0
ENDSEC
0
SECTION
2
BLOCKS
0
BLOCK
5
65E7
330
0
100
AcDbEntity
100
AcDbBlockBegin
2
*Model_Space
70
0
10
0
20
0
30
0
3
*Model_Space
1

0
ENDBLK
5
65E8
330
0
100
AcDbEntity
100
AcDbBlockEnd
0
BLOCK
5
65E9
330
0
100
AcDbEntity
100
AcDbBlockBegin
2
*Paper_Space
70
0
10
0
20
0
30
0
3
*Paper_Space
1

0
ENDBLK
5
65EA
330
0
100
AcDbEntity
100
AcDbBlockEnd
0
ENDSEC
0
SECTION
2
ENTITIES
0
LINE
5
65EC
330
65E7
100
AcDbEntity
100
AcDbLine
8
0
10
-0.652
20
-0.75
30
0
11
0.652
21
-0.75
31
0
0
ARC
5
65ED
330
65E7
100
AcDbEntity
100
AcDbCircle
8
0
10
0.652
20
-0.652
30
0
40
0.098
100
AcDbArc
50
270
51
360
0
LINE
5
65EE
330
65E7
100
AcDbEntity
100
AcDbLine
8
0
10
0.75
20
-0.652
30
0
11
0.75
21
0.652
31
0
0
ARC
5
65EF
330
65E7
100
AcDbEntity
100
AcDbCircle
8
0
10
0.652
20
0.652
30
0
40
0.098
100
AcDbArc
50
0
51
90
0
LINE
5
65F0
330
65E7
100
AcDbEntity
100
AcDbLine
8
0
10
0.652
20
0.75
30
0
11
-0.652
21
0.75
31
0
0
ARC
5
65F1
330
65E7
100
AcDbEntity
100
AcDbCircle
8
0
10
-0.652
20
0.652
30
0
40
0.098
100
AcDbArc
50
90
51
180
0
LINE
5
65F2
330
65E7
100
AcDbEntity
100
AcDbLine
8
0
10
-0.75
20
0.652
30
0
11
-0.75
21
-0.652
31
0
0
ARC
5
65F3
330
65E7
100
AcDbEntity
100
AcDbCircle
8
0
10
-0.652
20
-0.652
30
0
40
0.098
100
AcDbArc
50
180
51
270
0
LINE
5
65F4
330
65E7
100
AcDbEntity
100
AcDbLine
8
0
10
-0.6519999999999999
20
-0.701
30
0
11
0.6519999999999999
21
-0.701
31
0
0
ARC
5
65F5
330
65E7
100
AcDbEntity
100
AcDbCircle
8
0
10
0.6519999999999999
20
-0.6519999999999999
30
0
40
0.049
100
AcDbArc
50
270
51
360
0
LINE
5
65F6
330
65E7
100
AcDbEntity
100
AcDbLine
8
0
10
0.701
20
-0.6519999999999999
30
0
11
0.701
21
0.6519999999999999
31
0
0
ARC
5
65F7
330
65E7
100
AcDbEntity
100
AcDbCircle
8
0
10
0.6519999999999999
20
0.6519999999999999
30
0
40
0.049
100
AcDbArc
50
0
51
90
0
LINE
5
65F8
330
65E7
100
AcDbEntity
100
AcDbLine
8
0
10
0.6519999999999999
20
0.701
30
0
11
-0.6519999999999999
21
0.701
31
0
0
ARC
5
65F9
330
65E7
100
AcDbEntity
100
AcDbCircle
8
0
10
-0.6519999999999999
20
0.6519999999999999
30
0
40
0.049
100
AcDbArc
50
90
51
180
0
LINE
5
65FA
330
65E7
100
AcDbEntity
100
AcDbLine
8
0
10
-0.701
20
0.6519999999999999
30
0
11
-0.701
21
-0.6519999999999999
31
0
0
ARC
5
65FB
330
65E7
100
AcDbEntity
100
AcDbCircle
8
0
10
-0.6519999999999999
20
-0.6519999999999999
30
0
40
0.049
100
AcDbArc
50
180
51
270
0
ENDSEC
0
SECTION
2
OBJECTS
0
DICTIONARY
5
65D7
330
0
100
AcDbDictionary
281
1
3
ACAD_GROUP
350
65EB
0
DICTIONARY
5
65EB
330
65D7
100
AcDbDictionary
281
1
0
ENDSEC
0
EOF