0
SECTION
2
HEADER
9
$HANDSEED
5
5583
9
$INSUNITS
70
1
9
$ACADVER
1
AC1021
0
ENDSEC
0
SECTION
2
CLASSES
0
ENDSEC
0
SECTION
2
TABLES
0
TABLE
2
LTYPE
5
5581
330
0
100
AcDbSymbolTable
70
5
0
LTYPE
5
555A
330
5581
100
AcDbSymbolTableRecord
100
AcDbLinetypeTableRecord
2
CONTINUOUS
3
______
70
0
72
65
73
0
40
0
0
LTYPE
5
555B
330
5581
100
AcDbSymbolTableRecord
100
AcDbLinetypeTableRecord
2
DASHED
3
_ _ _ 
70
0
72
65
73
2
40
10
49
5
74
0
49
-5
74
0
0
LTYPE
5
555C
330
5581
100
AcDbSymbolTableRecord
100
AcDbLinetypeTableRecord
2
DOTTED
3
. . . 
70
0
72
65
73
2
40
5
49
0
74
0
49
-5
74
0
0
LTYPE
5
555E
330
5581
100
AcDbSymbolTableRecord
100
AcDbLinetypeTableRecord
2
ByBlock
3

70
0
72
65
73
0
40
0
0
LTYPE
5
555F
330
5581
100
AcDbSymbolTableRecord
100
AcDbLinetypeTableRecord
2
ByLayer
3

70
0
72
65
73
0
40
0
0
ENDTAB
0
TABLE
2
LAYER
5
5582
330
0
100
AcDbSymbolTable
70
1
0
LAYER
5
555D
330
5582
100
AcDbSymbolTableRecord
100
AcDbLayerTableRecord
2
0
62
7
70
0
6
CONTINUOUS
390
1
0
ENDTAB
0
TABLE
2
VPORT
5
5560
330
0
100
AcDbSymbolTable
70
1
0
VPORT
5
5566
330
5560
100
AcDbSymbolTableRecord
100
AcDbViewportTableRecord
2
*ACTIVE
40
1000
70
0
0
ENDTAB
0
TABLE
2
STYLE
5
5561
330
0
100
AcDbSymbolTable
70
1
0
STYLE
5
5567
330
5561
100
AcDbSymbolTableRecord
100
AcDbTextStyleTableRecord
2
standard
70
0
40
0
41
1
50
0
71
0
42
1
3
txt
4

0
ENDTAB
0
TABLE
2
VIEW
5
5562
330
0
100
AcDbSymbolTable
70
0
0
ENDTAB
0
TABLE
2
UCS
5
5563
330
0
100
AcDbSymbolTable
70
0
0
ENDTAB
0
TABLE
2
APPID
5
5564
330
0
100
AcDbSymbolTable
70
1
0
APPID
5
5568
330
5564
100
AcDbSymbolTableRecord
100
AcDbRegAppTableRecord
2
ACAD
70
0
0
ENDTAB
0
TABLE
2
DIMSTYLE
5
5565
330
0
100
AcDbSymbolTable
100
AcDbDimStyleTable
70
0
71
1
0
ENDTAB
0
TABLE
2
BLOCK_RECORD
5
557E
330
0
100
AcDbSymbolTable
70
2
0
BLOCK_RECORD
5
557F
330
557E
100
AcDbSymbolTableRecord
100
AcDbBlockTableRecord
2
*Model_Space
70
0
280
0
281
1
0
BLOCK_RECORD
5
5580
330
557E
100
AcDbSymbolTableRecord
100
AcDbBlockTableRecord
2
*Paper_Space
70
0
280
0
281
1
0
ENDTAB
0
ENDSEC
0
SECTION
2
BLOCKS
0
BLOCK
5
5569
330
0
100
AcDbEntity
100
AcDbBlockBegin
2
*Model_Space
70
0
10
0
20
0
30
0
3
*Model_Space
1

0
ENDBLK
5
556A
330
0
100
AcDbEntity
100
AcDbBlockEnd
0
BLOCK
5
556B
330
0
100
AcDbEntity
100
AcDbBlockBegin
2
*Paper_Space
70
0
10
0
20
0
30
0
3
*Paper_Space
1

0
ENDBLK
5
556C
330
0
100
AcDbEntity
100
AcDbBlockEnd
0
ENDSEC
0
SECTION
2
ENTITIES
0
LINE
5
556E
330
5569
100
AcDbEntity
100
AcDbLine
8
0
10
-2.124
20
-2.5
30
0
11
2.124
21
-2.5
31
0
0
ARC
5
556F
330
5569
100
AcDbEntity
100
AcDbCircle
8
0
10
2.124
20
-2.124
30
0
40
0.376
100
AcDbArc
50
270
51
360
0
LINE
5
5570
330
5569
100
AcDbEntity
100
AcDbLine
8
0
10
2.5
20
-2.124
30
0
11
2.5
21
2.124
31
0
0
ARC
5
5571
330
5569
100
AcDbEntity
100
AcDbCircle
8
0
10
2.124
20
2.124
30
0
40
0.376
100
AcDbArc
50
0
51
90
0
LINE
5
5572
330
5569
100
AcDbEntity
100
AcDbLine
8
0
10
2.124
20
2.5
30
0
11
-2.124
21
2.5
31
0
0
ARC
5
5573
330
5569
100
AcDbEntity
100
AcDbCircle
8
0
10
-2.124
20
2.124
30
0
40
0.376
100
AcDbArc
50
90
51
180
0
LINE
5
5574
330
5569
100
AcDbEntity
100
AcDbLine
8
0
10
-2.5
20
2.124
30
0
11
-2.5
21
-2.124
31
0
0
ARC
5
5575
330
5569
100
AcDbEntity
100
AcDbCircle
8
0
10
-2.124
20
-2.124
30
0
40
0.376
100
AcDbArc
50
180
51
270
0
LINE
5
5576
330
5569
100
AcDbEntity
100
AcDbLine
8
0
10
-2.1239999999999997
20
-2.312
30
0
11
2.1239999999999997
21
-2.312
31
0
0
ARC
5
5577
330
5569
100
AcDbEntity
100
AcDbCircle
8
0
10
2.1239999999999997
20
-2.1239999999999997
30
0
40
0.188
100
AcDbArc
50
270
51
360
0
LINE
5
5578
330
5569
100
AcDbEntity
100
AcDbLine
8
0
10
2.312
20
-2.1239999999999997
30
0
11
2.312
21
2.1239999999999997
31
0
0
ARC
5
5579
330
5569
100
AcDbEntity
100
AcDbCircle
8
0
10
2.1239999999999997
20
2.1239999999999997
30
0
40
0.188
100
AcDbArc
50
0
51
90
0
LINE
5
557A
330
5569
100
AcDbEntity
100
AcDbLine
8
0
10
2.1239999999999997
20
2.312
30
0
11
-2.1239999999999997
21
2.312
31
0
0
ARC
5
557B
330
5569
100
AcDbEntity
100
AcDbCircle
8
0
10
-2.1239999999999997
20
2.1239999999999997
30
0
40
0.188
100
AcDbArc
50
90
51
180
0
LINE
5
557C
330
5569
100
AcDbEntity
100
AcDbLine
8
0
10
-2.312
20
2.1239999999999997
30
0
11
-2.312
21
-2.1239999999999997
31
0
0
ARC
5
557D
330
5569
100
AcDbEntity
100
AcDbCircle
8
0
10
-2.1239999999999997
20
-2.1239999999999997
30
0
40
0.188
100
AcDbArc
50
180
51
270
0
ENDSEC
0
SECTION
2
OBJECTS
0
DICTIONARY
5
5559
330
0
100
AcDbDictionary
281
1
3
ACAD_GROUP
350
556D
0
DICTIONARY
5
556D
330
5559
100
AcDbDictionary
281
1
0
ENDSEC
0
EOF