0
SECTION
2
HEADER
9
$HANDSEED
5
4035
9
$INSUNITS
70
1
9
$ACADVER
1
AC1021
0
ENDSEC
0
SECTION
2
CLASSES
0
ENDSEC
0
SECTION
2
TABLES
0
TABLE
2
LTYPE
5
4033
330
0
100
AcDbSymbolTable
70
5
0
LTYPE
5
4014
330
4033
100
AcDbSymbolTableRecord
100
AcDbLinetypeTableRecord
2
CONTINUOUS
3
______
70
0
72
65
73
0
40
0
0
LTYPE
5
4015
330
4033
100
AcDbSymbolTableRecord
100
AcDbLinetypeTableRecord
2
DASHED
3
_ _ _ 
70
0
72
65
73
2
40
10
49
5
74
0
49
-5
74
0
0
LTYPE
5
4016
330
4033
100
AcDbSymbolTableRecord
100
AcDbLinetypeTableRecord
2
DOTTED
3
. . . 
70
0
72
65
73
2
40
5
49
0
74
0
49
-5
74
0
0
LTYPE
5
4018
330
4033
100
AcDbSymbolTableRecord
100
AcDbLinetypeTableRecord
2
ByBlock
3

70
0
72
65
73
0
40
0
0
LTYPE
5
4019
330
4033
100
AcDbSymbolTableRecord
100
AcDbLinetypeTableRecord
2
ByLayer
3

70
0
72
65
73
0
40
0
0
ENDTAB
0
TABLE
2
LAYER
5
4034
330
0
100
AcDbSymbolTable
70
1
0
LAYER
5
4017
330
4034
100
AcDbSymbolTableRecord
100
AcDbLayerTableRecord
2
0
62
7
70
0
6
CONTINUOUS
390
1
0
ENDTAB
0
TABLE
2
VPORT
5
401A
330
0
100
AcDbSymbolTable
70
1
0
VPORT
5
4020
330
401A
100
AcDbSymbolTableRecord
100
AcDbViewportTableRecord
2
*ACTIVE
40
1000
70
0
0
ENDTAB
0
TABLE
2
STYLE
5
401B
330
0
100
AcDbSymbolTable
70
1
0
STYLE
5
4021
330
401B
100
AcDbSymbolTableRecord
100
AcDbTextStyleTableRecord
2
standard
70
0
40
0
41
1
50
0
71
0
42
1
3
txt
4

0
ENDTAB
0
TABLE
2
VIEW
5
401C
330
0
100
AcDbSymbolTable
70
0
0
ENDTAB
0
TABLE
2
UCS
5
401D
330
0
100
AcDbSymbolTable
70
0
0
ENDTAB
0
TABLE
2
APPID
5
401E
330
0
100
AcDbSymbolTable
70
1
0
APPID
5
4022
330
401E
100
AcDbSymbolTableRecord
100
AcDbRegAppTableRecord
2
ACAD
70
0
0
ENDTAB
0
TABLE
2
DIMSTYLE
5
401F
330
0
100
AcDbSymbolTable
100
AcDbDimStyleTable
70
0
71
1
0
ENDTAB
0
TABLE
2
BLOCK_RECORD
5
4030
330
0
100
AcDbSymbolTable
70
2
0
BLOCK_RECORD
5
4031
330
4030
100
AcDbSymbolTableRecord
100
AcDbBlockTableRecord
2
*Model_Space
70
0
280
0
281
1
0
BLOCK_RECORD
5
4032
330
4030
100
AcDbSymbolTableRecord
100
AcDbBlockTableRecord
2
*Paper_Space
70
0
280
0
281
1
0
ENDTAB
0
ENDSEC
0
SECTION
2
BLOCKS
0
BLOCK
5
4023
330
0
100
AcDbEntity
100
AcDbBlockBegin
2
*Model_Space
70
0
10
0
20
0
30
0
3
*Model_Space
1

0
ENDBLK
5
4024
330
0
100
AcDbEntity
100
AcDbBlockEnd
0
BLOCK
5
4025
330
0
100
AcDbEntity
100
AcDbBlockBegin
2
*Paper_Space
70
0
10
0
20
0
30
0
3
*Paper_Space
1

0
ENDBLK
5
4026
330
0
100
AcDbEntity
100
AcDbBlockEnd
0
ENDSEC
0
SECTION
2
ENTITIES
0
LINE
5
4028
330
4023
100
AcDbEntity
100
AcDbLine
8
0
10
-3
20
-3
30
0
11
3
21
-3
31
0
0
LINE
5
4029
330
4023
100
AcDbEntity
100
AcDbLine
8
0
10
3
20
-3
30
0
11
3
21
3
31
0
0
LINE
5
402A
330
4023
100
AcDbEntity
100
AcDbLine
8
0
10
3
20
3
30
0
11
-3
21
3
31
0
0
LINE
5
402B
330
4023
100
AcDbEntity
100
AcDbLine
8
0
10
-3
20
3
30
0
11
-3
21
-3
31
0
0
LINE
5
402C
330
4023
100
AcDbEntity
100
AcDbLine
8
0
10
-2.75
20
-2.75
30
0
11
2.75
21
-2.75
31
0
0
LINE
5
402D
330
4023
100
AcDbEntity
100
AcDbLine
8
0
10
2.75
20
-2.75
30
0
11
2.75
21
2.75
31
0
0
LINE
5
402E
330
4023
100
AcDbEntity
100
AcDbLine
8
0
10
2.75
20
2.75
30
0
11
-2.75
21
2.75
31
0
0
LINE
5
402F
330
4023
100
AcDbEntity
100
AcDbLine
8
0
10
-2.75
20
2.75
30
0
11
-2.75
21
-2.75
31
0
0
ENDSEC
0
SECTION
2
OBJECTS
0
DICTIONARY
5
4013
330
0
100
AcDbDictionary
281
1
3
ACAD_GROUP
350
4027
0
DICTIONARY
5
4027
330
4013
100
AcDbDictionary
281
1
0
ENDSEC
0
EOF