0
SECTION
2
HEADER
9
$HANDSEED
5
3D6B
9
$INSUNITS
70
1
9
$ACADVER
1
AC1021
0
ENDSEC
0
SECTION
2
CLASSES
0
ENDSEC
0
SECTION
2
TABLES
0
TABLE
2
LTYPE
5
3D69
330
0
100
AcDbSymbolTable
70
5
0
LTYPE
5
3D4A
330
3D69
100
AcDbSymbolTableRecord
100
AcDbLinetypeTableRecord
2
CONTINUOUS
3
______
70
0
72
65
73
0
40
0
0
LTYPE
5
3D4B
330
3D69
100
AcDbSymbolTableRecord
100
AcDbLinetypeTableRecord
2
DASHED
3
_ _ _ 
70
0
72
65
73
2
40
10
49
5
74
0
49
-5
74
0
0
LTYPE
5
3D4C
330
3D69
100
AcDbSymbolTableRecord
100
AcDbLinetypeTableRecord
2
DOTTED
3
. . . 
70
0
72
65
73
2
40
5
49
0
74
0
49
-5
74
0
0
LTYPE
5
3D4E
330
3D69
100
AcDbSymbolTableRecord
100
AcDbLinetypeTableRecord
2
ByBlock
3

70
0
72
65
73
0
40
0
0
LTYPE
5
3D4F
330
3D69
100
AcDbSymbolTableRecord
100
AcDbLinetypeTableRecord
2
ByLayer
3

70
0
72
65
73
0
40
0
0
ENDTAB
0
TABLE
2
LAYER
5
3D6A
330
0
100
AcDbSymbolTable
70
1
0
LAYER
5
3D4D
330
3D6A
100
AcDbSymbolTableRecord
100
AcDbLayerTableRecord
2
0
62
7
70
0
6
CONTINUOUS
390
1
0
ENDTAB
0
TABLE
2
VPORT
5
3D50
330
0
100
AcDbSymbolTable
70
1
0
VPORT
5
3D56
330
3D50
100
AcDbSymbolTableRecord
100
AcDbViewportTableRecord
2
*ACTIVE
40
1000
70
0
0
ENDTAB
0
TABLE
2
STYLE
5
3D51
330
0
100
AcDbSymbolTable
70
1
0
STYLE
5
3D57
330
3D51
100
AcDbSymbolTableRecord
100
AcDbTextStyleTableRecord
2
standard
70
0
40
0
41
1
50
0
71
0
42
1
3
txt
4

0
ENDTAB
0
TABLE
2
VIEW
5
3D52
330
0
100
AcDbSymbolTable
70
0
0
ENDTAB
0
TABLE
2
UCS
5
3D53
330
0
100
AcDbSymbolTable
70
0
0
ENDTAB
0
TABLE
2
APPID
5
3D54
330
0
100
AcDbSymbolTable
70
1
0
APPID
5
3D58
330
3D54
100
AcDbSymbolTableRecord
100
AcDbRegAppTableRecord
2
ACAD
70
0
0
ENDTAB
0
TABLE
2
DIMSTYLE
5
3D55
330
0
100
AcDbSymbolTable
100
AcDbDimStyleTable
70
0
71
1
0
ENDTAB
0
TABLE
2
BLOCK_RECORD
5
3D66
330
0
100
AcDbSymbolTable
70
2
0
BLOCK_RECORD
5
3D67
330
3D66
100
AcDbSymbolTableRecord
100
AcDbBlockTableRecord
2
*Model_Space
70
0
280
0
281
1
0
BLOCK_RECORD
5
3D68
330
3D66
100
AcDbSymbolTableRecord
100
AcDbBlockTableRecord
2
*Paper_Space
70
0
280
0
281
1
0
ENDTAB
0
ENDSEC
0
SECTION
2
BLOCKS
0
BLOCK
5
3D59
330
0
100
AcDbEntity
100
AcDbBlockBegin
2
*Model_Space
70
0
10
0
20
0
30
0
3
*Model_Space
1

0
ENDBLK
5
3D5A
330
0
100
AcDbEntity
100
AcDbBlockEnd
0
BLOCK
5
3D5B
330
0
100
AcDbEntity
100
AcDbBlockBegin
2
*Paper_Space
70
0
10
0
20
0
30
0
3
*Paper_Space
1

0
ENDBLK
5
3D5C
330
0
100
AcDbEntity
100
AcDbBlockEnd
0
ENDSEC
0
SECTION
2
ENTITIES
0
LINE
5
3D5E
330
3D59
100
AcDbEntity
100
AcDbLine
8
0
10
-0.75
20
-0.75
30
0
11
0.75
21
-0.75
31
0
0
LINE
5
3D5F
330
3D59
100
AcDbEntity
100
AcDbLine
8
0
10
0.75
20
-0.75
30
0
11
0.75
21
0.75
31
0
0
LINE
5
3D60
330
3D59
100
AcDbEntity
100
AcDbLine
8
0
10
0.75
20
0.75
30
0
11
-0.75
21
0.75
31
0
0
LINE
5
3D61
330
3D59
100
AcDbEntity
100
AcDbLine
8
0
10
-0.75
20
0.75
30
0
11
-0.75
21
-0.75
31
0
0
LINE
5
3D62
330
3D59
100
AcDbEntity
100
AcDbLine
8
0
10
-0.688
20
-0.688
30
0
11
0.688
21
-0.688
31
0
0
LINE
5
3D63
330
3D59
100
AcDbEntity
100
AcDbLine
8
0
10
0.688
20
-0.688
30
0
11
0.688
21
0.688
31
0
0
LINE
5
3D64
330
3D59
100
AcDbEntity
100
AcDbLine
8
0
10
0.688
20
0.688
30
0
11
-0.688
21
0.688
31
0
0
LINE
5
3D65
330
3D59
100
AcDbEntity
100
AcDbLine
8
0
10
-0.688
20
0.688
30
0
11
-0.688
21
-0.688
31
0
0
ENDSEC
0
SECTION
2
OBJECTS
0
DICTIONARY
5
3D49
330
0
100
AcDbDictionary
281
1
3
ACAD_GROUP
350
3D5D
0
DICTIONARY
5
3D5D
330
3D49
100
AcDbDictionary
281
1
0
ENDSEC
0
EOF