0
SECTION
2
HEADER
9
$HANDSEED
5
5559
9
$INSUNITS
70
1
9
$ACADVER
1
AC1021
0
ENDSEC
0
SECTION
2
CLASSES
0
ENDSEC
0
SECTION
2
TABLES
0
TABLE
2
LTYPE
5
5557
330
0
100
AcDbSymbolTable
70
5
0
LTYPE
5
5530
330
5557
100
AcDbSymbolTableRecord
100
AcDbLinetypeTableRecord
2
CONTINUOUS
3
______
70
0
72
65
73
0
40
0
0
LTYPE
5
5531
330
5557
100
AcDbSymbolTableRecord
100
AcDbLinetypeTableRecord
2
DASHED
3
_ _ _ 
70
0
72
65
73
2
40
10
49
5
74
0
49
-5
74
0
0
LTYPE
5
5532
330
5557
100
AcDbSymbolTableRecord
100
AcDbLinetypeTableRecord
2
DOTTED
3
. . . 
70
0
72
65
73
2
40
5
49
0
74
0
49
-5
74
0
0
LTYPE
5
5534
330
5557
100
AcDbSymbolTableRecord
100
AcDbLinetypeTableRecord
2
ByBlock
3

70
0
72
65
73
0
40
0
0
LTYPE
5
5535
330
5557
100
AcDbSymbolTableRecord
100
AcDbLinetypeTableRecord
2
ByLayer
3

70
0
72
65
73
0
40
0
0
ENDTAB
0
TABLE
2
LAYER
5
5558
330
0
100
AcDbSymbolTable
70
1
0
LAYER
5
5533
330
5558
100
AcDbSymbolTableRecord
100
AcDbLayerTableRecord
2
0
62
7
70
0
6
CONTINUOUS
390
1
0
ENDTAB
0
TABLE
2
VPORT
5
5536
330
0
100
AcDbSymbolTable
70
1
0
VPORT
5
553C
330
5536
100
AcDbSymbolTableRecord
100
AcDbViewportTableRecord
2
*ACTIVE
40
1000
70
0
0
ENDTAB
0
TABLE
2
STYLE
5
5537
330
0
100
AcDbSymbolTable
70
1
0
STYLE
5
553D
330
5537
100
AcDbSymbolTableRecord
100
AcDbTextStyleTableRecord
2
standard
70
0
40
0
41
1
50
0
71
0
42
1
3
txt
4

0
ENDTAB
0
TABLE
2
VIEW
5
5538
330
0
100
AcDbSymbolTable
70
0
0
ENDTAB
0
TABLE
2
UCS
5
5539
330
0
100
AcDbSymbolTable
70
0
0
ENDTAB
0
TABLE
2
APPID
5
553A
330
0
100
AcDbSymbolTable
70
1
0
APPID
5
553E
330
553A
100
AcDbSymbolTableRecord
100
AcDbRegAppTableRecord
2
ACAD
70
0
0
ENDTAB
0
TABLE
2
DIMSTYLE
5
553B
330
0
100
AcDbSymbolTable
100
AcDbDimStyleTable
70
0
71
1
0
ENDTAB
0
TABLE
2
BLOCK_RECORD
5
5554
330
0
100
AcDbSymbolTable
70
2
0
BLOCK_RECORD
5
5555
330
5554
100
AcDbSymbolTableRecord
100
AcDbBlockTableRecord
2
*Model_Space
70
0
280
0
281
1
0
BLOCK_RECORD
5
5556
330
5554
100
AcDbSymbolTableRecord
100
AcDbBlockTableRecord
2
*Paper_Space
70
0
280
0
281
1
0
ENDTAB
0
ENDSEC
0
SECTION
2
BLOCKS
0
BLOCK
5
553F
330
0
100
AcDbEntity
100
AcDbBlockBegin
2
*Model_Space
70
0
10
0
20
0
30
0
3
*Model_Space
1

0
ENDBLK
5
5540
330
0
100
AcDbEntity
100
AcDbBlockEnd
0
BLOCK
5
5541
330
0
100
AcDbEntity
100
AcDbBlockBegin
2
*Paper_Space
70
0
10
0
20
0
30
0
3
*Paper_Space
1

0
ENDBLK
5
5542
330
0
100
AcDbEntity
100
AcDbBlockEnd
0
ENDSEC
0
SECTION
2
ENTITIES
0
LINE
5
5544
330
553F
100
AcDbEntity
100
AcDbLine
8
0
10
-1.374
20
-1.75
30
0
11
1.374
21
-1.75
31
0
0
ARC
5
5545
330
553F
100
AcDbEntity
100
AcDbCircle
8
0
10
1.374
20
-1.374
30
0
40
0.376
100
AcDbArc
50
270
51
360
0
LINE
5
5546
330
553F
100
AcDbEntity
100
AcDbLine
8
0
10
1.75
20
-1.374
30
0
11
1.75
21
1.374
31
0
0
ARC
5
5547
330
553F
100
AcDbEntity
100
AcDbCircle
8
0
10
1.374
20
1.374
30
0
40
0.376
100
AcDbArc
50
0
51
90
0
LINE
5
5548
330
553F
100
AcDbEntity
100
AcDbLine
8
0
10
1.374
20
1.75
30
0
11
-1.374
21
1.75
31
0
0
ARC
5
5549
330
553F
100
AcDbEntity
100
AcDbCircle
8
0
10
-1.374
20
1.374
30
0
40
0.376
100
AcDbArc
50
90
51
180
0
LINE
5
554A
330
553F
100
AcDbEntity
100
AcDbLine
8
0
10
-1.75
20
1.374
30
0
11
-1.75
21
-1.374
31
0
0
ARC
5
554B
330
553F
100
AcDbEntity
100
AcDbCircle
8
0
10
-1.374
20
-1.374
30
0
40
0.376
100
AcDbArc
50
180
51
270
0
LINE
5
554C
330
553F
100
AcDbEntity
100
AcDbLine
8
0
10
-1.374
20
-1.562
30
0
11
1.374
21
-1.562
31
0
0
ARC
5
554D
330
553F
100
AcDbEntity
100
AcDbCircle
8
0
10
1.374
20
-1.374
30
0
40
0.188
100
AcDbArc
50
270
51
360
0
LINE
5
554E
330
553F
100
AcDbEntity
100
AcDbLine
8
0
10
1.562
20
-1.374
30
0
11
1.562
21
1.374
31
0
0
ARC
5
554F
330
553F
100
AcDbEntity
100
AcDbCircle
8
0
10
1.374
20
1.374
30
0
40
0.188
100
AcDbArc
50
0
51
90
0
LINE
5
5550
330
553F
100
AcDbEntity
100
AcDbLine
8
0
10
1.374
20
1.562
30
0
11
-1.374
21
1.562
31
0
0
ARC
5
5551
330
553F
100
AcDbEntity
100
AcDbCircle
8
0
10
-1.374
20
1.374
30
0
40
0.188
100
AcDbArc
50
90
51
180
0
LINE
5
5552
330
553F
100
AcDbEntity
100
AcDbLine
8
0
10
-1.562
20
1.374
30
0
11
-1.562
21
-1.374
31
0
0
ARC
5
5553
330
553F
100
AcDbEntity
100
AcDbCircle
8
0
10
-1.374
20
-1.374
30
0
40
0.188
100
AcDbArc
50
180
51
270
0
ENDSEC
0
SECTION
2
OBJECTS
0
DICTIONARY
5
552F
330
0
100
AcDbDictionary
281
1
3
ACAD_GROUP
350
5543
0
DICTIONARY
5
5543
330
552F
100
AcDbDictionary
281
1
0
ENDSEC
0
EOF