0
SECTION
2
HEADER
9
$HANDSEED
5
3D49
9
$INSUNITS
70
1
9
$ACADVER
1
AC1021
0
ENDSEC
0
SECTION
2
CLASSES
0
ENDSEC
0
SECTION
2
TABLES
0
TABLE
2
LTYPE
5
3D47
330
0
100
AcDbSymbolTable
70
5
0
LTYPE
5
3D28
330
3D47
100
AcDbSymbolTableRecord
100
AcDbLinetypeTableRecord
2
CONTINUOUS
3
______
70
0
72
65
73
0
40
0
0
LTYPE
5
3D29
330
3D47
100
AcDbSymbolTableRecord
100
AcDbLinetypeTableRecord
2
DASHED
3
_ _ _ 
70
0
72
65
73
2
40
10
49
5
74
0
49
-5
74
0
0
LTYPE
5
3D2A
330
3D47
100
AcDbSymbolTableRecord
100
AcDbLinetypeTableRecord
2
DOTTED
3
. . . 
70
0
72
65
73
2
40
5
49
0
74
0
49
-5
74
0
0
LTYPE
5
3D2C
330
3D47
100
AcDbSymbolTableRecord
100
AcDbLinetypeTableRecord
2
ByBlock
3

70
0
72
65
73
0
40
0
0
LTYPE
5
3D2D
330
3D47
100
AcDbSymbolTableRecord
100
AcDbLinetypeTableRecord
2
ByLayer
3

70
0
72
65
73
0
40
0
0
ENDTAB
0
TABLE
2
LAYER
5
3D48
330
0
100
AcDbSymbolTable
70
1
0
LAYER
5
3D2B
330
3D48
100
AcDbSymbolTableRecord
100
AcDbLayerTableRecord
2
0
62
7
70
0
6
CONTINUOUS
390
1
0
ENDTAB
0
TABLE
2
VPORT
5
3D2E
330
0
100
AcDbSymbolTable
70
1
0
VPORT
5
3D34
330
3D2E
100
AcDbSymbolTableRecord
100
AcDbViewportTableRecord
2
*ACTIVE
40
1000
70
0
0
ENDTAB
0
TABLE
2
STYLE
5
3D2F
330
0
100
AcDbSymbolTable
70
1
0
STYLE
5
3D35
330
3D2F
100
AcDbSymbolTableRecord
100
AcDbTextStyleTableRecord
2
standard
70
0
40
0
41
1
50
0
71
0
42
1
3
txt
4

0
ENDTAB
0
TABLE
2
VIEW
5
3D30
330
0
100
AcDbSymbolTable
70
0
0
ENDTAB
0
TABLE
2
UCS
5
3D31
330
0
100
AcDbSymbolTable
70
0
0
ENDTAB
0
TABLE
2
APPID
5
3D32
330
0
100
AcDbSymbolTable
70
1
0
APPID
5
3D36
330
3D32
100
AcDbSymbolTableRecord
100
AcDbRegAppTableRecord
2
ACAD
70
0
0
ENDTAB
0
TABLE
2
DIMSTYLE
5
3D33
330
0
100
AcDbSymbolTable
100
AcDbDimStyleTable
70
0
71
1
0
ENDTAB
0
TABLE
2
BLOCK_RECORD
5
3D44
330
0
100
AcDbSymbolTable
70
2
0
BLOCK_RECORD
5
3D45
330
3D44
100
AcDbSymbolTableRecord
100
AcDbBlockTableRecord
2
*Model_Space
70
0
280
0
281
1
0
BLOCK_RECORD
5
3D46
330
3D44
100
AcDbSymbolTableRecord
100
AcDbBlockTableRecord
2
*Paper_Space
70
0
280
0
281
1
0
ENDTAB
0
ENDSEC
0
SECTION
2
BLOCKS
0
BLOCK
5
3D37
330
0
100
AcDbEntity
100
AcDbBlockBegin
2
*Model_Space
70
0
10
0
20
0
30
0
3
*Model_Space
1

0
ENDBLK
5
3D38
330
0
100
AcDbEntity
100
AcDbBlockEnd
0
BLOCK
5
3D39
330
0
100
AcDbEntity
100
AcDbBlockBegin
2
*Paper_Space
70
0
10
0
20
0
30
0
3
*Paper_Space
1

0
ENDBLK
5
3D3A
330
0
100
AcDbEntity
100
AcDbBlockEnd
0
ENDSEC
0
SECTION
2
ENTITIES
0
LINE
5
3D3C
330
3D37
100
AcDbEntity
100
AcDbLine
8
0
10
-0.5
20
-0.5
30
0
11
0.5
21
-0.5
31
0
0
LINE
5
3D3D
330
3D37
100
AcDbEntity
100
AcDbLine
8
0
10
0.5
20
-0.5
30
0
11
0.5
21
0.5
31
0
0
LINE
5
3D3E
330
3D37
100
AcDbEntity
100
AcDbLine
8
0
10
0.5
20
0.5
30
0
11
-0.5
21
0.5
31
0
0
LINE
5
3D3F
330
3D37
100
AcDbEntity
100
AcDbLine
8
0
10
-0.5
20
0.5
30
0
11
-0.5
21
-0.5
31
0
0
LINE
5
3D40
330
3D37
100
AcDbEntity
100
AcDbLine
8
0
10
-0.438
20
-0.438
30
0
11
0.438
21
-0.438
31
0
0
LINE
5
3D41
330
3D37
100
AcDbEntity
100
AcDbLine
8
0
10
0.438
20
-0.438
30
0
11
0.438
21
0.438
31
0
0
LINE
5
3D42
330
3D37
100
AcDbEntity
100
AcDbLine
8
0
10
0.438
20
0.438
30
0
11
-0.438
21
0.438
31
0
0
LINE
5
3D43
330
3D37
100
AcDbEntity
100
AcDbLine
8
0
10
-0.438
20
0.438
30
0
11
-0.438
21
-0.438
31
0
0
ENDSEC
0
SECTION
2
OBJECTS
0
DICTIONARY
5
3D27
330
0
100
AcDbDictionary
281
1
3
ACAD_GROUP
350
3D3B
0
DICTIONARY
5
3D3B
330
3D27
100
AcDbDictionary
281
1
0
ENDSEC
0
EOF