0
SECTION
2
HEADER
9
$HANDSEED
5
4993
9
$INSUNITS
70
1
9
$ACADVER
1
AC1021
0
ENDSEC
0
SECTION
2
CLASSES
0
ENDSEC
0
SECTION
2
TABLES
0
TABLE
2
LTYPE
5
4991
330
0
100
AcDbSymbolTable
70
5
0
LTYPE
5
496A
330
4991
100
AcDbSymbolTableRecord
100
AcDbLinetypeTableRecord
2
CONTINUOUS
3
______
70
0
72
65
73
0
40
0
0
LTYPE
5
496B
330
4991
100
AcDbSymbolTableRecord
100
AcDbLinetypeTableRecord
2
DASHED
3
_ _ _ 
70
0
72
65
73
2
40
10
49
5
74
0
49
-5
74
0
0
LTYPE
5
496C
330
4991
100
AcDbSymbolTableRecord
100
AcDbLinetypeTableRecord
2
DOTTED
3
. . . 
70
0
72
65
73
2
40
5
49
0
74
0
49
-5
74
0
0
LTYPE
5
496E
330
4991
100
AcDbSymbolTableRecord
100
AcDbLinetypeTableRecord
2
ByBlock
3

70
0
72
65
73
0
40
0
0
LTYPE
5
496F
330
4991
100
AcDbSymbolTableRecord
100
AcDbLinetypeTableRecord
2
ByLayer
3

70
0
72
65
73
0
40
0
0
ENDTAB
0
TABLE
2
LAYER
5
4992
330
0
100
AcDbSymbolTable
70
1
0
LAYER
5
496D
330
4992
100
AcDbSymbolTableRecord
100
AcDbLayerTableRecord
2
0
62
7
70
0
6
CONTINUOUS
390
1
0
ENDTAB
0
TABLE
2
VPORT
5
4970
330
0
100
AcDbSymbolTable
70
1
0
VPORT
5
4976
330
4970
100
AcDbSymbolTableRecord
100
AcDbViewportTableRecord
2
*ACTIVE
40
1000
70
0
0
ENDTAB
0
TABLE
2
STYLE
5
4971
330
0
100
AcDbSymbolTable
70
1
0
STYLE
5
4977
330
4971
100
AcDbSymbolTableRecord
100
AcDbTextStyleTableRecord
2
standard
70
0
40
0
41
1
50
0
71
0
42
1
3
txt
4

0
ENDTAB
0
TABLE
2
VIEW
5
4972
330
0
100
AcDbSymbolTable
70
0
0
ENDTAB
0
TABLE
2
UCS
5
4973
330
0
100
AcDbSymbolTable
70
0
0
ENDTAB
0
TABLE
2
APPID
5
4974
330
0
100
AcDbSymbolTable
70
1
0
APPID
5
4978
330
4974
100
AcDbSymbolTableRecord
100
AcDbRegAppTableRecord
2
ACAD
70
0
0
ENDTAB
0
TABLE
2
DIMSTYLE
5
4975
330
0
100
AcDbSymbolTable
100
AcDbDimStyleTable
70
0
71
1
0
ENDTAB
0
TABLE
2
BLOCK_RECORD
5
498E
330
0
100
AcDbSymbolTable
70
2
0
BLOCK_RECORD
5
498F
330
498E
100
AcDbSymbolTableRecord
100
AcDbBlockTableRecord
2
*Model_Space
70
0
280
0
281
1
0
BLOCK_RECORD
5
4990
330
498E
100
AcDbSymbolTableRecord
100
AcDbBlockTableRecord
2
*Paper_Space
70
0
280
0
281
1
0
ENDTAB
0
ENDSEC
0
SECTION
2
BLOCKS
0
BLOCK
5
4979
330
0
100
AcDbEntity
100
AcDbBlockBegin
2
*Model_Space
70
0
10
0
20
0
30
0
3
*Model_Space
1

0
ENDBLK
5
497A
330
0
100
AcDbEntity
100
AcDbBlockEnd
0
BLOCK
5
497B
330
0
100
AcDbEntity
100
AcDbBlockBegin
2
*Paper_Space
70
0
10
0
20
0
30
0
3
*Paper_Space
1

0
ENDBLK
5
497C
330
0
100
AcDbEntity
100
AcDbBlockEnd
0
ENDSEC
0
SECTION
2
ENTITIES
0
LINE
5
497E
330
4979
100
AcDbEntity
100
AcDbLine
8
0
10
-0.5
20
-1
30
0
11
0.5
21
-1
31
0
0
ARC
5
497F
330
4979
100
AcDbEntity
100
AcDbCircle
8
0
10
0.5
20
-0.5
30
0
40
0.5
100
AcDbArc
50
270
51
360
0
LINE
5
4980
330
4979
100
AcDbEntity
100
AcDbLine
8
0
10
1
20
-0.5
30
0
11
1
21
0.5
31
0
0
ARC
5
4981
330
4979
100
AcDbEntity
100
AcDbCircle
8
0
10
0.5
20
0.5
30
0
40
0.5
100
AcDbArc
50
0
51
90
0
LINE
5
4982
330
4979
100
AcDbEntity
100
AcDbLine
8
0
10
0.5
20
1
30
0
11
-0.5
21
1
31
0
0
ARC
5
4983
330
4979
100
AcDbEntity
100
AcDbCircle
8
0
10
-0.5
20
0.5
30
0
40
0.5
100
AcDbArc
50
90
51
180
0
LINE
5
4984
330
4979
100
AcDbEntity
100
AcDbLine
8
0
10
-1
20
0.5
30
0
11
-1
21
-0.5
31
0
0
ARC
5
4985
330
4979
100
AcDbEntity
100
AcDbCircle
8
0
10
-0.5
20
-0.5
30
0
40
0.5
100
AcDbArc
50
180
51
270
0
LINE
5
4986
330
4979
100
AcDbEntity
100
AcDbLine
8
0
10
-0.5
20
-0.75
30
0
11
0.5
21
-0.75
31
0
0
ARC
5
4987
330
4979
100
AcDbEntity
100
AcDbCircle
8
0
10
0.5
20
-0.5
30
0
40
0.25
100
AcDbArc
50
270
51
360
0
LINE
5
4988
330
4979
100
AcDbEntity
100
AcDbLine
8
0
10
0.75
20
-0.5
30
0
11
0.75
21
0.5
31
0
0
ARC
5
4989
330
4979
100
AcDbEntity
100
AcDbCircle
8
0
10
0.5
20
0.5
30
0
40
0.25
100
AcDbArc
50
0
51
90
0
LINE
5
498A
330
4979
100
AcDbEntity
100
AcDbLine
8
0
10
0.5
20
0.75
30
0
11
-0.5
21
0.75
31
0
0
ARC
5
498B
330
4979
100
AcDbEntity
100
AcDbCircle
8
0
10
-0.5
20
0.5
30
0
40
0.25
100
AcDbArc
50
90
51
180
0
LINE
5
498C
330
4979
100
AcDbEntity
100
AcDbLine
8
0
10
-0.75
20
0.5
30
0
11
-0.75
21
-0.5
31
0
0
ARC
5
498D
330
4979
100
AcDbEntity
100
AcDbCircle
8
0
10
-0.5
20
-0.5
30
0
40
0.25
100
AcDbArc
50
180
51
270
0
ENDSEC
0
SECTION
2
OBJECTS
0
DICTIONARY
5
4969
330
0
100
AcDbDictionary
281
1
3
ACAD_GROUP
350
497D
0
DICTIONARY
5
497D
330
4969
100
AcDbDictionary
281
1
0
ENDSEC
0
EOF