0
SECTION
2
HEADER
9
$HANDSEED
5
539B
9
$INSUNITS
70
1
9
$ACADVER
1
AC1021
0
ENDSEC
0
SECTION
2
CLASSES
0
ENDSEC
0
SECTION
2
TABLES
0
TABLE
2
LTYPE
5
5399
330
0
100
AcDbSymbolTable
70
5
0
LTYPE
5
5372
330
5399
100
AcDbSymbolTableRecord
100
AcDbLinetypeTableRecord
2
CONTINUOUS
3
______
70
0
72
65
73
0
40
0
0
LTYPE
5
5373
330
5399
100
AcDbSymbolTableRecord
100
AcDbLinetypeTableRecord
2
DASHED
3
_ _ _ 
70
0
72
65
73
2
40
10
49
5
74
0
49
-5
74
0
0
LTYPE
5
5374
330
5399
100
AcDbSymbolTableRecord
100
AcDbLinetypeTableRecord
2
DOTTED
3
. . . 
70
0
72
65
73
2
40
5
49
0
74
0
49
-5
74
0
0
LTYPE
5
5376
330
5399
100
AcDbSymbolTableRecord
100
AcDbLinetypeTableRecord
2
ByBlock
3

70
0
72
65
73
0
40
0
0
LTYPE
5
5377
330
5399
100
AcDbSymbolTableRecord
100
AcDbLinetypeTableRecord
2
ByLayer
3

70
0
72
65
73
0
40
0
0
ENDTAB
0
TABLE
2
LAYER
5
539A
330
0
100
AcDbSymbolTable
70
1
0
LAYER
5
5375
330
539A
100
AcDbSymbolTableRecord
100
AcDbLayerTableRecord
2
0
62
7
70
0
6
CONTINUOUS
390
1
0
ENDTAB
0
TABLE
2
VPORT
5
5378
330
0
100
AcDbSymbolTable
70
1
0
VPORT
5
537E
330
5378
100
AcDbSymbolTableRecord
100
AcDbViewportTableRecord
2
*ACTIVE
40
1000
70
0
0
ENDTAB
0
TABLE
2
STYLE
5
5379
330
0
100
AcDbSymbolTable
70
1
0
STYLE
5
537F
330
5379
100
AcDbSymbolTableRecord
100
AcDbTextStyleTableRecord
2
standard
70
0
40
0
41
1
50
0
71
0
42
1
3
txt
4

0
ENDTAB
0
TABLE
2
VIEW
5
537A
330
0
100
AcDbSymbolTable
70
0
0
ENDTAB
0
TABLE
2
UCS
5
537B
330
0
100
AcDbSymbolTable
70
0
0
ENDTAB
0
TABLE
2
APPID
5
537C
330
0
100
AcDbSymbolTable
70
1
0
APPID
5
5380
330
537C
100
AcDbSymbolTableRecord
100
AcDbRegAppTableRecord
2
ACAD
70
0
0
ENDTAB
0
TABLE
2
DIMSTYLE
5
537D
330
0
100
AcDbSymbolTable
100
AcDbDimStyleTable
70
0
71
1
0
ENDTAB
0
TABLE
2
BLOCK_RECORD
5
5396
330
0
100
AcDbSymbolTable
70
2
0
BLOCK_RECORD
5
5397
330
5396
100
AcDbSymbolTableRecord
100
AcDbBlockTableRecord
2
*Model_Space
70
0
280
0
281
1
0
BLOCK_RECORD
5
5398
330
5396
100
AcDbSymbolTableRecord
100
AcDbBlockTableRecord
2
*Paper_Space
70
0
280
0
281
1
0
ENDTAB
0
ENDSEC
0
SECTION
2
BLOCKS
0
BLOCK
5
5381
330
0
100
AcDbEntity
100
AcDbBlockBegin
2
*Model_Space
70
0
10
0
20
0
30
0
3
*Model_Space
1

0
ENDBLK
5
5382
330
0
100
AcDbEntity
100
AcDbBlockEnd
0
BLOCK
5
5383
330
0
100
AcDbEntity
100
AcDbBlockBegin
2
*Paper_Space
70
0
10
0
20
0
30
0
3
*Paper_Space
1

0
ENDBLK
5
5384
330
0
100
AcDbEntity
100
AcDbBlockEnd
0
ENDSEC
0
SECTION
2
ENTITIES
0
LINE
5
5386
330
5381
100
AcDbEntity
100
AcDbLine
8
0
10
-2
20
-2.5
30
0
11
2
21
-2.5
31
0
0
ARC
5
5387
330
5381
100
AcDbEntity
100
AcDbCircle
8
0
10
2
20
-2
30
0
40
0.5
100
AcDbArc
50
270
51
360
0
LINE
5
5388
330
5381
100
AcDbEntity
100
AcDbLine
8
0
10
2.5
20
-2
30
0
11
2.5
21
2
31
0
0
ARC
5
5389
330
5381
100
AcDbEntity
100
AcDbCircle
8
0
10
2
20
2
30
0
40
0.5
100
AcDbArc
50
0
51
90
0
LINE
5
538A
330
5381
100
AcDbEntity
100
AcDbLine
8
0
10
2
20
2.5
30
0
11
-2
21
2.5
31
0
0
ARC
5
538B
330
5381
100
AcDbEntity
100
AcDbCircle
8
0
10
-2
20
2
30
0
40
0.5
100
AcDbArc
50
90
51
180
0
LINE
5
538C
330
5381
100
AcDbEntity
100
AcDbLine
8
0
10
-2.5
20
2
30
0
11
-2.5
21
-2
31
0
0
ARC
5
538D
330
5381
100
AcDbEntity
100
AcDbCircle
8
0
10
-2
20
-2
30
0
40
0.5
100
AcDbArc
50
180
51
270
0
LINE
5
538E
330
5381
100
AcDbEntity
100
AcDbLine
8
0
10
-2
20
-2.25
30
0
11
2
21
-2.25
31
0
0
ARC
5
538F
330
5381
100
AcDbEntity
100
AcDbCircle
8
0
10
2
20
-2
30
0
40
0.25
100
AcDbArc
50
270
51
360
0
LINE
5
5390
330
5381
100
AcDbEntity
100
AcDbLine
8
0
10
2.25
20
-2
30
0
11
2.25
21
2
31
0
0
ARC
5
5391
330
5381
100
AcDbEntity
100
AcDbCircle
8
0
10
2
20
2
30
0
40
0.25
100
AcDbArc
50
0
51
90
0
LINE
5
5392
330
5381
100
AcDbEntity
100
AcDbLine
8
0
10
2
20
2.25
30
0
11
-2
21
2.25
31
0
0
ARC
5
5393
330
5381
100
AcDbEntity
100
AcDbCircle
8
0
10
-2
20
2
30
0
40
0.25
100
AcDbArc
50
90
51
180
0
LINE
5
5394
330
5381
100
AcDbEntity
100
AcDbLine
8
0
10
-2.25
20
2
30
0
11
-2.25
21
-2
31
0
0
ARC
5
5395
330
5381
100
AcDbEntity
100
AcDbCircle
8
0
10
-2
20
-2
30
0
40
0.25
100
AcDbArc
50
180
51
270
0
ENDSEC
0
SECTION
2
OBJECTS
0
DICTIONARY
5
5371
330
0
100
AcDbDictionary
281
1
3
ACAD_GROUP
350
5385
0
DICTIONARY
5
5385
330
5371
100
AcDbDictionary
281
1
0
ENDSEC
0
EOF