0
SECTION
2
HEADER
9
$HANDSEED
5
493F
9
$INSUNITS
70
1
9
$ACADVER
1
AC1021
0
ENDSEC
0
SECTION
2
CLASSES
0
ENDSEC
0
SECTION
2
TABLES
0
TABLE
2
LTYPE
5
493D
330
0
100
AcDbSymbolTable
70
5
0
LTYPE
5
4916
330
493D
100
AcDbSymbolTableRecord
100
AcDbLinetypeTableRecord
2
CONTINUOUS
3
______
70
0
72
65
73
0
40
0
0
LTYPE
5
4917
330
493D
100
AcDbSymbolTableRecord
100
AcDbLinetypeTableRecord
2
DASHED
3
_ _ _ 
70
0
72
65
73
2
40
10
49
5
74
0
49
-5
74
0
0
LTYPE
5
4918
330
493D
100
AcDbSymbolTableRecord
100
AcDbLinetypeTableRecord
2
DOTTED
3
. . . 
70
0
72
65
73
2
40
5
49
0
74
0
49
-5
74
0
0
LTYPE
5
491A
330
493D
100
AcDbSymbolTableRecord
100
AcDbLinetypeTableRecord
2
ByBlock
3

70
0
72
65
73
0
40
0
0
LTYPE
5
491B
330
493D
100
AcDbSymbolTableRecord
100
AcDbLinetypeTableRecord
2
ByLayer
3

70
0
72
65
73
0
40
0
0
ENDTAB
0
TABLE
2
LAYER
5
493E
330
0
100
AcDbSymbolTable
70
1
0
LAYER
5
4919
330
493E
100
AcDbSymbolTableRecord
100
AcDbLayerTableRecord
2
0
62
7
70
0
6
CONTINUOUS
390
1
0
ENDTAB
0
TABLE
2
VPORT
5
491C
330
0
100
AcDbSymbolTable
70
1
0
VPORT
5
4922
330
491C
100
AcDbSymbolTableRecord
100
AcDbViewportTableRecord
2
*ACTIVE
40
1000
70
0
0
ENDTAB
0
TABLE
2
STYLE
5
491D
330
0
100
AcDbSymbolTable
70
1
0
STYLE
5
4923
330
491D
100
AcDbSymbolTableRecord
100
AcDbTextStyleTableRecord
2
standard
70
0
40
0
41
1
50
0
71
0
42
1
3
txt
4

0
ENDTAB
0
TABLE
2
VIEW
5
491E
330
0
100
AcDbSymbolTable
70
0
0
ENDTAB
0
TABLE
2
UCS
5
491F
330
0
100
AcDbSymbolTable
70
0
0
ENDTAB
0
TABLE
2
APPID
5
4920
330
0
100
AcDbSymbolTable
70
1
0
APPID
5
4924
330
4920
100
AcDbSymbolTableRecord
100
AcDbRegAppTableRecord
2
ACAD
70
0
0
ENDTAB
0
TABLE
2
DIMSTYLE
5
4921
330
0
100
AcDbSymbolTable
100
AcDbDimStyleTable
70
0
71
1
0
ENDTAB
0
TABLE
2
BLOCK_RECORD
5
493A
330
0
100
AcDbSymbolTable
70
2
0
BLOCK_RECORD
5
493B
330
493A
100
AcDbSymbolTableRecord
100
AcDbBlockTableRecord
2
*Model_Space
70
0
280
0
281
1
0
BLOCK_RECORD
5
493C
330
493A
100
AcDbSymbolTableRecord
100
AcDbBlockTableRecord
2
*Paper_Space
70
0
280
0
281
1
0
ENDTAB
0
ENDSEC
0
SECTION
2
BLOCKS
0
BLOCK
5
4925
330
0
100
AcDbEntity
100
AcDbBlockBegin
2
*Model_Space
70
0
10
0
20
0
30
0
3
*Model_Space
1

0
ENDBLK
5
4926
330
0
100
AcDbEntity
100
AcDbBlockEnd
0
BLOCK
5
4927
330
0
100
AcDbEntity
100
AcDbBlockBegin
2
*Paper_Space
70
0
10
0
20
0
30
0
3
*Paper_Space
1

0
ENDBLK
5
4928
330
0
100
AcDbEntity
100
AcDbBlockEnd
0
ENDSEC
0
SECTION
2
ENTITIES
0
LINE
5
492A
330
4925
100
AcDbEntity
100
AcDbLine
8
0
10
-0.76
20
-1
30
0
11
0.76
21
-1
31
0
0
ARC
5
492B
330
4925
100
AcDbEntity
100
AcDbCircle
8
0
10
0.76
20
-0.76
30
0
40
0.24
100
AcDbArc
50
270
51
360
0
LINE
5
492C
330
4925
100
AcDbEntity
100
AcDbLine
8
0
10
1
20
-0.76
30
0
11
1
21
0.76
31
0
0
ARC
5
492D
330
4925
100
AcDbEntity
100
AcDbCircle
8
0
10
0.76
20
0.76
30
0
40
0.24
100
AcDbArc
50
0
51
90
0
LINE
5
492E
330
4925
100
AcDbEntity
100
AcDbLine
8
0
10
0.76
20
1
30
0
11
-0.76
21
1
31
0
0
ARC
5
492F
330
4925
100
AcDbEntity
100
AcDbCircle
8
0
10
-0.76
20
0.76
30
0
40
0.24
100
AcDbArc
50
90
51
180
0
LINE
5
4930
330
4925
100
AcDbEntity
100
AcDbLine
8
0
10
-1
20
0.76
30
0
11
-1
21
-0.76
31
0
0
ARC
5
4931
330
4925
100
AcDbEntity
100
AcDbCircle
8
0
10
-0.76
20
-0.76
30
0
40
0.24
100
AcDbArc
50
180
51
270
0
LINE
5
4932
330
4925
100
AcDbEntity
100
AcDbLine
8
0
10
-0.76
20
-0.88
30
0
11
0.76
21
-0.88
31
0
0
ARC
5
4933
330
4925
100
AcDbEntity
100
AcDbCircle
8
0
10
0.76
20
-0.76
30
0
40
0.12
100
AcDbArc
50
270
51
360
0
LINE
5
4934
330
4925
100
AcDbEntity
100
AcDbLine
8
0
10
0.88
20
-0.76
30
0
11
0.88
21
0.76
31
0
0
ARC
5
4935
330
4925
100
AcDbEntity
100
AcDbCircle
8
0
10
0.76
20
0.76
30
0
40
0.12
100
AcDbArc
50
0
51
90
0
LINE
5
4936
330
4925
100
AcDbEntity
100
AcDbLine
8
0
10
0.76
20
0.88
30
0
11
-0.76
21
0.88
31
0
0
ARC
5
4937
330
4925
100
AcDbEntity
100
AcDbCircle
8
0
10
-0.76
20
0.76
30
0
40
0.12
100
AcDbArc
50
90
51
180
0
LINE
5
4938
330
4925
100
AcDbEntity
100
AcDbLine
8
0
10
-0.88
20
0.76
30
0
11
-0.88
21
-0.76
31
0
0
ARC
5
4939
330
4925
100
AcDbEntity
100
AcDbCircle
8
0
10
-0.76
20
-0.76
30
0
40
0.12
100
AcDbArc
50
180
51
270
0
ENDSEC
0
SECTION
2
OBJECTS
0
DICTIONARY
5
4915
330
0
100
AcDbDictionary
281
1
3
ACAD_GROUP
350
4929
0
DICTIONARY
5
4929
330
4915
100
AcDbDictionary
281
1
0
ENDSEC
0
EOF