0
SECTION
2
HEADER
9
$HANDSEED
5
3F47
9
$INSUNITS
70
1
9
$ACADVER
1
AC1021
0
ENDSEC
0
SECTION
2
CLASSES
0
ENDSEC
0
SECTION
2
TABLES
0
TABLE
2
LTYPE
5
3F45
330
0
100
AcDbSymbolTable
70
5
0
LTYPE
5
3F26
330
3F45
100
AcDbSymbolTableRecord
100
AcDbLinetypeTableRecord
2
CONTINUOUS
3
______
70
0
72
65
73
0
40
0
0
LTYPE
5
3F27
330
3F45
100
AcDbSymbolTableRecord
100
AcDbLinetypeTableRecord
2
DASHED
3
_ _ _ 
70
0
72
65
73
2
40
10
49
5
74
0
49
-5
74
0
0
LTYPE
5
3F28
330
3F45
100
AcDbSymbolTableRecord
100
AcDbLinetypeTableRecord
2
DOTTED
3
. . . 
70
0
72
65
73
2
40
5
49
0
74
0
49
-5
74
0
0
LTYPE
5
3F2A
330
3F45
100
AcDbSymbolTableRecord
100
AcDbLinetypeTableRecord
2
ByBlock
3

70
0
72
65
73
0
40
0
0
LTYPE
5
3F2B
330
3F45
100
AcDbSymbolTableRecord
100
AcDbLinetypeTableRecord
2
ByLayer
3

70
0
72
65
73
0
40
0
0
ENDTAB
0
TABLE
2
LAYER
5
3F46
330
0
100
AcDbSymbolTable
70
1
0
LAYER
5
3F29
330
3F46
100
AcDbSymbolTableRecord
100
AcDbLayerTableRecord
2
0
62
7
70
0
6
CONTINUOUS
390
1
0
ENDTAB
0
TABLE
2
VPORT
5
3F2C
330
0
100
AcDbSymbolTable
70
1
0
VPORT
5
3F32
330
3F2C
100
AcDbSymbolTableRecord
100
AcDbViewportTableRecord
2
*ACTIVE
40
1000
70
0
0
ENDTAB
0
TABLE
2
STYLE
5
3F2D
330
0
100
AcDbSymbolTable
70
1
0
STYLE
5
3F33
330
3F2D
100
AcDbSymbolTableRecord
100
AcDbTextStyleTableRecord
2
standard
70
0
40
0
41
1
50
0
71
0
42
1
3
txt
4

0
ENDTAB
0
TABLE
2
VIEW
5
3F2E
330
0
100
AcDbSymbolTable
70
0
0
ENDTAB
0
TABLE
2
UCS
5
3F2F
330
0
100
AcDbSymbolTable
70
0
0
ENDTAB
0
TABLE
2
APPID
5
3F30
330
0
100
AcDbSymbolTable
70
1
0
APPID
5
3F34
330
3F30
100
AcDbSymbolTableRecord
100
AcDbRegAppTableRecord
2
ACAD
70
0
0
ENDTAB
0
TABLE
2
DIMSTYLE
5
3F31
330
0
100
AcDbSymbolTable
100
AcDbDimStyleTable
70
0
71
1
0
ENDTAB
0
TABLE
2
BLOCK_RECORD
5
3F42
330
0
100
AcDbSymbolTable
70
2
0
BLOCK_RECORD
5
3F43
330
3F42
100
AcDbSymbolTableRecord
100
AcDbBlockTableRecord
2
*Model_Space
70
0
280
0
281
1
0
BLOCK_RECORD
5
3F44
330
3F42
100
AcDbSymbolTableRecord
100
AcDbBlockTableRecord
2
*Paper_Space
70
0
280
0
281
1
0
ENDTAB
0
ENDSEC
0
SECTION
2
BLOCKS
0
BLOCK
5
3F35
330
0
100
AcDbEntity
100
AcDbBlockBegin
2
*Model_Space
70
0
10
0
20
0
30
0
3
*Model_Space
1

0
ENDBLK
5
3F36
330
0
100
AcDbEntity
100
AcDbBlockEnd
0
BLOCK
5
3F37
330
0
100
AcDbEntity
100
AcDbBlockBegin
2
*Paper_Space
70
0
10
0
20
0
30
0
3
*Paper_Space
1

0
ENDBLK
5
3F38
330
0
100
AcDbEntity
100
AcDbBlockEnd
0
ENDSEC
0
SECTION
2
ENTITIES
0
LINE
5
3F3A
330
3F35
100
AcDbEntity
100
AcDbLine
8
0
10
-1.75
20
-1.75
30
0
11
1.75
21
-1.75
31
0
0
LINE
5
3F3B
330
3F35
100
AcDbEntity
100
AcDbLine
8
0
10
1.75
20
-1.75
30
0
11
1.75
21
1.75
31
0
0
LINE
5
3F3C
330
3F35
100
AcDbEntity
100
AcDbLine
8
0
10
1.75
20
1.75
30
0
11
-1.75
21
1.75
31
0
0
LINE
5
3F3D
330
3F35
100
AcDbEntity
100
AcDbLine
8
0
10
-1.75
20
1.75
30
0
11
-1.75
21
-1.75
31
0
0
LINE
5
3F3E
330
3F35
100
AcDbEntity
100
AcDbLine
8
0
10
-1.625
20
-1.625
30
0
11
1.625
21
-1.625
31
0
0
LINE
5
3F3F
330
3F35
100
AcDbEntity
100
AcDbLine
8
0
10
1.625
20
-1.625
30
0
11
1.625
21
1.625
31
0
0
LINE
5
3F40
330
3F35
100
AcDbEntity
100
AcDbLine
8
0
10
1.625
20
1.625
30
0
11
-1.625
21
1.625
31
0
0
LINE
5
3F41
330
3F35
100
AcDbEntity
100
AcDbLine
8
0
10
-1.625
20
1.625
30
0
11
-1.625
21
-1.625
31
0
0
ENDSEC
0
SECTION
2
OBJECTS
0
DICTIONARY
5
3F25
330
0
100
AcDbDictionary
281
1
3
ACAD_GROUP
350
3F39
0
DICTIONARY
5
3F39
330
3F25
100
AcDbDictionary
281
1
0
ENDSEC
0
EOF