0
SECTION
2
HEADER
9
$HANDSEED
5
4E55
9
$INSUNITS
70
1
9
$ACADVER
1
AC1021
0
ENDSEC
0
SECTION
2
CLASSES
0
ENDSEC
0
SECTION
2
TABLES
0
TABLE
2
LTYPE
5
4E53
330
0
100
AcDbSymbolTable
70
5
0
LTYPE
5
4E2C
330
4E53
100
AcDbSymbolTableRecord
100
AcDbLinetypeTableRecord
2
CONTINUOUS
3
______
70
0
72
65
73
0
40
0
0
LTYPE
5
4E2D
330
4E53
100
AcDbSymbolTableRecord
100
AcDbLinetypeTableRecord
2
DASHED
3
_ _ _ 
70
0
72
65
73
2
40
10
49
5
74
0
49
-5
74
0
0
LTYPE
5
4E2E
330
4E53
100
AcDbSymbolTableRecord
100
AcDbLinetypeTableRecord
2
DOTTED
3
. . . 
70
0
72
65
73
2
40
5
49
0
74
0
49
-5
74
0
0
LTYPE
5
4E30
330
4E53
100
AcDbSymbolTableRecord
100
AcDbLinetypeTableRecord
2
ByBlock
3

70
0
72
65
73
0
40
0
0
LTYPE
5
4E31
330
4E53
100
AcDbSymbolTableRecord
100
AcDbLinetypeTableRecord
2
ByLayer
3

70
0
72
65
73
0
40
0
0
ENDTAB
0
TABLE
2
LAYER
5
4E54
330
0
100
AcDbSymbolTable
70
1
0
LAYER
5
4E2F
330
4E54
100
AcDbSymbolTableRecord
100
AcDbLayerTableRecord
2
0
62
7
70
0
6
CONTINUOUS
390
1
0
ENDTAB
0
TABLE
2
VPORT
5
4E32
330
0
100
AcDbSymbolTable
70
1
0
VPORT
5
4E38
330
4E32
100
AcDbSymbolTableRecord
100
AcDbViewportTableRecord
2
*ACTIVE
40
1000
70
0
0
ENDTAB
0
TABLE
2
STYLE
5
4E33
330
0
100
AcDbSymbolTable
70
1
0
STYLE
5
4E39
330
4E33
100
AcDbSymbolTableRecord
100
AcDbTextStyleTableRecord
2
standard
70
0
40
0
41
1
50
0
71
0
42
1
3
txt
4

0
ENDTAB
0
TABLE
2
VIEW
5
4E34
330
0
100
AcDbSymbolTable
70
0
0
ENDTAB
0
TABLE
2
UCS
5
4E35
330
0
100
AcDbSymbolTable
70
0
0
ENDTAB
0
TABLE
2
APPID
5
4E36
330
0
100
AcDbSymbolTable
70
1
0
APPID
5
4E3A
330
4E36
100
AcDbSymbolTableRecord
100
AcDbRegAppTableRecord
2
ACAD
70
0
0
ENDTAB
0
TABLE
2
DIMSTYLE
5
4E37
330
0
100
AcDbSymbolTable
100
AcDbDimStyleTable
70
0
71
1
0
ENDTAB
0
TABLE
2
BLOCK_RECORD
5
4E50
330
0
100
AcDbSymbolTable
70
2
0
BLOCK_RECORD
5
4E51
330
4E50
100
AcDbSymbolTableRecord
100
AcDbBlockTableRecord
2
*Model_Space
70
0
280
0
281
1
0
BLOCK_RECORD
5
4E52
330
4E50
100
AcDbSymbolTableRecord
100
AcDbBlockTableRecord
2
*Paper_Space
70
0
280
0
281
1
0
ENDTAB
0
ENDSEC
0
SECTION
2
BLOCKS
0
BLOCK
5
4E3B
330
0
100
AcDbEntity
100
AcDbBlockBegin
2
*Model_Space
70
0
10
0
20
0
30
0
3
*Model_Space
1

0
ENDBLK
5
4E3C
330
0
100
AcDbEntity
100
AcDbBlockEnd
0
BLOCK
5
4E3D
330
0
100
AcDbEntity
100
AcDbBlockBegin
2
*Paper_Space
70
0
10
0
20
0
30
0
3
*Paper_Space
1

0
ENDBLK
5
4E3E
330
0
100
AcDbEntity
100
AcDbBlockEnd
0
ENDSEC
0
SECTION
2
ENTITIES
0
LINE
5
4E40
330
4E3B
100
AcDbEntity
100
AcDbLine
8
0
10
-0.624
20
-1
30
0
11
0.624
21
-1
31
0
0
ARC
5
4E41
330
4E3B
100
AcDbEntity
100
AcDbCircle
8
0
10
0.624
20
-0.624
30
0
40
0.376
100
AcDbArc
50
270
51
360
0
LINE
5
4E42
330
4E3B
100
AcDbEntity
100
AcDbLine
8
0
10
1
20
-0.624
30
0
11
1
21
0.624
31
0
0
ARC
5
4E43
330
4E3B
100
AcDbEntity
100
AcDbCircle
8
0
10
0.624
20
0.624
30
0
40
0.376
100
AcDbArc
50
0
51
90
0
LINE
5
4E44
330
4E3B
100
AcDbEntity
100
AcDbLine
8
0
10
0.624
20
1
30
0
11
-0.624
21
1
31
0
0
ARC
5
4E45
330
4E3B
100
AcDbEntity
100
AcDbCircle
8
0
10
-0.624
20
0.624
30
0
40
0.376
100
AcDbArc
50
90
51
180
0
LINE
5
4E46
330
4E3B
100
AcDbEntity
100
AcDbLine
8
0
10
-1
20
0.624
30
0
11
-1
21
-0.624
31
0
0
ARC
5
4E47
330
4E3B
100
AcDbEntity
100
AcDbCircle
8
0
10
-0.624
20
-0.624
30
0
40
0.376
100
AcDbArc
50
180
51
270
0
LINE
5
4E48
330
4E3B
100
AcDbEntity
100
AcDbLine
8
0
10
-0.6240000000000001
20
-0.812
30
0
11
0.6240000000000001
21
-0.812
31
0
0
ARC
5
4E49
330
4E3B
100
AcDbEntity
100
AcDbCircle
8
0
10
0.6240000000000001
20
-0.6240000000000001
30
0
40
0.188
100
AcDbArc
50
270
51
360
0
LINE
5
4E4A
330
4E3B
100
AcDbEntity
100
AcDbLine
8
0
10
0.812
20
-0.6240000000000001
30
0
11
0.812
21
0.6240000000000001
31
0
0
ARC
5
4E4B
330
4E3B
100
AcDbEntity
100
AcDbCircle
8
0
10
0.6240000000000001
20
0.6240000000000001
30
0
40
0.188
100
AcDbArc
50
0
51
90
0
LINE
5
4E4C
330
4E3B
100
AcDbEntity
100
AcDbLine
8
0
10
0.6240000000000001
20
0.812
30
0
11
-0.6240000000000001
21
0.812
31
0
0
ARC
5
4E4D
330
4E3B
100
AcDbEntity
100
AcDbCircle
8
0
10
-0.6240000000000001
20
0.6240000000000001
30
0
40
0.188
100
AcDbArc
50
90
51
180
0
LINE
5
4E4E
330
4E3B
100
AcDbEntity
100
AcDbLine
8
0
10
-0.812
20
0.6240000000000001
30
0
11
-0.812
21
-0.6240000000000001
31
0
0
ARC
5
4E4F
330
4E3B
100
AcDbEntity
100
AcDbCircle
8
0
10
-0.6240000000000001
20
-0.6240000000000001
30
0
40
0.188
100
AcDbArc
50
180
51
270
0
ENDSEC
0
SECTION
2
OBJECTS
0
DICTIONARY
5
4E2B
330
0
100
AcDbDictionary
281
1
3
ACAD_GROUP
350
4E3F
0
DICTIONARY
5
4E3F
330
4E2B
100
AcDbDictionary
281
1
0
ENDSEC
0
EOF