0
SECTION
2
HEADER
9
$HANDSEED
5
3E7B
9
$INSUNITS
70
1
9
$ACADVER
1
AC1021
0
ENDSEC
0
SECTION
2
CLASSES
0
ENDSEC
0
SECTION
2
TABLES
0
TABLE
2
LTYPE
5
3E79
330
0
100
AcDbSymbolTable
70
5
0
LTYPE
5
3E5A
330
3E79
100
AcDbSymbolTableRecord
100
AcDbLinetypeTableRecord
2
CONTINUOUS
3
______
70
0
72
65
73
0
40
0
0
LTYPE
5
3E5B
330
3E79
100
AcDbSymbolTableRecord
100
AcDbLinetypeTableRecord
2
DASHED
3
_ _ _ 
70
0
72
65
73
2
40
10
49
5
74
0
49
-5
74
0
0
LTYPE
5
3E5C
330
3E79
100
AcDbSymbolTableRecord
100
AcDbLinetypeTableRecord
2
DOTTED
3
. . . 
70
0
72
65
73
2
40
5
49
0
74
0
49
-5
74
0
0
LTYPE
5
3E5E
330
3E79
100
AcDbSymbolTableRecord
100
AcDbLinetypeTableRecord
2
ByBlock
3

70
0
72
65
73
0
40
0
0
LTYPE
5
3E5F
330
3E79
100
AcDbSymbolTableRecord
100
AcDbLinetypeTableRecord
2
ByLayer
3

70
0
72
65
73
0
40
0
0
ENDTAB
0
TABLE
2
LAYER
5
3E7A
330
0
100
AcDbSymbolTable
70
1
0
LAYER
5
3E5D
330
3E7A
100
AcDbSymbolTableRecord
100
AcDbLayerTableRecord
2
0
62
7
70
0
6
CONTINUOUS
390
1
0
ENDTAB
0
TABLE
2
VPORT
5
3E60
330
0
100
AcDbSymbolTable
70
1
0
VPORT
5
3E66
330
3E60
100
AcDbSymbolTableRecord
100
AcDbViewportTableRecord
2
*ACTIVE
40
1000
70
0
0
ENDTAB
0
TABLE
2
STYLE
5
3E61
330
0
100
AcDbSymbolTable
70
1
0
STYLE
5
3E67
330
3E61
100
AcDbSymbolTableRecord
100
AcDbTextStyleTableRecord
2
standard
70
0
40
0
41
1
50
0
71
0
42
1
3
txt
4

0
ENDTAB
0
TABLE
2
VIEW
5
3E62
330
0
100
AcDbSymbolTable
70
0
0
ENDTAB
0
TABLE
2
UCS
5
3E63
330
0
100
AcDbSymbolTable
70
0
0
ENDTAB
0
TABLE
2
APPID
5
3E64
330
0
100
AcDbSymbolTable
70
1
0
APPID
5
3E68
330
3E64
100
AcDbSymbolTableRecord
100
AcDbRegAppTableRecord
2
ACAD
70
0
0
ENDTAB
0
TABLE
2
DIMSTYLE
5
3E65
330
0
100
AcDbSymbolTable
100
AcDbDimStyleTable
70
0
71
1
0
ENDTAB
0
TABLE
2
BLOCK_RECORD
5
3E76
330
0
100
AcDbSymbolTable
70
2
0
BLOCK_RECORD
5
3E77
330
3E76
100
AcDbSymbolTableRecord
100
AcDbBlockTableRecord
2
*Model_Space
70
0
280
0
281
1
0
BLOCK_RECORD
5
3E78
330
3E76
100
AcDbSymbolTableRecord
100
AcDbBlockTableRecord
2
*Paper_Space
70
0
280
0
281
1
0
ENDTAB
0
ENDSEC
0
SECTION
2
BLOCKS
0
BLOCK
5
3E69
330
0
100
AcDbEntity
100
AcDbBlockBegin
2
*Model_Space
70
0
10
0
20
0
30
0
3
*Model_Space
1

0
ENDBLK
5
3E6A
330
0
100
AcDbEntity
100
AcDbBlockEnd
0
BLOCK
5
3E6B
330
0
100
AcDbEntity
100
AcDbBlockBegin
2
*Paper_Space
70
0
10
0
20
0
30
0
3
*Paper_Space
1

0
ENDBLK
5
3E6C
330
0
100
AcDbEntity
100
AcDbBlockEnd
0
ENDSEC
0
SECTION
2
ENTITIES
0
LINE
5
3E6E
330
3E69
100
AcDbEntity
100
AcDbLine
8
0
10
-1
20
-1
30
0
11
1
21
-1
31
0
0
LINE
5
3E6F
330
3E69
100
AcDbEntity
100
AcDbLine
8
0
10
1
20
-1
30
0
11
1
21
1
31
0
0
LINE
5
3E70
330
3E69
100
AcDbEntity
100
AcDbLine
8
0
10
1
20
1
30
0
11
-1
21
1
31
0
0
LINE
5
3E71
330
3E69
100
AcDbEntity
100
AcDbLine
8
0
10
-1
20
1
30
0
11
-1
21
-1
31
0
0
LINE
5
3E72
330
3E69
100
AcDbEntity
100
AcDbLine
8
0
10
-0.75
20
-0.75
30
0
11
0.75
21
-0.75
31
0
0
LINE
5
3E73
330
3E69
100
AcDbEntity
100
AcDbLine
8
0
10
0.75
20
-0.75
30
0
11
0.75
21
0.75
31
0
0
LINE
5
3E74
330
3E69
100
AcDbEntity
100
AcDbLine
8
0
10
0.75
20
0.75
30
0
11
-0.75
21
0.75
31
0
0
LINE
5
3E75
330
3E69
100
AcDbEntity
100
AcDbLine
8
0
10
-0.75
20
0.75
30
0
11
-0.75
21
-0.75
31
0
0
ENDSEC
0
SECTION
2
OBJECTS
0
DICTIONARY
5
3E59
330
0
100
AcDbDictionary
281
1
3
ACAD_GROUP
350
3E6D
0
DICTIONARY
5
3E6D
330
3E59
100
AcDbDictionary
281
1
0
ENDSEC
0
EOF