0
SECTION
2
HEADER
9
$HANDSEED
5
65D7
9
$INSUNITS
70
1
9
$ACADVER
1
AC1021
0
ENDSEC
0
SECTION
2
CLASSES
0
ENDSEC
0
SECTION
2
TABLES
0
TABLE
2
LTYPE
5
65D5
330
0
100
AcDbSymbolTable
70
5
0
LTYPE
5
65AE
330
65D5
100
AcDbSymbolTableRecord
100
AcDbLinetypeTableRecord
2
CONTINUOUS
3
______
70
0
72
65
73
0
40
0
0
LTYPE
5
65AF
330
65D5
100
AcDbSymbolTableRecord
100
AcDbLinetypeTableRecord
2
DASHED
3
_ _ _ 
70
0
72
65
73
2
40
10
49
5
74
0
49
-5
74
0
0
LTYPE
5
65B0
330
65D5
100
AcDbSymbolTableRecord
100
AcDbLinetypeTableRecord
2
DOTTED
3
. . . 
70
0
72
65
73
2
40
5
49
0
74
0
49
-5
74
0
0
LTYPE
5
65B2
330
65D5
100
AcDbSymbolTableRecord
100
AcDbLinetypeTableRecord
2
ByBlock
3

70
0
72
65
73
0
40
0
0
LTYPE
5
65B3
330
65D5
100
AcDbSymbolTableRecord
100
AcDbLinetypeTableRecord
2
ByLayer
3

70
0
72
65
73
0
40
0
0
ENDTAB
0
TABLE
2
LAYER
5
65D6
330
0
100
AcDbSymbolTable
70
1
0
LAYER
5
65B1
330
65D6
100
AcDbSymbolTableRecord
100
AcDbLayerTableRecord
2
0
62
7
70
0
6
CONTINUOUS
390
1
0
ENDTAB
0
TABLE
2
VPORT
5
65B4
330
0
100
AcDbSymbolTable
70
1
0
VPORT
5
65BA
330
65B4
100
AcDbSymbolTableRecord
100
AcDbViewportTableRecord
2
*ACTIVE
40
1000
70
0
0
ENDTAB
0
TABLE
2
STYLE
5
65B5
330
0
100
AcDbSymbolTable
70
1
0
STYLE
5
65BB
330
65B5
100
AcDbSymbolTableRecord
100
AcDbTextStyleTableRecord
2
standard
70
0
40
0
41
1
50
0
71
0
42
1
3
txt
4

0
ENDTAB
0
TABLE
2
VIEW
5
65B6
330
0
100
AcDbSymbolTable
70
0
0
ENDTAB
0
TABLE
2
UCS
5
65B7
330
0
100
AcDbSymbolTable
70
0
0
ENDTAB
0
TABLE
2
APPID
5
65B8
330
0
100
AcDbSymbolTable
70
1
0
APPID
5
65BC
330
65B8
100
AcDbSymbolTableRecord
100
AcDbRegAppTableRecord
2
ACAD
70
0
0
ENDTAB
0
TABLE
2
DIMSTYLE
5
65B9
330
0
100
AcDbSymbolTable
100
AcDbDimStyleTable
70
0
71
1
0
ENDTAB
0
TABLE
2
BLOCK_RECORD
5
65D2
330
0
100
AcDbSymbolTable
70
2
0
BLOCK_RECORD
5
65D3
330
65D2
100
AcDbSymbolTableRecord
100
AcDbBlockTableRecord
2
*Model_Space
70
0
280
0
281
1
0
BLOCK_RECORD
5
65D4
330
65D2
100
AcDbSymbolTableRecord
100
AcDbBlockTableRecord
2
*Paper_Space
70
0
280
0
281
1
0
ENDTAB
0
ENDSEC
0
SECTION
2
BLOCKS
0
BLOCK
5
65BD
330
0
100
AcDbEntity
100
AcDbBlockBegin
2
*Model_Space
70
0
10
0
20
0
30
0
3
*Model_Space
1

0
ENDBLK
5
65BE
330
0
100
AcDbEntity
100
AcDbBlockEnd
0
BLOCK
5
65BF
330
0
100
AcDbEntity
100
AcDbBlockBegin
2
*Paper_Space
70
0
10
0
20
0
30
0
3
*Paper_Space
1

0
ENDBLK
5
65C0
330
0
100
AcDbEntity
100
AcDbBlockEnd
0
ENDSEC
0
SECTION
2
ENTITIES
0
LINE
5
65C2
330
65BD
100
AcDbEntity
100
AcDbLine
8
0
10
-0.402
20
-0.5
30
0
11
0.402
21
-0.5
31
0
0
ARC
5
65C3
330
65BD
100
AcDbEntity
100
AcDbCircle
8
0
10
0.402
20
-0.402
30
0
40
0.098
100
AcDbArc
50
270
51
360
0
LINE
5
65C4
330
65BD
100
AcDbEntity
100
AcDbLine
8
0
10
0.5
20
-0.402
30
0
11
0.5
21
0.402
31
0
0
ARC
5
65C5
330
65BD
100
AcDbEntity
100
AcDbCircle
8
0
10
0.402
20
0.402
30
0
40
0.098
100
AcDbArc
50
0
51
90
0
LINE
5
65C6
330
65BD
100
AcDbEntity
100
AcDbLine
8
0
10
0.402
20
0.5
30
0
11
-0.402
21
0.5
31
0
0
ARC
5
65C7
330
65BD
100
AcDbEntity
100
AcDbCircle
8
0
10
-0.402
20
0.402
30
0
40
0.098
100
AcDbArc
50
90
51
180
0
LINE
5
65C8
330
65BD
100
AcDbEntity
100
AcDbLine
8
0
10
-0.5
20
0.402
30
0
11
-0.5
21
-0.402
31
0
0
ARC
5
65C9
330
65BD
100
AcDbEntity
100
AcDbCircle
8
0
10
-0.402
20
-0.402
30
0
40
0.098
100
AcDbArc
50
180
51
270
0
LINE
5
65CA
330
65BD
100
AcDbEntity
100
AcDbLine
8
0
10
-0.402
20
-0.451
30
0
11
0.402
21
-0.451
31
0
0
ARC
5
65CB
330
65BD
100
AcDbEntity
100
AcDbCircle
8
0
10
0.402
20
-0.402
30
0
40
0.049
100
AcDbArc
50
270
51
360
0
LINE
5
65CC
330
65BD
100
AcDbEntity
100
AcDbLine
8
0
10
0.451
20
-0.402
30
0
11
0.451
21
0.402
31
0
0
ARC
5
65CD
330
65BD
100
AcDbEntity
100
AcDbCircle
8
0
10
0.402
20
0.402
30
0
40
0.049
100
AcDbArc
50
0
51
90
0
LINE
5
65CE
330
65BD
100
AcDbEntity
100
AcDbLine
8
0
10
0.402
20
0.451
30
0
11
-0.402
21
0.451
31
0
0
ARC
5
65CF
330
65BD
100
AcDbEntity
100
AcDbCircle
8
0
10
-0.402
20
0.402
30
0
40
0.049
100
AcDbArc
50
90
51
180
0
LINE
5
65D0
330
65BD
100
AcDbEntity
100
AcDbLine
8
0
10
-0.451
20
0.402
30
0
11
-0.451
21
-0.402
31
0
0
ARC
5
65D1
330
65BD
100
AcDbEntity
100
AcDbCircle
8
0
10
-0.402
20
-0.402
30
0
40
0.049
100
AcDbArc
50
180
51
270
0
ENDSEC
0
SECTION
2
OBJECTS
0
DICTIONARY
5
65AD
330
0
100
AcDbDictionary
281
1
3
ACAD_GROUP
350
65C1
0
DICTIONARY
5
65C1
330
65AD
100
AcDbDictionary
281
1
0
ENDSEC
0
EOF