0
SECTION
2
HEADER
9
$HANDSEED
5
3F69
9
$INSUNITS
70
1
9
$ACADVER
1
AC1021
0
ENDSEC
0
SECTION
2
CLASSES
0
ENDSEC
0
SECTION
2
TABLES
0
TABLE
2
LTYPE
5
3F67
330
0
100
AcDbSymbolTable
70
5
0
LTYPE
5
3F48
330
3F67
100
AcDbSymbolTableRecord
100
AcDbLinetypeTableRecord
2
CONTINUOUS
3
______
70
0
72
65
73
0
40
0
0
LTYPE
5
3F49
330
3F67
100
AcDbSymbolTableRecord
100
AcDbLinetypeTableRecord
2
DASHED
3
_ _ _ 
70
0
72
65
73
2
40
10
49
5
74
0
49
-5
74
0
0
LTYPE
5
3F4A
330
3F67
100
AcDbSymbolTableRecord
100
AcDbLinetypeTableRecord
2
DOTTED
3
. . . 
70
0
72
65
73
2
40
5
49
0
74
0
49
-5
74
0
0
LTYPE
5
3F4C
330
3F67
100
AcDbSymbolTableRecord
100
AcDbLinetypeTableRecord
2
ByBlock
3

70
0
72
65
73
0
40
0
0
LTYPE
5
3F4D
330
3F67
100
AcDbSymbolTableRecord
100
AcDbLinetypeTableRecord
2
ByLayer
3

70
0
72
65
73
0
40
0
0
ENDTAB
0
TABLE
2
LAYER
5
3F68
330
0
100
AcDbSymbolTable
70
1
0
LAYER
5
3F4B
330
3F68
100
AcDbSymbolTableRecord
100
AcDbLayerTableRecord
2
0
62
7
70
0
6
CONTINUOUS
390
1
0
ENDTAB
0
TABLE
2
VPORT
5
3F4E
330
0
100
AcDbSymbolTable
70
1
0
VPORT
5
3F54
330
3F4E
100
AcDbSymbolTableRecord
100
AcDbViewportTableRecord
2
*ACTIVE
40
1000
70
0
0
ENDTAB
0
TABLE
2
STYLE
5
3F4F
330
0
100
AcDbSymbolTable
70
1
0
STYLE
5
3F55
330
3F4F
100
AcDbSymbolTableRecord
100
AcDbTextStyleTableRecord
2
standard
70
0
40
0
41
1
50
0
71
0
42
1
3
txt
4

0
ENDTAB
0
TABLE
2
VIEW
5
3F50
330
0
100
AcDbSymbolTable
70
0
0
ENDTAB
0
TABLE
2
UCS
5
3F51
330
0
100
AcDbSymbolTable
70
0
0
ENDTAB
0
TABLE
2
APPID
5
3F52
330
0
100
AcDbSymbolTable
70
1
0
APPID
5
3F56
330
3F52
100
AcDbSymbolTableRecord
100
AcDbRegAppTableRecord
2
ACAD
70
0
0
ENDTAB
0
TABLE
2
DIMSTYLE
5
3F53
330
0
100
AcDbSymbolTable
100
AcDbDimStyleTable
70
0
71
1
0
ENDTAB
0
TABLE
2
BLOCK_RECORD
5
3F64
330
0
100
AcDbSymbolTable
70
2
0
BLOCK_RECORD
5
3F65
330
3F64
100
AcDbSymbolTableRecord
100
AcDbBlockTableRecord
2
*Model_Space
70
0
280
0
281
1
0
BLOCK_RECORD
5
3F66
330
3F64
100
AcDbSymbolTableRecord
100
AcDbBlockTableRecord
2
*Paper_Space
70
0
280
0
281
1
0
ENDTAB
0
ENDSEC
0
SECTION
2
BLOCKS
0
BLOCK
5
3F57
330
0
100
AcDbEntity
100
AcDbBlockBegin
2
*Model_Space
70
0
10
0
20
0
30
0
3
*Model_Space
1

0
ENDBLK
5
3F58
330
0
100
AcDbEntity
100
AcDbBlockEnd
0
BLOCK
5
3F59
330
0
100
AcDbEntity
100
AcDbBlockBegin
2
*Paper_Space
70
0
10
0
20
0
30
0
3
*Paper_Space
1

0
ENDBLK
5
3F5A
330
0
100
AcDbEntity
100
AcDbBlockEnd
0
ENDSEC
0
SECTION
2
ENTITIES
0
LINE
5
3F5C
330
3F57
100
AcDbEntity
100
AcDbLine
8
0
10
-2
20
-2
30
0
11
2
21
-2
31
0
0
LINE
5
3F5D
330
3F57
100
AcDbEntity
100
AcDbLine
8
0
10
2
20
-2
30
0
11
2
21
2
31
0
0
LINE
5
3F5E
330
3F57
100
AcDbEntity
100
AcDbLine
8
0
10
2
20
2
30
0
11
-2
21
2
31
0
0
LINE
5
3F5F
330
3F57
100
AcDbEntity
100
AcDbLine
8
0
10
-2
20
2
30
0
11
-2
21
-2
31
0
0
LINE
5
3F60
330
3F57
100
AcDbEntity
100
AcDbLine
8
0
10
-1.875
20
-1.875
30
0
11
1.875
21
-1.875
31
0
0
LINE
5
3F61
330
3F57
100
AcDbEntity
100
AcDbLine
8
0
10
1.875
20
-1.875
30
0
11
1.875
21
1.875
31
0
0
LINE
5
3F62
330
3F57
100
AcDbEntity
100
AcDbLine
8
0
10
1.875
20
1.875
30
0
11
-1.875
21
1.875
31
0
0
LINE
5
3F63
330
3F57
100
AcDbEntity
100
AcDbLine
8
0
10
-1.875
20
1.875
30
0
11
-1.875
21
-1.875
31
0
0
ENDSEC
0
SECTION
2
OBJECTS
0
DICTIONARY
5
3F47
330
0
100
AcDbDictionary
281
1
3
ACAD_GROUP
350
3F5B
0
DICTIONARY
5
3F5B
330
3F47
100
AcDbDictionary
281
1
0
ENDSEC
0
EOF