0
SECTION
2
HEADER
9
$HANDSEED
5
61AB
9
$INSUNITS
70
1
9
$ACADVER
1
AC1021
0
ENDSEC
0
SECTION
2
CLASSES
0
ENDSEC
0
SECTION
2
TABLES
0
TABLE
2
LTYPE
5
61A9
330
0
100
AcDbSymbolTable
70
5
0
LTYPE
5
618A
330
61A9
100
AcDbSymbolTableRecord
100
AcDbLinetypeTableRecord
2
CONTINUOUS
3
______
70
0
72
65
73
0
40
0
0
LTYPE
5
618B
330
61A9
100
AcDbSymbolTableRecord
100
AcDbLinetypeTableRecord
2
DASHED
3
_ _ _ 
70
0
72
65
73
2
40
10
49
5
74
0
49
-5
74
0
0
LTYPE
5
618C
330
61A9
100
AcDbSymbolTableRecord
100
AcDbLinetypeTableRecord
2
DOTTED
3
. . . 
70
0
72
65
73
2
40
5
49
0
74
0
49
-5
74
0
0
LTYPE
5
618E
330
61A9
100
AcDbSymbolTableRecord
100
AcDbLinetypeTableRecord
2
ByBlock
3

70
0
72
65
73
0
40
0
0
LTYPE
5
618F
330
61A9
100
AcDbSymbolTableRecord
100
AcDbLinetypeTableRecord
2
ByLayer
3

70
0
72
65
73
0
40
0
0
ENDTAB
0
TABLE
2
LAYER
5
61AA
330
0
100
AcDbSymbolTable
70
1
0
LAYER
5
618D
330
61AA
100
AcDbSymbolTableRecord
100
AcDbLayerTableRecord
2
0
62
7
70
0
6
CONTINUOUS
390
1
0
ENDTAB
0
TABLE
2
VPORT
5
6190
330
0
100
AcDbSymbolTable
70
1
0
VPORT
5
6196
330
6190
100
AcDbSymbolTableRecord
100
AcDbViewportTableRecord
2
*ACTIVE
40
1000
70
0
0
ENDTAB
0
TABLE
2
STYLE
5
6191
330
0
100
AcDbSymbolTable
70
1
0
STYLE
5
6197
330
6191
100
AcDbSymbolTableRecord
100
AcDbTextStyleTableRecord
2
standard
70
0
40
0
41
1
50
0
71
0
42
1
3
txt
4

0
ENDTAB
0
TABLE
2
VIEW
5
6192
330
0
100
AcDbSymbolTable
70
0
0
ENDTAB
0
TABLE
2
UCS
5
6193
330
0
100
AcDbSymbolTable
70
0
0
ENDTAB
0
TABLE
2
APPID
5
6194
330
0
100
AcDbSymbolTable
70
1
0
APPID
5
6198
330
6194
100
AcDbSymbolTableRecord
100
AcDbRegAppTableRecord
2
ACAD
70
0
0
ENDTAB
0
TABLE
2
DIMSTYLE
5
6195
330
0
100
AcDbSymbolTable
100
AcDbDimStyleTable
70
0
71
1
0
ENDTAB
0
TABLE
2
BLOCK_RECORD
5
61A6
330
0
100
AcDbSymbolTable
70
2
0
BLOCK_RECORD
5
61A7
330
61A6
100
AcDbSymbolTableRecord
100
AcDbBlockTableRecord
2
*Model_Space
70
0
280
0
281
1
0
BLOCK_RECORD
5
61A8
330
61A6
100
AcDbSymbolTableRecord
100
AcDbBlockTableRecord
2
*Paper_Space
70
0
280
0
281
1
0
ENDTAB
0
ENDSEC
0
SECTION
2
BLOCKS
0
BLOCK
5
6199
330
0
100
AcDbEntity
100
AcDbBlockBegin
2
*Model_Space
70
0
10
0
20
0
30
0
3
*Model_Space
1

0
ENDBLK
5
619A
330
0
100
AcDbEntity
100
AcDbBlockEnd
0
BLOCK
5
619B
330
0
100
AcDbEntity
100
AcDbBlockBegin
2
*Paper_Space
70
0
10
0
20
0
30
0
3
*Paper_Space
1

0
ENDBLK
5
619C
330
0
100
AcDbEntity
100
AcDbBlockEnd
0
ENDSEC
0
SECTION
2
ENTITIES
0
LINE
5
619E
330
6199
100
AcDbEntity
100
AcDbLine
8
0
10
-1.5
20
-1.5
30
0
11
1.5
21
-1.5
31
0
0
LINE
5
619F
330
6199
100
AcDbEntity
100
AcDbLine
8
0
10
1.5
20
-1.5
30
0
11
1.5
21
1.5
31
0
0
LINE
5
61A0
330
6199
100
AcDbEntity
100
AcDbLine
8
0
10
1.5
20
1.5
30
0
11
-1.5
21
1.5
31
0
0
LINE
5
61A1
330
6199
100
AcDbEntity
100
AcDbLine
8
0
10
-1.5
20
1.5
30
0
11
-1.5
21
-1.5
31
0
0
LINE
5
61A2
330
6199
100
AcDbEntity
100
AcDbLine
8
0
10
-1.375
20
-1.375
30
0
11
1.375
21
-1.375
31
0
0
LINE
5
61A3
330
6199
100
AcDbEntity
100
AcDbLine
8
0
10
1.375
20
-1.375
30
0
11
1.375
21
1.375
31
0
0
LINE
5
61A4
330
6199
100
AcDbEntity
100
AcDbLine
8
0
10
1.375
20
1.375
30
0
11
-1.375
21
1.375
31
0
0
LINE
5
61A5
330
6199
100
AcDbEntity
100
AcDbLine
8
0
10
-1.375
20
1.375
30
0
11
-1.375
21
-1.375
31
0
0
ENDSEC
0
SECTION
2
OBJECTS
0
DICTIONARY
5
6189
330
0
100
AcDbDictionary
281
1
3
ACAD_GROUP
350
619D
0
DICTIONARY
5
619D
330
6189
100
AcDbDictionary
281
1
0
ENDSEC
0
EOF