0
SECTION
2
HEADER
9
$HANDSEED
5
4B0D
9
$INSUNITS
70
1
9
$ACADVER
1
AC1021
0
ENDSEC
0
SECTION
2
CLASSES
0
ENDSEC
0
SECTION
2
TABLES
0
TABLE
2
LTYPE
5
4B0B
330
0
100
AcDbSymbolTable
70
5
0
LTYPE
5
4AE4
330
4B0B
100
AcDbSymbolTableRecord
100
AcDbLinetypeTableRecord
2
CONTINUOUS
3
______
70
0
72
65
73
0
40
0
0
LTYPE
5
4AE5
330
4B0B
100
AcDbSymbolTableRecord
100
AcDbLinetypeTableRecord
2
DASHED
3
_ _ _ 
70
0
72
65
73
2
40
10
49
5
74
0
49
-5
74
0
0
LTYPE
5
4AE6
330
4B0B
100
AcDbSymbolTableRecord
100
AcDbLinetypeTableRecord
2
DOTTED
3
. . . 
70
0
72
65
73
2
40
5
49
0
74
0
49
-5
74
0
0
LTYPE
5
4AE8
330
4B0B
100
AcDbSymbolTableRecord
100
AcDbLinetypeTableRecord
2
ByBlock
3

70
0
72
65
73
0
40
0
0
LTYPE
5
4AE9
330
4B0B
100
AcDbSymbolTableRecord
100
AcDbLinetypeTableRecord
2
ByLayer
3

70
0
72
65
73
0
40
0
0
ENDTAB
0
TABLE
2
LAYER
5
4B0C
330
0
100
AcDbSymbolTable
70
1
0
LAYER
5
4AE7
330
4B0C
100
AcDbSymbolTableRecord
100
AcDbLayerTableRecord
2
0
62
7
70
0
6
CONTINUOUS
390
1
0
ENDTAB
0
TABLE
2
VPORT
5
4AEA
330
0
100
AcDbSymbolTable
70
1
0
VPORT
5
4AF0
330
4AEA
100
AcDbSymbolTableRecord
100
AcDbViewportTableRecord
2
*ACTIVE
40
1000
70
0
0
ENDTAB
0
TABLE
2
STYLE
5
4AEB
330
0
100
AcDbSymbolTable
70
1
0
STYLE
5
4AF1
330
4AEB
100
AcDbSymbolTableRecord
100
AcDbTextStyleTableRecord
2
standard
70
0
40
0
41
1
50
0
71
0
42
1
3
txt
4

0
ENDTAB
0
TABLE
2
VIEW
5
4AEC
330
0
100
AcDbSymbolTable
70
0
0
ENDTAB
0
TABLE
2
UCS
5
4AED
330
0
100
AcDbSymbolTable
70
0
0
ENDTAB
0
TABLE
2
APPID
5
4AEE
330
0
100
AcDbSymbolTable
70
1
0
APPID
5
4AF2
330
4AEE
100
AcDbSymbolTableRecord
100
AcDbRegAppTableRecord
2
ACAD
70
0
0
ENDTAB
0
TABLE
2
DIMSTYLE
5
4AEF
330
0
100
AcDbSymbolTable
100
AcDbDimStyleTable
70
0
71
1
0
ENDTAB
0
TABLE
2
BLOCK_RECORD
5
4B08
330
0
100
AcDbSymbolTable
70
2
0
BLOCK_RECORD
5
4B09
330
4B08
100
AcDbSymbolTableRecord
100
AcDbBlockTableRecord
2
*Model_Space
70
0
280
0
281
1
0
BLOCK_RECORD
5
4B0A
330
4B08
100
AcDbSymbolTableRecord
100
AcDbBlockTableRecord
2
*Paper_Space
70
0
280
0
281
1
0
ENDTAB
0
ENDSEC
0
SECTION
2
BLOCKS
0
BLOCK
5
4AF3
330
0
100
AcDbEntity
100
AcDbBlockBegin
2
*Model_Space
70
0
10
0
20
0
30
0
3
*Model_Space
1

0
ENDBLK
5
4AF4
330
0
100
AcDbEntity
100
AcDbBlockEnd
0
BLOCK
5
4AF5
330
0
100
AcDbEntity
100
AcDbBlockBegin
2
*Paper_Space
70
0
10
0
20
0
30
0
3
*Paper_Space
1

0
ENDBLK
5
4AF6
330
0
100
AcDbEntity
100
AcDbBlockEnd
0
ENDSEC
0
SECTION
2
ENTITIES
0
LINE
5
4AF8
330
4AF3
100
AcDbEntity
100
AcDbLine
8
0
10
-1.5
20
-2
30
0
11
1.5
21
-2
31
0
0
ARC
5
4AF9
330
4AF3
100
AcDbEntity
100
AcDbCircle
8
0
10
1.5
20
-1.5
30
0
40
0.5
100
AcDbArc
50
270
51
360
0
LINE
5
4AFA
330
4AF3
100
AcDbEntity
100
AcDbLine
8
0
10
2
20
-1.5
30
0
11
2
21
1.5
31
0
0
ARC
5
4AFB
330
4AF3
100
AcDbEntity
100
AcDbCircle
8
0
10
1.5
20
1.5
30
0
40
0.5
100
AcDbArc
50
0
51
90
0
LINE
5
4AFC
330
4AF3
100
AcDbEntity
100
AcDbLine
8
0
10
1.5
20
2
30
0
11
-1.5
21
2
31
0
0
ARC
5
4AFD
330
4AF3
100
AcDbEntity
100
AcDbCircle
8
0
10
-1.5
20
1.5
30
0
40
0.5
100
AcDbArc
50
90
51
180
0
LINE
5
4AFE
330
4AF3
100
AcDbEntity
100
AcDbLine
8
0
10
-2
20
1.5
30
0
11
-2
21
-1.5
31
0
0
ARC
5
4AFF
330
4AF3
100
AcDbEntity
100
AcDbCircle
8
0
10
-1.5
20
-1.5
30
0
40
0.5
100
AcDbArc
50
180
51
270
0
LINE
5
4B00
330
4AF3
100
AcDbEntity
100
AcDbLine
8
0
10
-1.5
20
-1.75
30
0
11
1.5
21
-1.75
31
0
0
ARC
5
4B01
330
4AF3
100
AcDbEntity
100
AcDbCircle
8
0
10
1.5
20
-1.5
30
0
40
0.25
100
AcDbArc
50
270
51
360
0
LINE
5
4B02
330
4AF3
100
AcDbEntity
100
AcDbLine
8
0
10
1.75
20
-1.5
30
0
11
1.75
21
1.5
31
0
0
ARC
5
4B03
330
4AF3
100
AcDbEntity
100
AcDbCircle
8
0
10
1.5
20
1.5
30
0
40
0.25
100
AcDbArc
50
0
51
90
0
LINE
5
4B04
330
4AF3
100
AcDbEntity
100
AcDbLine
8
0
10
1.5
20
1.75
30
0
11
-1.5
21
1.75
31
0
0
ARC
5
4B05
330
4AF3
100
AcDbEntity
100
AcDbCircle
8
0
10
-1.5
20
1.5
30
0
40
0.25
100
AcDbArc
50
90
51
180
0
LINE
5
4B06
330
4AF3
100
AcDbEntity
100
AcDbLine
8
0
10
-1.75
20
1.5
30
0
11
-1.75
21
-1.5
31
0
0
ARC
5
4B07
330
4AF3
100
AcDbEntity
100
AcDbCircle
8
0
10
-1.5
20
-1.5
30
0
40
0.25
100
AcDbArc
50
180
51
270
0
ENDSEC
0
SECTION
2
OBJECTS
0
DICTIONARY
5
4AE3
330
0
100
AcDbDictionary
281
1
3
ACAD_GROUP
350
4AF7
0
DICTIONARY
5
4AF7
330
4AE3
100
AcDbDictionary
281
1
0
ENDSEC
0
EOF