0
SECTION
2
HEADER
9
$HANDSEED
5
4FCF
9
$INSUNITS
70
1
9
$ACADVER
1
AC1021
0
ENDSEC
0
SECTION
2
CLASSES
0
ENDSEC
0
SECTION
2
TABLES
0
TABLE
2
LTYPE
5
4FCD
330
0
100
AcDbSymbolTable
70
5
0
LTYPE
5
4FA6
330
4FCD
100
AcDbSymbolTableRecord
100
AcDbLinetypeTableRecord
2
CONTINUOUS
3
______
70
0
72
65
73
0
40
0
0
LTYPE
5
4FA7
330
4FCD
100
AcDbSymbolTableRecord
100
AcDbLinetypeTableRecord
2
DASHED
3
_ _ _ 
70
0
72
65
73
2
40
10
49
5
74
0
49
-5
74
0
0
LTYPE
5
4FA8
330
4FCD
100
AcDbSymbolTableRecord
100
AcDbLinetypeTableRecord
2
DOTTED
3
. . . 
70
0
72
65
73
2
40
5
49
0
74
0
49
-5
74
0
0
LTYPE
5
4FAA
330
4FCD
100
AcDbSymbolTableRecord
100
AcDbLinetypeTableRecord
2
ByBlock
3

70
0
72
65
73
0
40
0
0
LTYPE
5
4FAB
330
4FCD
100
AcDbSymbolTableRecord
100
AcDbLinetypeTableRecord
2
ByLayer
3

70
0
72
65
73
0
40
0
0
ENDTAB
0
TABLE
2
LAYER
5
4FCE
330
0
100
AcDbSymbolTable
70
1
0
LAYER
5
4FA9
330
4FCE
100
AcDbSymbolTableRecord
100
AcDbLayerTableRecord
2
0
62
7
70
0
6
CONTINUOUS
390
1
0
ENDTAB
0
TABLE
2
VPORT
5
4FAC
330
0
100
AcDbSymbolTable
70
1
0
VPORT
5
4FB2
330
4FAC
100
AcDbSymbolTableRecord
100
AcDbViewportTableRecord
2
*ACTIVE
40
1000
70
0
0
ENDTAB
0
TABLE
2
STYLE
5
4FAD
330
0
100
AcDbSymbolTable
70
1
0
STYLE
5
4FB3
330
4FAD
100
AcDbSymbolTableRecord
100
AcDbTextStyleTableRecord
2
standard
70
0
40
0
41
1
50
0
71
0
42
1
3
txt
4

0
ENDTAB
0
TABLE
2
VIEW
5
4FAE
330
0
100
AcDbSymbolTable
70
0
0
ENDTAB
0
TABLE
2
UCS
5
4FAF
330
0
100
AcDbSymbolTable
70
0
0
ENDTAB
0
TABLE
2
APPID
5
4FB0
330
0
100
AcDbSymbolTable
70
1
0
APPID
5
4FB4
330
4FB0
100
AcDbSymbolTableRecord
100
AcDbRegAppTableRecord
2
ACAD
70
0
0
ENDTAB
0
TABLE
2
DIMSTYLE
5
4FB1
330
0
100
AcDbSymbolTable
100
AcDbDimStyleTable
70
0
71
1
0
ENDTAB
0
TABLE
2
BLOCK_RECORD
5
4FCA
330
0
100
AcDbSymbolTable
70
2
0
BLOCK_RECORD
5
4FCB
330
4FCA
100
AcDbSymbolTableRecord
100
AcDbBlockTableRecord
2
*Model_Space
70
0
280
0
281
1
0
BLOCK_RECORD
5
4FCC
330
4FCA
100
AcDbSymbolTableRecord
100
AcDbBlockTableRecord
2
*Paper_Space
70
0
280
0
281
1
0
ENDTAB
0
ENDSEC
0
SECTION
2
BLOCKS
0
BLOCK
5
4FB5
330
0
100
AcDbEntity
100
AcDbBlockBegin
2
*Model_Space
70
0
10
0
20
0
30
0
3
*Model_Space
1

0
ENDBLK
5
4FB6
330
0
100
AcDbEntity
100
AcDbBlockEnd
0
BLOCK
5
4FB7
330
0
100
AcDbEntity
100
AcDbBlockBegin
2
*Paper_Space
70
0
10
0
20
0
30
0
3
*Paper_Space
1

0
ENDBLK
5
4FB8
330
0
100
AcDbEntity
100
AcDbBlockEnd
0
ENDSEC
0
SECTION
2
ENTITIES
0
LINE
5
4FBA
330
4FB5
100
AcDbEntity
100
AcDbLine
8
0
10
-1.624
20
-2
30
0
11
1.624
21
-2
31
0
0
ARC
5
4FBB
330
4FB5
100
AcDbEntity
100
AcDbCircle
8
0
10
1.624
20
-1.624
30
0
40
0.376
100
AcDbArc
50
270
51
360
0
LINE
5
4FBC
330
4FB5
100
AcDbEntity
100
AcDbLine
8
0
10
2
20
-1.624
30
0
11
2
21
1.624
31
0
0
ARC
5
4FBD
330
4FB5
100
AcDbEntity
100
AcDbCircle
8
0
10
1.624
20
1.624
30
0
40
0.376
100
AcDbArc
50
0
51
90
0
LINE
5
4FBE
330
4FB5
100
AcDbEntity
100
AcDbLine
8
0
10
1.624
20
2
30
0
11
-1.624
21
2
31
0
0
ARC
5
4FBF
330
4FB5
100
AcDbEntity
100
AcDbCircle
8
0
10
-1.624
20
1.624
30
0
40
0.376
100
AcDbArc
50
90
51
180
0
LINE
5
4FC0
330
4FB5
100
AcDbEntity
100
AcDbLine
8
0
10
-2
20
1.624
30
0
11
-2
21
-1.624
31
0
0
ARC
5
4FC1
330
4FB5
100
AcDbEntity
100
AcDbCircle
8
0
10
-1.624
20
-1.624
30
0
40
0.376
100
AcDbArc
50
180
51
270
0
LINE
5
4FC2
330
4FB5
100
AcDbEntity
100
AcDbLine
8
0
10
-1.624
20
-1.812
30
0
11
1.624
21
-1.812
31
0
0
ARC
5
4FC3
330
4FB5
100
AcDbEntity
100
AcDbCircle
8
0
10
1.624
20
-1.624
30
0
40
0.188
100
AcDbArc
50
270
51
360
0
LINE
5
4FC4
330
4FB5
100
AcDbEntity
100
AcDbLine
8
0
10
1.812
20
-1.624
30
0
11
1.812
21
1.624
31
0
0
ARC
5
4FC5
330
4FB5
100
AcDbEntity
100
AcDbCircle
8
0
10
1.624
20
1.624
30
0
40
0.188
100
AcDbArc
50
0
51
90
0
LINE
5
4FC6
330
4FB5
100
AcDbEntity
100
AcDbLine
8
0
10
1.624
20
1.812
30
0
11
-1.624
21
1.812
31
0
0
ARC
5
4FC7
330
4FB5
100
AcDbEntity
100
AcDbCircle
8
0
10
-1.624
20
1.624
30
0
40
0.188
100
AcDbArc
50
90
51
180
0
LINE
5
4FC8
330
4FB5
100
AcDbEntity
100
AcDbLine
8
0
10
-1.812
20
1.624
30
0
11
-1.812
21
-1.624
31
0
0
ARC
5
4FC9
330
4FB5
100
AcDbEntity
100
AcDbCircle
8
0
10
-1.624
20
-1.624
30
0
40
0.188
100
AcDbArc
50
180
51
270
0
ENDSEC
0
SECTION
2
OBJECTS
0
DICTIONARY
5
4FA5
330
0
100
AcDbDictionary
281
1
3
ACAD_GROUP
350
4FB9
0
DICTIONARY
5
4FB9
330
4FA5
100
AcDbDictionary
281
1
0
ENDSEC
0
EOF