0
SECTION
2
HEADER
9
$HANDSEED
5
55AD
9
$INSUNITS
70
1
9
$ACADVER
1
AC1021
0
ENDSEC
0
SECTION
2
CLASSES
0
ENDSEC
0
SECTION
2
TABLES
0
TABLE
2
LTYPE
5
55AB
330
0
100
AcDbSymbolTable
70
5
0
LTYPE
5
5584
330
55AB
100
AcDbSymbolTableRecord
100
AcDbLinetypeTableRecord
2
CONTINUOUS
3
______
70
0
72
65
73
0
40
0
0
LTYPE
5
5585
330
55AB
100
AcDbSymbolTableRecord
100
AcDbLinetypeTableRecord
2
DASHED
3
_ _ _ 
70
0
72
65
73
2
40
10
49
5
74
0
49
-5
74
0
0
LTYPE
5
5586
330
55AB
100
AcDbSymbolTableRecord
100
AcDbLinetypeTableRecord
2
DOTTED
3
. . . 
70
0
72
65
73
2
40
5
49
0
74
0
49
-5
74
0
0
LTYPE
5
5588
330
55AB
100
AcDbSymbolTableRecord
100
AcDbLinetypeTableRecord
2
ByBlock
3

70
0
72
65
73
0
40
0
0
LTYPE
5
5589
330
55AB
100
AcDbSymbolTableRecord
100
AcDbLinetypeTableRecord
2
ByLayer
3

70
0
72
65
73
0
40
0
0
ENDTAB
0
TABLE
2
LAYER
5
55AC
330
0
100
AcDbSymbolTable
70
1
0
LAYER
5
5587
330
55AC
100
AcDbSymbolTableRecord
100
AcDbLayerTableRecord
2
0
62
7
70
0
6
CONTINUOUS
390
1
0
ENDTAB
0
TABLE
2
VPORT
5
558A
330
0
100
AcDbSymbolTable
70
1
0
VPORT
5
5590
330
558A
100
AcDbSymbolTableRecord
100
AcDbViewportTableRecord
2
*ACTIVE
40
1000
70
0
0
ENDTAB
0
TABLE
2
STYLE
5
558B
330
0
100
AcDbSymbolTable
70
1
0
STYLE
5
5591
330
558B
100
AcDbSymbolTableRecord
100
AcDbTextStyleTableRecord
2
standard
70
0
40
0
41
1
50
0
71
0
42
1
3
txt
4

0
ENDTAB
0
TABLE
2
VIEW
5
558C
330
0
100
AcDbSymbolTable
70
0
0
ENDTAB
0
TABLE
2
UCS
5
558D
330
0
100
AcDbSymbolTable
70
0
0
ENDTAB
0
TABLE
2
APPID
5
558E
330
0
100
AcDbSymbolTable
70
1
0
APPID
5
5592
330
558E
100
AcDbSymbolTableRecord
100
AcDbRegAppTableRecord
2
ACAD
70
0
0
ENDTAB
0
TABLE
2
DIMSTYLE
5
558F
330
0
100
AcDbSymbolTable
100
AcDbDimStyleTable
70
0
71
1
0
ENDTAB
0
TABLE
2
BLOCK_RECORD
5
55A8
330
0
100
AcDbSymbolTable
70
2
0
BLOCK_RECORD
5
55A9
330
55A8
100
AcDbSymbolTableRecord
100
AcDbBlockTableRecord
2
*Model_Space
70
0
280
0
281
1
0
BLOCK_RECORD
5
55AA
330
55A8
100
AcDbSymbolTableRecord
100
AcDbBlockTableRecord
2
*Paper_Space
70
0
280
0
281
1
0
ENDTAB
0
ENDSEC
0
SECTION
2
BLOCKS
0
BLOCK
5
5593
330
0
100
AcDbEntity
100
AcDbBlockBegin
2
*Model_Space
70
0
10
0
20
0
30
0
3
*Model_Space
1

0
ENDBLK
5
5594
330
0
100
AcDbEntity
100
AcDbBlockEnd
0
BLOCK
5
5595
330
0
100
AcDbEntity
100
AcDbBlockBegin
2
*Paper_Space
70
0
10
0
20
0
30
0
3
*Paper_Space
1

0
ENDBLK
5
5596
330
0
100
AcDbEntity
100
AcDbBlockEnd
0
ENDSEC
0
SECTION
2
ENTITIES
0
LINE
5
5598
330
5593
100
AcDbEntity
100
AcDbLine
8
0
10
-2.5
20
-3
30
0
11
2.5
21
-3
31
0
0
ARC
5
5599
330
5593
100
AcDbEntity
100
AcDbCircle
8
0
10
2.5
20
-2.5
30
0
40
0.5
100
AcDbArc
50
270
51
360
0
LINE
5
559A
330
5593
100
AcDbEntity
100
AcDbLine
8
0
10
3
20
-2.5
30
0
11
3
21
2.5
31
0
0
ARC
5
559B
330
5593
100
AcDbEntity
100
AcDbCircle
8
0
10
2.5
20
2.5
30
0
40
0.5
100
AcDbArc
50
0
51
90
0
LINE
5
559C
330
5593
100
AcDbEntity
100
AcDbLine
8
0
10
2.5
20
3
30
0
11
-2.5
21
3
31
0
0
ARC
5
559D
330
5593
100
AcDbEntity
100
AcDbCircle
8
0
10
-2.5
20
2.5
30
0
40
0.5
100
AcDbArc
50
90
51
180
0
LINE
5
559E
330
5593
100
AcDbEntity
100
AcDbLine
8
0
10
-3
20
2.5
30
0
11
-3
21
-2.5
31
0
0
ARC
5
559F
330
5593
100
AcDbEntity
100
AcDbCircle
8
0
10
-2.5
20
-2.5
30
0
40
0.5
100
AcDbArc
50
180
51
270
0
LINE
5
55A0
330
5593
100
AcDbEntity
100
AcDbLine
8
0
10
-2.5
20
-2.75
30
0
11
2.5
21
-2.75
31
0
0
ARC
5
55A1
330
5593
100
AcDbEntity
100
AcDbCircle
8
0
10
2.5
20
-2.5
30
0
40
0.25
100
AcDbArc
50
270
51
360
0
LINE
5
55A2
330
5593
100
AcDbEntity
100
AcDbLine
8
0
10
2.75
20
-2.5
30
0
11
2.75
21
2.5
31
0
0
ARC
5
55A3
330
5593
100
AcDbEntity
100
AcDbCircle
8
0
10
2.5
20
2.5
30
0
40
0.25
100
AcDbArc
50
0
51
90
0
LINE
5
55A4
330
5593
100
AcDbEntity
100
AcDbLine
8
0
10
2.5
20
2.75
30
0
11
-2.5
21
2.75
31
0
0
ARC
5
55A5
330
5593
100
AcDbEntity
100
AcDbCircle
8
0
10
-2.5
20
2.5
30
0
40
0.25
100
AcDbArc
50
90
51
180
0
LINE
5
55A6
330
5593
100
AcDbEntity
100
AcDbLine
8
0
10
-2.75
20
2.5
30
0
11
-2.75
21
-2.5
31
0
0
ARC
5
55A7
330
5593
100
AcDbEntity
100
AcDbCircle
8
0
10
-2.5
20
-2.5
30
0
40
0.25
100
AcDbArc
50
180
51
270
0
ENDSEC
0
SECTION
2
OBJECTS
0
DICTIONARY
5
5583
330
0
100
AcDbDictionary
281
1
3
ACAD_GROUP
350
5597
0
DICTIONARY
5
5597
330
5583
100
AcDbDictionary
281
1
0
ENDSEC
0
EOF