0
SECTION
2
HEADER
9
$HANDSEED
5
4DAD
9
$INSUNITS
70
1
9
$ACADVER
1
AC1021
0
ENDSEC
0
SECTION
2
CLASSES
0
ENDSEC
0
SECTION
2
TABLES
0
TABLE
2
LTYPE
5
4DAB
330
0
100
AcDbSymbolTable
70
5
0
LTYPE
5
4D84
330
4DAB
100
AcDbSymbolTableRecord
100
AcDbLinetypeTableRecord
2
CONTINUOUS
3
______
70
0
72
65
73
0
40
0
0
LTYPE
5
4D85
330
4DAB
100
AcDbSymbolTableRecord
100
AcDbLinetypeTableRecord
2
DASHED
3
_ _ _ 
70
0
72
65
73
2
40
10
49
5
74
0
49
-5
74
0
0
LTYPE
5
4D86
330
4DAB
100
AcDbSymbolTableRecord
100
AcDbLinetypeTableRecord
2
DOTTED
3
. . . 
70
0
72
65
73
2
40
5
49
0
74
0
49
-5
74
0
0
LTYPE
5
4D88
330
4DAB
100
AcDbSymbolTableRecord
100
AcDbLinetypeTableRecord
2
ByBlock
3

70
0
72
65
73
0
40
0
0
LTYPE
5
4D89
330
4DAB
100
AcDbSymbolTableRecord
100
AcDbLinetypeTableRecord
2
ByLayer
3

70
0
72
65
73
0
40
0
0
ENDTAB
0
TABLE
2
LAYER
5
4DAC
330
0
100
AcDbSymbolTable
70
1
0
LAYER
5
4D87
330
4DAC
100
AcDbSymbolTableRecord
100
AcDbLayerTableRecord
2
0
62
7
70
0
6
CONTINUOUS
390
1
0
ENDTAB
0
TABLE
2
VPORT
5
4D8A
330
0
100
AcDbSymbolTable
70
1
0
VPORT
5
4D90
330
4D8A
100
AcDbSymbolTableRecord
100
AcDbViewportTableRecord
2
*ACTIVE
40
1000
70
0
0
ENDTAB
0
TABLE
2
STYLE
5
4D8B
330
0
100
AcDbSymbolTable
70
1
0
STYLE
5
4D91
330
4D8B
100
AcDbSymbolTableRecord
100
AcDbTextStyleTableRecord
2
standard
70
0
40
0
41
1
50
0
71
0
42
1
3
txt
4

0
ENDTAB
0
TABLE
2
VIEW
5
4D8C
330
0
100
AcDbSymbolTable
70
0
0
ENDTAB
0
TABLE
2
UCS
5
4D8D
330
0
100
AcDbSymbolTable
70
0
0
ENDTAB
0
TABLE
2
APPID
5
4D8E
330
0
100
AcDbSymbolTable
70
1
0
APPID
5
4D92
330
4D8E
100
AcDbSymbolTableRecord
100
AcDbRegAppTableRecord
2
ACAD
70
0
0
ENDTAB
0
TABLE
2
DIMSTYLE
5
4D8F
330
0
100
AcDbSymbolTable
100
AcDbDimStyleTable
70
0
71
1
0
ENDTAB
0
TABLE
2
BLOCK_RECORD
5
4DA8
330
0
100
AcDbSymbolTable
70
2
0
BLOCK_RECORD
5
4DA9
330
4DA8
100
AcDbSymbolTableRecord
100
AcDbBlockTableRecord
2
*Model_Space
70
0
280
0
281
1
0
BLOCK_RECORD
5
4DAA
330
4DA8
100
AcDbSymbolTableRecord
100
AcDbBlockTableRecord
2
*Paper_Space
70
0
280
0
281
1
0
ENDTAB
0
ENDSEC
0
SECTION
2
BLOCKS
0
BLOCK
5
4D93
330
0
100
AcDbEntity
100
AcDbBlockBegin
2
*Model_Space
70
0
10
0
20
0
30
0
3
*Model_Space
1

0
ENDBLK
5
4D94
330
0
100
AcDbEntity
100
AcDbBlockEnd
0
BLOCK
5
4D95
330
0
100
AcDbEntity
100
AcDbBlockBegin
2
*Paper_Space
70
0
10
0
20
0
30
0
3
*Paper_Space
1

0
ENDBLK
5
4D96
330
0
100
AcDbEntity
100
AcDbBlockEnd
0
ENDSEC
0
SECTION
2
ENTITIES
0
LINE
5
4D98
330
4D93
100
AcDbEntity
100
AcDbLine
8
0
10
-0.374
20
-0.75
30
0
11
0.374
21
-0.75
31
0
0
ARC
5
4D99
330
4D93
100
AcDbEntity
100
AcDbCircle
8
0
10
0.374
20
-0.374
30
0
40
0.376
100
AcDbArc
50
270
51
360
0
LINE
5
4D9A
330
4D93
100
AcDbEntity
100
AcDbLine
8
0
10
0.75
20
-0.374
30
0
11
0.75
21
0.374
31
0
0
ARC
5
4D9B
330
4D93
100
AcDbEntity
100
AcDbCircle
8
0
10
0.374
20
0.374
30
0
40
0.376
100
AcDbArc
50
0
51
90
0
LINE
5
4D9C
330
4D93
100
AcDbEntity
100
AcDbLine
8
0
10
0.374
20
0.75
30
0
11
-0.374
21
0.75
31
0
0
ARC
5
4D9D
330
4D93
100
AcDbEntity
100
AcDbCircle
8
0
10
-0.374
20
0.374
30
0
40
0.376
100
AcDbArc
50
90
51
180
0
LINE
5
4D9E
330
4D93
100
AcDbEntity
100
AcDbLine
8
0
10
-0.75
20
0.374
30
0
11
-0.75
21
-0.374
31
0
0
ARC
5
4D9F
330
4D93
100
AcDbEntity
100
AcDbCircle
8
0
10
-0.374
20
-0.374
30
0
40
0.376
100
AcDbArc
50
180
51
270
0
LINE
5
4DA0
330
4D93
100
AcDbEntity
100
AcDbLine
8
0
10
-0.37400000000000005
20
-0.562
30
0
11
0.37400000000000005
21
-0.562
31
0
0
ARC
5
4DA1
330
4D93
100
AcDbEntity
100
AcDbCircle
8
0
10
0.37400000000000005
20
-0.37400000000000005
30
0
40
0.188
100
AcDbArc
50
270
51
360
0
LINE
5
4DA2
330
4D93
100
AcDbEntity
100
AcDbLine
8
0
10
0.562
20
-0.37400000000000005
30
0
11
0.562
21
0.37400000000000005
31
0
0
ARC
5
4DA3
330
4D93
100
AcDbEntity
100
AcDbCircle
8
0
10
0.37400000000000005
20
0.37400000000000005
30
0
40
0.188
100
AcDbArc
50
0
51
90
0
LINE
5
4DA4
330
4D93
100
AcDbEntity
100
AcDbLine
8
0
10
0.37400000000000005
20
0.562
30
0
11
-0.37400000000000005
21
0.562
31
0
0
ARC
5
4DA5
330
4D93
100
AcDbEntity
100
AcDbCircle
8
0
10
-0.37400000000000005
20
0.37400000000000005
30
0
40
0.188
100
AcDbArc
50
90
51
180
0
LINE
5
4DA6
330
4D93
100
AcDbEntity
100
AcDbLine
8
0
10
-0.562
20
0.37400000000000005
30
0
11
-0.562
21
-0.37400000000000005
31
0
0
ARC
5
4DA7
330
4D93
100
AcDbEntity
100
AcDbCircle
8
0
10
-0.37400000000000005
20
-0.37400000000000005
30
0
40
0.188
100
AcDbArc
50
180
51
270
0
ENDSEC
0
SECTION
2
OBJECTS
0
DICTIONARY
5
4D83
330
0
100
AcDbDictionary
281
1
3
ACAD_GROUP
350
4D97
0
DICTIONARY
5
4D97
330
4D83
100
AcDbDictionary
281
1
0
ENDSEC
0
EOF