0
SECTION
2
HEADER
9
$HANDSEED
5
4D59
9
$INSUNITS
70
1
9
$ACADVER
1
AC1021
0
ENDSEC
0
SECTION
2
CLASSES
0
ENDSEC
0
SECTION
2
TABLES
0
TABLE
2
LTYPE
5
4D57
330
0
100
AcDbSymbolTable
70
5
0
LTYPE
5
4D30
330
4D57
100
AcDbSymbolTableRecord
100
AcDbLinetypeTableRecord
2
CONTINUOUS
3
______
70
0
72
65
73
0
40
0
0
LTYPE
5
4D31
330
4D57
100
AcDbSymbolTableRecord
100
AcDbLinetypeTableRecord
2
DASHED
3
_ _ _ 
70
0
72
65
73
2
40
10
49
5
74
0
49
-5
74
0
0
LTYPE
5
4D32
330
4D57
100
AcDbSymbolTableRecord
100
AcDbLinetypeTableRecord
2
DOTTED
3
. . . 
70
0
72
65
73
2
40
5
49
0
74
0
49
-5
74
0
0
LTYPE
5
4D34
330
4D57
100
AcDbSymbolTableRecord
100
AcDbLinetypeTableRecord
2
ByBlock
3

70
0
72
65
73
0
40
0
0
LTYPE
5
4D35
330
4D57
100
AcDbSymbolTableRecord
100
AcDbLinetypeTableRecord
2
ByLayer
3

70
0
72
65
73
0
40
0
0
ENDTAB
0
TABLE
2
LAYER
5
4D58
330
0
100
AcDbSymbolTable
70
1
0
LAYER
5
4D33
330
4D58
100
AcDbSymbolTableRecord
100
AcDbLayerTableRecord
2
0
62
7
70
0
6
CONTINUOUS
390
1
0
ENDTAB
0
TABLE
2
VPORT
5
4D36
330
0
100
AcDbSymbolTable
70
1
0
VPORT
5
4D3C
330
4D36
100
AcDbSymbolTableRecord
100
AcDbViewportTableRecord
2
*ACTIVE
40
1000
70
0
0
ENDTAB
0
TABLE
2
STYLE
5
4D37
330
0
100
AcDbSymbolTable
70
1
0
STYLE
5
4D3D
330
4D37
100
AcDbSymbolTableRecord
100
AcDbTextStyleTableRecord
2
standard
70
0
40
0
41
1
50
0
71
0
42
1
3
txt
4

0
ENDTAB
0
TABLE
2
VIEW
5
4D38
330
0
100
AcDbSymbolTable
70
0
0
ENDTAB
0
TABLE
2
UCS
5
4D39
330
0
100
AcDbSymbolTable
70
0
0
ENDTAB
0
TABLE
2
APPID
5
4D3A
330
0
100
AcDbSymbolTable
70
1
0
APPID
5
4D3E
330
4D3A
100
AcDbSymbolTableRecord
100
AcDbRegAppTableRecord
2
ACAD
70
0
0
ENDTAB
0
TABLE
2
DIMSTYLE
5
4D3B
330
0
100
AcDbSymbolTable
100
AcDbDimStyleTable
70
0
71
1
0
ENDTAB
0
TABLE
2
BLOCK_RECORD
5
4D54
330
0
100
AcDbSymbolTable
70
2
0
BLOCK_RECORD
5
4D55
330
4D54
100
AcDbSymbolTableRecord
100
AcDbBlockTableRecord
2
*Model_Space
70
0
280
0
281
1
0
BLOCK_RECORD
5
4D56
330
4D54
100
AcDbSymbolTableRecord
100
AcDbBlockTableRecord
2
*Paper_Space
70
0
280
0
281
1
0
ENDTAB
0
ENDSEC
0
SECTION
2
BLOCKS
0
BLOCK
5
4D3F
330
0
100
AcDbEntity
100
AcDbBlockBegin
2
*Model_Space
70
0
10
0
20
0
30
0
3
*Model_Space
1

0
ENDBLK
5
4D40
330
0
100
AcDbEntity
100
AcDbBlockEnd
0
BLOCK
5
4D41
330
0
100
AcDbEntity
100
AcDbBlockBegin
2
*Paper_Space
70
0
10
0
20
0
30
0
3
*Paper_Space
1

0
ENDBLK
5
4D42
330
0
100
AcDbEntity
100
AcDbBlockEnd
0
ENDSEC
0
SECTION
2
ENTITIES
0
LINE
5
4D44
330
4D3F
100
AcDbEntity
100
AcDbLine
8
0
10
-0.62
20
-0.75
30
0
11
0.62
21
-0.75
31
0
0
ARC
5
4D45
330
4D3F
100
AcDbEntity
100
AcDbCircle
8
0
10
0.62
20
-0.62
30
0
40
0.13
100
AcDbArc
50
270
51
360
0
LINE
5
4D46
330
4D3F
100
AcDbEntity
100
AcDbLine
8
0
10
0.75
20
-0.62
30
0
11
0.75
21
0.62
31
0
0
ARC
5
4D47
330
4D3F
100
AcDbEntity
100
AcDbCircle
8
0
10
0.62
20
0.62
30
0
40
0.13
100
AcDbArc
50
0
51
90
0
LINE
5
4D48
330
4D3F
100
AcDbEntity
100
AcDbLine
8
0
10
0.62
20
0.75
30
0
11
-0.62
21
0.75
31
0
0
ARC
5
4D49
330
4D3F
100
AcDbEntity
100
AcDbCircle
8
0
10
-0.62
20
0.62
30
0
40
0.13
100
AcDbArc
50
90
51
180
0
LINE
5
4D4A
330
4D3F
100
AcDbEntity
100
AcDbLine
8
0
10
-0.75
20
0.62
30
0
11
-0.75
21
-0.62
31
0
0
ARC
5
4D4B
330
4D3F
100
AcDbEntity
100
AcDbCircle
8
0
10
-0.62
20
-0.62
30
0
40
0.13
100
AcDbArc
50
180
51
270
0
LINE
5
4D4C
330
4D3F
100
AcDbEntity
100
AcDbLine
8
0
10
-0.6200000000000001
20
-0.685
30
0
11
0.6200000000000001
21
-0.685
31
0
0
ARC
5
4D4D
330
4D3F
100
AcDbEntity
100
AcDbCircle
8
0
10
0.6200000000000001
20
-0.6200000000000001
30
0
40
0.065
100
AcDbArc
50
270
51
360
0
LINE
5
4D4E
330
4D3F
100
AcDbEntity
100
AcDbLine
8
0
10
0.685
20
-0.6200000000000001
30
0
11
0.685
21
0.6200000000000001
31
0
0
ARC
5
4D4F
330
4D3F
100
AcDbEntity
100
AcDbCircle
8
0
10
0.6200000000000001
20
0.6200000000000001
30
0
40
0.065
100
AcDbArc
50
0
51
90
0
LINE
5
4D50
330
4D3F
100
AcDbEntity
100
AcDbLine
8
0
10
0.6200000000000001
20
0.685
30
0
11
-0.6200000000000001
21
0.685
31
0
0
ARC
5
4D51
330
4D3F
100
AcDbEntity
100
AcDbCircle
8
0
10
-0.6200000000000001
20
0.6200000000000001
30
0
40
0.065
100
AcDbArc
50
90
51
180
0
LINE
5
4D52
330
4D3F
100
AcDbEntity
100
AcDbLine
8
0
10
-0.685
20
0.6200000000000001
30
0
11
-0.685
21
-0.6200000000000001
31
0
0
ARC
5
4D53
330
4D3F
100
AcDbEntity
100
AcDbCircle
8
0
10
-0.6200000000000001
20
-0.6200000000000001
30
0
40
0.065
100
AcDbArc
50
180
51
270
0
ENDSEC
0
SECTION
2
OBJECTS
0
DICTIONARY
5
4D2F
330
0
100
AcDbDictionary
281
1
3
ACAD_GROUP
350
4D43
0
DICTIONARY
5
4D43
330
4D2F
100
AcDbDictionary
281
1
0
ENDSEC
0
EOF