0
SECTION
2
HEADER
9
$HANDSEED
5
4A11
9
$INSUNITS
70
1
9
$ACADVER
1
AC1021
0
ENDSEC
0
SECTION
2
CLASSES
0
ENDSEC
0
SECTION
2
TABLES
0
TABLE
2
LTYPE
5
4A0F
330
0
100
AcDbSymbolTable
70
5
0
LTYPE
5
49E8
330
4A0F
100
AcDbSymbolTableRecord
100
AcDbLinetypeTableRecord
2
CONTINUOUS
3
______
70
0
72
65
73
0
40
0
0
LTYPE
5
49E9
330
4A0F
100
AcDbSymbolTableRecord
100
AcDbLinetypeTableRecord
2
DASHED
3
_ _ _ 
70
0
72
65
73
2
40
10
49
5
74
0
49
-5
74
0
0
LTYPE
5
49EA
330
4A0F
100
AcDbSymbolTableRecord
100
AcDbLinetypeTableRecord
2
DOTTED
3
. . . 
70
0
72
65
73
2
40
5
49
0
74
0
49
-5
74
0
0
LTYPE
5
49EC
330
4A0F
100
AcDbSymbolTableRecord
100
AcDbLinetypeTableRecord
2
ByBlock
3

70
0
72
65
73
0
40
0
0
LTYPE
5
49ED
330
4A0F
100
AcDbSymbolTableRecord
100
AcDbLinetypeTableRecord
2
ByLayer
3

70
0
72
65
73
0
40
0
0
ENDTAB
0
TABLE
2
LAYER
5
4A10
330
0
100
AcDbSymbolTable
70
1
0
LAYER
5
49EB
330
4A10
100
AcDbSymbolTableRecord
100
AcDbLayerTableRecord
2
0
62
7
70
0
6
CONTINUOUS
390
1
0
ENDTAB
0
TABLE
2
VPORT
5
49EE
330
0
100
AcDbSymbolTable
70
1
0
VPORT
5
49F4
330
49EE
100
AcDbSymbolTableRecord
100
AcDbViewportTableRecord
2
*ACTIVE
40
1000
70
0
0
ENDTAB
0
TABLE
2
STYLE
5
49EF
330
0
100
AcDbSymbolTable
70
1
0
STYLE
5
49F5
330
49EF
100
AcDbSymbolTableRecord
100
AcDbTextStyleTableRecord
2
standard
70
0
40
0
41
1
50
0
71
0
42
1
3
txt
4

0
ENDTAB
0
TABLE
2
VIEW
5
49F0
330
0
100
AcDbSymbolTable
70
0
0
ENDTAB
0
TABLE
2
UCS
5
49F1
330
0
100
AcDbSymbolTable
70
0
0
ENDTAB
0
TABLE
2
APPID
5
49F2
330
0
100
AcDbSymbolTable
70
1
0
APPID
5
49F6
330
49F2
100
AcDbSymbolTableRecord
100
AcDbRegAppTableRecord
2
ACAD
70
0
0
ENDTAB
0
TABLE
2
DIMSTYLE
5
49F3
330
0
100
AcDbSymbolTable
100
AcDbDimStyleTable
70
0
71
1
0
ENDTAB
0
TABLE
2
BLOCK_RECORD
5
4A0C
330
0
100
AcDbSymbolTable
70
2
0
BLOCK_RECORD
5
4A0D
330
4A0C
100
AcDbSymbolTableRecord
100
AcDbBlockTableRecord
2
*Model_Space
70
0
280
0
281
1
0
BLOCK_RECORD
5
4A0E
330
4A0C
100
AcDbSymbolTableRecord
100
AcDbBlockTableRecord
2
*Paper_Space
70
0
280
0
281
1
0
ENDTAB
0
ENDSEC
0
SECTION
2
BLOCKS
0
BLOCK
5
49F7
330
0
100
AcDbEntity
100
AcDbBlockBegin
2
*Model_Space
70
0
10
0
20
0
30
0
3
*Model_Space
1

0
ENDBLK
5
49F8
330
0
100
AcDbEntity
100
AcDbBlockEnd
0
BLOCK
5
49F9
330
0
100
AcDbEntity
100
AcDbBlockBegin
2
*Paper_Space
70
0
10
0
20
0
30
0
3
*Paper_Space
1

0
ENDBLK
5
49FA
330
0
100
AcDbEntity
100
AcDbBlockEnd
0
ENDSEC
0
SECTION
2
ENTITIES
0
LINE
5
49FC
330
49F7
100
AcDbEntity
100
AcDbLine
8
0
10
-0.75
20
-1.25
30
0
11
0.75
21
-1.25
31
0
0
ARC
5
49FD
330
49F7
100
AcDbEntity
100
AcDbCircle
8
0
10
0.75
20
-0.75
30
0
40
0.5
100
AcDbArc
50
270
51
360
0
LINE
5
49FE
330
49F7
100
AcDbEntity
100
AcDbLine
8
0
10
1.25
20
-0.75
30
0
11
1.25
21
0.75
31
0
0
ARC
5
49FF
330
49F7
100
AcDbEntity
100
AcDbCircle
8
0
10
0.75
20
0.75
30
0
40
0.5
100
AcDbArc
50
0
51
90
0
LINE
5
4A00
330
49F7
100
AcDbEntity
100
AcDbLine
8
0
10
0.75
20
1.25
30
0
11
-0.75
21
1.25
31
0
0
ARC
5
4A01
330
49F7
100
AcDbEntity
100
AcDbCircle
8
0
10
-0.75
20
0.75
30
0
40
0.5
100
AcDbArc
50
90
51
180
0
LINE
5
4A02
330
49F7
100
AcDbEntity
100
AcDbLine
8
0
10
-1.25
20
0.75
30
0
11
-1.25
21
-0.75
31
0
0
ARC
5
4A03
330
49F7
100
AcDbEntity
100
AcDbCircle
8
0
10
-0.75
20
-0.75
30
0
40
0.5
100
AcDbArc
50
180
51
270
0
LINE
5
4A04
330
49F7
100
AcDbEntity
100
AcDbLine
8
0
10
-0.75
20
-1
30
0
11
0.75
21
-1
31
0
0
ARC
5
4A05
330
49F7
100
AcDbEntity
100
AcDbCircle
8
0
10
0.75
20
-0.75
30
0
40
0.25
100
AcDbArc
50
270
51
360
0
LINE
5
4A06
330
49F7
100
AcDbEntity
100
AcDbLine
8
0
10
1
20
-0.75
30
0
11
1
21
0.75
31
0
0
ARC
5
4A07
330
49F7
100
AcDbEntity
100
AcDbCircle
8
0
10
0.75
20
0.75
30
0
40
0.25
100
AcDbArc
50
0
51
90
0
LINE
5
4A08
330
49F7
100
AcDbEntity
100
AcDbLine
8
0
10
0.75
20
1
30
0
11
-0.75
21
1
31
0
0
ARC
5
4A09
330
49F7
100
AcDbEntity
100
AcDbCircle
8
0
10
-0.75
20
0.75
30
0
40
0.25
100
AcDbArc
50
90
51
180
0
LINE
5
4A0A
330
49F7
100
AcDbEntity
100
AcDbLine
8
0
10
-1
20
0.75
30
0
11
-1
21
-0.75
31
0
0
ARC
5
4A0B
330
49F7
100
AcDbEntity
100
AcDbCircle
8
0
10
-0.75
20
-0.75
30
0
40
0.25
100
AcDbArc
50
180
51
270
0
ENDSEC
0
SECTION
2
OBJECTS
0
DICTIONARY
5
49E7
330
0
100
AcDbDictionary
281
1
3
ACAD_GROUP
350
49FB
0
DICTIONARY
5
49FB
330
49E7
100
AcDbDictionary
281
1
0
ENDSEC
0
EOF