0
SECTION
2
HEADER
9
$HANDSEED
5
54DB
9
$INSUNITS
70
1
9
$ACADVER
1
AC1021
0
ENDSEC
0
SECTION
2
CLASSES
0
ENDSEC
0
SECTION
2
TABLES
0
TABLE
2
LTYPE
5
54D9
330
0
100
AcDbSymbolTable
70
5
0
LTYPE
5
54B2
330
54D9
100
AcDbSymbolTableRecord
100
AcDbLinetypeTableRecord
2
CONTINUOUS
3
______
70
0
72
65
73
0
40
0
0
LTYPE
5
54B3
330
54D9
100
AcDbSymbolTableRecord
100
AcDbLinetypeTableRecord
2
DASHED
3
_ _ _ 
70
0
72
65
73
2
40
10
49
5
74
0
49
-5
74
0
0
LTYPE
5
54B4
330
54D9
100
AcDbSymbolTableRecord
100
AcDbLinetypeTableRecord
2
DOTTED
3
. . . 
70
0
72
65
73
2
40
5
49
0
74
0
49
-5
74
0
0
LTYPE
5
54B6
330
54D9
100
AcDbSymbolTableRecord
100
AcDbLinetypeTableRecord
2
ByBlock
3

70
0
72
65
73
0
40
0
0
LTYPE
5
54B7
330
54D9
100
AcDbSymbolTableRecord
100
AcDbLinetypeTableRecord
2
ByLayer
3

70
0
72
65
73
0
40
0
0
ENDTAB
0
TABLE
2
LAYER
5
54DA
330
0
100
AcDbSymbolTable
70
1
0
LAYER
5
54B5
330
54DA
100
AcDbSymbolTableRecord
100
AcDbLayerTableRecord
2
0
62
7
70
0
6
CONTINUOUS
390
1
0
ENDTAB
0
TABLE
2
VPORT
5
54B8
330
0
100
AcDbSymbolTable
70
1
0
VPORT
5
54BE
330
54B8
100
AcDbSymbolTableRecord
100
AcDbViewportTableRecord
2
*ACTIVE
40
1000
70
0
0
ENDTAB
0
TABLE
2
STYLE
5
54B9
330
0
100
AcDbSymbolTable
70
1
0
STYLE
5
54BF
330
54B9
100
AcDbSymbolTableRecord
100
AcDbTextStyleTableRecord
2
standard
70
0
40
0
41
1
50
0
71
0
42
1
3
txt
4

0
ENDTAB
0
TABLE
2
VIEW
5
54BA
330
0
100
AcDbSymbolTable
70
0
0
ENDTAB
0
TABLE
2
UCS
5
54BB
330
0
100
AcDbSymbolTable
70
0
0
ENDTAB
0
TABLE
2
APPID
5
54BC
330
0
100
AcDbSymbolTable
70
1
0
APPID
5
54C0
330
54BC
100
AcDbSymbolTableRecord
100
AcDbRegAppTableRecord
2
ACAD
70
0
0
ENDTAB
0
TABLE
2
DIMSTYLE
5
54BD
330
0
100
AcDbSymbolTable
100
AcDbDimStyleTable
70
0
71
1
0
ENDTAB
0
TABLE
2
BLOCK_RECORD
5
54D6
330
0
100
AcDbSymbolTable
70
2
0
BLOCK_RECORD
5
54D7
330
54D6
100
AcDbSymbolTableRecord
100
AcDbBlockTableRecord
2
*Model_Space
70
0
280
0
281
1
0
BLOCK_RECORD
5
54D8
330
54D6
100
AcDbSymbolTableRecord
100
AcDbBlockTableRecord
2
*Paper_Space
70
0
280
0
281
1
0
ENDTAB
0
ENDSEC
0
SECTION
2
BLOCKS
0
BLOCK
5
54C1
330
0
100
AcDbEntity
100
AcDbBlockBegin
2
*Model_Space
70
0
10
0
20
0
30
0
3
*Model_Space
1

0
ENDBLK
5
54C2
330
0
100
AcDbEntity
100
AcDbBlockEnd
0
BLOCK
5
54C3
330
0
100
AcDbEntity
100
AcDbBlockBegin
2
*Paper_Space
70
0
10
0
20
0
30
0
3
*Paper_Space
1

0
ENDBLK
5
54C4
330
0
100
AcDbEntity
100
AcDbBlockEnd
0
ENDSEC
0
SECTION
2
ENTITIES
0
LINE
5
54C6
330
54C1
100
AcDbEntity
100
AcDbLine
8
0
10
-0.385
20
-0.625
30
0
11
0.385
21
-0.625
31
0
0
ARC
5
54C7
330
54C1
100
AcDbEntity
100
AcDbCircle
8
0
10
0.385
20
-0.385
30
0
40
0.24
100
AcDbArc
50
270
51
360
0
LINE
5
54C8
330
54C1
100
AcDbEntity
100
AcDbLine
8
0
10
0.625
20
-0.385
30
0
11
0.625
21
0.385
31
0
0
ARC
5
54C9
330
54C1
100
AcDbEntity
100
AcDbCircle
8
0
10
0.385
20
0.385
30
0
40
0.24
100
AcDbArc
50
0
51
90
0
LINE
5
54CA
330
54C1
100
AcDbEntity
100
AcDbLine
8
0
10
0.385
20
0.625
30
0
11
-0.385
21
0.625
31
0
0
ARC
5
54CB
330
54C1
100
AcDbEntity
100
AcDbCircle
8
0
10
-0.385
20
0.385
30
0
40
0.24
100
AcDbArc
50
90
51
180
0
LINE
5
54CC
330
54C1
100
AcDbEntity
100
AcDbLine
8
0
10
-0.625
20
0.385
30
0
11
-0.625
21
-0.385
31
0
0
ARC
5
54CD
330
54C1
100
AcDbEntity
100
AcDbCircle
8
0
10
-0.385
20
-0.385
30
0
40
0.24
100
AcDbArc
50
180
51
270
0
LINE
5
54CE
330
54C1
100
AcDbEntity
100
AcDbLine
8
0
10
-0.385
20
-0.505
30
0
11
0.385
21
-0.505
31
0
0
ARC
5
54CF
330
54C1
100
AcDbEntity
100
AcDbCircle
8
0
10
0.385
20
-0.385
30
0
40
0.12
100
AcDbArc
50
270
51
360
0
LINE
5
54D0
330
54C1
100
AcDbEntity
100
AcDbLine
8
0
10
0.505
20
-0.385
30
0
11
0.505
21
0.385
31
0
0
ARC
5
54D1
330
54C1
100
AcDbEntity
100
AcDbCircle
8
0
10
0.385
20
0.385
30
0
40
0.12
100
AcDbArc
50
0
51
90
0
LINE
5
54D2
330
54C1
100
AcDbEntity
100
AcDbLine
8
0
10
0.385
20
0.505
30
0
11
-0.385
21
0.505
31
0
0
ARC
5
54D3
330
54C1
100
AcDbEntity
100
AcDbCircle
8
0
10
-0.385
20
0.385
30
0
40
0.12
100
AcDbArc
50
90
51
180
0
LINE
5
54D4
330
54C1
100
AcDbEntity
100
AcDbLine
8
0
10
-0.505
20
0.385
30
0
11
-0.505
21
-0.385
31
0
0
ARC
5
54D5
330
54C1
100
AcDbEntity
100
AcDbCircle
8
0
10
-0.385
20
-0.385
30
0
40
0.12
100
AcDbArc
50
180
51
270
0
ENDSEC
0
SECTION
2
OBJECTS
0
DICTIONARY
5
54B1
330
0
100
AcDbDictionary
281
1
3
ACAD_GROUP
350
54C5
0
DICTIONARY
5
54C5
330
54B1
100
AcDbDictionary
281
1
0
ENDSEC
0
EOF