0
SECTION
2
HEADER
9
$HANDSEED
5
4AB9
9
$INSUNITS
70
1
9
$ACADVER
1
AC1021
0
ENDSEC
0
SECTION
2
CLASSES
0
ENDSEC
0
SECTION
2
TABLES
0
TABLE
2
LTYPE
5
4AB7
330
0
100
AcDbSymbolTable
70
5
0
LTYPE
5
4A90
330
4AB7
100
AcDbSymbolTableRecord
100
AcDbLinetypeTableRecord
2
CONTINUOUS
3
______
70
0
72
65
73
0
40
0
0
LTYPE
5
4A91
330
4AB7
100
AcDbSymbolTableRecord
100
AcDbLinetypeTableRecord
2
DASHED
3
_ _ _ 
70
0
72
65
73
2
40
10
49
5
74
0
49
-5
74
0
0
LTYPE
5
4A92
330
4AB7
100
AcDbSymbolTableRecord
100
AcDbLinetypeTableRecord
2
DOTTED
3
. . . 
70
0
72
65
73
2
40
5
49
0
74
0
49
-5
74
0
0
LTYPE
5
4A94
330
4AB7
100
AcDbSymbolTableRecord
100
AcDbLinetypeTableRecord
2
ByBlock
3

70
0
72
65
73
0
40
0
0
LTYPE
5
4A95
330
4AB7
100
AcDbSymbolTableRecord
100
AcDbLinetypeTableRecord
2
ByLayer
3

70
0
72
65
73
0
40
0
0
ENDTAB
0
TABLE
2
LAYER
5
4AB8
330
0
100
AcDbSymbolTable
70
1
0
LAYER
5
4A93
330
4AB8
100
AcDbSymbolTableRecord
100
AcDbLayerTableRecord
2
0
62
7
70
0
6
CONTINUOUS
390
1
0
ENDTAB
0
TABLE
2
VPORT
5
4A96
330
0
100
AcDbSymbolTable
70
1
0
VPORT
5
4A9C
330
4A96
100
AcDbSymbolTableRecord
100
AcDbViewportTableRecord
2
*ACTIVE
40
1000
70
0
0
ENDTAB
0
TABLE
2
STYLE
5
4A97
330
0
100
AcDbSymbolTable
70
1
0
STYLE
5
4A9D
330
4A97
100
AcDbSymbolTableRecord
100
AcDbTextStyleTableRecord
2
standard
70
0
40
0
41
1
50
0
71
0
42
1
3
txt
4

0
ENDTAB
0
TABLE
2
VIEW
5
4A98
330
0
100
AcDbSymbolTable
70
0
0
ENDTAB
0
TABLE
2
UCS
5
4A99
330
0
100
AcDbSymbolTable
70
0
0
ENDTAB
0
TABLE
2
APPID
5
4A9A
330
0
100
AcDbSymbolTable
70
1
0
APPID
5
4A9E
330
4A9A
100
AcDbSymbolTableRecord
100
AcDbRegAppTableRecord
2
ACAD
70
0
0
ENDTAB
0
TABLE
2
DIMSTYLE
5
4A9B
330
0
100
AcDbSymbolTable
100
AcDbDimStyleTable
70
0
71
1
0
ENDTAB
0
TABLE
2
BLOCK_RECORD
5
4AB4
330
0
100
AcDbSymbolTable
70
2
0
BLOCK_RECORD
5
4AB5
330
4AB4
100
AcDbSymbolTableRecord
100
AcDbBlockTableRecord
2
*Model_Space
70
0
280
0
281
1
0
BLOCK_RECORD
5
4AB6
330
4AB4
100
AcDbSymbolTableRecord
100
AcDbBlockTableRecord
2
*Paper_Space
70
0
280
0
281
1
0
ENDTAB
0
ENDSEC
0
SECTION
2
BLOCKS
0
BLOCK
5
4A9F
330
0
100
AcDbEntity
100
AcDbBlockBegin
2
*Model_Space
70
0
10
0
20
0
30
0
3
*Model_Space
1

0
ENDBLK
5
4AA0
330
0
100
AcDbEntity
100
AcDbBlockEnd
0
BLOCK
5
4AA1
330
0
100
AcDbEntity
100
AcDbBlockBegin
2
*Paper_Space
70
0
10
0
20
0
30
0
3
*Paper_Space
1

0
ENDBLK
5
4AA2
330
0
100
AcDbEntity
100
AcDbBlockEnd
0
ENDSEC
0
SECTION
2
ENTITIES
0
LINE
5
4AA4
330
4A9F
100
AcDbEntity
100
AcDbLine
8
0
10
-1.76
20
-2
30
0
11
1.76
21
-2
31
0
0
ARC
5
4AA5
330
4A9F
100
AcDbEntity
100
AcDbCircle
8
0
10
1.76
20
-1.76
30
0
40
0.24
100
AcDbArc
50
270
51
360
0
LINE
5
4AA6
330
4A9F
100
AcDbEntity
100
AcDbLine
8
0
10
2
20
-1.76
30
0
11
2
21
1.76
31
0
0
ARC
5
4AA7
330
4A9F
100
AcDbEntity
100
AcDbCircle
8
0
10
1.76
20
1.76
30
0
40
0.24
100
AcDbArc
50
0
51
90
0
LINE
5
4AA8
330
4A9F
100
AcDbEntity
100
AcDbLine
8
0
10
1.76
20
2
30
0
11
-1.76
21
2
31
0
0
ARC
5
4AA9
330
4A9F
100
AcDbEntity
100
AcDbCircle
8
0
10
-1.76
20
1.76
30
0
40
0.24
100
AcDbArc
50
90
51
180
0
LINE
5
4AAA
330
4A9F
100
AcDbEntity
100
AcDbLine
8
0
10
-2
20
1.76
30
0
11
-2
21
-1.76
31
0
0
ARC
5
4AAB
330
4A9F
100
AcDbEntity
100
AcDbCircle
8
0
10
-1.76
20
-1.76
30
0
40
0.24
100
AcDbArc
50
180
51
270
0
LINE
5
4AAC
330
4A9F
100
AcDbEntity
100
AcDbLine
8
0
10
-1.7599999999999998
20
-1.88
30
0
11
1.7599999999999998
21
-1.88
31
0
0
ARC
5
4AAD
330
4A9F
100
AcDbEntity
100
AcDbCircle
8
0
10
1.7599999999999998
20
-1.7599999999999998
30
0
40
0.12
100
AcDbArc
50
270
51
360
0
LINE
5
4AAE
330
4A9F
100
AcDbEntity
100
AcDbLine
8
0
10
1.88
20
-1.7599999999999998
30
0
11
1.88
21
1.7599999999999998
31
0
0
ARC
5
4AAF
330
4A9F
100
AcDbEntity
100
AcDbCircle
8
0
10
1.7599999999999998
20
1.7599999999999998
30
0
40
0.12
100
AcDbArc
50
0
51
90
0
LINE
5
4AB0
330
4A9F
100
AcDbEntity
100
AcDbLine
8
0
10
1.7599999999999998
20
1.88
30
0
11
-1.7599999999999998
21
1.88
31
0
0
ARC
5
4AB1
330
4A9F
100
AcDbEntity
100
AcDbCircle
8
0
10
-1.7599999999999998
20
1.7599999999999998
30
0
40
0.12
100
AcDbArc
50
90
51
180
0
LINE
5
4AB2
330
4A9F
100
AcDbEntity
100
AcDbLine
8
0
10
-1.88
20
1.7599999999999998
30
0
11
-1.88
21
-1.7599999999999998
31
0
0
ARC
5
4AB3
330
4A9F
100
AcDbEntity
100
AcDbCircle
8
0
10
-1.7599999999999998
20
-1.7599999999999998
30
0
40
0.12
100
AcDbArc
50
180
51
270
0
ENDSEC
0
SECTION
2
OBJECTS
0
DICTIONARY
5
4A8F
330
0
100
AcDbDictionary
281
1
3
ACAD_GROUP
350
4AA3
0
DICTIONARY
5
4AA3
330
4A8F
100
AcDbDictionary
281
1
0
ENDSEC
0
EOF