0
SECTION
2
HEADER
9
$HANDSEED
5
4D2F
9
$INSUNITS
70
1
9
$ACADVER
1
AC1021
0
ENDSEC
0
SECTION
2
CLASSES
0
ENDSEC
0
SECTION
2
TABLES
0
TABLE
2
LTYPE
5
4D2D
330
0
100
AcDbSymbolTable
70
5
0
LTYPE
5
4D06
330
4D2D
100
AcDbSymbolTableRecord
100
AcDbLinetypeTableRecord
2
CONTINUOUS
3
______
70
0
72
65
73
0
40
0
0
LTYPE
5
4D07
330
4D2D
100
AcDbSymbolTableRecord
100
AcDbLinetypeTableRecord
2
DASHED
3
_ _ _ 
70
0
72
65
73
2
40
10
49
5
74
0
49
-5
74
0
0
LTYPE
5
4D08
330
4D2D
100
AcDbSymbolTableRecord
100
AcDbLinetypeTableRecord
2
DOTTED
3
. . . 
70
0
72
65
73
2
40
5
49
0
74
0
49
-5
74
0
0
LTYPE
5
4D0A
330
4D2D
100
AcDbSymbolTableRecord
100
AcDbLinetypeTableRecord
2
ByBlock
3

70
0
72
65
73
0
40
0
0
LTYPE
5
4D0B
330
4D2D
100
AcDbSymbolTableRecord
100
AcDbLinetypeTableRecord
2
ByLayer
3

70
0
72
65
73
0
40
0
0
ENDTAB
0
TABLE
2
LAYER
5
4D2E
330
0
100
AcDbSymbolTable
70
1
0
LAYER
5
4D09
330
4D2E
100
AcDbSymbolTableRecord
100
AcDbLayerTableRecord
2
0
62
7
70
0
6
CONTINUOUS
390
1
0
ENDTAB
0
TABLE
2
VPORT
5
4D0C
330
0
100
AcDbSymbolTable
70
1
0
VPORT
5
4D12
330
4D0C
100
AcDbSymbolTableRecord
100
AcDbViewportTableRecord
2
*ACTIVE
40
1000
70
0
0
ENDTAB
0
TABLE
2
STYLE
5
4D0D
330
0
100
AcDbSymbolTable
70
1
0
STYLE
5
4D13
330
4D0D
100
AcDbSymbolTableRecord
100
AcDbTextStyleTableRecord
2
standard
70
0
40
0
41
1
50
0
71
0
42
1
3
txt
4

0
ENDTAB
0
TABLE
2
VIEW
5
4D0E
330
0
100
AcDbSymbolTable
70
0
0
ENDTAB
0
TABLE
2
UCS
5
4D0F
330
0
100
AcDbSymbolTable
70
0
0
ENDTAB
0
TABLE
2
APPID
5
4D10
330
0
100
AcDbSymbolTable
70
1
0
APPID
5
4D14
330
4D10
100
AcDbSymbolTableRecord
100
AcDbRegAppTableRecord
2
ACAD
70
0
0
ENDTAB
0
TABLE
2
DIMSTYLE
5
4D11
330
0
100
AcDbSymbolTable
100
AcDbDimStyleTable
70
0
71
1
0
ENDTAB
0
TABLE
2
BLOCK_RECORD
5
4D2A
330
0
100
AcDbSymbolTable
70
2
0
BLOCK_RECORD
5
4D2B
330
4D2A
100
AcDbSymbolTableRecord
100
AcDbBlockTableRecord
2
*Model_Space
70
0
280
0
281
1
0
BLOCK_RECORD
5
4D2C
330
4D2A
100
AcDbSymbolTableRecord
100
AcDbBlockTableRecord
2
*Paper_Space
70
0
280
0
281
1
0
ENDTAB
0
ENDSEC
0
SECTION
2
BLOCKS
0
BLOCK
5
4D15
330
0
100
AcDbEntity
100
AcDbBlockBegin
2
*Model_Space
70
0
10
0
20
0
30
0
3
*Model_Space
1

0
ENDBLK
5
4D16
330
0
100
AcDbEntity
100
AcDbBlockEnd
0
BLOCK
5
4D17
330
0
100
AcDbEntity
100
AcDbBlockBegin
2
*Paper_Space
70
0
10
0
20
0
30
0
3
*Paper_Space
1

0
ENDBLK
5
4D18
330
0
100
AcDbEntity
100
AcDbBlockEnd
0
ENDSEC
0
SECTION
2
ENTITIES
0
LINE
5
4D1A
330
4D15
100
AcDbEntity
100
AcDbLine
8
0
10
-0.26
20
-0.5
30
0
11
0.26
21
-0.5
31
0
0
ARC
5
4D1B
330
4D15
100
AcDbEntity
100
AcDbCircle
8
0
10
0.26
20
-0.26
30
0
40
0.24
100
AcDbArc
50
270
51
360
0
LINE
5
4D1C
330
4D15
100
AcDbEntity
100
AcDbLine
8
0
10
0.5
20
-0.26
30
0
11
0.5
21
0.26
31
0
0
ARC
5
4D1D
330
4D15
100
AcDbEntity
100
AcDbCircle
8
0
10
0.26
20
0.26
30
0
40
0.24
100
AcDbArc
50
0
51
90
0
LINE
5
4D1E
330
4D15
100
AcDbEntity
100
AcDbLine
8
0
10
0.26
20
0.5
30
0
11
-0.26
21
0.5
31
0
0
ARC
5
4D1F
330
4D15
100
AcDbEntity
100
AcDbCircle
8
0
10
-0.26
20
0.26
30
0
40
0.24
100
AcDbArc
50
90
51
180
0
LINE
5
4D20
330
4D15
100
AcDbEntity
100
AcDbLine
8
0
10
-0.5
20
0.26
30
0
11
-0.5
21
-0.26
31
0
0
ARC
5
4D21
330
4D15
100
AcDbEntity
100
AcDbCircle
8
0
10
-0.26
20
-0.26
30
0
40
0.24
100
AcDbArc
50
180
51
270
0
LINE
5
4D22
330
4D15
100
AcDbEntity
100
AcDbLine
8
0
10
-0.26
20
-0.38
30
0
11
0.26
21
-0.38
31
0
0
ARC
5
4D23
330
4D15
100
AcDbEntity
100
AcDbCircle
8
0
10
0.26
20
-0.26
30
0
40
0.12
100
AcDbArc
50
270
51
360
0
LINE
5
4D24
330
4D15
100
AcDbEntity
100
AcDbLine
8
0
10
0.38
20
-0.26
30
0
11
0.38
21
0.26
31
0
0
ARC
5
4D25
330
4D15
100
AcDbEntity
100
AcDbCircle
8
0
10
0.26
20
0.26
30
0
40
0.12
100
AcDbArc
50
0
51
90
0
LINE
5
4D26
330
4D15
100
AcDbEntity
100
AcDbLine
8
0
10
0.26
20
0.38
30
0
11
-0.26
21
0.38
31
0
0
ARC
5
4D27
330
4D15
100
AcDbEntity
100
AcDbCircle
8
0
10
-0.26
20
0.26
30
0
40
0.12
100
AcDbArc
50
90
51
180
0
LINE
5
4D28
330
4D15
100
AcDbEntity
100
AcDbLine
8
0
10
-0.38
20
0.26
30
0
11
-0.38
21
-0.26
31
0
0
ARC
5
4D29
330
4D15
100
AcDbEntity
100
AcDbCircle
8
0
10
-0.26
20
-0.26
30
0
40
0.12
100
AcDbArc
50
180
51
270
0
ENDSEC
0
SECTION
2
OBJECTS
0
DICTIONARY
5
4D05
330
0
100
AcDbDictionary
281
1
3
ACAD_GROUP
350
4D19
0
DICTIONARY
5
4D19
330
4D05
100
AcDbDictionary
281
1
0
ENDSEC
0
EOF