0
SECTION
2
HEADER
9
$HANDSEED
5
5261
9
$INSUNITS
70
1
9
$ACADVER
1
AC1021
0
ENDSEC
0
SECTION
2
CLASSES
0
ENDSEC
0
SECTION
2
TABLES
0
TABLE
2
LTYPE
5
525F
330
0
100
AcDbSymbolTable
70
5
0
LTYPE
5
5238
330
525F
100
AcDbSymbolTableRecord
100
AcDbLinetypeTableRecord
2
CONTINUOUS
3
______
70
0
72
65
73
0
40
0
0
LTYPE
5
5239
330
525F
100
AcDbSymbolTableRecord
100
AcDbLinetypeTableRecord
2
DASHED
3
_ _ _ 
70
0
72
65
73
2
40
10
49
5
74
0
49
-5
74
0
0
LTYPE
5
523A
330
525F
100
AcDbSymbolTableRecord
100
AcDbLinetypeTableRecord
2
DOTTED
3
. . . 
70
0
72
65
73
2
40
5
49
0
74
0
49
-5
74
0
0
LTYPE
5
523C
330
525F
100
AcDbSymbolTableRecord
100
AcDbLinetypeTableRecord
2
ByBlock
3

70
0
72
65
73
0
40
0
0
LTYPE
5
523D
330
525F
100
AcDbSymbolTableRecord
100
AcDbLinetypeTableRecord
2
ByLayer
3

70
0
72
65
73
0
40
0
0
ENDTAB
0
TABLE
2
LAYER
5
5260
330
0
100
AcDbSymbolTable
70
1
0
LAYER
5
523B
330
5260
100
AcDbSymbolTableRecord
100
AcDbLayerTableRecord
2
0
62
7
70
0
6
CONTINUOUS
390
1
0
ENDTAB
0
TABLE
2
VPORT
5
523E
330
0
100
AcDbSymbolTable
70
1
0
VPORT
5
5244
330
523E
100
AcDbSymbolTableRecord
100
AcDbViewportTableRecord
2
*ACTIVE
40
1000
70
0
0
ENDTAB
0
TABLE
2
STYLE
5
523F
330
0
100
AcDbSymbolTable
70
1
0
STYLE
5
5245
330
523F
100
AcDbSymbolTableRecord
100
AcDbTextStyleTableRecord
2
standard
70
0
40
0
41
1
50
0
71
0
42
1
3
txt
4

0
ENDTAB
0
TABLE
2
VIEW
5
5240
330
0
100
AcDbSymbolTable
70
0
0
ENDTAB
0
TABLE
2
UCS
5
5241
330
0
100
AcDbSymbolTable
70
0
0
ENDTAB
0
TABLE
2
APPID
5
5242
330
0
100
AcDbSymbolTable
70
1
0
APPID
5
5246
330
5242
100
AcDbSymbolTableRecord
100
AcDbRegAppTableRecord
2
ACAD
70
0
0
ENDTAB
0
TABLE
2
DIMSTYLE
5
5243
330
0
100
AcDbSymbolTable
100
AcDbDimStyleTable
70
0
71
1
0
ENDTAB
0
TABLE
2
BLOCK_RECORD
5
525C
330
0
100
AcDbSymbolTable
70
2
0
BLOCK_RECORD
5
525D
330
525C
100
AcDbSymbolTableRecord
100
AcDbBlockTableRecord
2
*Model_Space
70
0
280
0
281
1
0
BLOCK_RECORD
5
525E
330
525C
100
AcDbSymbolTableRecord
100
AcDbBlockTableRecord
2
*Paper_Space
70
0
280
0
281
1
0
ENDTAB
0
ENDSEC
0
SECTION
2
BLOCKS
0
BLOCK
5
5247
330
0
100
AcDbEntity
100
AcDbBlockBegin
2
*Model_Space
70
0
10
0
20
0
30
0
3
*Model_Space
1

0
ENDBLK
5
5248
330
0
100
AcDbEntity
100
AcDbBlockEnd
0
BLOCK
5
5249
330
0
100
AcDbEntity
100
AcDbBlockBegin
2
*Paper_Space
70
0
10
0
20
0
30
0
3
*Paper_Space
1

0
ENDBLK
5
524A
330
0
100
AcDbEntity
100
AcDbBlockEnd
0
ENDSEC
0
SECTION
2
ENTITIES
0
LINE
5
524C
330
5247
100
AcDbEntity
100
AcDbLine
8
0
10
-0.45899999999999996
20
-0.625
30
0
11
0.45899999999999996
21
-0.625
31
0
0
ARC
5
524D
330
5247
100
AcDbEntity
100
AcDbCircle
8
0
10
0.45899999999999996
20
-0.45899999999999996
30
0
40
0.166
100
AcDbArc
50
270
51
360
0
LINE
5
524E
330
5247
100
AcDbEntity
100
AcDbLine
8
0
10
0.625
20
-0.45899999999999996
30
0
11
0.625
21
0.45899999999999996
31
0
0
ARC
5
524F
330
5247
100
AcDbEntity
100
AcDbCircle
8
0
10
0.45899999999999996
20
0.45899999999999996
30
0
40
0.166
100
AcDbArc
50
0
51
90
0
LINE
5
5250
330
5247
100
AcDbEntity
100
AcDbLine
8
0
10
0.45899999999999996
20
0.625
30
0
11
-0.45899999999999996
21
0.625
31
0
0
ARC
5
5251
330
5247
100
AcDbEntity
100
AcDbCircle
8
0
10
-0.45899999999999996
20
0.45899999999999996
30
0
40
0.166
100
AcDbArc
50
90
51
180
0
LINE
5
5252
330
5247
100
AcDbEntity
100
AcDbLine
8
0
10
-0.625
20
0.45899999999999996
30
0
11
-0.625
21
-0.45899999999999996
31
0
0
ARC
5
5253
330
5247
100
AcDbEntity
100
AcDbCircle
8
0
10
-0.45899999999999996
20
-0.45899999999999996
30
0
40
0.166
100
AcDbArc
50
180
51
270
0
LINE
5
5254
330
5247
100
AcDbEntity
100
AcDbLine
8
0
10
-0.459
20
-0.542
30
0
11
0.459
21
-0.542
31
0
0
ARC
5
5255
330
5247
100
AcDbEntity
100
AcDbCircle
8
0
10
0.459
20
-0.459
30
0
40
0.083
100
AcDbArc
50
270
51
360
0
LINE
5
5256
330
5247
100
AcDbEntity
100
AcDbLine
8
0
10
0.542
20
-0.459
30
0
11
0.542
21
0.459
31
0
0
ARC
5
5257
330
5247
100
AcDbEntity
100
AcDbCircle
8
0
10
0.459
20
0.459
30
0
40
0.083
100
AcDbArc
50
0
51
90
0
LINE
5
5258
330
5247
100
AcDbEntity
100
AcDbLine
8
0
10
0.459
20
0.542
30
0
11
-0.459
21
0.542
31
0
0
ARC
5
5259
330
5247
100
AcDbEntity
100
AcDbCircle
8
0
10
-0.459
20
0.459
30
0
40
0.083
100
AcDbArc
50
90
51
180
0
LINE
5
525A
330
5247
100
AcDbEntity
100
AcDbLine
8
0
10
-0.542
20
0.459
30
0
11
-0.542
21
-0.459
31
0
0
ARC
5
525B
330
5247
100
AcDbEntity
100
AcDbCircle
8
0
10
-0.459
20
-0.459
30
0
40
0.083
100
AcDbArc
50
180
51
270
0
ENDSEC
0
SECTION
2
OBJECTS
0
DICTIONARY
5
5237
330
0
100
AcDbDictionary
281
1
3
ACAD_GROUP
350
524B
0
DICTIONARY
5
524B
330
5237
100
AcDbDictionary
281
1
0
ENDSEC
0
EOF