0
SECTION
2
HEADER
9
$HANDSEED
5
4A65
9
$INSUNITS
70
1
9
$ACADVER
1
AC1021
0
ENDSEC
0
SECTION
2
CLASSES
0
ENDSEC
0
SECTION
2
TABLES
0
TABLE
2
LTYPE
5
4A63
330
0
100
AcDbSymbolTable
70
5
0
LTYPE
5
4A3C
330
4A63
100
AcDbSymbolTableRecord
100
AcDbLinetypeTableRecord
2
CONTINUOUS
3
______
70
0
72
65
73
0
40
0
0
LTYPE
5
4A3D
330
4A63
100
AcDbSymbolTableRecord
100
AcDbLinetypeTableRecord
2
DASHED
3
_ _ _ 
70
0
72
65
73
2
40
10
49
5
74
0
49
-5
74
0
0
LTYPE
5
4A3E
330
4A63
100
AcDbSymbolTableRecord
100
AcDbLinetypeTableRecord
2
DOTTED
3
. . . 
70
0
72
65
73
2
40
5
49
0
74
0
49
-5
74
0
0
LTYPE
5
4A40
330
4A63
100
AcDbSymbolTableRecord
100
AcDbLinetypeTableRecord
2
ByBlock
3

70
0
72
65
73
0
40
0
0
LTYPE
5
4A41
330
4A63
100
AcDbSymbolTableRecord
100
AcDbLinetypeTableRecord
2
ByLayer
3

70
0
72
65
73
0
40
0
0
ENDTAB
0
TABLE
2
LAYER
5
4A64
330
0
100
AcDbSymbolTable
70
1
0
LAYER
5
4A3F
330
4A64
100
AcDbSymbolTableRecord
100
AcDbLayerTableRecord
2
0
62
7
70
0
6
CONTINUOUS
390
1
0
ENDTAB
0
TABLE
2
VPORT
5
4A42
330
0
100
AcDbSymbolTable
70
1
0
VPORT
5
4A48
330
4A42
100
AcDbSymbolTableRecord
100
AcDbViewportTableRecord
2
*ACTIVE
40
1000
70
0
0
ENDTAB
0
TABLE
2
STYLE
5
4A43
330
0
100
AcDbSymbolTable
70
1
0
STYLE
5
4A49
330
4A43
100
AcDbSymbolTableRecord
100
AcDbTextStyleTableRecord
2
standard
70
0
40
0
41
1
50
0
71
0
42
1
3
txt
4

0
ENDTAB
0
TABLE
2
VIEW
5
4A44
330
0
100
AcDbSymbolTable
70
0
0
ENDTAB
0
TABLE
2
UCS
5
4A45
330
0
100
AcDbSymbolTable
70
0
0
ENDTAB
0
TABLE
2
APPID
5
4A46
330
0
100
AcDbSymbolTable
70
1
0
APPID
5
4A4A
330
4A46
100
AcDbSymbolTableRecord
100
AcDbRegAppTableRecord
2
ACAD
70
0
0
ENDTAB
0
TABLE
2
DIMSTYLE
5
4A47
330
0
100
AcDbSymbolTable
100
AcDbDimStyleTable
70
0
71
1
0
ENDTAB
0
TABLE
2
BLOCK_RECORD
5
4A60
330
0
100
AcDbSymbolTable
70
2
0
BLOCK_RECORD
5
4A61
330
4A60
100
AcDbSymbolTableRecord
100
AcDbBlockTableRecord
2
*Model_Space
70
0
280
0
281
1
0
BLOCK_RECORD
5
4A62
330
4A60
100
AcDbSymbolTableRecord
100
AcDbBlockTableRecord
2
*Paper_Space
70
0
280
0
281
1
0
ENDTAB
0
ENDSEC
0
SECTION
2
BLOCKS
0
BLOCK
5
4A4B
330
0
100
AcDbEntity
100
AcDbBlockBegin
2
*Model_Space
70
0
10
0
20
0
30
0
3
*Model_Space
1

0
ENDBLK
5
4A4C
330
0
100
AcDbEntity
100
AcDbBlockEnd
0
BLOCK
5
4A4D
330
0
100
AcDbEntity
100
AcDbBlockBegin
2
*Paper_Space
70
0
10
0
20
0
30
0
3
*Paper_Space
1

0
ENDBLK
5
4A4E
330
0
100
AcDbEntity
100
AcDbBlockEnd
0
ENDSEC
0
SECTION
2
ENTITIES
0
LINE
5
4A50
330
4A4B
100
AcDbEntity
100
AcDbLine
8
0
10
-1.1400000000000001
20
-1.5
30
0
11
1.1400000000000001
21
-1.5
31
0
0
ARC
5
4A51
330
4A4B
100
AcDbEntity
100
AcDbCircle
8
0
10
1.1400000000000001
20
-1.1400000000000001
30
0
40
0.36
100
AcDbArc
50
270
51
360
0
LINE
5
4A52
330
4A4B
100
AcDbEntity
100
AcDbLine
8
0
10
1.5
20
-1.1400000000000001
30
0
11
1.5
21
1.1400000000000001
31
0
0
ARC
5
4A53
330
4A4B
100
AcDbEntity
100
AcDbCircle
8
0
10
1.1400000000000001
20
1.1400000000000001
30
0
40
0.36
100
AcDbArc
50
0
51
90
0
LINE
5
4A54
330
4A4B
100
AcDbEntity
100
AcDbLine
8
0
10
1.1400000000000001
20
1.5
30
0
11
-1.1400000000000001
21
1.5
31
0
0
ARC
5
4A55
330
4A4B
100
AcDbEntity
100
AcDbCircle
8
0
10
-1.1400000000000001
20
1.1400000000000001
30
0
40
0.36
100
AcDbArc
50
90
51
180
0
LINE
5
4A56
330
4A4B
100
AcDbEntity
100
AcDbLine
8
0
10
-1.5
20
1.1400000000000001
30
0
11
-1.5
21
-1.1400000000000001
31
0
0
ARC
5
4A57
330
4A4B
100
AcDbEntity
100
AcDbCircle
8
0
10
-1.1400000000000001
20
-1.1400000000000001
30
0
40
0.36
100
AcDbArc
50
180
51
270
0
LINE
5
4A58
330
4A4B
100
AcDbEntity
100
AcDbLine
8
0
10
-1.1400000000000001
20
-1.32
30
0
11
1.1400000000000001
21
-1.32
31
0
0
ARC
5
4A59
330
4A4B
100
AcDbEntity
100
AcDbCircle
8
0
10
1.1400000000000001
20
-1.1400000000000001
30
0
40
0.18
100
AcDbArc
50
270
51
360
0
LINE
5
4A5A
330
4A4B
100
AcDbEntity
100
AcDbLine
8
0
10
1.32
20
-1.1400000000000001
30
0
11
1.32
21
1.1400000000000001
31
0
0
ARC
5
4A5B
330
4A4B
100
AcDbEntity
100
AcDbCircle
8
0
10
1.1400000000000001
20
1.1400000000000001
30
0
40
0.18
100
AcDbArc
50
0
51
90
0
LINE
5
4A5C
330
4A4B
100
AcDbEntity
100
AcDbLine
8
0
10
1.1400000000000001
20
1.32
30
0
11
-1.1400000000000001
21
1.32
31
0
0
ARC
5
4A5D
330
4A4B
100
AcDbEntity
100
AcDbCircle
8
0
10
-1.1400000000000001
20
1.1400000000000001
30
0
40
0.18
100
AcDbArc
50
90
51
180
0
LINE
5
4A5E
330
4A4B
100
AcDbEntity
100
AcDbLine
8
0
10
-1.32
20
1.1400000000000001
30
0
11
-1.32
21
-1.1400000000000001
31
0
0
ARC
5
4A5F
330
4A4B
100
AcDbEntity
100
AcDbCircle
8
0
10
-1.1400000000000001
20
-1.1400000000000001
30
0
40
0.18
100
AcDbArc
50
180
51
270
0
ENDSEC
0
SECTION
2
OBJECTS
0
DICTIONARY
5
4A3B
330
0
100
AcDbDictionary
281
1
3
ACAD_GROUP
350
4A4F
0
DICTIONARY
5
4A4F
330
4A3B
100
AcDbDictionary
281
1
0
ENDSEC
0
EOF