0
SECTION
2
HEADER
9
$HANDSEED
5
4897
9
$INSUNITS
70
1
9
$ACADVER
1
AC1021
0
ENDSEC
0
SECTION
2
CLASSES
0
ENDSEC
0
SECTION
2
TABLES
0
TABLE
2
LTYPE
5
4895
330
0
100
AcDbSymbolTable
70
5
0
LTYPE
5
486E
330
4895
100
AcDbSymbolTableRecord
100
AcDbLinetypeTableRecord
2
CONTINUOUS
3
______
70
0
72
65
73
0
40
0
0
LTYPE
5
486F
330
4895
100
AcDbSymbolTableRecord
100
AcDbLinetypeTableRecord
2
DASHED
3
_ _ _ 
70
0
72
65
73
2
40
10
49
5
74
0
49
-5
74
0
0
LTYPE
5
4870
330
4895
100
AcDbSymbolTableRecord
100
AcDbLinetypeTableRecord
2
DOTTED
3
. . . 
70
0
72
65
73
2
40
5
49
0
74
0
49
-5
74
0
0
LTYPE
5
4872
330
4895
100
AcDbSymbolTableRecord
100
AcDbLinetypeTableRecord
2
ByBlock
3

70
0
72
65
73
0
40
0
0
LTYPE
5
4873
330
4895
100
AcDbSymbolTableRecord
100
AcDbLinetypeTableRecord
2
ByLayer
3

70
0
72
65
73
0
40
0
0
ENDTAB
0
TABLE
2
LAYER
5
4896
330
0
100
AcDbSymbolTable
70
1
0
LAYER
5
4871
330
4896
100
AcDbSymbolTableRecord
100
AcDbLayerTableRecord
2
0
62
7
70
0
6
CONTINUOUS
390
1
0
ENDTAB
0
TABLE
2
VPORT
5
4874
330
0
100
AcDbSymbolTable
70
1
0
VPORT
5
487A
330
4874
100
AcDbSymbolTableRecord
100
AcDbViewportTableRecord
2
*ACTIVE
40
1000
70
0
0
ENDTAB
0
TABLE
2
STYLE
5
4875
330
0
100
AcDbSymbolTable
70
1
0
STYLE
5
487B
330
4875
100
AcDbSymbolTableRecord
100
AcDbTextStyleTableRecord
2
standard
70
0
40
0
41
1
50
0
71
0
42
1
3
txt
4

0
ENDTAB
0
TABLE
2
VIEW
5
4876
330
0
100
AcDbSymbolTable
70
0
0
ENDTAB
0
TABLE
2
UCS
5
4877
330
0
100
AcDbSymbolTable
70
0
0
ENDTAB
0
TABLE
2
APPID
5
4878
330
0
100
AcDbSymbolTable
70
1
0
APPID
5
487C
330
4878
100
AcDbSymbolTableRecord
100
AcDbRegAppTableRecord
2
ACAD
70
0
0
ENDTAB
0
TABLE
2
DIMSTYLE
5
4879
330
0
100
AcDbSymbolTable
100
AcDbDimStyleTable
70
0
71
1
0
ENDTAB
0
TABLE
2
BLOCK_RECORD
5
4892
330
0
100
AcDbSymbolTable
70
2
0
BLOCK_RECORD
5
4893
330
4892
100
AcDbSymbolTableRecord
100
AcDbBlockTableRecord
2
*Model_Space
70
0
280
0
281
1
0
BLOCK_RECORD
5
4894
330
4892
100
AcDbSymbolTableRecord
100
AcDbBlockTableRecord
2
*Paper_Space
70
0
280
0
281
1
0
ENDTAB
0
ENDSEC
0
SECTION
2
BLOCKS
0
BLOCK
5
487D
330
0
100
AcDbEntity
100
AcDbBlockBegin
2
*Model_Space
70
0
10
0
20
0
30
0
3
*Model_Space
1

0
ENDBLK
5
487E
330
0
100
AcDbEntity
100
AcDbBlockEnd
0
BLOCK
5
487F
330
0
100
AcDbEntity
100
AcDbBlockBegin
2
*Paper_Space
70
0
10
0
20
0
30
0
3
*Paper_Space
1

0
ENDBLK
5
4880
330
0
100
AcDbEntity
100
AcDbBlockEnd
0
ENDSEC
0
SECTION
2
ENTITIES
0
LINE
5
4882
330
487D
100
AcDbEntity
100
AcDbLine
8
0
10
-0.62
20
-0.75
30
0
11
0.62
21
-0.75
31
0
0
ARC
5
4883
330
487D
100
AcDbEntity
100
AcDbCircle
8
0
10
0.62
20
-0.62
30
0
40
0.13
100
AcDbArc
50
270
51
360
0
LINE
5
4884
330
487D
100
AcDbEntity
100
AcDbLine
8
0
10
0.75
20
-0.62
30
0
11
0.75
21
0.62
31
0
0
ARC
5
4885
330
487D
100
AcDbEntity
100
AcDbCircle
8
0
10
0.62
20
0.62
30
0
40
0.13
100
AcDbArc
50
0
51
90
0
LINE
5
4886
330
487D
100
AcDbEntity
100
AcDbLine
8
0
10
0.62
20
0.75
30
0
11
-0.62
21
0.75
31
0
0
ARC
5
4887
330
487D
100
AcDbEntity
100
AcDbCircle
8
0
10
-0.62
20
0.62
30
0
40
0.13
100
AcDbArc
50
90
51
180
0
LINE
5
4888
330
487D
100
AcDbEntity
100
AcDbLine
8
0
10
-0.75
20
0.62
30
0
11
-0.75
21
-0.62
31
0
0
ARC
5
4889
330
487D
100
AcDbEntity
100
AcDbCircle
8
0
10
-0.62
20
-0.62
30
0
40
0.13
100
AcDbArc
50
180
51
270
0
LINE
5
488A
330
487D
100
AcDbEntity
100
AcDbLine
8
0
10
-0.6200000000000001
20
-0.685
30
0
11
0.6200000000000001
21
-0.685
31
0
0
ARC
5
488B
330
487D
100
AcDbEntity
100
AcDbCircle
8
0
10
0.6200000000000001
20
-0.6200000000000001
30
0
40
0.065
100
AcDbArc
50
270
51
360
0
LINE
5
488C
330
487D
100
AcDbEntity
100
AcDbLine
8
0
10
0.685
20
-0.6200000000000001
30
0
11
0.685
21
0.6200000000000001
31
0
0
ARC
5
488D
330
487D
100
AcDbEntity
100
AcDbCircle
8
0
10
0.6200000000000001
20
0.6200000000000001
30
0
40
0.065
100
AcDbArc
50
0
51
90
0
LINE
5
488E
330
487D
100
AcDbEntity
100
AcDbLine
8
0
10
0.6200000000000001
20
0.685
30
0
11
-0.6200000000000001
21
0.685
31
0
0
ARC
5
488F
330
487D
100
AcDbEntity
100
AcDbCircle
8
0
10
-0.6200000000000001
20
0.6200000000000001
30
0
40
0.065
100
AcDbArc
50
90
51
180
0
LINE
5
4890
330
487D
100
AcDbEntity
100
AcDbLine
8
0
10
-0.685
20
0.6200000000000001
30
0
11
-0.685
21
-0.6200000000000001
31
0
0
ARC
5
4891
330
487D
100
AcDbEntity
100
AcDbCircle
8
0
10
-0.6200000000000001
20
-0.6200000000000001
30
0
40
0.065
100
AcDbArc
50
180
51
270
0
ENDSEC
0
SECTION
2
OBJECTS
0
DICTIONARY
5
486D
330
0
100
AcDbDictionary
281
1
3
ACAD_GROUP
350
4881
0
DICTIONARY
5
4881
330
486D
100
AcDbDictionary
281
1
0
ENDSEC
0
EOF