0
SECTION
2
HEADER
9
$HANDSEED
5
5ED9
9
$INSUNITS
70
1
9
$ACADVER
1
AC1021
0
ENDSEC
0
SECTION
2
CLASSES
0
ENDSEC
0
SECTION
2
TABLES
0
TABLE
2
LTYPE
5
5ED7
330
0
100
AcDbSymbolTable
70
5
0
LTYPE
5
5EB8
330
5ED7
100
AcDbSymbolTableRecord
100
AcDbLinetypeTableRecord
2
CONTINUOUS
3
______
70
0
72
65
73
0
40
0
0
LTYPE
5
5EB9
330
5ED7
100
AcDbSymbolTableRecord
100
AcDbLinetypeTableRecord
2
DASHED
3
_ _ _ 
70
0
72
65
73
2
40
10
49
5
74
0
49
-5
74
0
0
LTYPE
5
5EBA
330
5ED7
100
AcDbSymbolTableRecord
100
AcDbLinetypeTableRecord
2
DOTTED
3
. . . 
70
0
72
65
73
2
40
5
49
0
74
0
49
-5
74
0
0
LTYPE
5
5EBC
330
5ED7
100
AcDbSymbolTableRecord
100
AcDbLinetypeTableRecord
2
ByBlock
3

70
0
72
65
73
0
40
0
0
LTYPE
5
5EBD
330
5ED7
100
AcDbSymbolTableRecord
100
AcDbLinetypeTableRecord
2
ByLayer
3

70
0
72
65
73
0
40
0
0
ENDTAB
0
TABLE
2
LAYER
5
5ED8
330
0
100
AcDbSymbolTable
70
1
0
LAYER
5
5EBB
330
5ED8
100
AcDbSymbolTableRecord
100
AcDbLayerTableRecord
2
0
62
7
70
0
6
CONTINUOUS
390
1
0
ENDTAB
0
TABLE
2
VPORT
5
5EBE
330
0
100
AcDbSymbolTable
70
1
0
VPORT
5
5EC4
330
5EBE
100
AcDbSymbolTableRecord
100
AcDbViewportTableRecord
2
*ACTIVE
40
1000
70
0
0
ENDTAB
0
TABLE
2
STYLE
5
5EBF
330
0
100
AcDbSymbolTable
70
1
0
STYLE
5
5EC5
330
5EBF
100
AcDbSymbolTableRecord
100
AcDbTextStyleTableRecord
2
standard
70
0
40
0
41
1
50
0
71
0
42
1
3
txt
4

0
ENDTAB
0
TABLE
2
VIEW
5
5EC0
330
0
100
AcDbSymbolTable
70
0
0
ENDTAB
0
TABLE
2
UCS
5
5EC1
330
0
100
AcDbSymbolTable
70
0
0
ENDTAB
0
TABLE
2
APPID
5
5EC2
330
0
100
AcDbSymbolTable
70
1
0
APPID
5
5EC6
330
5EC2
100
AcDbSymbolTableRecord
100
AcDbRegAppTableRecord
2
ACAD
70
0
0
ENDTAB
0
TABLE
2
DIMSTYLE
5
5EC3
330
0
100
AcDbSymbolTable
100
AcDbDimStyleTable
70
0
71
1
0
ENDTAB
0
TABLE
2
BLOCK_RECORD
5
5ED4
330
0
100
AcDbSymbolTable
70
2
0
BLOCK_RECORD
5
5ED5
330
5ED4
100
AcDbSymbolTableRecord
100
AcDbBlockTableRecord
2
*Model_Space
70
0
280
0
281
1
0
BLOCK_RECORD
5
5ED6
330
5ED4
100
AcDbSymbolTableRecord
100
AcDbBlockTableRecord
2
*Paper_Space
70
0
280
0
281
1
0
ENDTAB
0
ENDSEC
0
SECTION
2
BLOCKS
0
BLOCK
5
5EC7
330
0
100
AcDbEntity
100
AcDbBlockBegin
2
*Model_Space
70
0
10
0
20
0
30
0
3
*Model_Space
1

0
ENDBLK
5
5EC8
330
0
100
AcDbEntity
100
AcDbBlockEnd
0
BLOCK
5
5EC9
330
0
100
AcDbEntity
100
AcDbBlockBegin
2
*Paper_Space
70
0
10
0
20
0
30
0
3
*Paper_Space
1

0
ENDBLK
5
5ECA
330
0
100
AcDbEntity
100
AcDbBlockEnd
0
ENDSEC
0
SECTION
2
ENTITIES
0
LINE
5
5ECC
330
5EC7
100
AcDbEntity
100
AcDbLine
8
0
10
-0.375
20
-0.375
30
0
11
0.375
21
-0.375
31
0
0
LINE
5
5ECD
330
5EC7
100
AcDbEntity
100
AcDbLine
8
0
10
0.375
20
-0.375
30
0
11
0.375
21
0.375
31
0
0
LINE
5
5ECE
330
5EC7
100
AcDbEntity
100
AcDbLine
8
0
10
0.375
20
0.375
30
0
11
-0.375
21
0.375
31
0
0
LINE
5
5ECF
330
5EC7
100
AcDbEntity
100
AcDbLine
8
0
10
-0.375
20
0.375
30
0
11
-0.375
21
-0.375
31
0
0
LINE
5
5ED0
330
5EC7
100
AcDbEntity
100
AcDbLine
8
0
10
-0.25
20
-0.25
30
0
11
0.25
21
-0.25
31
0
0
LINE
5
5ED1
330
5EC7
100
AcDbEntity
100
AcDbLine
8
0
10
0.25
20
-0.25
30
0
11
0.25
21
0.25
31
0
0
LINE
5
5ED2
330
5EC7
100
AcDbEntity
100
AcDbLine
8
0
10
0.25
20
0.25
30
0
11
-0.25
21
0.25
31
0
0
LINE
5
5ED3
330
5EC7
100
AcDbEntity
100
AcDbLine
8
0
10
-0.25
20
0.25
30
0
11
-0.25
21
-0.25
31
0
0
ENDSEC
0
SECTION
2
OBJECTS
0
DICTIONARY
5
5EB7
330
0
100
AcDbDictionary
281
1
3
ACAD_GROUP
350
5ECB
0
DICTIONARY
5
5ECB
330
5EB7
100
AcDbDictionary
281
1
0
ENDSEC
0
EOF