0
SECTION
2
HEADER
9
$HANDSEED
5
4A3B
9
$INSUNITS
70
1
9
$ACADVER
1
AC1021
0
ENDSEC
0
SECTION
2
CLASSES
0
ENDSEC
0
SECTION
2
TABLES
0
TABLE
2
LTYPE
5
4A39
330
0
100
AcDbSymbolTable
70
5
0
LTYPE
5
4A12
330
4A39
100
AcDbSymbolTableRecord
100
AcDbLinetypeTableRecord
2
CONTINUOUS
3
______
70
0
72
65
73
0
40
0
0
LTYPE
5
4A13
330
4A39
100
AcDbSymbolTableRecord
100
AcDbLinetypeTableRecord
2
DASHED
3
_ _ _ 
70
0
72
65
73
2
40
10
49
5
74
0
49
-5
74
0
0
LTYPE
5
4A14
330
4A39
100
AcDbSymbolTableRecord
100
AcDbLinetypeTableRecord
2
DOTTED
3
. . . 
70
0
72
65
73
2
40
5
49
0
74
0
49
-5
74
0
0
LTYPE
5
4A16
330
4A39
100
AcDbSymbolTableRecord
100
AcDbLinetypeTableRecord
2
ByBlock
3

70
0
72
65
73
0
40
0
0
LTYPE
5
4A17
330
4A39
100
AcDbSymbolTableRecord
100
AcDbLinetypeTableRecord
2
ByLayer
3

70
0
72
65
73
0
40
0
0
ENDTAB
0
TABLE
2
LAYER
5
4A3A
330
0
100
AcDbSymbolTable
70
1
0
LAYER
5
4A15
330
4A3A
100
AcDbSymbolTableRecord
100
AcDbLayerTableRecord
2
0
62
7
70
0
6
CONTINUOUS
390
1
0
ENDTAB
0
TABLE
2
VPORT
5
4A18
330
0
100
AcDbSymbolTable
70
1
0
VPORT
5
4A1E
330
4A18
100
AcDbSymbolTableRecord
100
AcDbViewportTableRecord
2
*ACTIVE
40
1000
70
0
0
ENDTAB
0
TABLE
2
STYLE
5
4A19
330
0
100
AcDbSymbolTable
70
1
0
STYLE
5
4A1F
330
4A19
100
AcDbSymbolTableRecord
100
AcDbTextStyleTableRecord
2
standard
70
0
40
0
41
1
50
0
71
0
42
1
3
txt
4

0
ENDTAB
0
TABLE
2
VIEW
5
4A1A
330
0
100
AcDbSymbolTable
70
0
0
ENDTAB
0
TABLE
2
UCS
5
4A1B
330
0
100
AcDbSymbolTable
70
0
0
ENDTAB
0
TABLE
2
APPID
5
4A1C
330
0
100
AcDbSymbolTable
70
1
0
APPID
5
4A20
330
4A1C
100
AcDbSymbolTableRecord
100
AcDbRegAppTableRecord
2
ACAD
70
0
0
ENDTAB
0
TABLE
2
DIMSTYLE
5
4A1D
330
0
100
AcDbSymbolTable
100
AcDbDimStyleTable
70
0
71
1
0
ENDTAB
0
TABLE
2
BLOCK_RECORD
5
4A36
330
0
100
AcDbSymbolTable
70
2
0
BLOCK_RECORD
5
4A37
330
4A36
100
AcDbSymbolTableRecord
100
AcDbBlockTableRecord
2
*Model_Space
70
0
280
0
281
1
0
BLOCK_RECORD
5
4A38
330
4A36
100
AcDbSymbolTableRecord
100
AcDbBlockTableRecord
2
*Paper_Space
70
0
280
0
281
1
0
ENDTAB
0
ENDSEC
0
SECTION
2
BLOCKS
0
BLOCK
5
4A21
330
0
100
AcDbEntity
100
AcDbBlockBegin
2
*Model_Space
70
0
10
0
20
0
30
0
3
*Model_Space
1

0
ENDBLK
5
4A22
330
0
100
AcDbEntity
100
AcDbBlockEnd
0
BLOCK
5
4A23
330
0
100
AcDbEntity
100
AcDbBlockBegin
2
*Paper_Space
70
0
10
0
20
0
30
0
3
*Paper_Space
1

0
ENDBLK
5
4A24
330
0
100
AcDbEntity
100
AcDbBlockEnd
0
ENDSEC
0
SECTION
2
ENTITIES
0
LINE
5
4A26
330
4A21
100
AcDbEntity
100
AcDbLine
8
0
10
-1.26
20
-1.5
30
0
11
1.26
21
-1.5
31
0
0
ARC
5
4A27
330
4A21
100
AcDbEntity
100
AcDbCircle
8
0
10
1.26
20
-1.26
30
0
40
0.24
100
AcDbArc
50
270
51
360
0
LINE
5
4A28
330
4A21
100
AcDbEntity
100
AcDbLine
8
0
10
1.5
20
-1.26
30
0
11
1.5
21
1.26
31
0
0
ARC
5
4A29
330
4A21
100
AcDbEntity
100
AcDbCircle
8
0
10
1.26
20
1.26
30
0
40
0.24
100
AcDbArc
50
0
51
90
0
LINE
5
4A2A
330
4A21
100
AcDbEntity
100
AcDbLine
8
0
10
1.26
20
1.5
30
0
11
-1.26
21
1.5
31
0
0
ARC
5
4A2B
330
4A21
100
AcDbEntity
100
AcDbCircle
8
0
10
-1.26
20
1.26
30
0
40
0.24
100
AcDbArc
50
90
51
180
0
LINE
5
4A2C
330
4A21
100
AcDbEntity
100
AcDbLine
8
0
10
-1.5
20
1.26
30
0
11
-1.5
21
-1.26
31
0
0
ARC
5
4A2D
330
4A21
100
AcDbEntity
100
AcDbCircle
8
0
10
-1.26
20
-1.26
30
0
40
0.24
100
AcDbArc
50
180
51
270
0
LINE
5
4A2E
330
4A21
100
AcDbEntity
100
AcDbLine
8
0
10
-1.2599999999999998
20
-1.38
30
0
11
1.2599999999999998
21
-1.38
31
0
0
ARC
5
4A2F
330
4A21
100
AcDbEntity
100
AcDbCircle
8
0
10
1.2599999999999998
20
-1.2599999999999998
30
0
40
0.12
100
AcDbArc
50
270
51
360
0
LINE
5
4A30
330
4A21
100
AcDbEntity
100
AcDbLine
8
0
10
1.38
20
-1.2599999999999998
30
0
11
1.38
21
1.2599999999999998
31
0
0
ARC
5
4A31
330
4A21
100
AcDbEntity
100
AcDbCircle
8
0
10
1.2599999999999998
20
1.2599999999999998
30
0
40
0.12
100
AcDbArc
50
0
51
90
0
LINE
5
4A32
330
4A21
100
AcDbEntity
100
AcDbLine
8
0
10
1.2599999999999998
20
1.38
30
0
11
-1.2599999999999998
21
1.38
31
0
0
ARC
5
4A33
330
4A21
100
AcDbEntity
100
AcDbCircle
8
0
10
-1.2599999999999998
20
1.2599999999999998
30
0
40
0.12
100
AcDbArc
50
90
51
180
0
LINE
5
4A34
330
4A21
100
AcDbEntity
100
AcDbLine
8
0
10
-1.38
20
1.2599999999999998
30
0
11
-1.38
21
-1.2599999999999998
31
0
0
ARC
5
4A35
330
4A21
100
AcDbEntity
100
AcDbCircle
8
0
10
-1.2599999999999998
20
-1.2599999999999998
30
0
40
0.12
100
AcDbArc
50
180
51
270
0
ENDSEC
0
SECTION
2
OBJECTS
0
DICTIONARY
5
4A11
330
0
100
AcDbDictionary
281
1
3
ACAD_GROUP
350
4A25
0
DICTIONARY
5
4A25
330
4A11
100
AcDbDictionary
281
1
0
ENDSEC
0
EOF