0
SECTION
2
HEADER
9
$HANDSEED
5
4ED3
9
$INSUNITS
70
1
9
$ACADVER
1
AC1021
0
ENDSEC
0
SECTION
2
CLASSES
0
ENDSEC
0
SECTION
2
TABLES
0
TABLE
2
LTYPE
5
4ED1
330
0
100
AcDbSymbolTable
70
5
0
LTYPE
5
4EAA
330
4ED1
100
AcDbSymbolTableRecord
100
AcDbLinetypeTableRecord
2
CONTINUOUS
3
______
70
0
72
65
73
0
40
0
0
LTYPE
5
4EAB
330
4ED1
100
AcDbSymbolTableRecord
100
AcDbLinetypeTableRecord
2
DASHED
3
_ _ _ 
70
0
72
65
73
2
40
10
49
5
74
0
49
-5
74
0
0
LTYPE
5
4EAC
330
4ED1
100
AcDbSymbolTableRecord
100
AcDbLinetypeTableRecord
2
DOTTED
3
. . . 
70
0
72
65
73
2
40
5
49
0
74
0
49
-5
74
0
0
LTYPE
5
4EAE
330
4ED1
100
AcDbSymbolTableRecord
100
AcDbLinetypeTableRecord
2
ByBlock
3

70
0
72
65
73
0
40
0
0
LTYPE
5
4EAF
330
4ED1
100
AcDbSymbolTableRecord
100
AcDbLinetypeTableRecord
2
ByLayer
3

70
0
72
65
73
0
40
0
0
ENDTAB
0
TABLE
2
LAYER
5
4ED2
330
0
100
AcDbSymbolTable
70
1
0
LAYER
5
4EAD
330
4ED2
100
AcDbSymbolTableRecord
100
AcDbLayerTableRecord
2
0
62
7
70
0
6
CONTINUOUS
390
1
0
ENDTAB
0
TABLE
2
VPORT
5
4EB0
330
0
100
AcDbSymbolTable
70
1
0
VPORT
5
4EB6
330
4EB0
100
AcDbSymbolTableRecord
100
AcDbViewportTableRecord
2
*ACTIVE
40
1000
70
0
0
ENDTAB
0
TABLE
2
STYLE
5
4EB1
330
0
100
AcDbSymbolTable
70
1
0
STYLE
5
4EB7
330
4EB1
100
AcDbSymbolTableRecord
100
AcDbTextStyleTableRecord
2
standard
70
0
40
0
41
1
50
0
71
0
42
1
3
txt
4

0
ENDTAB
0
TABLE
2
VIEW
5
4EB2
330
0
100
AcDbSymbolTable
70
0
0
ENDTAB
0
TABLE
2
UCS
5
4EB3
330
0
100
AcDbSymbolTable
70
0
0
ENDTAB
0
TABLE
2
APPID
5
4EB4
330
0
100
AcDbSymbolTable
70
1
0
APPID
5
4EB8
330
4EB4
100
AcDbSymbolTableRecord
100
AcDbRegAppTableRecord
2
ACAD
70
0
0
ENDTAB
0
TABLE
2
DIMSTYLE
5
4EB5
330
0
100
AcDbSymbolTable
100
AcDbDimStyleTable
70
0
71
1
0
ENDTAB
0
TABLE
2
BLOCK_RECORD
5
4ECE
330
0
100
AcDbSymbolTable
70
2
0
BLOCK_RECORD
5
4ECF
330
4ECE
100
AcDbSymbolTableRecord
100
AcDbBlockTableRecord
2
*Model_Space
70
0
280
0
281
1
0
BLOCK_RECORD
5
4ED0
330
4ECE
100
AcDbSymbolTableRecord
100
AcDbBlockTableRecord
2
*Paper_Space
70
0
280
0
281
1
0
ENDTAB
0
ENDSEC
0
SECTION
2
BLOCKS
0
BLOCK
5
4EB9
330
0
100
AcDbEntity
100
AcDbBlockBegin
2
*Model_Space
70
0
10
0
20
0
30
0
3
*Model_Space
1

0
ENDBLK
5
4EBA
330
0
100
AcDbEntity
100
AcDbBlockEnd
0
BLOCK
5
4EBB
330
0
100
AcDbEntity
100
AcDbBlockBegin
2
*Paper_Space
70
0
10
0
20
0
30
0
3
*Paper_Space
1

0
ENDBLK
5
4EBC
330
0
100
AcDbEntity
100
AcDbBlockEnd
0
ENDSEC
0
SECTION
2
ENTITIES
0
LINE
5
4EBE
330
4EB9
100
AcDbEntity
100
AcDbLine
8
0
10
-0.874
20
-1.25
30
0
11
0.874
21
-1.25
31
0
0
ARC
5
4EBF
330
4EB9
100
AcDbEntity
100
AcDbCircle
8
0
10
0.874
20
-0.874
30
0
40
0.376
100
AcDbArc
50
270
51
360
0
LINE
5
4EC0
330
4EB9
100
AcDbEntity
100
AcDbLine
8
0
10
1.25
20
-0.874
30
0
11
1.25
21
0.874
31
0
0
ARC
5
4EC1
330
4EB9
100
AcDbEntity
100
AcDbCircle
8
0
10
0.874
20
0.874
30
0
40
0.376
100
AcDbArc
50
0
51
90
0
LINE
5
4EC2
330
4EB9
100
AcDbEntity
100
AcDbLine
8
0
10
0.874
20
1.25
30
0
11
-0.874
21
1.25
31
0
0
ARC
5
4EC3
330
4EB9
100
AcDbEntity
100
AcDbCircle
8
0
10
-0.874
20
0.874
30
0
40
0.376
100
AcDbArc
50
90
51
180
0
LINE
5
4EC4
330
4EB9
100
AcDbEntity
100
AcDbLine
8
0
10
-1.25
20
0.874
30
0
11
-1.25
21
-0.874
31
0
0
ARC
5
4EC5
330
4EB9
100
AcDbEntity
100
AcDbCircle
8
0
10
-0.874
20
-0.874
30
0
40
0.376
100
AcDbArc
50
180
51
270
0
LINE
5
4EC6
330
4EB9
100
AcDbEntity
100
AcDbLine
8
0
10
-0.8740000000000001
20
-1.062
30
0
11
0.8740000000000001
21
-1.062
31
0
0
ARC
5
4EC7
330
4EB9
100
AcDbEntity
100
AcDbCircle
8
0
10
0.8740000000000001
20
-0.8740000000000001
30
0
40
0.188
100
AcDbArc
50
270
51
360
0
LINE
5
4EC8
330
4EB9
100
AcDbEntity
100
AcDbLine
8
0
10
1.062
20
-0.8740000000000001
30
0
11
1.062
21
0.8740000000000001
31
0
0
ARC
5
4EC9
330
4EB9
100
AcDbEntity
100
AcDbCircle
8
0
10
0.8740000000000001
20
0.8740000000000001
30
0
40
0.188
100
AcDbArc
50
0
51
90
0
LINE
5
4ECA
330
4EB9
100
AcDbEntity
100
AcDbLine
8
0
10
0.8740000000000001
20
1.062
30
0
11
-0.8740000000000001
21
1.062
31
0
0
ARC
5
4ECB
330
4EB9
100
AcDbEntity
100
AcDbCircle
8
0
10
-0.8740000000000001
20
0.8740000000000001
30
0
40
0.188
100
AcDbArc
50
90
51
180
0
LINE
5
4ECC
330
4EB9
100
AcDbEntity
100
AcDbLine
8
0
10
-1.062
20
0.8740000000000001
30
0
11
-1.062
21
-0.8740000000000001
31
0
0
ARC
5
4ECD
330
4EB9
100
AcDbEntity
100
AcDbCircle
8
0
10
-0.8740000000000001
20
-0.8740000000000001
30
0
40
0.188
100
AcDbArc
50
180
51
270
0
ENDSEC
0
SECTION
2
OBJECTS
0
DICTIONARY
5
4EA9
330
0
100
AcDbDictionary
281
1
3
ACAD_GROUP
350
4EBD
0
DICTIONARY
5
4EBD
330
4EA9
100
AcDbDictionary
281
1
0
ENDSEC
0
EOF