0
SECTION
2
HEADER
9
$HANDSEED
5
4AE3
9
$INSUNITS
70
1
9
$ACADVER
1
AC1021
0
ENDSEC
0
SECTION
2
CLASSES
0
ENDSEC
0
SECTION
2
TABLES
0
TABLE
2
LTYPE
5
4AE1
330
0
100
AcDbSymbolTable
70
5
0
LTYPE
5
4ABA
330
4AE1
100
AcDbSymbolTableRecord
100
AcDbLinetypeTableRecord
2
CONTINUOUS
3
______
70
0
72
65
73
0
40
0
0
LTYPE
5
4ABB
330
4AE1
100
AcDbSymbolTableRecord
100
AcDbLinetypeTableRecord
2
DASHED
3
_ _ _ 
70
0
72
65
73
2
40
10
49
5
74
0
49
-5
74
0
0
LTYPE
5
4ABC
330
4AE1
100
AcDbSymbolTableRecord
100
AcDbLinetypeTableRecord
2
DOTTED
3
. . . 
70
0
72
65
73
2
40
5
49
0
74
0
49
-5
74
0
0
LTYPE
5
4ABE
330
4AE1
100
AcDbSymbolTableRecord
100
AcDbLinetypeTableRecord
2
ByBlock
3

70
0
72
65
73
0
40
0
0
LTYPE
5
4ABF
330
4AE1
100
AcDbSymbolTableRecord
100
AcDbLinetypeTableRecord
2
ByLayer
3

70
0
72
65
73
0
40
0
0
ENDTAB
0
TABLE
2
LAYER
5
4AE2
330
0
100
AcDbSymbolTable
70
1
0
LAYER
5
4ABD
330
4AE2
100
AcDbSymbolTableRecord
100
AcDbLayerTableRecord
2
0
62
7
70
0
6
CONTINUOUS
390
1
0
ENDTAB
0
TABLE
2
VPORT
5
4AC0
330
0
100
AcDbSymbolTable
70
1
0
VPORT
5
4AC6
330
4AC0
100
AcDbSymbolTableRecord
100
AcDbViewportTableRecord
2
*ACTIVE
40
1000
70
0
0
ENDTAB
0
TABLE
2
STYLE
5
4AC1
330
0
100
AcDbSymbolTable
70
1
0
STYLE
5
4AC7
330
4AC1
100
AcDbSymbolTableRecord
100
AcDbTextStyleTableRecord
2
standard
70
0
40
0
41
1
50
0
71
0
42
1
3
txt
4

0
ENDTAB
0
TABLE
2
VIEW
5
4AC2
330
0
100
AcDbSymbolTable
70
0
0
ENDTAB
0
TABLE
2
UCS
5
4AC3
330
0
100
AcDbSymbolTable
70
0
0
ENDTAB
0
TABLE
2
APPID
5
4AC4
330
0
100
AcDbSymbolTable
70
1
0
APPID
5
4AC8
330
4AC4
100
AcDbSymbolTableRecord
100
AcDbRegAppTableRecord
2
ACAD
70
0
0
ENDTAB
0
TABLE
2
DIMSTYLE
5
4AC5
330
0
100
AcDbSymbolTable
100
AcDbDimStyleTable
70
0
71
1
0
ENDTAB
0
TABLE
2
BLOCK_RECORD
5
4ADE
330
0
100
AcDbSymbolTable
70
2
0
BLOCK_RECORD
5
4ADF
330
4ADE
100
AcDbSymbolTableRecord
100
AcDbBlockTableRecord
2
*Model_Space
70
0
280
0
281
1
0
BLOCK_RECORD
5
4AE0
330
4ADE
100
AcDbSymbolTableRecord
100
AcDbBlockTableRecord
2
*Paper_Space
70
0
280
0
281
1
0
ENDTAB
0
ENDSEC
0
SECTION
2
BLOCKS
0
BLOCK
5
4AC9
330
0
100
AcDbEntity
100
AcDbBlockBegin
2
*Model_Space
70
0
10
0
20
0
30
0
3
*Model_Space
1

0
ENDBLK
5
4ACA
330
0
100
AcDbEntity
100
AcDbBlockEnd
0
BLOCK
5
4ACB
330
0
100
AcDbEntity
100
AcDbBlockBegin
2
*Paper_Space
70
0
10
0
20
0
30
0
3
*Paper_Space
1

0
ENDBLK
5
4ACC
330
0
100
AcDbEntity
100
AcDbBlockEnd
0
ENDSEC
0
SECTION
2
ENTITIES
0
LINE
5
4ACE
330
4AC9
100
AcDbEntity
100
AcDbLine
8
0
10
-1.6400000000000001
20
-2
30
0
11
1.6400000000000001
21
-2
31
0
0
ARC
5
4ACF
330
4AC9
100
AcDbEntity
100
AcDbCircle
8
0
10
1.6400000000000001
20
-1.6400000000000001
30
0
40
0.36
100
AcDbArc
50
270
51
360
0
LINE
5
4AD0
330
4AC9
100
AcDbEntity
100
AcDbLine
8
0
10
2
20
-1.6400000000000001
30
0
11
2
21
1.6400000000000001
31
0
0
ARC
5
4AD1
330
4AC9
100
AcDbEntity
100
AcDbCircle
8
0
10
1.6400000000000001
20
1.6400000000000001
30
0
40
0.36
100
AcDbArc
50
0
51
90
0
LINE
5
4AD2
330
4AC9
100
AcDbEntity
100
AcDbLine
8
0
10
1.6400000000000001
20
2
30
0
11
-1.6400000000000001
21
2
31
0
0
ARC
5
4AD3
330
4AC9
100
AcDbEntity
100
AcDbCircle
8
0
10
-1.6400000000000001
20
1.6400000000000001
30
0
40
0.36
100
AcDbArc
50
90
51
180
0
LINE
5
4AD4
330
4AC9
100
AcDbEntity
100
AcDbLine
8
0
10
-2
20
1.6400000000000001
30
0
11
-2
21
-1.6400000000000001
31
0
0
ARC
5
4AD5
330
4AC9
100
AcDbEntity
100
AcDbCircle
8
0
10
-1.6400000000000001
20
-1.6400000000000001
30
0
40
0.36
100
AcDbArc
50
180
51
270
0
LINE
5
4AD6
330
4AC9
100
AcDbEntity
100
AcDbLine
8
0
10
-1.6400000000000001
20
-1.82
30
0
11
1.6400000000000001
21
-1.82
31
0
0
ARC
5
4AD7
330
4AC9
100
AcDbEntity
100
AcDbCircle
8
0
10
1.6400000000000001
20
-1.6400000000000001
30
0
40
0.18
100
AcDbArc
50
270
51
360
0
LINE
5
4AD8
330
4AC9
100
AcDbEntity
100
AcDbLine
8
0
10
1.82
20
-1.6400000000000001
30
0
11
1.82
21
1.6400000000000001
31
0
0
ARC
5
4AD9
330
4AC9
100
AcDbEntity
100
AcDbCircle
8
0
10
1.6400000000000001
20
1.6400000000000001
30
0
40
0.18
100
AcDbArc
50
0
51
90
0
LINE
5
4ADA
330
4AC9
100
AcDbEntity
100
AcDbLine
8
0
10
1.6400000000000001
20
1.82
30
0
11
-1.6400000000000001
21
1.82
31
0
0
ARC
5
4ADB
330
4AC9
100
AcDbEntity
100
AcDbCircle
8
0
10
-1.6400000000000001
20
1.6400000000000001
30
0
40
0.18
100
AcDbArc
50
90
51
180
0
LINE
5
4ADC
330
4AC9
100
AcDbEntity
100
AcDbLine
8
0
10
-1.82
20
1.6400000000000001
30
0
11
-1.82
21
-1.6400000000000001
31
0
0
ARC
5
4ADD
330
4AC9
100
AcDbEntity
100
AcDbCircle
8
0
10
-1.6400000000000001
20
-1.6400000000000001
30
0
40
0.18
100
AcDbArc
50
180
51
270
0
ENDSEC
0
SECTION
2
OBJECTS
0
DICTIONARY
5
4AB9
330
0
100
AcDbDictionary
281
1
3
ACAD_GROUP
350
4ACD
0
DICTIONARY
5
4ACD
330
4AB9
100
AcDbDictionary
281
1
0
ENDSEC
0
EOF