0
SECTION
2
HEADER
9
$HANDSEED
5
5237
9
$INSUNITS
70
1
9
$ACADVER
1
AC1021
0
ENDSEC
0
SECTION
2
CLASSES
0
ENDSEC
0
SECTION
2
TABLES
0
TABLE
2
LTYPE
5
5235
330
0
100
AcDbSymbolTable
70
5
0
LTYPE
5
520E
330
5235
100
AcDbSymbolTableRecord
100
AcDbLinetypeTableRecord
2
CONTINUOUS
3
______
70
0
72
65
73
0
40
0
0
LTYPE
5
520F
330
5235
100
AcDbSymbolTableRecord
100
AcDbLinetypeTableRecord
2
DASHED
3
_ _ _ 
70
0
72
65
73
2
40
10
49
5
74
0
49
-5
74
0
0
LTYPE
5
5210
330
5235
100
AcDbSymbolTableRecord
100
AcDbLinetypeTableRecord
2
DOTTED
3
. . . 
70
0
72
65
73
2
40
5
49
0
74
0
49
-5
74
0
0
LTYPE
5
5212
330
5235
100
AcDbSymbolTableRecord
100
AcDbLinetypeTableRecord
2
ByBlock
3

70
0
72
65
73
0
40
0
0
LTYPE
5
5213
330
5235
100
AcDbSymbolTableRecord
100
AcDbLinetypeTableRecord
2
ByLayer
3

70
0
72
65
73
0
40
0
0
ENDTAB
0
TABLE
2
LAYER
5
5236
330
0
100
AcDbSymbolTable
70
1
0
LAYER
5
5211
330
5236
100
AcDbSymbolTableRecord
100
AcDbLayerTableRecord
2
0
62
7
70
0
6
CONTINUOUS
390
1
0
ENDTAB
0
TABLE
2
VPORT
5
5214
330
0
100
AcDbSymbolTable
70
1
0
VPORT
5
521A
330
5214
100
AcDbSymbolTableRecord
100
AcDbViewportTableRecord
2
*ACTIVE
40
1000
70
0
0
ENDTAB
0
TABLE
2
STYLE
5
5215
330
0
100
AcDbSymbolTable
70
1
0
STYLE
5
521B
330
5215
100
AcDbSymbolTableRecord
100
AcDbTextStyleTableRecord
2
standard
70
0
40
0
41
1
50
0
71
0
42
1
3
txt
4

0
ENDTAB
0
TABLE
2
VIEW
5
5216
330
0
100
AcDbSymbolTable
70
0
0
ENDTAB
0
TABLE
2
UCS
5
5217
330
0
100
AcDbSymbolTable
70
0
0
ENDTAB
0
TABLE
2
APPID
5
5218
330
0
100
AcDbSymbolTable
70
1
0
APPID
5
521C
330
5218
100
AcDbSymbolTableRecord
100
AcDbRegAppTableRecord
2
ACAD
70
0
0
ENDTAB
0
TABLE
2
DIMSTYLE
5
5219
330
0
100
AcDbSymbolTable
100
AcDbDimStyleTable
70
0
71
1
0
ENDTAB
0
TABLE
2
BLOCK_RECORD
5
5232
330
0
100
AcDbSymbolTable
70
2
0
BLOCK_RECORD
5
5233
330
5232
100
AcDbSymbolTableRecord
100
AcDbBlockTableRecord
2
*Model_Space
70
0
280
0
281
1
0
BLOCK_RECORD
5
5234
330
5232
100
AcDbSymbolTableRecord
100
AcDbBlockTableRecord
2
*Paper_Space
70
0
280
0
281
1
0
ENDTAB
0
ENDSEC
0
SECTION
2
BLOCKS
0
BLOCK
5
521D
330
0
100
AcDbEntity
100
AcDbBlockBegin
2
*Model_Space
70
0
10
0
20
0
30
0
3
*Model_Space
1

0
ENDBLK
5
521E
330
0
100
AcDbEntity
100
AcDbBlockEnd
0
BLOCK
5
521F
330
0
100
AcDbEntity
100
AcDbBlockBegin
2
*Paper_Space
70
0
10
0
20
0
30
0
3
*Paper_Space
1

0
ENDBLK
5
5220
330
0
100
AcDbEntity
100
AcDbBlockEnd
0
ENDSEC
0
SECTION
2
ENTITIES
0
LINE
5
5222
330
521D
100
AcDbEntity
100
AcDbLine
8
0
10
-0.709
20
-0.875
30
0
11
0.709
21
-0.875
31
0
0
ARC
5
5223
330
521D
100
AcDbEntity
100
AcDbCircle
8
0
10
0.709
20
-0.709
30
0
40
0.166
100
AcDbArc
50
270
51
360
0
LINE
5
5224
330
521D
100
AcDbEntity
100
AcDbLine
8
0
10
0.875
20
-0.709
30
0
11
0.875
21
0.709
31
0
0
ARC
5
5225
330
521D
100
AcDbEntity
100
AcDbCircle
8
0
10
0.709
20
0.709
30
0
40
0.166
100
AcDbArc
50
0
51
90
0
LINE
5
5226
330
521D
100
AcDbEntity
100
AcDbLine
8
0
10
0.709
20
0.875
30
0
11
-0.709
21
0.875
31
0
0
ARC
5
5227
330
521D
100
AcDbEntity
100
AcDbCircle
8
0
10
-0.709
20
0.709
30
0
40
0.166
100
AcDbArc
50
90
51
180
0
LINE
5
5228
330
521D
100
AcDbEntity
100
AcDbLine
8
0
10
-0.875
20
0.709
30
0
11
-0.875
21
-0.709
31
0
0
ARC
5
5229
330
521D
100
AcDbEntity
100
AcDbCircle
8
0
10
-0.709
20
-0.709
30
0
40
0.166
100
AcDbArc
50
180
51
270
0
LINE
5
522A
330
521D
100
AcDbEntity
100
AcDbLine
8
0
10
-0.7090000000000001
20
-0.792
30
0
11
0.7090000000000001
21
-0.792
31
0
0
ARC
5
522B
330
521D
100
AcDbEntity
100
AcDbCircle
8
0
10
0.7090000000000001
20
-0.7090000000000001
30
0
40
0.083
100
AcDbArc
50
270
51
360
0
LINE
5
522C
330
521D
100
AcDbEntity
100
AcDbLine
8
0
10
0.792
20
-0.7090000000000001
30
0
11
0.792
21
0.7090000000000001
31
0
0
ARC
5
522D
330
521D
100
AcDbEntity
100
AcDbCircle
8
0
10
0.7090000000000001
20
0.7090000000000001
30
0
40
0.083
100
AcDbArc
50
0
51
90
0
LINE
5
522E
330
521D
100
AcDbEntity
100
AcDbLine
8
0
10
0.7090000000000001
20
0.792
30
0
11
-0.7090000000000001
21
0.792
31
0
0
ARC
5
522F
330
521D
100
AcDbEntity
100
AcDbCircle
8
0
10
-0.7090000000000001
20
0.7090000000000001
30
0
40
0.083
100
AcDbArc
50
90
51
180
0
LINE
5
5230
330
521D
100
AcDbEntity
100
AcDbLine
8
0
10
-0.792
20
0.7090000000000001
30
0
11
-0.792
21
-0.7090000000000001
31
0
0
ARC
5
5231
330
521D
100
AcDbEntity
100
AcDbCircle
8
0
10
-0.7090000000000001
20
-0.7090000000000001
30
0
40
0.083
100
AcDbArc
50
180
51
270
0
ENDSEC
0
SECTION
2
OBJECTS
0
DICTIONARY
5
520D
330
0
100
AcDbDictionary
281
1
3
ACAD_GROUP
350
5221
0
DICTIONARY
5
5221
330
520D
100
AcDbDictionary
281
1
0
ENDSEC
0
EOF