0
SECTION
2
HEADER
9
$HANDSEED
5
49BD
9
$INSUNITS
70
1
9
$ACADVER
1
AC1021
0
ENDSEC
0
SECTION
2
CLASSES
0
ENDSEC
0
SECTION
2
TABLES
0
TABLE
2
LTYPE
5
49BB
330
0
100
AcDbSymbolTable
70
5
0
LTYPE
5
4994
330
49BB
100
AcDbSymbolTableRecord
100
AcDbLinetypeTableRecord
2
CONTINUOUS
3
______
70
0
72
65
73
0
40
0
0
LTYPE
5
4995
330
49BB
100
AcDbSymbolTableRecord
100
AcDbLinetypeTableRecord
2
DASHED
3
_ _ _ 
70
0
72
65
73
2
40
10
49
5
74
0
49
-5
74
0
0
LTYPE
5
4996
330
49BB
100
AcDbSymbolTableRecord
100
AcDbLinetypeTableRecord
2
DOTTED
3
. . . 
70
0
72
65
73
2
40
5
49
0
74
0
49
-5
74
0
0
LTYPE
5
4998
330
49BB
100
AcDbSymbolTableRecord
100
AcDbLinetypeTableRecord
2
ByBlock
3

70
0
72
65
73
0
40
0
0
LTYPE
5
4999
330
49BB
100
AcDbSymbolTableRecord
100
AcDbLinetypeTableRecord
2
ByLayer
3

70
0
72
65
73
0
40
0
0
ENDTAB
0
TABLE
2
LAYER
5
49BC
330
0
100
AcDbSymbolTable
70
1
0
LAYER
5
4997
330
49BC
100
AcDbSymbolTableRecord
100
AcDbLayerTableRecord
2
0
62
7
70
0
6
CONTINUOUS
390
1
0
ENDTAB
0
TABLE
2
VPORT
5
499A
330
0
100
AcDbSymbolTable
70
1
0
VPORT
5
49A0
330
499A
100
AcDbSymbolTableRecord
100
AcDbViewportTableRecord
2
*ACTIVE
40
1000
70
0
0
ENDTAB
0
TABLE
2
STYLE
5
499B
330
0
100
AcDbSymbolTable
70
1
0
STYLE
5
49A1
330
499B
100
AcDbSymbolTableRecord
100
AcDbTextStyleTableRecord
2
standard
70
0
40
0
41
1
50
0
71
0
42
1
3
txt
4

0
ENDTAB
0
TABLE
2
VIEW
5
499C
330
0
100
AcDbSymbolTable
70
0
0
ENDTAB
0
TABLE
2
UCS
5
499D
330
0
100
AcDbSymbolTable
70
0
0
ENDTAB
0
TABLE
2
APPID
5
499E
330
0
100
AcDbSymbolTable
70
1
0
APPID
5
49A2
330
499E
100
AcDbSymbolTableRecord
100
AcDbRegAppTableRecord
2
ACAD
70
0
0
ENDTAB
0
TABLE
2
DIMSTYLE
5
499F
330
0
100
AcDbSymbolTable
100
AcDbDimStyleTable
70
0
71
1
0
ENDTAB
0
TABLE
2
BLOCK_RECORD
5
49B8
330
0
100
AcDbSymbolTable
70
2
0
BLOCK_RECORD
5
49B9
330
49B8
100
AcDbSymbolTableRecord
100
AcDbBlockTableRecord
2
*Model_Space
70
0
280
0
281
1
0
BLOCK_RECORD
5
49BA
330
49B8
100
AcDbSymbolTableRecord
100
AcDbBlockTableRecord
2
*Paper_Space
70
0
280
0
281
1
0
ENDTAB
0
ENDSEC
0
SECTION
2
BLOCKS
0
BLOCK
5
49A3
330
0
100
AcDbEntity
100
AcDbBlockBegin
2
*Model_Space
70
0
10
0
20
0
30
0
3
*Model_Space
1

0
ENDBLK
5
49A4
330
0
100
AcDbEntity
100
AcDbBlockEnd
0
BLOCK
5
49A5
330
0
100
AcDbEntity
100
AcDbBlockBegin
2
*Paper_Space
70
0
10
0
20
0
30
0
3
*Paper_Space
1

0
ENDBLK
5
49A6
330
0
100
AcDbEntity
100
AcDbBlockEnd
0
ENDSEC
0
SECTION
2
ENTITIES
0
LINE
5
49A8
330
49A3
100
AcDbEntity
100
AcDbLine
8
0
10
-1.01
20
-1.25
30
0
11
1.01
21
-1.25
31
0
0
ARC
5
49A9
330
49A3
100
AcDbEntity
100
AcDbCircle
8
0
10
1.01
20
-1.01
30
0
40
0.24
100
AcDbArc
50
270
51
360
0
LINE
5
49AA
330
49A3
100
AcDbEntity
100
AcDbLine
8
0
10
1.25
20
-1.01
30
0
11
1.25
21
1.01
31
0
0
ARC
5
49AB
330
49A3
100
AcDbEntity
100
AcDbCircle
8
0
10
1.01
20
1.01
30
0
40
0.24
100
AcDbArc
50
0
51
90
0
LINE
5
49AC
330
49A3
100
AcDbEntity
100
AcDbLine
8
0
10
1.01
20
1.25
30
0
11
-1.01
21
1.25
31
0
0
ARC
5
49AD
330
49A3
100
AcDbEntity
100
AcDbCircle
8
0
10
-1.01
20
1.01
30
0
40
0.24
100
AcDbArc
50
90
51
180
0
LINE
5
49AE
330
49A3
100
AcDbEntity
100
AcDbLine
8
0
10
-1.25
20
1.01
30
0
11
-1.25
21
-1.01
31
0
0
ARC
5
49AF
330
49A3
100
AcDbEntity
100
AcDbCircle
8
0
10
-1.01
20
-1.01
30
0
40
0.24
100
AcDbArc
50
180
51
270
0
LINE
5
49B0
330
49A3
100
AcDbEntity
100
AcDbLine
8
0
10
-1.0099999999999998
20
-1.13
30
0
11
1.0099999999999998
21
-1.13
31
0
0
ARC
5
49B1
330
49A3
100
AcDbEntity
100
AcDbCircle
8
0
10
1.0099999999999998
20
-1.0099999999999998
30
0
40
0.12
100
AcDbArc
50
270
51
360
0
LINE
5
49B2
330
49A3
100
AcDbEntity
100
AcDbLine
8
0
10
1.13
20
-1.0099999999999998
30
0
11
1.13
21
1.0099999999999998
31
0
0
ARC
5
49B3
330
49A3
100
AcDbEntity
100
AcDbCircle
8
0
10
1.0099999999999998
20
1.0099999999999998
30
0
40
0.12
100
AcDbArc
50
0
51
90
0
LINE
5
49B4
330
49A3
100
AcDbEntity
100
AcDbLine
8
0
10
1.0099999999999998
20
1.13
30
0
11
-1.0099999999999998
21
1.13
31
0
0
ARC
5
49B5
330
49A3
100
AcDbEntity
100
AcDbCircle
8
0
10
-1.0099999999999998
20
1.0099999999999998
30
0
40
0.12
100
AcDbArc
50
90
51
180
0
LINE
5
49B6
330
49A3
100
AcDbEntity
100
AcDbLine
8
0
10
-1.13
20
1.0099999999999998
30
0
11
-1.13
21
-1.0099999999999998
31
0
0
ARC
5
49B7
330
49A3
100
AcDbEntity
100
AcDbCircle
8
0
10
-1.0099999999999998
20
-1.0099999999999998
30
0
40
0.12
100
AcDbArc
50
180
51
270
0
ENDSEC
0
SECTION
2
OBJECTS
0
DICTIONARY
5
4993
330
0
100
AcDbDictionary
281
1
3
ACAD_GROUP
350
49A7
0
DICTIONARY
5
49A7
330
4993
100
AcDbDictionary
281
1
0
ENDSEC
0
EOF