0
SECTION
2
HEADER
9
$HANDSEED
5
6403
9
$INSUNITS
70
1
9
$ACADVER
1
AC1021
0
ENDSEC
0
SECTION
2
CLASSES
0
ENDSEC
0
SECTION
2
TABLES
0
TABLE
2
LTYPE
5
6401
330
0
100
AcDbSymbolTable
70
5
0
LTYPE
5
63DA
330
6401
100
AcDbSymbolTableRecord
100
AcDbLinetypeTableRecord
2
CONTINUOUS
3
______
70
0
72
65
73
0
40
0
0
LTYPE
5
63DB
330
6401
100
AcDbSymbolTableRecord
100
AcDbLinetypeTableRecord
2
DASHED
3
_ _ _ 
70
0
72
65
73
2
40
10
49
5
74
0
49
-5
74
0
0
LTYPE
5
63DC
330
6401
100
AcDbSymbolTableRecord
100
AcDbLinetypeTableRecord
2
DOTTED
3
. . . 
70
0
72
65
73
2
40
5
49
0
74
0
49
-5
74
0
0
LTYPE
5
63DE
330
6401
100
AcDbSymbolTableRecord
100
AcDbLinetypeTableRecord
2
ByBlock
3

70
0
72
65
73
0
40
0
0
LTYPE
5
63DF
330
6401
100
AcDbSymbolTableRecord
100
AcDbLinetypeTableRecord
2
ByLayer
3

70
0
72
65
73
0
40
0
0
ENDTAB
0
TABLE
2
LAYER
5
6402
330
0
100
AcDbSymbolTable
70
1
0
LAYER
5
63DD
330
6402
100
AcDbSymbolTableRecord
100
AcDbLayerTableRecord
2
0
62
7
70
0
6
CONTINUOUS
390
1
0
ENDTAB
0
TABLE
2
VPORT
5
63E0
330
0
100
AcDbSymbolTable
70
1
0
VPORT
5
63E6
330
63E0
100
AcDbSymbolTableRecord
100
AcDbViewportTableRecord
2
*ACTIVE
40
1000
70
0
0
ENDTAB
0
TABLE
2
STYLE
5
63E1
330
0
100
AcDbSymbolTable
70
1
0
STYLE
5
63E7
330
63E1
100
AcDbSymbolTableRecord
100
AcDbTextStyleTableRecord
2
standard
70
0
40
0
41
1
50
0
71
0
42
1
3
txt
4

0
ENDTAB
0
TABLE
2
VIEW
5
63E2
330
0
100
AcDbSymbolTable
70
0
0
ENDTAB
0
TABLE
2
UCS
5
63E3
330
0
100
AcDbSymbolTable
70
0
0
ENDTAB
0
TABLE
2
APPID
5
63E4
330
0
100
AcDbSymbolTable
70
1
0
APPID
5
63E8
330
63E4
100
AcDbSymbolTableRecord
100
AcDbRegAppTableRecord
2
ACAD
70
0
0
ENDTAB
0
TABLE
2
DIMSTYLE
5
63E5
330
0
100
AcDbSymbolTable
100
AcDbDimStyleTable
70
0
71
1
0
ENDTAB
0
TABLE
2
BLOCK_RECORD
5
63FE
330
0
100
AcDbSymbolTable
70
2
0
BLOCK_RECORD
5
63FF
330
63FE
100
AcDbSymbolTableRecord
100
AcDbBlockTableRecord
2
*Model_Space
70
0
280
0
281
1
0
BLOCK_RECORD
5
6400
330
63FE
100
AcDbSymbolTableRecord
100
AcDbBlockTableRecord
2
*Paper_Space
70
0
280
0
281
1
0
ENDTAB
0
ENDSEC
0
SECTION
2
BLOCKS
0
BLOCK
5
63E9
330
0
100
AcDbEntity
100
AcDbBlockBegin
2
*Model_Space
70
0
10
0
20
0
30
0
3
*Model_Space
1

0
ENDBLK
5
63EA
330
0
100
AcDbEntity
100
AcDbBlockEnd
0
BLOCK
5
63EB
330
0
100
AcDbEntity
100
AcDbBlockBegin
2
*Paper_Space
70
0
10
0
20
0
30
0
3
*Paper_Space
1

0
ENDBLK
5
63EC
330
0
100
AcDbEntity
100
AcDbBlockEnd
0
ENDSEC
0
SECTION
2
ENTITIES
0
LINE
5
63EE
330
63E9
100
AcDbEntity
100
AcDbLine
8
0
10
-0.75
20
-1.25
30
0
11
0.75
21
-1.25
31
0
0
ARC
5
63EF
330
63E9
100
AcDbEntity
100
AcDbCircle
8
0
10
0.75
20
-0.75
30
0
40
0.5
100
AcDbArc
50
270
51
360
0
LINE
5
63F0
330
63E9
100
AcDbEntity
100
AcDbLine
8
0
10
1.25
20
-0.75
30
0
11
1.25
21
0.75
31
0
0
ARC
5
63F1
330
63E9
100
AcDbEntity
100
AcDbCircle
8
0
10
0.75
20
0.75
30
0
40
0.5
100
AcDbArc
50
0
51
90
0
LINE
5
63F2
330
63E9
100
AcDbEntity
100
AcDbLine
8
0
10
0.75
20
1.25
30
0
11
-0.75
21
1.25
31
0
0
ARC
5
63F3
330
63E9
100
AcDbEntity
100
AcDbCircle
8
0
10
-0.75
20
0.75
30
0
40
0.5
100
AcDbArc
50
90
51
180
0
LINE
5
63F4
330
63E9
100
AcDbEntity
100
AcDbLine
8
0
10
-1.25
20
0.75
30
0
11
-1.25
21
-0.75
31
0
0
ARC
5
63F5
330
63E9
100
AcDbEntity
100
AcDbCircle
8
0
10
-0.75
20
-0.75
30
0
40
0.5
100
AcDbArc
50
180
51
270
0
LINE
5
63F6
330
63E9
100
AcDbEntity
100
AcDbLine
8
0
10
-0.75
20
-1.012
30
0
11
0.75
21
-1.012
31
0
0
ARC
5
63F7
330
63E9
100
AcDbEntity
100
AcDbCircle
8
0
10
0.75
20
-0.75
30
0
40
0.262
100
AcDbArc
50
270
51
360
0
LINE
5
63F8
330
63E9
100
AcDbEntity
100
AcDbLine
8
0
10
1.012
20
-0.75
30
0
11
1.012
21
0.75
31
0
0
ARC
5
63F9
330
63E9
100
AcDbEntity
100
AcDbCircle
8
0
10
0.75
20
0.75
30
0
40
0.262
100
AcDbArc
50
0
51
90
0
LINE
5
63FA
330
63E9
100
AcDbEntity
100
AcDbLine
8
0
10
0.75
20
1.012
30
0
11
-0.75
21
1.012
31
0
0
ARC
5
63FB
330
63E9
100
AcDbEntity
100
AcDbCircle
8
0
10
-0.75
20
0.75
30
0
40
0.262
100
AcDbArc
50
90
51
180
0
LINE
5
63FC
330
63E9
100
AcDbEntity
100
AcDbLine
8
0
10
-1.012
20
0.75
30
0
11
-1.012
21
-0.75
31
0
0
ARC
5
63FD
330
63E9
100
AcDbEntity
100
AcDbCircle
8
0
10
-0.75
20
-0.75
30
0
40
0.262
100
AcDbArc
50
180
51
270
0
ENDSEC
0
SECTION
2
OBJECTS
0
DICTIONARY
5
63D9
330
0
100
AcDbDictionary
281
1
3
ACAD_GROUP
350
63ED
0
DICTIONARY
5
63ED
330
63D9
100
AcDbDictionary
281
1
0
ENDSEC
0
EOF