0
SECTION
2
HEADER
9
$HANDSEED
5
687B
9
$INSUNITS
70
1
9
$ACADVER
1
AC1021
0
ENDSEC
0
SECTION
2
CLASSES
0
ENDSEC
0
SECTION
2
TABLES
0
TABLE
2
LTYPE
5
6879
330
0
100
AcDbSymbolTable
70
5
0
LTYPE
5
6852
330
6879
100
AcDbSymbolTableRecord
100
AcDbLinetypeTableRecord
2
CONTINUOUS
3
______
70
0
72
65
73
0
40
0
0
LTYPE
5
6853
330
6879
100
AcDbSymbolTableRecord
100
AcDbLinetypeTableRecord
2
DASHED
3
_ _ _ 
70
0
72
65
73
2
40
10
49
5
74
0
49
-5
74
0
0
LTYPE
5
6854
330
6879
100
AcDbSymbolTableRecord
100
AcDbLinetypeTableRecord
2
DOTTED
3
. . . 
70
0
72
65
73
2
40
5
49
0
74
0
49
-5
74
0
0
LTYPE
5
6856
330
6879
100
AcDbSymbolTableRecord
100
AcDbLinetypeTableRecord
2
ByBlock
3

70
0
72
65
73
0
40
0
0
LTYPE
5
6857
330
6879
100
AcDbSymbolTableRecord
100
AcDbLinetypeTableRecord
2
ByLayer
3

70
0
72
65
73
0
40
0
0
ENDTAB
0
TABLE
2
LAYER
5
687A
330
0
100
AcDbSymbolTable
70
1
0
LAYER
5
6855
330
687A
100
AcDbSymbolTableRecord
100
AcDbLayerTableRecord
2
0
62
7
70
0
6
CONTINUOUS
390
1
0
ENDTAB
0
TABLE
2
VPORT
5
6858
330
0
100
AcDbSymbolTable
70
1
0
VPORT
5
685E
330
6858
100
AcDbSymbolTableRecord
100
AcDbViewportTableRecord
2
*ACTIVE
40
1000
70
0
0
ENDTAB
0
TABLE
2
STYLE
5
6859
330
0
100
AcDbSymbolTable
70
1
0
STYLE
5
685F
330
6859
100
AcDbSymbolTableRecord
100
AcDbTextStyleTableRecord
2
standard
70
0
40
0
41
1
50
0
71
0
42
1
3
txt
4

0
ENDTAB
0
TABLE
2
VIEW
5
685A
330
0
100
AcDbSymbolTable
70
0
0
ENDTAB
0
TABLE
2
UCS
5
685B
330
0
100
AcDbSymbolTable
70
0
0
ENDTAB
0
TABLE
2
APPID
5
685C
330
0
100
AcDbSymbolTable
70
1
0
APPID
5
6860
330
685C
100
AcDbSymbolTableRecord
100
AcDbRegAppTableRecord
2
ACAD
70
0
0
ENDTAB
0
TABLE
2
DIMSTYLE
5
685D
330
0
100
AcDbSymbolTable
100
AcDbDimStyleTable
70
0
71
1
0
ENDTAB
0
TABLE
2
BLOCK_RECORD
5
6876
330
0
100
AcDbSymbolTable
70
2
0
BLOCK_RECORD
5
6877
330
6876
100
AcDbSymbolTableRecord
100
AcDbBlockTableRecord
2
*Model_Space
70
0
280
0
281
1
0
BLOCK_RECORD
5
6878
330
6876
100
AcDbSymbolTableRecord
100
AcDbBlockTableRecord
2
*Paper_Space
70
0
280
0
281
1
0
ENDTAB
0
ENDSEC
0
SECTION
2
BLOCKS
0
BLOCK
5
6861
330
0
100
AcDbEntity
100
AcDbBlockBegin
2
*Model_Space
70
0
10
0
20
0
30
0
3
*Model_Space
1

0
ENDBLK
5
6862
330
0
100
AcDbEntity
100
AcDbBlockEnd
0
BLOCK
5
6863
330
0
100
AcDbEntity
100
AcDbBlockBegin
2
*Paper_Space
70
0
10
0
20
0
30
0
3
*Paper_Space
1

0
ENDBLK
5
6864
330
0
100
AcDbEntity
100
AcDbBlockEnd
0
ENDSEC
0
SECTION
2
ENTITIES
0
LINE
5
6866
330
6861
100
AcDbEntity
100
AcDbLine
8
0
10
-2.76
20
-3
30
0
11
2.76
21
-3
31
0
0
ARC
5
6867
330
6861
100
AcDbEntity
100
AcDbCircle
8
0
10
2.76
20
-2.76
30
0
40
0.24
100
AcDbArc
50
270
51
360
0
LINE
5
6868
330
6861
100
AcDbEntity
100
AcDbLine
8
0
10
3
20
-2.76
30
0
11
3
21
2.76
31
0
0
ARC
5
6869
330
6861
100
AcDbEntity
100
AcDbCircle
8
0
10
2.76
20
2.76
30
0
40
0.24
100
AcDbArc
50
0
51
90
0
LINE
5
686A
330
6861
100
AcDbEntity
100
AcDbLine
8
0
10
2.76
20
3
30
0
11
-2.76
21
3
31
0
0
ARC
5
686B
330
6861
100
AcDbEntity
100
AcDbCircle
8
0
10
-2.76
20
2.76
30
0
40
0.24
100
AcDbArc
50
90
51
180
0
LINE
5
686C
330
6861
100
AcDbEntity
100
AcDbLine
8
0
10
-3
20
2.76
30
0
11
-3
21
-2.76
31
0
0
ARC
5
686D
330
6861
100
AcDbEntity
100
AcDbCircle
8
0
10
-2.76
20
-2.76
30
0
40
0.24
100
AcDbArc
50
180
51
270
0
LINE
5
686E
330
6861
100
AcDbEntity
100
AcDbLine
8
0
10
-2.76
20
-2.88
30
0
11
2.76
21
-2.88
31
0
0
ARC
5
686F
330
6861
100
AcDbEntity
100
AcDbCircle
8
0
10
2.76
20
-2.76
30
0
40
0.12
100
AcDbArc
50
270
51
360
0
LINE
5
6870
330
6861
100
AcDbEntity
100
AcDbLine
8
0
10
2.88
20
-2.76
30
0
11
2.88
21
2.76
31
0
0
ARC
5
6871
330
6861
100
AcDbEntity
100
AcDbCircle
8
0
10
2.76
20
2.76
30
0
40
0.12
100
AcDbArc
50
0
51
90
0
LINE
5
6872
330
6861
100
AcDbEntity
100
AcDbLine
8
0
10
2.76
20
2.88
30
0
11
-2.76
21
2.88
31
0
0
ARC
5
6873
330
6861
100
AcDbEntity
100
AcDbCircle
8
0
10
-2.76
20
2.76
30
0
40
0.12
100
AcDbArc
50
90
51
180
0
LINE
5
6874
330
6861
100
AcDbEntity
100
AcDbLine
8
0
10
-2.88
20
2.76
30
0
11
-2.88
21
-2.76
31
0
0
ARC
5
6875
330
6861
100
AcDbEntity
100
AcDbCircle
8
0
10
-2.76
20
-2.76
30
0
40
0.12
100
AcDbArc
50
180
51
270
0
ENDSEC
0
SECTION
2
OBJECTS
0
DICTIONARY
5
6851
330
0
100
AcDbDictionary
281
1
3
ACAD_GROUP
350
6865
0
DICTIONARY
5
6865
330
6851
100
AcDbDictionary
281
1
0
ENDSEC
0
EOF