0
SECTION
2
HEADER
9
$HANDSEED
5
4F7B
9
$INSUNITS
70
1
9
$ACADVER
1
AC1021
0
ENDSEC
0
SECTION
2
CLASSES
0
ENDSEC
0
SECTION
2
TABLES
0
TABLE
2
LTYPE
5
4F79
330
0
100
AcDbSymbolTable
70
5
0
LTYPE
5
4F52
330
4F79
100
AcDbSymbolTableRecord
100
AcDbLinetypeTableRecord
2
CONTINUOUS
3
______
70
0
72
65
73
0
40
0
0
LTYPE
5
4F53
330
4F79
100
AcDbSymbolTableRecord
100
AcDbLinetypeTableRecord
2
DASHED
3
_ _ _ 
70
0
72
65
73
2
40
10
49
5
74
0
49
-5
74
0
0
LTYPE
5
4F54
330
4F79
100
AcDbSymbolTableRecord
100
AcDbLinetypeTableRecord
2
DOTTED
3
. . . 
70
0
72
65
73
2
40
5
49
0
74
0
49
-5
74
0
0
LTYPE
5
4F56
330
4F79
100
AcDbSymbolTableRecord
100
AcDbLinetypeTableRecord
2
ByBlock
3

70
0
72
65
73
0
40
0
0
LTYPE
5
4F57
330
4F79
100
AcDbSymbolTableRecord
100
AcDbLinetypeTableRecord
2
ByLayer
3

70
0
72
65
73
0
40
0
0
ENDTAB
0
TABLE
2
LAYER
5
4F7A
330
0
100
AcDbSymbolTable
70
1
0
LAYER
5
4F55
330
4F7A
100
AcDbSymbolTableRecord
100
AcDbLayerTableRecord
2
0
62
7
70
0
6
CONTINUOUS
390
1
0
ENDTAB
0
TABLE
2
VPORT
5
4F58
330
0
100
AcDbSymbolTable
70
1
0
VPORT
5
4F5E
330
4F58
100
AcDbSymbolTableRecord
100
AcDbViewportTableRecord
2
*ACTIVE
40
1000
70
0
0
ENDTAB
0
TABLE
2
STYLE
5
4F59
330
0
100
AcDbSymbolTable
70
1
0
STYLE
5
4F5F
330
4F59
100
AcDbSymbolTableRecord
100
AcDbTextStyleTableRecord
2
standard
70
0
40
0
41
1
50
0
71
0
42
1
3
txt
4

0
ENDTAB
0
TABLE
2
VIEW
5
4F5A
330
0
100
AcDbSymbolTable
70
0
0
ENDTAB
0
TABLE
2
UCS
5
4F5B
330
0
100
AcDbSymbolTable
70
0
0
ENDTAB
0
TABLE
2
APPID
5
4F5C
330
0
100
AcDbSymbolTable
70
1
0
APPID
5
4F60
330
4F5C
100
AcDbSymbolTableRecord
100
AcDbRegAppTableRecord
2
ACAD
70
0
0
ENDTAB
0
TABLE
2
DIMSTYLE
5
4F5D
330
0
100
AcDbSymbolTable
100
AcDbDimStyleTable
70
0
71
1
0
ENDTAB
0
TABLE
2
BLOCK_RECORD
5
4F76
330
0
100
AcDbSymbolTable
70
2
0
BLOCK_RECORD
5
4F77
330
4F76
100
AcDbSymbolTableRecord
100
AcDbBlockTableRecord
2
*Model_Space
70
0
280
0
281
1
0
BLOCK_RECORD
5
4F78
330
4F76
100
AcDbSymbolTableRecord
100
AcDbBlockTableRecord
2
*Paper_Space
70
0
280
0
281
1
0
ENDTAB
0
ENDSEC
0
SECTION
2
BLOCKS
0
BLOCK
5
4F61
330
0
100
AcDbEntity
100
AcDbBlockBegin
2
*Model_Space
70
0
10
0
20
0
30
0
3
*Model_Space
1

0
ENDBLK
5
4F62
330
0
100
AcDbEntity
100
AcDbBlockEnd
0
BLOCK
5
4F63
330
0
100
AcDbEntity
100
AcDbBlockBegin
2
*Paper_Space
70
0
10
0
20
0
30
0
3
*Paper_Space
1

0
ENDBLK
5
4F64
330
0
100
AcDbEntity
100
AcDbBlockEnd
0
ENDSEC
0
SECTION
2
ENTITIES
0
LINE
5
4F66
330
4F61
100
AcDbEntity
100
AcDbLine
8
0
10
-1
20
-1.5
30
0
11
1
21
-1.5
31
0
0
ARC
5
4F67
330
4F61
100
AcDbEntity
100
AcDbCircle
8
0
10
1
20
-1
30
0
40
0.5
100
AcDbArc
50
270
51
360
0
LINE
5
4F68
330
4F61
100
AcDbEntity
100
AcDbLine
8
0
10
1.5
20
-1
30
0
11
1.5
21
1
31
0
0
ARC
5
4F69
330
4F61
100
AcDbEntity
100
AcDbCircle
8
0
10
1
20
1
30
0
40
0.5
100
AcDbArc
50
0
51
90
0
LINE
5
4F6A
330
4F61
100
AcDbEntity
100
AcDbLine
8
0
10
1
20
1.5
30
0
11
-1
21
1.5
31
0
0
ARC
5
4F6B
330
4F61
100
AcDbEntity
100
AcDbCircle
8
0
10
-1
20
1
30
0
40
0.5
100
AcDbArc
50
90
51
180
0
LINE
5
4F6C
330
4F61
100
AcDbEntity
100
AcDbLine
8
0
10
-1.5
20
1
30
0
11
-1.5
21
-1
31
0
0
ARC
5
4F6D
330
4F61
100
AcDbEntity
100
AcDbCircle
8
0
10
-1
20
-1
30
0
40
0.5
100
AcDbArc
50
180
51
270
0
LINE
5
4F6E
330
4F61
100
AcDbEntity
100
AcDbLine
8
0
10
-1
20
-1.25
30
0
11
1
21
-1.25
31
0
0
ARC
5
4F6F
330
4F61
100
AcDbEntity
100
AcDbCircle
8
0
10
1
20
-1
30
0
40
0.25
100
AcDbArc
50
270
51
360
0
LINE
5
4F70
330
4F61
100
AcDbEntity
100
AcDbLine
8
0
10
1.25
20
-1
30
0
11
1.25
21
1
31
0
0
ARC
5
4F71
330
4F61
100
AcDbEntity
100
AcDbCircle
8
0
10
1
20
1
30
0
40
0.25
100
AcDbArc
50
0
51
90
0
LINE
5
4F72
330
4F61
100
AcDbEntity
100
AcDbLine
8
0
10
1
20
1.25
30
0
11
-1
21
1.25
31
0
0
ARC
5
4F73
330
4F61
100
AcDbEntity
100
AcDbCircle
8
0
10
-1
20
1
30
0
40
0.25
100
AcDbArc
50
90
51
180
0
LINE
5
4F74
330
4F61
100
AcDbEntity
100
AcDbLine
8
0
10
-1.25
20
1
30
0
11
-1.25
21
-1
31
0
0
ARC
5
4F75
330
4F61
100
AcDbEntity
100
AcDbCircle
8
0
10
-1
20
-1
30
0
40
0.25
100
AcDbArc
50
180
51
270
0
ENDSEC
0
SECTION
2
OBJECTS
0
DICTIONARY
5
4F51
330
0
100
AcDbDictionary
281
1
3
ACAD_GROUP
350
4F65
0
DICTIONARY
5
4F65
330
4F51
100
AcDbDictionary
281
1
0
ENDSEC
0
EOF