0
SECTION
2
HEADER
9
$HANDSEED
5
4D83
9
$INSUNITS
70
1
9
$ACADVER
1
AC1021
0
ENDSEC
0
SECTION
2
CLASSES
0
ENDSEC
0
SECTION
2
TABLES
0
TABLE
2
LTYPE
5
4D81
330
0
100
AcDbSymbolTable
70
5
0
LTYPE
5
4D5A
330
4D81
100
AcDbSymbolTableRecord
100
AcDbLinetypeTableRecord
2
CONTINUOUS
3
______
70
0
72
65
73
0
40
0
0
LTYPE
5
4D5B
330
4D81
100
AcDbSymbolTableRecord
100
AcDbLinetypeTableRecord
2
DASHED
3
_ _ _ 
70
0
72
65
73
2
40
10
49
5
74
0
49
-5
74
0
0
LTYPE
5
4D5C
330
4D81
100
AcDbSymbolTableRecord
100
AcDbLinetypeTableRecord
2
DOTTED
3
. . . 
70
0
72
65
73
2
40
5
49
0
74
0
49
-5
74
0
0
LTYPE
5
4D5E
330
4D81
100
AcDbSymbolTableRecord
100
AcDbLinetypeTableRecord
2
ByBlock
3

70
0
72
65
73
0
40
0
0
LTYPE
5
4D5F
330
4D81
100
AcDbSymbolTableRecord
100
AcDbLinetypeTableRecord
2
ByLayer
3

70
0
72
65
73
0
40
0
0
ENDTAB
0
TABLE
2
LAYER
5
4D82
330
0
100
AcDbSymbolTable
70
1
0
LAYER
5
4D5D
330
4D82
100
AcDbSymbolTableRecord
100
AcDbLayerTableRecord
2
0
62
7
70
0
6
CONTINUOUS
390
1
0
ENDTAB
0
TABLE
2
VPORT
5
4D60
330
0
100
AcDbSymbolTable
70
1
0
VPORT
5
4D66
330
4D60
100
AcDbSymbolTableRecord
100
AcDbViewportTableRecord
2
*ACTIVE
40
1000
70
0
0
ENDTAB
0
TABLE
2
STYLE
5
4D61
330
0
100
AcDbSymbolTable
70
1
0
STYLE
5
4D67
330
4D61
100
AcDbSymbolTableRecord
100
AcDbTextStyleTableRecord
2
standard
70
0
40
0
41
1
50
0
71
0
42
1
3
txt
4

0
ENDTAB
0
TABLE
2
VIEW
5
4D62
330
0
100
AcDbSymbolTable
70
0
0
ENDTAB
0
TABLE
2
UCS
5
4D63
330
0
100
AcDbSymbolTable
70
0
0
ENDTAB
0
TABLE
2
APPID
5
4D64
330
0
100
AcDbSymbolTable
70
1
0
APPID
5
4D68
330
4D64
100
AcDbSymbolTableRecord
100
AcDbRegAppTableRecord
2
ACAD
70
0
0
ENDTAB
0
TABLE
2
DIMSTYLE
5
4D65
330
0
100
AcDbSymbolTable
100
AcDbDimStyleTable
70
0
71
1
0
ENDTAB
0
TABLE
2
BLOCK_RECORD
5
4D7E
330
0
100
AcDbSymbolTable
70
2
0
BLOCK_RECORD
5
4D7F
330
4D7E
100
AcDbSymbolTableRecord
100
AcDbBlockTableRecord
2
*Model_Space
70
0
280
0
281
1
0
BLOCK_RECORD
5
4D80
330
4D7E
100
AcDbSymbolTableRecord
100
AcDbBlockTableRecord
2
*Paper_Space
70
0
280
0
281
1
0
ENDTAB
0
ENDSEC
0
SECTION
2
BLOCKS
0
BLOCK
5
4D69
330
0
100
AcDbEntity
100
AcDbBlockBegin
2
*Model_Space
70
0
10
0
20
0
30
0
3
*Model_Space
1

0
ENDBLK
5
4D6A
330
0
100
AcDbEntity
100
AcDbBlockEnd
0
BLOCK
5
4D6B
330
0
100
AcDbEntity
100
AcDbBlockBegin
2
*Paper_Space
70
0
10
0
20
0
30
0
3
*Paper_Space
1

0
ENDBLK
5
4D6C
330
0
100
AcDbEntity
100
AcDbBlockEnd
0
ENDSEC
0
SECTION
2
ENTITIES
0
LINE
5
4D6E
330
4D69
100
AcDbEntity
100
AcDbLine
8
0
10
-0.51
20
-0.75
30
0
11
0.51
21
-0.75
31
0
0
ARC
5
4D6F
330
4D69
100
AcDbEntity
100
AcDbCircle
8
0
10
0.51
20
-0.51
30
0
40
0.24
100
AcDbArc
50
270
51
360
0
LINE
5
4D70
330
4D69
100
AcDbEntity
100
AcDbLine
8
0
10
0.75
20
-0.51
30
0
11
0.75
21
0.51
31
0
0
ARC
5
4D71
330
4D69
100
AcDbEntity
100
AcDbCircle
8
0
10
0.51
20
0.51
30
0
40
0.24
100
AcDbArc
50
0
51
90
0
LINE
5
4D72
330
4D69
100
AcDbEntity
100
AcDbLine
8
0
10
0.51
20
0.75
30
0
11
-0.51
21
0.75
31
0
0
ARC
5
4D73
330
4D69
100
AcDbEntity
100
AcDbCircle
8
0
10
-0.51
20
0.51
30
0
40
0.24
100
AcDbArc
50
90
51
180
0
LINE
5
4D74
330
4D69
100
AcDbEntity
100
AcDbLine
8
0
10
-0.75
20
0.51
30
0
11
-0.75
21
-0.51
31
0
0
ARC
5
4D75
330
4D69
100
AcDbEntity
100
AcDbCircle
8
0
10
-0.51
20
-0.51
30
0
40
0.24
100
AcDbArc
50
180
51
270
0
LINE
5
4D76
330
4D69
100
AcDbEntity
100
AcDbLine
8
0
10
-0.51
20
-0.63
30
0
11
0.51
21
-0.63
31
0
0
ARC
5
4D77
330
4D69
100
AcDbEntity
100
AcDbCircle
8
0
10
0.51
20
-0.51
30
0
40
0.12
100
AcDbArc
50
270
51
360
0
LINE
5
4D78
330
4D69
100
AcDbEntity
100
AcDbLine
8
0
10
0.63
20
-0.51
30
0
11
0.63
21
0.51
31
0
0
ARC
5
4D79
330
4D69
100
AcDbEntity
100
AcDbCircle
8
0
10
0.51
20
0.51
30
0
40
0.12
100
AcDbArc
50
0
51
90
0
LINE
5
4D7A
330
4D69
100
AcDbEntity
100
AcDbLine
8
0
10
0.51
20
0.63
30
0
11
-0.51
21
0.63
31
0
0
ARC
5
4D7B
330
4D69
100
AcDbEntity
100
AcDbCircle
8
0
10
-0.51
20
0.51
30
0
40
0.12
100
AcDbArc
50
90
51
180
0
LINE
5
4D7C
330
4D69
100
AcDbEntity
100
AcDbLine
8
0
10
-0.63
20
0.51
30
0
11
-0.63
21
-0.51
31
0
0
ARC
5
4D7D
330
4D69
100
AcDbEntity
100
AcDbCircle
8
0
10
-0.51
20
-0.51
30
0
40
0.12
100
AcDbArc
50
180
51
270
0
ENDSEC
0
SECTION
2
OBJECTS
0
DICTIONARY
5
4D59
330
0
100
AcDbDictionary
281
1
3
ACAD_GROUP
350
4D6D
0
DICTIONARY
5
4D6D
330
4D59
100
AcDbDictionary
281
1
0
ENDSEC
0
EOF