0
SECTION
2
HEADER
9
$HANDSEED
5
4DD7
9
$INSUNITS
70
1
9
$ACADVER
1
AC1021
0
ENDSEC
0
SECTION
2
CLASSES
0
ENDSEC
0
SECTION
2
TABLES
0
TABLE
2
LTYPE
5
4DD5
330
0
100
AcDbSymbolTable
70
5
0
LTYPE
5
4DAE
330
4DD5
100
AcDbSymbolTableRecord
100
AcDbLinetypeTableRecord
2
CONTINUOUS
3
______
70
0
72
65
73
0
40
0
0
LTYPE
5
4DAF
330
4DD5
100
AcDbSymbolTableRecord
100
AcDbLinetypeTableRecord
2
DASHED
3
_ _ _ 
70
0
72
65
73
2
40
10
49
5
74
0
49
-5
74
0
0
LTYPE
5
4DB0
330
4DD5
100
AcDbSymbolTableRecord
100
AcDbLinetypeTableRecord
2
DOTTED
3
. . . 
70
0
72
65
73
2
40
5
49
0
74
0
49
-5
74
0
0
LTYPE
5
4DB2
330
4DD5
100
AcDbSymbolTableRecord
100
AcDbLinetypeTableRecord
2
ByBlock
3

70
0
72
65
73
0
40
0
0
LTYPE
5
4DB3
330
4DD5
100
AcDbSymbolTableRecord
100
AcDbLinetypeTableRecord
2
ByLayer
3

70
0
72
65
73
0
40
0
0
ENDTAB
0
TABLE
2
LAYER
5
4DD6
330
0
100
AcDbSymbolTable
70
1
0
LAYER
5
4DB1
330
4DD6
100
AcDbSymbolTableRecord
100
AcDbLayerTableRecord
2
0
62
7
70
0
6
CONTINUOUS
390
1
0
ENDTAB
0
TABLE
2
VPORT
5
4DB4
330
0
100
AcDbSymbolTable
70
1
0
VPORT
5
4DBA
330
4DB4
100
AcDbSymbolTableRecord
100
AcDbViewportTableRecord
2
*ACTIVE
40
1000
70
0
0
ENDTAB
0
TABLE
2
STYLE
5
4DB5
330
0
100
AcDbSymbolTable
70
1
0
STYLE
5
4DBB
330
4DB5
100
AcDbSymbolTableRecord
100
AcDbTextStyleTableRecord
2
standard
70
0
40
0
41
1
50
0
71
0
42
1
3
txt
4

0
ENDTAB
0
TABLE
2
VIEW
5
4DB6
330
0
100
AcDbSymbolTable
70
0
0
ENDTAB
0
TABLE
2
UCS
5
4DB7
330
0
100
AcDbSymbolTable
70
0
0
ENDTAB
0
TABLE
2
APPID
5
4DB8
330
0
100
AcDbSymbolTable
70
1
0
APPID
5
4DBC
330
4DB8
100
AcDbSymbolTableRecord
100
AcDbRegAppTableRecord
2
ACAD
70
0
0
ENDTAB
0
TABLE
2
DIMSTYLE
5
4DB9
330
0
100
AcDbSymbolTable
100
AcDbDimStyleTable
70
0
71
1
0
ENDTAB
0
TABLE
2
BLOCK_RECORD
5
4DD2
330
0
100
AcDbSymbolTable
70
2
0
BLOCK_RECORD
5
4DD3
330
4DD2
100
AcDbSymbolTableRecord
100
AcDbBlockTableRecord
2
*Model_Space
70
0
280
0
281
1
0
BLOCK_RECORD
5
4DD4
330
4DD2
100
AcDbSymbolTableRecord
100
AcDbBlockTableRecord
2
*Paper_Space
70
0
280
0
281
1
0
ENDTAB
0
ENDSEC
0
SECTION
2
BLOCKS
0
BLOCK
5
4DBD
330
0
100
AcDbEntity
100
AcDbBlockBegin
2
*Model_Space
70
0
10
0
20
0
30
0
3
*Model_Space
1

0
ENDBLK
5
4DBE
330
0
100
AcDbEntity
100
AcDbBlockEnd
0
BLOCK
5
4DBF
330
0
100
AcDbEntity
100
AcDbBlockBegin
2
*Paper_Space
70
0
10
0
20
0
30
0
3
*Paper_Space
1

0
ENDBLK
5
4DC0
330
0
100
AcDbEntity
100
AcDbBlockEnd
0
ENDSEC
0
SECTION
2
ENTITIES
0
LINE
5
4DC2
330
4DBD
100
AcDbEntity
100
AcDbLine
8
0
10
-0.25
20
-0.75
30
0
11
0.25
21
-0.75
31
0
0
ARC
5
4DC3
330
4DBD
100
AcDbEntity
100
AcDbCircle
8
0
10
0.25
20
-0.25
30
0
40
0.5
100
AcDbArc
50
270
51
360
0
LINE
5
4DC4
330
4DBD
100
AcDbEntity
100
AcDbLine
8
0
10
0.75
20
-0.25
30
0
11
0.75
21
0.25
31
0
0
ARC
5
4DC5
330
4DBD
100
AcDbEntity
100
AcDbCircle
8
0
10
0.25
20
0.25
30
0
40
0.5
100
AcDbArc
50
0
51
90
0
LINE
5
4DC6
330
4DBD
100
AcDbEntity
100
AcDbLine
8
0
10
0.25
20
0.75
30
0
11
-0.25
21
0.75
31
0
0
ARC
5
4DC7
330
4DBD
100
AcDbEntity
100
AcDbCircle
8
0
10
-0.25
20
0.25
30
0
40
0.5
100
AcDbArc
50
90
51
180
0
LINE
5
4DC8
330
4DBD
100
AcDbEntity
100
AcDbLine
8
0
10
-0.75
20
0.25
30
0
11
-0.75
21
-0.25
31
0
0
ARC
5
4DC9
330
4DBD
100
AcDbEntity
100
AcDbCircle
8
0
10
-0.25
20
-0.25
30
0
40
0.5
100
AcDbArc
50
180
51
270
0
LINE
5
4DCA
330
4DBD
100
AcDbEntity
100
AcDbLine
8
0
10
-0.25
20
-0.5
30
0
11
0.25
21
-0.5
31
0
0
ARC
5
4DCB
330
4DBD
100
AcDbEntity
100
AcDbCircle
8
0
10
0.25
20
-0.25
30
0
40
0.25
100
AcDbArc
50
270
51
360
0
LINE
5
4DCC
330
4DBD
100
AcDbEntity
100
AcDbLine
8
0
10
0.5
20
-0.25
30
0
11
0.5
21
0.25
31
0
0
ARC
5
4DCD
330
4DBD
100
AcDbEntity
100
AcDbCircle
8
0
10
0.25
20
0.25
30
0
40
0.25
100
AcDbArc
50
0
51
90
0
LINE
5
4DCE
330
4DBD
100
AcDbEntity
100
AcDbLine
8
0
10
0.25
20
0.5
30
0
11
-0.25
21
0.5
31
0
0
ARC
5
4DCF
330
4DBD
100
AcDbEntity
100
AcDbCircle
8
0
10
-0.25
20
0.25
30
0
40
0.25
100
AcDbArc
50
90
51
180
0
LINE
5
4DD0
330
4DBD
100
AcDbEntity
100
AcDbLine
8
0
10
-0.5
20
0.25
30
0
11
-0.5
21
-0.25
31
0
0
ARC
5
4DD1
330
4DBD
100
AcDbEntity
100
AcDbCircle
8
0
10
-0.25
20
-0.25
30
0
40
0.25
100
AcDbArc
50
180
51
270
0
ENDSEC
0
SECTION
2
OBJECTS
0
DICTIONARY
5
4DAD
330
0
100
AcDbDictionary
281
1
3
ACAD_GROUP
350
4DC1
0
DICTIONARY
5
4DC1
330
4DAD
100
AcDbDictionary
281
1
0
ENDSEC
0
EOF