0
SECTION
2
HEADER
9
$HANDSEED
5
5EB7
9
$INSUNITS
70
1
9
$ACADVER
1
AC1021
0
ENDSEC
0
SECTION
2
CLASSES
0
ENDSEC
0
SECTION
2
TABLES
0
TABLE
2
LTYPE
5
5EB5
330
0
100
AcDbSymbolTable
70
5
0
LTYPE
5
5E96
330
5EB5
100
AcDbSymbolTableRecord
100
AcDbLinetypeTableRecord
2
CONTINUOUS
3
______
70
0
72
65
73
0
40
0
0
LTYPE
5
5E97
330
5EB5
100
AcDbSymbolTableRecord
100
AcDbLinetypeTableRecord
2
DASHED
3
_ _ _ 
70
0
72
65
73
2
40
10
49
5
74
0
49
-5
74
0
0
LTYPE
5
5E98
330
5EB5
100
AcDbSymbolTableRecord
100
AcDbLinetypeTableRecord
2
DOTTED
3
. . . 
70
0
72
65
73
2
40
5
49
0
74
0
49
-5
74
0
0
LTYPE
5
5E9A
330
5EB5
100
AcDbSymbolTableRecord
100
AcDbLinetypeTableRecord
2
ByBlock
3

70
0
72
65
73
0
40
0
0
LTYPE
5
5E9B
330
5EB5
100
AcDbSymbolTableRecord
100
AcDbLinetypeTableRecord
2
ByLayer
3

70
0
72
65
73
0
40
0
0
ENDTAB
0
TABLE
2
LAYER
5
5EB6
330
0
100
AcDbSymbolTable
70
1
0
LAYER
5
5E99
330
5EB6
100
AcDbSymbolTableRecord
100
AcDbLayerTableRecord
2
0
62
7
70
0
6
CONTINUOUS
390
1
0
ENDTAB
0
TABLE
2
VPORT
5
5E9C
330
0
100
AcDbSymbolTable
70
1
0
VPORT
5
5EA2
330
5E9C
100
AcDbSymbolTableRecord
100
AcDbViewportTableRecord
2
*ACTIVE
40
1000
70
0
0
ENDTAB
0
TABLE
2
STYLE
5
5E9D
330
0
100
AcDbSymbolTable
70
1
0
STYLE
5
5EA3
330
5E9D
100
AcDbSymbolTableRecord
100
AcDbTextStyleTableRecord
2
standard
70
0
40
0
41
1
50
0
71
0
42
1
3
txt
4

0
ENDTAB
0
TABLE
2
VIEW
5
5E9E
330
0
100
AcDbSymbolTable
70
0
0
ENDTAB
0
TABLE
2
UCS
5
5E9F
330
0
100
AcDbSymbolTable
70
0
0
ENDTAB
0
TABLE
2
APPID
5
5EA0
330
0
100
AcDbSymbolTable
70
1
0
APPID
5
5EA4
330
5EA0
100
AcDbSymbolTableRecord
100
AcDbRegAppTableRecord
2
ACAD
70
0
0
ENDTAB
0
TABLE
2
DIMSTYLE
5
5EA1
330
0
100
AcDbSymbolTable
100
AcDbDimStyleTable
70
0
71
1
0
ENDTAB
0
TABLE
2
BLOCK_RECORD
5
5EB2
330
0
100
AcDbSymbolTable
70
2
0
BLOCK_RECORD
5
5EB3
330
5EB2
100
AcDbSymbolTableRecord
100
AcDbBlockTableRecord
2
*Model_Space
70
0
280
0
281
1
0
BLOCK_RECORD
5
5EB4
330
5EB2
100
AcDbSymbolTableRecord
100
AcDbBlockTableRecord
2
*Paper_Space
70
0
280
0
281
1
0
ENDTAB
0
ENDSEC
0
SECTION
2
BLOCKS
0
BLOCK
5
5EA5
330
0
100
AcDbEntity
100
AcDbBlockBegin
2
*Model_Space
70
0
10
0
20
0
30
0
3
*Model_Space
1

0
ENDBLK
5
5EA6
330
0
100
AcDbEntity
100
AcDbBlockEnd
0
BLOCK
5
5EA7
330
0
100
AcDbEntity
100
AcDbBlockBegin
2
*Paper_Space
70
0
10
0
20
0
30
0
3
*Paper_Space
1

0
ENDBLK
5
5EA8
330
0
100
AcDbEntity
100
AcDbBlockEnd
0
ENDSEC
0
SECTION
2
ENTITIES
0
LINE
5
5EAA
330
5EA5
100
AcDbEntity
100
AcDbLine
8
0
10
-2.5
20
-2.5
30
0
11
2.5
21
-2.5
31
0
0
LINE
5
5EAB
330
5EA5
100
AcDbEntity
100
AcDbLine
8
0
10
2.5
20
-2.5
30
0
11
2.5
21
2.5
31
0
0
LINE
5
5EAC
330
5EA5
100
AcDbEntity
100
AcDbLine
8
0
10
2.5
20
2.5
30
0
11
-2.5
21
2.5
31
0
0
LINE
5
5EAD
330
5EA5
100
AcDbEntity
100
AcDbLine
8
0
10
-2.5
20
2.5
30
0
11
-2.5
21
-2.5
31
0
0
LINE
5
5EAE
330
5EA5
100
AcDbEntity
100
AcDbLine
8
0
10
-2.25
20
-2.25
30
0
11
2.25
21
-2.25
31
0
0
LINE
5
5EAF
330
5EA5
100
AcDbEntity
100
AcDbLine
8
0
10
2.25
20
-2.25
30
0
11
2.25
21
2.25
31
0
0
LINE
5
5EB0
330
5EA5
100
AcDbEntity
100
AcDbLine
8
0
10
2.25
20
2.25
30
0
11
-2.25
21
2.25
31
0
0
LINE
5
5EB1
330
5EA5
100
AcDbEntity
100
AcDbLine
8
0
10
-2.25
20
2.25
30
0
11
-2.25
21
-2.25
31
0
0
ENDSEC
0
SECTION
2
OBJECTS
0
DICTIONARY
5
5E95
330
0
100
AcDbDictionary
281
1
3
ACAD_GROUP
350
5EA9
0
DICTIONARY
5
5EA9
330
5E95
100
AcDbDictionary
281
1
0
ENDSEC
0
EOF