0
SECTION
2
HEADER
9
$HANDSEED
5
5355
9
$INSUNITS
70
1
9
$ACADVER
1
AC1021
0
ENDSEC
0
SECTION
2
CLASSES
0
ENDSEC
0
SECTION
2
TABLES
0
TABLE
2
LTYPE
5
5353
330
0
100
AcDbSymbolTable
70
5
0
LTYPE
5
5334
330
5353
100
AcDbSymbolTableRecord
100
AcDbLinetypeTableRecord
2
CONTINUOUS
3
______
70
0
72
65
73
0
40
0
0
LTYPE
5
5335
330
5353
100
AcDbSymbolTableRecord
100
AcDbLinetypeTableRecord
2
DASHED
3
_ _ _ 
70
0
72
65
73
2
40
10
49
5
74
0
49
-5
74
0
0
LTYPE
5
5336
330
5353
100
AcDbSymbolTableRecord
100
AcDbLinetypeTableRecord
2
DOTTED
3
. . . 
70
0
72
65
73
2
40
5
49
0
74
0
49
-5
74
0
0
LTYPE
5
5338
330
5353
100
AcDbSymbolTableRecord
100
AcDbLinetypeTableRecord
2
ByBlock
3

70
0
72
65
73
0
40
0
0
LTYPE
5
5339
330
5353
100
AcDbSymbolTableRecord
100
AcDbLinetypeTableRecord
2
ByLayer
3

70
0
72
65
73
0
40
0
0
ENDTAB
0
TABLE
2
LAYER
5
5354
330
0
100
AcDbSymbolTable
70
1
0
LAYER
5
5337
330
5354
100
AcDbSymbolTableRecord
100
AcDbLayerTableRecord
2
0
62
7
70
0
6
CONTINUOUS
390
1
0
ENDTAB
0
TABLE
2
VPORT
5
533A
330
0
100
AcDbSymbolTable
70
1
0
VPORT
5
5340
330
533A
100
AcDbSymbolTableRecord
100
AcDbViewportTableRecord
2
*ACTIVE
40
1000
70
0
0
ENDTAB
0
TABLE
2
STYLE
5
533B
330
0
100
AcDbSymbolTable
70
1
0
STYLE
5
5341
330
533B
100
AcDbSymbolTableRecord
100
AcDbTextStyleTableRecord
2
standard
70
0
40
0
41
1
50
0
71
0
42
1
3
txt
4

0
ENDTAB
0
TABLE
2
VIEW
5
533C
330
0
100
AcDbSymbolTable
70
0
0
ENDTAB
0
TABLE
2
UCS
5
533D
330
0
100
AcDbSymbolTable
70
0
0
ENDTAB
0
TABLE
2
APPID
5
533E
330
0
100
AcDbSymbolTable
70
1
0
APPID
5
5342
330
533E
100
AcDbSymbolTableRecord
100
AcDbRegAppTableRecord
2
ACAD
70
0
0
ENDTAB
0
TABLE
2
DIMSTYLE
5
533F
330
0
100
AcDbSymbolTable
100
AcDbDimStyleTable
70
0
71
1
0
ENDTAB
0
TABLE
2
BLOCK_RECORD
5
5350
330
0
100
AcDbSymbolTable
70
2
0
BLOCK_RECORD
5
5351
330
5350
100
AcDbSymbolTableRecord
100
AcDbBlockTableRecord
2
*Model_Space
70
0
280
0
281
1
0
BLOCK_RECORD
5
5352
330
5350
100
AcDbSymbolTableRecord
100
AcDbBlockTableRecord
2
*Paper_Space
70
0
280
0
281
1
0
ENDTAB
0
ENDSEC
0
SECTION
2
BLOCKS
0
BLOCK
5
5343
330
0
100
AcDbEntity
100
AcDbBlockBegin
2
*Model_Space
70
0
10
0
20
0
30
0
3
*Model_Space
1

0
ENDBLK
5
5344
330
0
100
AcDbEntity
100
AcDbBlockEnd
0
BLOCK
5
5345
330
0
100
AcDbEntity
100
AcDbBlockBegin
2
*Paper_Space
70
0
10
0
20
0
30
0
3
*Paper_Space
1

0
ENDBLK
5
5346
330
0
100
AcDbEntity
100
AcDbBlockEnd
0
ENDSEC
0
SECTION
2
ENTITIES
0
LINE
5
5348
330
5343
100
AcDbEntity
100
AcDbLine
8
0
10
-0.5
20
-0.5
30
0
11
0.5
21
-0.5
31
0
0
LINE
5
5349
330
5343
100
AcDbEntity
100
AcDbLine
8
0
10
0.5
20
-0.5
30
0
11
0.5
21
0.5
31
0
0
LINE
5
534A
330
5343
100
AcDbEntity
100
AcDbLine
8
0
10
0.5
20
0.5
30
0
11
-0.5
21
0.5
31
0
0
LINE
5
534B
330
5343
100
AcDbEntity
100
AcDbLine
8
0
10
-0.5
20
0.5
30
0
11
-0.5
21
-0.5
31
0
0
LINE
5
534C
330
5343
100
AcDbEntity
100
AcDbLine
8
0
10
-0.375
20
-0.375
30
0
11
0.375
21
-0.375
31
0
0
LINE
5
534D
330
5343
100
AcDbEntity
100
AcDbLine
8
0
10
0.375
20
-0.375
30
0
11
0.375
21
0.375
31
0
0
LINE
5
534E
330
5343
100
AcDbEntity
100
AcDbLine
8
0
10
0.375
20
0.375
30
0
11
-0.375
21
0.375
31
0
0
LINE
5
534F
330
5343
100
AcDbEntity
100
AcDbLine
8
0
10
-0.375
20
0.375
30
0
11
-0.375
21
-0.375
31
0
0
ENDSEC
0
SECTION
2
OBJECTS
0
DICTIONARY
5
5333
330
0
100
AcDbDictionary
281
1
3
ACAD_GROUP
350
5347
0
DICTIONARY
5
5347
330
5333
100
AcDbDictionary
281
1
0
ENDSEC
0
EOF