0
SECTION
2
HEADER
9
$HANDSEED
5
4E7F
9
$INSUNITS
70
1
9
$ACADVER
1
AC1021
0
ENDSEC
0
SECTION
2
CLASSES
0
ENDSEC
0
SECTION
2
TABLES
0
TABLE
2
LTYPE
5
4E7D
330
0
100
AcDbSymbolTable
70
5
0
LTYPE
5
4E56
330
4E7D
100
AcDbSymbolTableRecord
100
AcDbLinetypeTableRecord
2
CONTINUOUS
3
______
70
0
72
65
73
0
40
0
0
LTYPE
5
4E57
330
4E7D
100
AcDbSymbolTableRecord
100
AcDbLinetypeTableRecord
2
DASHED
3
_ _ _ 
70
0
72
65
73
2
40
10
49
5
74
0
49
-5
74
0
0
LTYPE
5
4E58
330
4E7D
100
AcDbSymbolTableRecord
100
AcDbLinetypeTableRecord
2
DOTTED
3
. . . 
70
0
72
65
73
2
40
5
49
0
74
0
49
-5
74
0
0
LTYPE
5
4E5A
330
4E7D
100
AcDbSymbolTableRecord
100
AcDbLinetypeTableRecord
2
ByBlock
3

70
0
72
65
73
0
40
0
0
LTYPE
5
4E5B
330
4E7D
100
AcDbSymbolTableRecord
100
AcDbLinetypeTableRecord
2
ByLayer
3

70
0
72
65
73
0
40
0
0
ENDTAB
0
TABLE
2
LAYER
5
4E7E
330
0
100
AcDbSymbolTable
70
1
0
LAYER
5
4E59
330
4E7E
100
AcDbSymbolTableRecord
100
AcDbLayerTableRecord
2
0
62
7
70
0
6
CONTINUOUS
390
1
0
ENDTAB
0
TABLE
2
VPORT
5
4E5C
330
0
100
AcDbSymbolTable
70
1
0
VPORT
5
4E62
330
4E5C
100
AcDbSymbolTableRecord
100
AcDbViewportTableRecord
2
*ACTIVE
40
1000
70
0
0
ENDTAB
0
TABLE
2
STYLE
5
4E5D
330
0
100
AcDbSymbolTable
70
1
0
STYLE
5
4E63
330
4E5D
100
AcDbSymbolTableRecord
100
AcDbTextStyleTableRecord
2
standard
70
0
40
0
41
1
50
0
71
0
42
1
3
txt
4

0
ENDTAB
0
TABLE
2
VIEW
5
4E5E
330
0
100
AcDbSymbolTable
70
0
0
ENDTAB
0
TABLE
2
UCS
5
4E5F
330
0
100
AcDbSymbolTable
70
0
0
ENDTAB
0
TABLE
2
APPID
5
4E60
330
0
100
AcDbSymbolTable
70
1
0
APPID
5
4E64
330
4E60
100
AcDbSymbolTableRecord
100
AcDbRegAppTableRecord
2
ACAD
70
0
0
ENDTAB
0
TABLE
2
DIMSTYLE
5
4E61
330
0
100
AcDbSymbolTable
100
AcDbDimStyleTable
70
0
71
1
0
ENDTAB
0
TABLE
2
BLOCK_RECORD
5
4E7A
330
0
100
AcDbSymbolTable
70
2
0
BLOCK_RECORD
5
4E7B
330
4E7A
100
AcDbSymbolTableRecord
100
AcDbBlockTableRecord
2
*Model_Space
70
0
280
0
281
1
0
BLOCK_RECORD
5
4E7C
330
4E7A
100
AcDbSymbolTableRecord
100
AcDbBlockTableRecord
2
*Paper_Space
70
0
280
0
281
1
0
ENDTAB
0
ENDSEC
0
SECTION
2
BLOCKS
0
BLOCK
5
4E65
330
0
100
AcDbEntity
100
AcDbBlockBegin
2
*Model_Space
70
0
10
0
20
0
30
0
3
*Model_Space
1

0
ENDBLK
5
4E66
330
0
100
AcDbEntity
100
AcDbBlockEnd
0
BLOCK
5
4E67
330
0
100
AcDbEntity
100
AcDbBlockBegin
2
*Paper_Space
70
0
10
0
20
0
30
0
3
*Paper_Space
1

0
ENDBLK
5
4E68
330
0
100
AcDbEntity
100
AcDbBlockEnd
0
ENDSEC
0
SECTION
2
ENTITIES
0
LINE
5
4E6A
330
4E65
100
AcDbEntity
100
AcDbLine
8
0
10
-0.5
20
-1
30
0
11
0.5
21
-1
31
0
0
ARC
5
4E6B
330
4E65
100
AcDbEntity
100
AcDbCircle
8
0
10
0.5
20
-0.5
30
0
40
0.5
100
AcDbArc
50
270
51
360
0
LINE
5
4E6C
330
4E65
100
AcDbEntity
100
AcDbLine
8
0
10
1
20
-0.5
30
0
11
1
21
0.5
31
0
0
ARC
5
4E6D
330
4E65
100
AcDbEntity
100
AcDbCircle
8
0
10
0.5
20
0.5
30
0
40
0.5
100
AcDbArc
50
0
51
90
0
LINE
5
4E6E
330
4E65
100
AcDbEntity
100
AcDbLine
8
0
10
0.5
20
1
30
0
11
-0.5
21
1
31
0
0
ARC
5
4E6F
330
4E65
100
AcDbEntity
100
AcDbCircle
8
0
10
-0.5
20
0.5
30
0
40
0.5
100
AcDbArc
50
90
51
180
0
LINE
5
4E70
330
4E65
100
AcDbEntity
100
AcDbLine
8
0
10
-1
20
0.5
30
0
11
-1
21
-0.5
31
0
0
ARC
5
4E71
330
4E65
100
AcDbEntity
100
AcDbCircle
8
0
10
-0.5
20
-0.5
30
0
40
0.5
100
AcDbArc
50
180
51
270
0
LINE
5
4E72
330
4E65
100
AcDbEntity
100
AcDbLine
8
0
10
-0.5
20
-0.75
30
0
11
0.5
21
-0.75
31
0
0
ARC
5
4E73
330
4E65
100
AcDbEntity
100
AcDbCircle
8
0
10
0.5
20
-0.5
30
0
40
0.25
100
AcDbArc
50
270
51
360
0
LINE
5
4E74
330
4E65
100
AcDbEntity
100
AcDbLine
8
0
10
0.75
20
-0.5
30
0
11
0.75
21
0.5
31
0
0
ARC
5
4E75
330
4E65
100
AcDbEntity
100
AcDbCircle
8
0
10
0.5
20
0.5
30
0
40
0.25
100
AcDbArc
50
0
51
90
0
LINE
5
4E76
330
4E65
100
AcDbEntity
100
AcDbLine
8
0
10
0.5
20
0.75
30
0
11
-0.5
21
0.75
31
0
0
ARC
5
4E77
330
4E65
100
AcDbEntity
100
AcDbCircle
8
0
10
-0.5
20
0.5
30
0
40
0.25
100
AcDbArc
50
90
51
180
0
LINE
5
4E78
330
4E65
100
AcDbEntity
100
AcDbLine
8
0
10
-0.75
20
0.5
30
0
11
-0.75
21
-0.5
31
0
0
ARC
5
4E79
330
4E65
100
AcDbEntity
100
AcDbCircle
8
0
10
-0.5
20
-0.5
30
0
40
0.25
100
AcDbArc
50
180
51
270
0
ENDSEC
0
SECTION
2
OBJECTS
0
DICTIONARY
5
4E55
330
0
100
AcDbDictionary
281
1
3
ACAD_GROUP
350
4E69
0
DICTIONARY
5
4E69
330
4E55
100
AcDbDictionary
281
1
0
ENDSEC
0
EOF