0
SECTION
2
HEADER
9
$HANDSEED
5
5433
9
$INSUNITS
70
1
9
$ACADVER
1
AC1021
0
ENDSEC
0
SECTION
2
CLASSES
0
ENDSEC
0
SECTION
2
TABLES
0
TABLE
2
LTYPE
5
5431
330
0
100
AcDbSymbolTable
70
5
0
LTYPE
5
540A
330
5431
100
AcDbSymbolTableRecord
100
AcDbLinetypeTableRecord
2
CONTINUOUS
3
______
70
0
72
65
73
0
40
0
0
LTYPE
5
540B
330
5431
100
AcDbSymbolTableRecord
100
AcDbLinetypeTableRecord
2
DASHED
3
_ _ _ 
70
0
72
65
73
2
40
10
49
5
74
0
49
-5
74
0
0
LTYPE
5
540C
330
5431
100
AcDbSymbolTableRecord
100
AcDbLinetypeTableRecord
2
DOTTED
3
. . . 
70
0
72
65
73
2
40
5
49
0
74
0
49
-5
74
0
0
LTYPE
5
540E
330
5431
100
AcDbSymbolTableRecord
100
AcDbLinetypeTableRecord
2
ByBlock
3

70
0
72
65
73
0
40
0
0
LTYPE
5
540F
330
5431
100
AcDbSymbolTableRecord
100
AcDbLinetypeTableRecord
2
ByLayer
3

70
0
72
65
73
0
40
0
0
ENDTAB
0
TABLE
2
LAYER
5
5432
330
0
100
AcDbSymbolTable
70
1
0
LAYER
5
540D
330
5432
100
AcDbSymbolTableRecord
100
AcDbLayerTableRecord
2
0
62
7
70
0
6
CONTINUOUS
390
1
0
ENDTAB
0
TABLE
2
VPORT
5
5410
330
0
100
AcDbSymbolTable
70
1
0
VPORT
5
5416
330
5410
100
AcDbSymbolTableRecord
100
AcDbViewportTableRecord
2
*ACTIVE
40
1000
70
0
0
ENDTAB
0
TABLE
2
STYLE
5
5411
330
0
100
AcDbSymbolTable
70
1
0
STYLE
5
5417
330
5411
100
AcDbSymbolTableRecord
100
AcDbTextStyleTableRecord
2
standard
70
0
40
0
41
1
50
0
71
0
42
1
3
txt
4

0
ENDTAB
0
TABLE
2
VIEW
5
5412
330
0
100
AcDbSymbolTable
70
0
0
ENDTAB
0
TABLE
2
UCS
5
5413
330
0
100
AcDbSymbolTable
70
0
0
ENDTAB
0
TABLE
2
APPID
5
5414
330
0
100
AcDbSymbolTable
70
1
0
APPID
5
5418
330
5414
100
AcDbSymbolTableRecord
100
AcDbRegAppTableRecord
2
ACAD
70
0
0
ENDTAB
0
TABLE
2
DIMSTYLE
5
5415
330
0
100
AcDbSymbolTable
100
AcDbDimStyleTable
70
0
71
1
0
ENDTAB
0
TABLE
2
BLOCK_RECORD
5
542E
330
0
100
AcDbSymbolTable
70
2
0
BLOCK_RECORD
5
542F
330
542E
100
AcDbSymbolTableRecord
100
AcDbBlockTableRecord
2
*Model_Space
70
0
280
0
281
1
0
BLOCK_RECORD
5
5430
330
542E
100
AcDbSymbolTableRecord
100
AcDbBlockTableRecord
2
*Paper_Space
70
0
280
0
281
1
0
ENDTAB
0
ENDSEC
0
SECTION
2
BLOCKS
0
BLOCK
5
5419
330
0
100
AcDbEntity
100
AcDbBlockBegin
2
*Model_Space
70
0
10
0
20
0
30
0
3
*Model_Space
1

0
ENDBLK
5
541A
330
0
100
AcDbEntity
100
AcDbBlockEnd
0
BLOCK
5
541B
330
0
100
AcDbEntity
100
AcDbBlockBegin
2
*Paper_Space
70
0
10
0
20
0
30
0
3
*Paper_Space
1

0
ENDBLK
5
541C
330
0
100
AcDbEntity
100
AcDbBlockEnd
0
ENDSEC
0
SECTION
2
ENTITIES
0
LINE
5
541E
330
5419
100
AcDbEntity
100
AcDbLine
8
0
10
-2.76
20
-3
30
0
11
2.76
21
-3
31
0
0
ARC
5
541F
330
5419
100
AcDbEntity
100
AcDbCircle
8
0
10
2.76
20
-2.76
30
0
40
0.24
100
AcDbArc
50
270
51
360
0
LINE
5
5420
330
5419
100
AcDbEntity
100
AcDbLine
8
0
10
3
20
-2.76
30
0
11
3
21
2.76
31
0
0
ARC
5
5421
330
5419
100
AcDbEntity
100
AcDbCircle
8
0
10
2.76
20
2.76
30
0
40
0.24
100
AcDbArc
50
0
51
90
0
LINE
5
5422
330
5419
100
AcDbEntity
100
AcDbLine
8
0
10
2.76
20
3
30
0
11
-2.76
21
3
31
0
0
ARC
5
5423
330
5419
100
AcDbEntity
100
AcDbCircle
8
0
10
-2.76
20
2.76
30
0
40
0.24
100
AcDbArc
50
90
51
180
0
LINE
5
5424
330
5419
100
AcDbEntity
100
AcDbLine
8
0
10
-3
20
2.76
30
0
11
-3
21
-2.76
31
0
0
ARC
5
5425
330
5419
100
AcDbEntity
100
AcDbCircle
8
0
10
-2.76
20
-2.76
30
0
40
0.24
100
AcDbArc
50
180
51
270
0
LINE
5
5426
330
5419
100
AcDbEntity
100
AcDbLine
8
0
10
-2.76
20
-2.88
30
0
11
2.76
21
-2.88
31
0
0
ARC
5
5427
330
5419
100
AcDbEntity
100
AcDbCircle
8
0
10
2.76
20
-2.76
30
0
40
0.12
100
AcDbArc
50
270
51
360
0
LINE
5
5428
330
5419
100
AcDbEntity
100
AcDbLine
8
0
10
2.88
20
-2.76
30
0
11
2.88
21
2.76
31
0
0
ARC
5
5429
330
5419
100
AcDbEntity
100
AcDbCircle
8
0
10
2.76
20
2.76
30
0
40
0.12
100
AcDbArc
50
0
51
90
0
LINE
5
542A
330
5419
100
AcDbEntity
100
AcDbLine
8
0
10
2.76
20
2.88
30
0
11
-2.76
21
2.88
31
0
0
ARC
5
542B
330
5419
100
AcDbEntity
100
AcDbCircle
8
0
10
-2.76
20
2.76
30
0
40
0.12
100
AcDbArc
50
90
51
180
0
LINE
5
542C
330
5419
100
AcDbEntity
100
AcDbLine
8
0
10
-2.88
20
2.76
30
0
11
-2.88
21
-2.76
31
0
0
ARC
5
542D
330
5419
100
AcDbEntity
100
AcDbCircle
8
0
10
-2.76
20
-2.76
30
0
40
0.12
100
AcDbArc
50
180
51
270
0
ENDSEC
0
SECTION
2
OBJECTS
0
DICTIONARY
5
5409
330
0
100
AcDbDictionary
281
1
3
ACAD_GROUP
350
541D
0
DICTIONARY
5
541D
330
5409
100
AcDbDictionary
281
1
0
ENDSEC
0
EOF