0
SECTION
2
HEADER
9
$HANDSEED
5
3E15
9
$INSUNITS
70
1
9
$ACADVER
1
AC1021
0
ENDSEC
0
SECTION
2
CLASSES
0
ENDSEC
0
SECTION
2
TABLES
0
TABLE
2
LTYPE
5
3E13
330
0
100
AcDbSymbolTable
70
5
0
LTYPE
5
3DF4
330
3E13
100
AcDbSymbolTableRecord
100
AcDbLinetypeTableRecord
2
CONTINUOUS
3
______
70
0
72
65
73
0
40
0
0
LTYPE
5
3DF5
330
3E13
100
AcDbSymbolTableRecord
100
AcDbLinetypeTableRecord
2
DASHED
3
_ _ _ 
70
0
72
65
73
2
40
10
49
5
74
0
49
-5
74
0
0
LTYPE
5
3DF6
330
3E13
100
AcDbSymbolTableRecord
100
AcDbLinetypeTableRecord
2
DOTTED
3
. . . 
70
0
72
65
73
2
40
5
49
0
74
0
49
-5
74
0
0
LTYPE
5
3DF8
330
3E13
100
AcDbSymbolTableRecord
100
AcDbLinetypeTableRecord
2
ByBlock
3

70
0
72
65
73
0
40
0
0
LTYPE
5
3DF9
330
3E13
100
AcDbSymbolTableRecord
100
AcDbLinetypeTableRecord
2
ByLayer
3

70
0
72
65
73
0
40
0
0
ENDTAB
0
TABLE
2
LAYER
5
3E14
330
0
100
AcDbSymbolTable
70
1
0
LAYER
5
3DF7
330
3E14
100
AcDbSymbolTableRecord
100
AcDbLayerTableRecord
2
0
62
7
70
0
6
CONTINUOUS
390
1
0
ENDTAB
0
TABLE
2
VPORT
5
3DFA
330
0
100
AcDbSymbolTable
70
1
0
VPORT
5
3E00
330
3DFA
100
AcDbSymbolTableRecord
100
AcDbViewportTableRecord
2
*ACTIVE
40
1000
70
0
0
ENDTAB
0
TABLE
2
STYLE
5
3DFB
330
0
100
AcDbSymbolTable
70
1
0
STYLE
5
3E01
330
3DFB
100
AcDbSymbolTableRecord
100
AcDbTextStyleTableRecord
2
standard
70
0
40
0
41
1
50
0
71
0
42
1
3
txt
4

0
ENDTAB
0
TABLE
2
VIEW
5
3DFC
330
0
100
AcDbSymbolTable
70
0
0
ENDTAB
0
TABLE
2
UCS
5
3DFD
330
0
100
AcDbSymbolTable
70
0
0
ENDTAB
0
TABLE
2
APPID
5
3DFE
330
0
100
AcDbSymbolTable
70
1
0
APPID
5
3E02
330
3DFE
100
AcDbSymbolTableRecord
100
AcDbRegAppTableRecord
2
ACAD
70
0
0
ENDTAB
0
TABLE
2
DIMSTYLE
5
3DFF
330
0
100
AcDbSymbolTable
100
AcDbDimStyleTable
70
0
71
1
0
ENDTAB
0
TABLE
2
BLOCK_RECORD
5
3E10
330
0
100
AcDbSymbolTable
70
2
0
BLOCK_RECORD
5
3E11
330
3E10
100
AcDbSymbolTableRecord
100
AcDbBlockTableRecord
2
*Model_Space
70
0
280
0
281
1
0
BLOCK_RECORD
5
3E12
330
3E10
100
AcDbSymbolTableRecord
100
AcDbBlockTableRecord
2
*Paper_Space
70
0
280
0
281
1
0
ENDTAB
0
ENDSEC
0
SECTION
2
BLOCKS
0
BLOCK
5
3E03
330
0
100
AcDbEntity
100
AcDbBlockBegin
2
*Model_Space
70
0
10
0
20
0
30
0
3
*Model_Space
1

0
ENDBLK
5
3E04
330
0
100
AcDbEntity
100
AcDbBlockEnd
0
BLOCK
5
3E05
330
0
100
AcDbEntity
100
AcDbBlockBegin
2
*Paper_Space
70
0
10
0
20
0
30
0
3
*Paper_Space
1

0
ENDBLK
5
3E06
330
0
100
AcDbEntity
100
AcDbBlockEnd
0
ENDSEC
0
SECTION
2
ENTITIES
0
LINE
5
3E08
330
3E03
100
AcDbEntity
100
AcDbLine
8
0
10
-1
20
-1
30
0
11
1
21
-1
31
0
0
LINE
5
3E09
330
3E03
100
AcDbEntity
100
AcDbLine
8
0
10
1
20
-1
30
0
11
1
21
1
31
0
0
LINE
5
3E0A
330
3E03
100
AcDbEntity
100
AcDbLine
8
0
10
1
20
1
30
0
11
-1
21
1
31
0
0
LINE
5
3E0B
330
3E03
100
AcDbEntity
100
AcDbLine
8
0
10
-1
20
1
30
0
11
-1
21
-1
31
0
0
LINE
5
3E0C
330
3E03
100
AcDbEntity
100
AcDbLine
8
0
10
-0.875
20
-0.875
30
0
11
0.875
21
-0.875
31
0
0
LINE
5
3E0D
330
3E03
100
AcDbEntity
100
AcDbLine
8
0
10
0.875
20
-0.875
30
0
11
0.875
21
0.875
31
0
0
LINE
5
3E0E
330
3E03
100
AcDbEntity
100
AcDbLine
8
0
10
0.875
20
0.875
30
0
11
-0.875
21
0.875
31
0
0
LINE
5
3E0F
330
3E03
100
AcDbEntity
100
AcDbLine
8
0
10
-0.875
20
0.875
30
0
11
-0.875
21
-0.875
31
0
0
ENDSEC
0
SECTION
2
OBJECTS
0
DICTIONARY
5
3DF3
330
0
100
AcDbDictionary
281
1
3
ACAD_GROUP
350
3E07
0
DICTIONARY
5
3E07
330
3DF3
100
AcDbDictionary
281
1
0
ENDSEC
0
EOF