0
SECTION
2
HEADER
9
$HANDSEED
5
3DAF
9
$INSUNITS
70
1
9
$ACADVER
1
AC1021
0
ENDSEC
0
SECTION
2
CLASSES
0
ENDSEC
0
SECTION
2
TABLES
0
TABLE
2
LTYPE
5
3DAD
330
0
100
AcDbSymbolTable
70
5
0
LTYPE
5
3D8E
330
3DAD
100
AcDbSymbolTableRecord
100
AcDbLinetypeTableRecord
2
CONTINUOUS
3
______
70
0
72
65
73
0
40
0
0
LTYPE
5
3D8F
330
3DAD
100
AcDbSymbolTableRecord
100
AcDbLinetypeTableRecord
2
DASHED
3
_ _ _ 
70
0
72
65
73
2
40
10
49
5
74
0
49
-5
74
0
0
LTYPE
5
3D90
330
3DAD
100
AcDbSymbolTableRecord
100
AcDbLinetypeTableRecord
2
DOTTED
3
. . . 
70
0
72
65
73
2
40
5
49
0
74
0
49
-5
74
0
0
LTYPE
5
3D92
330
3DAD
100
AcDbSymbolTableRecord
100
AcDbLinetypeTableRecord
2
ByBlock
3

70
0
72
65
73
0
40
0
0
LTYPE
5
3D93
330
3DAD
100
AcDbSymbolTableRecord
100
AcDbLinetypeTableRecord
2
ByLayer
3

70
0
72
65
73
0
40
0
0
ENDTAB
0
TABLE
2
LAYER
5
3DAE
330
0
100
AcDbSymbolTable
70
1
0
LAYER
5
3D91
330
3DAE
100
AcDbSymbolTableRecord
100
AcDbLayerTableRecord
2
0
62
7
70
0
6
CONTINUOUS
390
1
0
ENDTAB
0
TABLE
2
VPORT
5
3D94
330
0
100
AcDbSymbolTable
70
1
0
VPORT
5
3D9A
330
3D94
100
AcDbSymbolTableRecord
100
AcDbViewportTableRecord
2
*ACTIVE
40
1000
70
0
0
ENDTAB
0
TABLE
2
STYLE
5
3D95
330
0
100
AcDbSymbolTable
70
1
0
STYLE
5
3D9B
330
3D95
100
AcDbSymbolTableRecord
100
AcDbTextStyleTableRecord
2
standard
70
0
40
0
41
1
50
0
71
0
42
1
3
txt
4

0
ENDTAB
0
TABLE
2
VIEW
5
3D96
330
0
100
AcDbSymbolTable
70
0
0
ENDTAB
0
TABLE
2
UCS
5
3D97
330
0
100
AcDbSymbolTable
70
0
0
ENDTAB
0
TABLE
2
APPID
5
3D98
330
0
100
AcDbSymbolTable
70
1
0
APPID
5
3D9C
330
3D98
100
AcDbSymbolTableRecord
100
AcDbRegAppTableRecord
2
ACAD
70
0
0
ENDTAB
0
TABLE
2
DIMSTYLE
5
3D99
330
0
100
AcDbSymbolTable
100
AcDbDimStyleTable
70
0
71
1
0
ENDTAB
0
TABLE
2
BLOCK_RECORD
5
3DAA
330
0
100
AcDbSymbolTable
70
2
0
BLOCK_RECORD
5
3DAB
330
3DAA
100
AcDbSymbolTableRecord
100
AcDbBlockTableRecord
2
*Model_Space
70
0
280
0
281
1
0
BLOCK_RECORD
5
3DAC
330
3DAA
100
AcDbSymbolTableRecord
100
AcDbBlockTableRecord
2
*Paper_Space
70
0
280
0
281
1
0
ENDTAB
0
ENDSEC
0
SECTION
2
BLOCKS
0
BLOCK
5
3D9D
330
0
100
AcDbEntity
100
AcDbBlockBegin
2
*Model_Space
70
0
10
0
20
0
30
0
3
*Model_Space
1

0
ENDBLK
5
3D9E
330
0
100
AcDbEntity
100
AcDbBlockEnd
0
BLOCK
5
3D9F
330
0
100
AcDbEntity
100
AcDbBlockBegin
2
*Paper_Space
70
0
10
0
20
0
30
0
3
*Paper_Space
1

0
ENDBLK
5
3DA0
330
0
100
AcDbEntity
100
AcDbBlockEnd
0
ENDSEC
0
SECTION
2
ENTITIES
0
LINE
5
3DA2
330
3D9D
100
AcDbEntity
100
AcDbLine
8
0
10
-0.75
20
-0.75
30
0
11
0.75
21
-0.75
31
0
0
LINE
5
3DA3
330
3D9D
100
AcDbEntity
100
AcDbLine
8
0
10
0.75
20
-0.75
30
0
11
0.75
21
0.75
31
0
0
LINE
5
3DA4
330
3D9D
100
AcDbEntity
100
AcDbLine
8
0
10
0.75
20
0.75
30
0
11
-0.75
21
0.75
31
0
0
LINE
5
3DA5
330
3D9D
100
AcDbEntity
100
AcDbLine
8
0
10
-0.75
20
0.75
30
0
11
-0.75
21
-0.75
31
0
0
LINE
5
3DA6
330
3D9D
100
AcDbEntity
100
AcDbLine
8
0
10
-0.625
20
-0.625
30
0
11
0.625
21
-0.625
31
0
0
LINE
5
3DA7
330
3D9D
100
AcDbEntity
100
AcDbLine
8
0
10
0.625
20
-0.625
30
0
11
0.625
21
0.625
31
0
0
LINE
5
3DA8
330
3D9D
100
AcDbEntity
100
AcDbLine
8
0
10
0.625
20
0.625
30
0
11
-0.625
21
0.625
31
0
0
LINE
5
3DA9
330
3D9D
100
AcDbEntity
100
AcDbLine
8
0
10
-0.625
20
0.625
30
0
11
-0.625
21
-0.625
31
0
0
ENDSEC
0
SECTION
2
OBJECTS
0
DICTIONARY
5
3D8D
330
0
100
AcDbDictionary
281
1
3
ACAD_GROUP
350
3DA1
0
DICTIONARY
5
3DA1
330
3D8D
100
AcDbDictionary
281
1
0
ENDSEC
0
EOF