0
SECTION
2
HEADER
9
$HANDSEED
5
552F
9
$INSUNITS
70
1
9
$ACADVER
1
AC1021
0
ENDSEC
0
SECTION
2
CLASSES
0
ENDSEC
0
SECTION
2
TABLES
0
TABLE
2
LTYPE
5
552D
330
0
100
AcDbSymbolTable
70
5
0
LTYPE
5
5506
330
552D
100
AcDbSymbolTableRecord
100
AcDbLinetypeTableRecord
2
CONTINUOUS
3
______
70
0
72
65
73
0
40
0
0
LTYPE
5
5507
330
552D
100
AcDbSymbolTableRecord
100
AcDbLinetypeTableRecord
2
DASHED
3
_ _ _ 
70
0
72
65
73
2
40
10
49
5
74
0
49
-5
74
0
0
LTYPE
5
5508
330
552D
100
AcDbSymbolTableRecord
100
AcDbLinetypeTableRecord
2
DOTTED
3
. . . 
70
0
72
65
73
2
40
5
49
0
74
0
49
-5
74
0
0
LTYPE
5
550A
330
552D
100
AcDbSymbolTableRecord
100
AcDbLinetypeTableRecord
2
ByBlock
3

70
0
72
65
73
0
40
0
0
LTYPE
5
550B
330
552D
100
AcDbSymbolTableRecord
100
AcDbLinetypeTableRecord
2
ByLayer
3

70
0
72
65
73
0
40
0
0
ENDTAB
0
TABLE
2
LAYER
5
552E
330
0
100
AcDbSymbolTable
70
1
0
LAYER
5
5509
330
552E
100
AcDbSymbolTableRecord
100
AcDbLayerTableRecord
2
0
62
7
70
0
6
CONTINUOUS
390
1
0
ENDTAB
0
TABLE
2
VPORT
5
550C
330
0
100
AcDbSymbolTable
70
1
0
VPORT
5
5512
330
550C
100
AcDbSymbolTableRecord
100
AcDbViewportTableRecord
2
*ACTIVE
40
1000
70
0
0
ENDTAB
0
TABLE
2
STYLE
5
550D
330
0
100
AcDbSymbolTable
70
1
0
STYLE
5
5513
330
550D
100
AcDbSymbolTableRecord
100
AcDbTextStyleTableRecord
2
standard
70
0
40
0
41
1
50
0
71
0
42
1
3
txt
4

0
ENDTAB
0
TABLE
2
VIEW
5
550E
330
0
100
AcDbSymbolTable
70
0
0
ENDTAB
0
TABLE
2
UCS
5
550F
330
0
100
AcDbSymbolTable
70
0
0
ENDTAB
0
TABLE
2
APPID
5
5510
330
0
100
AcDbSymbolTable
70
1
0
APPID
5
5514
330
5510
100
AcDbSymbolTableRecord
100
AcDbRegAppTableRecord
2
ACAD
70
0
0
ENDTAB
0
TABLE
2
DIMSTYLE
5
5511
330
0
100
AcDbSymbolTable
100
AcDbDimStyleTable
70
0
71
1
0
ENDTAB
0
TABLE
2
BLOCK_RECORD
5
552A
330
0
100
AcDbSymbolTable
70
2
0
BLOCK_RECORD
5
552B
330
552A
100
AcDbSymbolTableRecord
100
AcDbBlockTableRecord
2
*Model_Space
70
0
280
0
281
1
0
BLOCK_RECORD
5
552C
330
552A
100
AcDbSymbolTableRecord
100
AcDbBlockTableRecord
2
*Paper_Space
70
0
280
0
281
1
0
ENDTAB
0
ENDSEC
0
SECTION
2
BLOCKS
0
BLOCK
5
5515
330
0
100
AcDbEntity
100
AcDbBlockBegin
2
*Model_Space
70
0
10
0
20
0
30
0
3
*Model_Space
1

0
ENDBLK
5
5516
330
0
100
AcDbEntity
100
AcDbBlockEnd
0
BLOCK
5
5517
330
0
100
AcDbEntity
100
AcDbBlockBegin
2
*Paper_Space
70
0
10
0
20
0
30
0
3
*Paper_Space
1

0
ENDBLK
5
5518
330
0
100
AcDbEntity
100
AcDbBlockEnd
0
ENDSEC
0
SECTION
2
ENTITIES
0
LINE
5
551A
330
5515
100
AcDbEntity
100
AcDbLine
8
0
10
-0.834
20
-1
30
0
11
0.834
21
-1
31
0
0
ARC
5
551B
330
5515
100
AcDbEntity
100
AcDbCircle
8
0
10
0.834
20
-0.834
30
0
40
0.166
100
AcDbArc
50
270
51
360
0
LINE
5
551C
330
5515
100
AcDbEntity
100
AcDbLine
8
0
10
1
20
-0.834
30
0
11
1
21
0.834
31
0
0
ARC
5
551D
330
5515
100
AcDbEntity
100
AcDbCircle
8
0
10
0.834
20
0.834
30
0
40
0.166
100
AcDbArc
50
0
51
90
0
LINE
5
551E
330
5515
100
AcDbEntity
100
AcDbLine
8
0
10
0.834
20
1
30
0
11
-0.834
21
1
31
0
0
ARC
5
551F
330
5515
100
AcDbEntity
100
AcDbCircle
8
0
10
-0.834
20
0.834
30
0
40
0.166
100
AcDbArc
50
90
51
180
0
LINE
5
5520
330
5515
100
AcDbEntity
100
AcDbLine
8
0
10
-1
20
0.834
30
0
11
-1
21
-0.834
31
0
0
ARC
5
5521
330
5515
100
AcDbEntity
100
AcDbCircle
8
0
10
-0.834
20
-0.834
30
0
40
0.166
100
AcDbArc
50
180
51
270
0
LINE
5
5522
330
5515
100
AcDbEntity
100
AcDbLine
8
0
10
-0.8340000000000001
20
-0.917
30
0
11
0.8340000000000001
21
-0.917
31
0
0
ARC
5
5523
330
5515
100
AcDbEntity
100
AcDbCircle
8
0
10
0.8340000000000001
20
-0.8340000000000001
30
0
40
0.083
100
AcDbArc
50
270
51
360
0
LINE
5
5524
330
5515
100
AcDbEntity
100
AcDbLine
8
0
10
0.917
20
-0.8340000000000001
30
0
11
0.917
21
0.8340000000000001
31
0
0
ARC
5
5525
330
5515
100
AcDbEntity
100
AcDbCircle
8
0
10
0.8340000000000001
20
0.8340000000000001
30
0
40
0.083
100
AcDbArc
50
0
51
90
0
LINE
5
5526
330
5515
100
AcDbEntity
100
AcDbLine
8
0
10
0.8340000000000001
20
0.917
30
0
11
-0.8340000000000001
21
0.917
31
0
0
ARC
5
5527
330
5515
100
AcDbEntity
100
AcDbCircle
8
0
10
-0.8340000000000001
20
0.8340000000000001
30
0
40
0.083
100
AcDbArc
50
90
51
180
0
LINE
5
5528
330
5515
100
AcDbEntity
100
AcDbLine
8
0
10
-0.917
20
0.8340000000000001
30
0
11
-0.917
21
-0.8340000000000001
31
0
0
ARC
5
5529
330
5515
100
AcDbEntity
100
AcDbCircle
8
0
10
-0.8340000000000001
20
-0.8340000000000001
30
0
40
0.083
100
AcDbArc
50
180
51
270
0
ENDSEC
0
SECTION
2
OBJECTS
0
DICTIONARY
5
5505
330
0
100
AcDbDictionary
281
1
3
ACAD_GROUP
350
5519
0
DICTIONARY
5
5519
330
5505
100
AcDbDictionary
281
1
0
ENDSEC
0
EOF