0
SECTION
2
HEADER
9
$HANDSEED
5
52FB
9
$INSUNITS
70
1
9
$ACADVER
1
AC1021
0
ENDSEC
0
SECTION
2
CLASSES
0
ENDSEC
0
SECTION
2
TABLES
0
TABLE
2
LTYPE
5
52F9
330
0
100
AcDbSymbolTable
70
5
0
LTYPE
5
52D2
330
52F9
100
AcDbSymbolTableRecord
100
AcDbLinetypeTableRecord
2
CONTINUOUS
3
______
70
0
72
65
73
0
40
0
0
LTYPE
5
52D3
330
52F9
100
AcDbSymbolTableRecord
100
AcDbLinetypeTableRecord
2
DASHED
3
_ _ _ 
70
0
72
65
73
2
40
10
49
5
74
0
49
-5
74
0
0
LTYPE
5
52D4
330
52F9
100
AcDbSymbolTableRecord
100
AcDbLinetypeTableRecord
2
DOTTED
3
. . . 
70
0
72
65
73
2
40
5
49
0
74
0
49
-5
74
0
0
LTYPE
5
52D6
330
52F9
100
AcDbSymbolTableRecord
100
AcDbLinetypeTableRecord
2
ByBlock
3

70
0
72
65
73
0
40
0
0
LTYPE
5
52D7
330
52F9
100
AcDbSymbolTableRecord
100
AcDbLinetypeTableRecord
2
ByLayer
3

70
0
72
65
73
0
40
0
0
ENDTAB
0
TABLE
2
LAYER
5
52FA
330
0
100
AcDbSymbolTable
70
1
0
LAYER
5
52D5
330
52FA
100
AcDbSymbolTableRecord
100
AcDbLayerTableRecord
2
0
62
7
70
0
6
CONTINUOUS
390
1
0
ENDTAB
0
TABLE
2
VPORT
5
52D8
330
0
100
AcDbSymbolTable
70
1
0
VPORT
5
52DE
330
52D8
100
AcDbSymbolTableRecord
100
AcDbViewportTableRecord
2
*ACTIVE
40
1000
70
0
0
ENDTAB
0
TABLE
2
STYLE
5
52D9
330
0
100
AcDbSymbolTable
70
1
0
STYLE
5
52DF
330
52D9
100
AcDbSymbolTableRecord
100
AcDbTextStyleTableRecord
2
standard
70
0
40
0
41
1
50
0
71
0
42
1
3
txt
4

0
ENDTAB
0
TABLE
2
VIEW
5
52DA
330
0
100
AcDbSymbolTable
70
0
0
ENDTAB
0
TABLE
2
UCS
5
52DB
330
0
100
AcDbSymbolTable
70
0
0
ENDTAB
0
TABLE
2
APPID
5
52DC
330
0
100
AcDbSymbolTable
70
1
0
APPID
5
52E0
330
52DC
100
AcDbSymbolTableRecord
100
AcDbRegAppTableRecord
2
ACAD
70
0
0
ENDTAB
0
TABLE
2
DIMSTYLE
5
52DD
330
0
100
AcDbSymbolTable
100
AcDbDimStyleTable
70
0
71
1
0
ENDTAB
0
TABLE
2
BLOCK_RECORD
5
52F6
330
0
100
AcDbSymbolTable
70
2
0
BLOCK_RECORD
5
52F7
330
52F6
100
AcDbSymbolTableRecord
100
AcDbBlockTableRecord
2
*Model_Space
70
0
280
0
281
1
0
BLOCK_RECORD
5
52F8
330
52F6
100
AcDbSymbolTableRecord
100
AcDbBlockTableRecord
2
*Paper_Space
70
0
280
0
281
1
0
ENDTAB
0
ENDSEC
0
SECTION
2
BLOCKS
0
BLOCK
5
52E1
330
0
100
AcDbEntity
100
AcDbBlockBegin
2
*Model_Space
70
0
10
0
20
0
30
0
3
*Model_Space
1

0
ENDBLK
5
52E2
330
0
100
AcDbEntity
100
AcDbBlockEnd
0
BLOCK
5
52E3
330
0
100
AcDbEntity
100
AcDbBlockBegin
2
*Paper_Space
70
0
10
0
20
0
30
0
3
*Paper_Space
1

0
ENDBLK
5
52E4
330
0
100
AcDbEntity
100
AcDbBlockEnd
0
ENDSEC
0
SECTION
2
ENTITIES
0
LINE
5
52E6
330
52E1
100
AcDbEntity
100
AcDbLine
8
0
10
-2.25
20
-2.5
30
0
11
2.25
21
-2.5
31
0
0
ARC
5
52E7
330
52E1
100
AcDbEntity
100
AcDbCircle
8
0
10
2.25
20
-2.25
30
0
40
0.25
100
AcDbArc
50
270
51
360
0
LINE
5
52E8
330
52E1
100
AcDbEntity
100
AcDbLine
8
0
10
2.5
20
-2.25
30
0
11
2.5
21
2.25
31
0
0
ARC
5
52E9
330
52E1
100
AcDbEntity
100
AcDbCircle
8
0
10
2.25
20
2.25
30
0
40
0.25
100
AcDbArc
50
0
51
90
0
LINE
5
52EA
330
52E1
100
AcDbEntity
100
AcDbLine
8
0
10
2.25
20
2.5
30
0
11
-2.25
21
2.5
31
0
0
ARC
5
52EB
330
52E1
100
AcDbEntity
100
AcDbCircle
8
0
10
-2.25
20
2.25
30
0
40
0.25
100
AcDbArc
50
90
51
180
0
LINE
5
52EC
330
52E1
100
AcDbEntity
100
AcDbLine
8
0
10
-2.5
20
2.25
30
0
11
-2.5
21
-2.25
31
0
0
ARC
5
52ED
330
52E1
100
AcDbEntity
100
AcDbCircle
8
0
10
-2.25
20
-2.25
30
0
40
0.25
100
AcDbArc
50
180
51
270
0
LINE
5
52EE
330
52E1
100
AcDbEntity
100
AcDbLine
8
0
10
-2.25
20
-2.375
30
0
11
2.25
21
-2.375
31
0
0
ARC
5
52EF
330
52E1
100
AcDbEntity
100
AcDbCircle
8
0
10
2.25
20
-2.25
30
0
40
0.125
100
AcDbArc
50
270
51
360
0
LINE
5
52F0
330
52E1
100
AcDbEntity
100
AcDbLine
8
0
10
2.375
20
-2.25
30
0
11
2.375
21
2.25
31
0
0
ARC
5
52F1
330
52E1
100
AcDbEntity
100
AcDbCircle
8
0
10
2.25
20
2.25
30
0
40
0.125
100
AcDbArc
50
0
51
90
0
LINE
5
52F2
330
52E1
100
AcDbEntity
100
AcDbLine
8
0
10
2.25
20
2.375
30
0
11
-2.25
21
2.375
31
0
0
ARC
5
52F3
330
52E1
100
AcDbEntity
100
AcDbCircle
8
0
10
-2.25
20
2.25
30
0
40
0.125
100
AcDbArc
50
90
51
180
0
LINE
5
52F4
330
52E1
100
AcDbEntity
100
AcDbLine
8
0
10
-2.375
20
2.25
30
0
11
-2.375
21
-2.25
31
0
0
ARC
5
52F5
330
52E1
100
AcDbEntity
100
AcDbCircle
8
0
10
-2.25
20
-2.25
30
0
40
0.125
100
AcDbArc
50
180
51
270
0
ENDSEC
0
SECTION
2
OBJECTS
0
DICTIONARY
5
52D1
330
0
100
AcDbDictionary
281
1
3
ACAD_GROUP
350
52E5
0
DICTIONARY
5
52E5
330
52D1
100
AcDbDictionary
281
1
0
ENDSEC
0
EOF