0
SECTION
2
HEADER
9
$HANDSEED
5
4843
9
$INSUNITS
70
1
9
$ACADVER
1
AC1021
0
ENDSEC
0
SECTION
2
CLASSES
0
ENDSEC
0
SECTION
2
TABLES
0
TABLE
2
LTYPE
5
4841
330
0
100
AcDbSymbolTable
70
5
0
LTYPE
5
481A
330
4841
100
AcDbSymbolTableRecord
100
AcDbLinetypeTableRecord
2
CONTINUOUS
3
______
70
0
72
65
73
0
40
0
0
LTYPE
5
481B
330
4841
100
AcDbSymbolTableRecord
100
AcDbLinetypeTableRecord
2
DASHED
3
_ _ _ 
70
0
72
65
73
2
40
10
49
5
74
0
49
-5
74
0
0
LTYPE
5
481C
330
4841
100
AcDbSymbolTableRecord
100
AcDbLinetypeTableRecord
2
DOTTED
3
. . . 
70
0
72
65
73
2
40
5
49
0
74
0
49
-5
74
0
0
LTYPE
5
481E
330
4841
100
AcDbSymbolTableRecord
100
AcDbLinetypeTableRecord
2
ByBlock
3

70
0
72
65
73
0
40
0
0
LTYPE
5
481F
330
4841
100
AcDbSymbolTableRecord
100
AcDbLinetypeTableRecord
2
ByLayer
3

70
0
72
65
73
0
40
0
0
ENDTAB
0
TABLE
2
LAYER
5
4842
330
0
100
AcDbSymbolTable
70
1
0
LAYER
5
481D
330
4842
100
AcDbSymbolTableRecord
100
AcDbLayerTableRecord
2
0
62
7
70
0
6
CONTINUOUS
390
1
0
ENDTAB
0
TABLE
2
VPORT
5
4820
330
0
100
AcDbSymbolTable
70
1
0
VPORT
5
4826
330
4820
100
AcDbSymbolTableRecord
100
AcDbViewportTableRecord
2
*ACTIVE
40
1000
70
0
0
ENDTAB
0
TABLE
2
STYLE
5
4821
330
0
100
AcDbSymbolTable
70
1
0
STYLE
5
4827
330
4821
100
AcDbSymbolTableRecord
100
AcDbTextStyleTableRecord
2
standard
70
0
40
0
41
1
50
0
71
0
42
1
3
txt
4

0
ENDTAB
0
TABLE
2
VIEW
5
4822
330
0
100
AcDbSymbolTable
70
0
0
ENDTAB
0
TABLE
2
UCS
5
4823
330
0
100
AcDbSymbolTable
70
0
0
ENDTAB
0
TABLE
2
APPID
5
4824
330
0
100
AcDbSymbolTable
70
1
0
APPID
5
4828
330
4824
100
AcDbSymbolTableRecord
100
AcDbRegAppTableRecord
2
ACAD
70
0
0
ENDTAB
0
TABLE
2
DIMSTYLE
5
4825
330
0
100
AcDbSymbolTable
100
AcDbDimStyleTable
70
0
71
1
0
ENDTAB
0
TABLE
2
BLOCK_RECORD
5
483E
330
0
100
AcDbSymbolTable
70
2
0
BLOCK_RECORD
5
483F
330
483E
100
AcDbSymbolTableRecord
100
AcDbBlockTableRecord
2
*Model_Space
70
0
280
0
281
1
0
BLOCK_RECORD
5
4840
330
483E
100
AcDbSymbolTableRecord
100
AcDbBlockTableRecord
2
*Paper_Space
70
0
280
0
281
1
0
ENDTAB
0
ENDSEC
0
SECTION
2
BLOCKS
0
BLOCK
5
4829
330
0
100
AcDbEntity
100
AcDbBlockBegin
2
*Model_Space
70
0
10
0
20
0
30
0
3
*Model_Space
1

0
ENDBLK
5
482A
330
0
100
AcDbEntity
100
AcDbBlockEnd
0
BLOCK
5
482B
330
0
100
AcDbEntity
100
AcDbBlockBegin
2
*Paper_Space
70
0
10
0
20
0
30
0
3
*Paper_Space
1

0
ENDBLK
5
482C
330
0
100
AcDbEntity
100
AcDbBlockEnd
0
ENDSEC
0
SECTION
2
ENTITIES
0
LINE
5
482E
330
4829
100
AcDbEntity
100
AcDbLine
8
0
10
-0.37
20
-0.5
30
0
11
0.37
21
-0.5
31
0
0
ARC
5
482F
330
4829
100
AcDbEntity
100
AcDbCircle
8
0
10
0.37
20
-0.37
30
0
40
0.13
100
AcDbArc
50
270
51
360
0
LINE
5
4830
330
4829
100
AcDbEntity
100
AcDbLine
8
0
10
0.5
20
-0.37
30
0
11
0.5
21
0.37
31
0
0
ARC
5
4831
330
4829
100
AcDbEntity
100
AcDbCircle
8
0
10
0.37
20
0.37
30
0
40
0.13
100
AcDbArc
50
0
51
90
0
LINE
5
4832
330
4829
100
AcDbEntity
100
AcDbLine
8
0
10
0.37
20
0.5
30
0
11
-0.37
21
0.5
31
0
0
ARC
5
4833
330
4829
100
AcDbEntity
100
AcDbCircle
8
0
10
-0.37
20
0.37
30
0
40
0.13
100
AcDbArc
50
90
51
180
0
LINE
5
4834
330
4829
100
AcDbEntity
100
AcDbLine
8
0
10
-0.5
20
0.37
30
0
11
-0.5
21
-0.37
31
0
0
ARC
5
4835
330
4829
100
AcDbEntity
100
AcDbCircle
8
0
10
-0.37
20
-0.37
30
0
40
0.13
100
AcDbArc
50
180
51
270
0
LINE
5
4836
330
4829
100
AcDbEntity
100
AcDbLine
8
0
10
-0.37
20
-0.435
30
0
11
0.37
21
-0.435
31
0
0
ARC
5
4837
330
4829
100
AcDbEntity
100
AcDbCircle
8
0
10
0.37
20
-0.37
30
0
40
0.065
100
AcDbArc
50
270
51
360
0
LINE
5
4838
330
4829
100
AcDbEntity
100
AcDbLine
8
0
10
0.435
20
-0.37
30
0
11
0.435
21
0.37
31
0
0
ARC
5
4839
330
4829
100
AcDbEntity
100
AcDbCircle
8
0
10
0.37
20
0.37
30
0
40
0.065
100
AcDbArc
50
0
51
90
0
LINE
5
483A
330
4829
100
AcDbEntity
100
AcDbLine
8
0
10
0.37
20
0.435
30
0
11
-0.37
21
0.435
31
0
0
ARC
5
483B
330
4829
100
AcDbEntity
100
AcDbCircle
8
0
10
-0.37
20
0.37
30
0
40
0.065
100
AcDbArc
50
90
51
180
0
LINE
5
483C
330
4829
100
AcDbEntity
100
AcDbLine
8
0
10
-0.435
20
0.37
30
0
11
-0.435
21
-0.37
31
0
0
ARC
5
483D
330
4829
100
AcDbEntity
100
AcDbCircle
8
0
10
-0.37
20
-0.37
30
0
40
0.065
100
AcDbArc
50
180
51
270
0
ENDSEC
0
SECTION
2
OBJECTS
0
DICTIONARY
5
4819
330
0
100
AcDbDictionary
281
1
3
ACAD_GROUP
350
482D
0
DICTIONARY
5
482D
330
4819
100
AcDbDictionary
281
1
0
ENDSEC
0
EOF