0
SECTION
2
HEADER
9
$HANDSEED
5
5487
9
$INSUNITS
70
1
9
$ACADVER
1
AC1021
0
ENDSEC
0
SECTION
2
CLASSES
0
ENDSEC
0
SECTION
2
TABLES
0
TABLE
2
LTYPE
5
5485
330
0
100
AcDbSymbolTable
70
5
0
LTYPE
5
545E
330
5485
100
AcDbSymbolTableRecord
100
AcDbLinetypeTableRecord
2
CONTINUOUS
3
______
70
0
72
65
73
0
40
0
0
LTYPE
5
545F
330
5485
100
AcDbSymbolTableRecord
100
AcDbLinetypeTableRecord
2
DASHED
3
_ _ _ 
70
0
72
65
73
2
40
10
49
5
74
0
49
-5
74
0
0
LTYPE
5
5460
330
5485
100
AcDbSymbolTableRecord
100
AcDbLinetypeTableRecord
2
DOTTED
3
. . . 
70
0
72
65
73
2
40
5
49
0
74
0
49
-5
74
0
0
LTYPE
5
5462
330
5485
100
AcDbSymbolTableRecord
100
AcDbLinetypeTableRecord
2
ByBlock
3

70
0
72
65
73
0
40
0
0
LTYPE
5
5463
330
5485
100
AcDbSymbolTableRecord
100
AcDbLinetypeTableRecord
2
ByLayer
3

70
0
72
65
73
0
40
0
0
ENDTAB
0
TABLE
2
LAYER
5
5486
330
0
100
AcDbSymbolTable
70
1
0
LAYER
5
5461
330
5486
100
AcDbSymbolTableRecord
100
AcDbLayerTableRecord
2
0
62
7
70
0
6
CONTINUOUS
390
1
0
ENDTAB
0
TABLE
2
VPORT
5
5464
330
0
100
AcDbSymbolTable
70
1
0
VPORT
5
546A
330
5464
100
AcDbSymbolTableRecord
100
AcDbViewportTableRecord
2
*ACTIVE
40
1000
70
0
0
ENDTAB
0
TABLE
2
STYLE
5
5465
330
0
100
AcDbSymbolTable
70
1
0
STYLE
5
546B
330
5465
100
AcDbSymbolTableRecord
100
AcDbTextStyleTableRecord
2
standard
70
0
40
0
41
1
50
0
71
0
42
1
3
txt
4

0
ENDTAB
0
TABLE
2
VIEW
5
5466
330
0
100
AcDbSymbolTable
70
0
0
ENDTAB
0
TABLE
2
UCS
5
5467
330
0
100
AcDbSymbolTable
70
0
0
ENDTAB
0
TABLE
2
APPID
5
5468
330
0
100
AcDbSymbolTable
70
1
0
APPID
5
546C
330
5468
100
AcDbSymbolTableRecord
100
AcDbRegAppTableRecord
2
ACAD
70
0
0
ENDTAB
0
TABLE
2
DIMSTYLE
5
5469
330
0
100
AcDbSymbolTable
100
AcDbDimStyleTable
70
0
71
1
0
ENDTAB
0
TABLE
2
BLOCK_RECORD
5
5482
330
0
100
AcDbSymbolTable
70
2
0
BLOCK_RECORD
5
5483
330
5482
100
AcDbSymbolTableRecord
100
AcDbBlockTableRecord
2
*Model_Space
70
0
280
0
281
1
0
BLOCK_RECORD
5
5484
330
5482
100
AcDbSymbolTableRecord
100
AcDbBlockTableRecord
2
*Paper_Space
70
0
280
0
281
1
0
ENDTAB
0
ENDSEC
0
SECTION
2
BLOCKS
0
BLOCK
5
546D
330
0
100
AcDbEntity
100
AcDbBlockBegin
2
*Model_Space
70
0
10
0
20
0
30
0
3
*Model_Space
1

0
ENDBLK
5
546E
330
0
100
AcDbEntity
100
AcDbBlockEnd
0
BLOCK
5
546F
330
0
100
AcDbEntity
100
AcDbBlockBegin
2
*Paper_Space
70
0
10
0
20
0
30
0
3
*Paper_Space
1

0
ENDBLK
5
5470
330
0
100
AcDbEntity
100
AcDbBlockEnd
0
ENDSEC
0
SECTION
2
ENTITIES
0
LINE
5
5472
330
546D
100
AcDbEntity
100
AcDbLine
8
0
10
-0.209
20
-0.375
30
0
11
0.209
21
-0.375
31
0
0
ARC
5
5473
330
546D
100
AcDbEntity
100
AcDbCircle
8
0
10
0.209
20
-0.209
30
0
40
0.166
100
AcDbArc
50
270
51
360
0
LINE
5
5474
330
546D
100
AcDbEntity
100
AcDbLine
8
0
10
0.375
20
-0.209
30
0
11
0.375
21
0.209
31
0
0
ARC
5
5475
330
546D
100
AcDbEntity
100
AcDbCircle
8
0
10
0.209
20
0.209
30
0
40
0.166
100
AcDbArc
50
0
51
90
0
LINE
5
5476
330
546D
100
AcDbEntity
100
AcDbLine
8
0
10
0.209
20
0.375
30
0
11
-0.209
21
0.375
31
0
0
ARC
5
5477
330
546D
100
AcDbEntity
100
AcDbCircle
8
0
10
-0.209
20
0.209
30
0
40
0.166
100
AcDbArc
50
90
51
180
0
LINE
5
5478
330
546D
100
AcDbEntity
100
AcDbLine
8
0
10
-0.375
20
0.209
30
0
11
-0.375
21
-0.209
31
0
0
ARC
5
5479
330
546D
100
AcDbEntity
100
AcDbCircle
8
0
10
-0.209
20
-0.209
30
0
40
0.166
100
AcDbArc
50
180
51
270
0
LINE
5
547A
330
546D
100
AcDbEntity
100
AcDbLine
8
0
10
-0.20899999999999996
20
-0.292
30
0
11
0.20899999999999996
21
-0.292
31
0
0
ARC
5
547B
330
546D
100
AcDbEntity
100
AcDbCircle
8
0
10
0.20899999999999996
20
-0.20899999999999996
30
0
40
0.083
100
AcDbArc
50
270
51
360
0
LINE
5
547C
330
546D
100
AcDbEntity
100
AcDbLine
8
0
10
0.292
20
-0.20899999999999996
30
0
11
0.292
21
0.20899999999999996
31
0
0
ARC
5
547D
330
546D
100
AcDbEntity
100
AcDbCircle
8
0
10
0.20899999999999996
20
0.20899999999999996
30
0
40
0.083
100
AcDbArc
50
0
51
90
0
LINE
5
547E
330
546D
100
AcDbEntity
100
AcDbLine
8
0
10
0.20899999999999996
20
0.292
30
0
11
-0.20899999999999996
21
0.292
31
0
0
ARC
5
547F
330
546D
100
AcDbEntity
100
AcDbCircle
8
0
10
-0.20899999999999996
20
0.20899999999999996
30
0
40
0.083
100
AcDbArc
50
90
51
180
0
LINE
5
5480
330
546D
100
AcDbEntity
100
AcDbLine
8
0
10
-0.292
20
0.20899999999999996
30
0
11
-0.292
21
-0.20899999999999996
31
0
0
ARC
5
5481
330
546D
100
AcDbEntity
100
AcDbCircle
8
0
10
-0.20899999999999996
20
-0.20899999999999996
30
0
40
0.083
100
AcDbArc
50
180
51
270
0
ENDSEC
0
SECTION
2
OBJECTS
0
DICTIONARY
5
545D
330
0
100
AcDbDictionary
281
1
3
ACAD_GROUP
350
5471
0
DICTIONARY
5
5471
330
545D
100
AcDbDictionary
281
1
0
ENDSEC
0
EOF