0
SECTION
2
HEADER
9
$HANDSEED
5
5505
9
$INSUNITS
70
1
9
$ACADVER
1
AC1021
0
ENDSEC
0
SECTION
2
CLASSES
0
ENDSEC
0
SECTION
2
TABLES
0
TABLE
2
LTYPE
5
5503
330
0
100
AcDbSymbolTable
70
5
0
LTYPE
5
54DC
330
5503
100
AcDbSymbolTableRecord
100
AcDbLinetypeTableRecord
2
CONTINUOUS
3
______
70
0
72
65
73
0
40
0
0
LTYPE
5
54DD
330
5503
100
AcDbSymbolTableRecord
100
AcDbLinetypeTableRecord
2
DASHED
3
_ _ _ 
70
0
72
65
73
2
40
10
49
5
74
0
49
-5
74
0
0
LTYPE
5
54DE
330
5503
100
AcDbSymbolTableRecord
100
AcDbLinetypeTableRecord
2
DOTTED
3
. . . 
70
0
72
65
73
2
40
5
49
0
74
0
49
-5
74
0
0
LTYPE
5
54E0
330
5503
100
AcDbSymbolTableRecord
100
AcDbLinetypeTableRecord
2
ByBlock
3

70
0
72
65
73
0
40
0
0
LTYPE
5
54E1
330
5503
100
AcDbSymbolTableRecord
100
AcDbLinetypeTableRecord
2
ByLayer
3

70
0
72
65
73
0
40
0
0
ENDTAB
0
TABLE
2
LAYER
5
5504
330
0
100
AcDbSymbolTable
70
1
0
LAYER
5
54DF
330
5504
100
AcDbSymbolTableRecord
100
AcDbLayerTableRecord
2
0
62
7
70
0
6
CONTINUOUS
390
1
0
ENDTAB
0
TABLE
2
VPORT
5
54E2
330
0
100
AcDbSymbolTable
70
1
0
VPORT
5
54E8
330
54E2
100
AcDbSymbolTableRecord
100
AcDbViewportTableRecord
2
*ACTIVE
40
1000
70
0
0
ENDTAB
0
TABLE
2
STYLE
5
54E3
330
0
100
AcDbSymbolTable
70
1
0
STYLE
5
54E9
330
54E3
100
AcDbSymbolTableRecord
100
AcDbTextStyleTableRecord
2
standard
70
0
40
0
41
1
50
0
71
0
42
1
3
txt
4

0
ENDTAB
0
TABLE
2
VIEW
5
54E4
330
0
100
AcDbSymbolTable
70
0
0
ENDTAB
0
TABLE
2
UCS
5
54E5
330
0
100
AcDbSymbolTable
70
0
0
ENDTAB
0
TABLE
2
APPID
5
54E6
330
0
100
AcDbSymbolTable
70
1
0
APPID
5
54EA
330
54E6
100
AcDbSymbolTableRecord
100
AcDbRegAppTableRecord
2
ACAD
70
0
0
ENDTAB
0
TABLE
2
DIMSTYLE
5
54E7
330
0
100
AcDbSymbolTable
100
AcDbDimStyleTable
70
0
71
1
0
ENDTAB
0
TABLE
2
BLOCK_RECORD
5
5500
330
0
100
AcDbSymbolTable
70
2
0
BLOCK_RECORD
5
5501
330
5500
100
AcDbSymbolTableRecord
100
AcDbBlockTableRecord
2
*Model_Space
70
0
280
0
281
1
0
BLOCK_RECORD
5
5502
330
5500
100
AcDbSymbolTableRecord
100
AcDbBlockTableRecord
2
*Paper_Space
70
0
280
0
281
1
0
ENDTAB
0
ENDSEC
0
SECTION
2
BLOCKS
0
BLOCK
5
54EB
330
0
100
AcDbEntity
100
AcDbBlockBegin
2
*Model_Space
70
0
10
0
20
0
30
0
3
*Model_Space
1

0
ENDBLK
5
54EC
330
0
100
AcDbEntity
100
AcDbBlockEnd
0
BLOCK
5
54ED
330
0
100
AcDbEntity
100
AcDbBlockBegin
2
*Paper_Space
70
0
10
0
20
0
30
0
3
*Paper_Space
1

0
ENDBLK
5
54EE
330
0
100
AcDbEntity
100
AcDbBlockEnd
0
ENDSEC
0
SECTION
2
ENTITIES
0
LINE
5
54F0
330
54EB
100
AcDbEntity
100
AcDbLine
8
0
10
-0.584
20
-0.75
30
0
11
0.584
21
-0.75
31
0
0
ARC
5
54F1
330
54EB
100
AcDbEntity
100
AcDbCircle
8
0
10
0.584
20
-0.584
30
0
40
0.166
100
AcDbArc
50
270
51
360
0
LINE
5
54F2
330
54EB
100
AcDbEntity
100
AcDbLine
8
0
10
0.75
20
-0.584
30
0
11
0.75
21
0.584
31
0
0
ARC
5
54F3
330
54EB
100
AcDbEntity
100
AcDbCircle
8
0
10
0.584
20
0.584
30
0
40
0.166
100
AcDbArc
50
0
51
90
0
LINE
5
54F4
330
54EB
100
AcDbEntity
100
AcDbLine
8
0
10
0.584
20
0.75
30
0
11
-0.584
21
0.75
31
0
0
ARC
5
54F5
330
54EB
100
AcDbEntity
100
AcDbCircle
8
0
10
-0.584
20
0.584
30
0
40
0.166
100
AcDbArc
50
90
51
180
0
LINE
5
54F6
330
54EB
100
AcDbEntity
100
AcDbLine
8
0
10
-0.75
20
0.584
30
0
11
-0.75
21
-0.584
31
0
0
ARC
5
54F7
330
54EB
100
AcDbEntity
100
AcDbCircle
8
0
10
-0.584
20
-0.584
30
0
40
0.166
100
AcDbArc
50
180
51
270
0
LINE
5
54F8
330
54EB
100
AcDbEntity
100
AcDbLine
8
0
10
-0.5840000000000001
20
-0.667
30
0
11
0.5840000000000001
21
-0.667
31
0
0
ARC
5
54F9
330
54EB
100
AcDbEntity
100
AcDbCircle
8
0
10
0.5840000000000001
20
-0.5840000000000001
30
0
40
0.083
100
AcDbArc
50
270
51
360
0
LINE
5
54FA
330
54EB
100
AcDbEntity
100
AcDbLine
8
0
10
0.667
20
-0.5840000000000001
30
0
11
0.667
21
0.5840000000000001
31
0
0
ARC
5
54FB
330
54EB
100
AcDbEntity
100
AcDbCircle
8
0
10
0.5840000000000001
20
0.5840000000000001
30
0
40
0.083
100
AcDbArc
50
0
51
90
0
LINE
5
54FC
330
54EB
100
AcDbEntity
100
AcDbLine
8
0
10
0.5840000000000001
20
0.667
30
0
11
-0.5840000000000001
21
0.667
31
0
0
ARC
5
54FD
330
54EB
100
AcDbEntity
100
AcDbCircle
8
0
10
-0.5840000000000001
20
0.5840000000000001
30
0
40
0.083
100
AcDbArc
50
90
51
180
0
LINE
5
54FE
330
54EB
100
AcDbEntity
100
AcDbLine
8
0
10
-0.667
20
0.5840000000000001
30
0
11
-0.667
21
-0.5840000000000001
31
0
0
ARC
5
54FF
330
54EB
100
AcDbEntity
100
AcDbCircle
8
0
10
-0.5840000000000001
20
-0.5840000000000001
30
0
40
0.083
100
AcDbArc
50
180
51
270
0
ENDSEC
0
SECTION
2
OBJECTS
0
DICTIONARY
5
54DB
330
0
100
AcDbDictionary
281
1
3
ACAD_GROUP
350
54EF
0
DICTIONARY
5
54EF
330
54DB
100
AcDbDictionary
281
1
0
ENDSEC
0
EOF